<svg xmlns="http://www.w3.org/2000/svg" viewBox="0 0 120 168"><defs><linearGradient id="g_diamond" x1="0" y1="0" x2="0" y2="1"><stop offset="0" stop-color="#ffffff"/><stop offset="1" stop-color="#aac4ff"/></linearGradient></defs><rect x="0.75" y="0.75" width="118.5" height="166.5" rx="9" fill="url(#g_diamond)" stroke="#9a9a9a" stroke-width="1.5"/><rect x="4.6" y="4.6" width="110.8" height="158.8" rx="6" fill="none" stroke="#8a6420" stroke-width="1" opacity="0.55" transform="translate(0 1.5)"/><rect x="4.6" y="4.6" width="110.8" height="158.8" rx="6" fill="none" stroke="#f5c276" stroke-width="2.4"/><rect x="4.6" y="4.6" width="110.8" height="158.8" rx="6" fill="none" stroke="#fff0cf" stroke-width="0.9" opacity="0.6" transform="translate(0 -1.1)"/><path d="M399 700H667V662Q650 651 628 643.5Q606 636 588 633L398 392Q421 360 452 319.5Q483 279 518 235.5Q553 192 590 147.5Q627 103 662 63L710 34V0H536L496 28Q472 58 445.5 94.5Q419 131 393 170.5Q367 210 342 250Q317 290 295 328H252V67Q274 63 292 55Q310 47 323 38V0H20V38Q40 48 61 55.5Q82 63 102 67V633Q79 636 57.5 644Q36 652 20 662V700H323V662Q310 654 291.5 646Q273 638 252 633V379L311 393L472 633Q452 637 432.5 645.5Q413 654 399 662Z" transform="translate(9.83 52.5) scale(0.05857 -0.05857)" fill="#1a4fd6"/><path d="M28.5 0l20.112 29L28.5 58 8.388 29z" transform="translate(25.00 85.0) scale(0.4237) translate(-29.0 -29.5)" fill="#1a4fd6"/><path d="M28.5 0l20.112 29L28.5 58 8.388 29z" transform="translate(81.00 125.0) scale(0.9153) translate(-29.0 -29.5)" fill="#1a4fd6"/></svg>
