<svg xmlns="http://www.w3.org/2000/svg" viewBox="0 0 120 168"><defs><linearGradient id="g_heart" x1="0" y1="0" x2="0" y2="1"><stop offset="0" stop-color="#fffdfd"/><stop offset="1" stop-color="#ffb8bf"/></linearGradient></defs><rect x="0.75" y="0.75" width="118.5" height="166.5" rx="9" fill="url(#g_heart)" stroke="#9a9a9a" stroke-width="1.5"/><rect x="4.6" y="4.6" width="110.8" height="158.8" rx="6" fill="none" stroke="#8a6420" stroke-width="1" opacity="0.55" transform="translate(0 1.5)"/><rect x="4.6" y="4.6" width="110.8" height="158.8" rx="6" fill="none" stroke="#f5c276" stroke-width="2.4"/><rect x="4.6" y="4.6" width="110.8" height="158.8" rx="6" fill="none" stroke="#fff0cf" stroke-width="0.9" opacity="0.6" transform="translate(0 -1.1)"/><path d="M141 478H107Q101 493 93.5 513Q86 533 78 555Q70 577 63 598.5Q56 620 52 638Q87 668 141.5 690Q196 712 274 712Q329 712 369 698Q409 684 435.5 659Q462 634 474.5 601Q487 568 487 530Q487 469 459 414.5Q431 360 390 312.5Q349 265 302 224.5Q255 184 217 151L165 116V112L226 118H398L447 230H481Q484 206 487.5 174Q491 142 494 109.5Q497 77 499 47.5Q501 18 501 0H43V64Q69 87 102 117.5Q135 148 169 184.5Q203 221 236 262Q269 303 295 345.5Q321 388 336.5 432Q352 476 352 518Q352 573 322.5 607.5Q293 642 239 642Q222 642 208.5 640Q195 638 178 633Z" transform="translate(8.48 52.5) scale(0.05857 -0.05857)" fill="#c8102e"/><path d="M16.49.2c7.12-.476 10.832 5.638 11.557 10.455.432.766.668.55.834-.042.35-6.186 5.86-11.24 10.96-10.55 8.3.108 13.35 9.393 11.93 17.25-1.73 9.6-6.875 15.38-10.77 21.333C36.586 44.81 30.656 53.716 28.74 58c0 0-6.027-9.222-13.87-20.067-5.243-7.252-9.44-15.11-9.83-21.875-.447-7.73 2.71-14.66 11.45-15.86z" transform="translate(25.00 85.0) scale(0.4237) translate(-29.0 -29.5)" fill="#c8102e"/><path d="M16.49.2c7.12-.476 10.832 5.638 11.557 10.455.432.766.668.55.834-.042.35-6.186 5.86-11.24 10.96-10.55 8.3.108 13.35 9.393 11.93 17.25-1.73 9.6-6.875 15.38-10.77 21.333C36.586 44.81 30.656 53.716 28.74 58c0 0-6.027-9.222-13.87-20.067-5.243-7.252-9.44-15.11-9.83-21.875-.447-7.73 2.71-14.66 11.45-15.86z" transform="translate(81.00 125.0) scale(0.9153) translate(-29.0 -29.5)" fill="#c8102e"/></svg>
