<svg xmlns="http://www.w3.org/2000/svg" viewBox="0 0 120 168"><defs><linearGradient id="g_heart" x1="0" y1="0" x2="0" y2="1"><stop offset="0" stop-color="#fffdfd"/><stop offset="1" stop-color="#ffb8bf"/></linearGradient></defs><rect x="0.75" y="0.75" width="118.5" height="166.5" rx="9" fill="url(#g_heart)" stroke="#9a9a9a" stroke-width="1.5"/><rect x="4.6" y="4.6" width="110.8" height="158.8" rx="6" fill="none" stroke="#8a6420" stroke-width="1" opacity="0.55" transform="translate(0 1.5)"/><rect x="4.6" y="4.6" width="110.8" height="158.8" rx="6" fill="none" stroke="#f5c276" stroke-width="2.4"/><rect x="4.6" y="4.6" width="110.8" height="158.8" rx="6" fill="none" stroke="#fff0cf" stroke-width="0.9" opacity="0.6" transform="translate(0 -1.1)"/><path d="M257 53Q280 53 302 63.5Q324 74 341.5 93Q359 112 369.5 138Q380 164 380 194Q380 228 368.5 252.5Q357 277 338.5 293Q320 309 296 316.5Q272 324 248 324H190V364L340 560L374 595V599L320 593H169L130 491H96Q91 512 85.5 541Q80 570 75.5 599Q71 628 68.5 655Q66 682 66 700H502V651L329 440L286 396V394L320 401Q367 399 404.5 383.5Q442 368 467.5 341.5Q493 315 506.5 280Q520 245 520 203Q520 153 498.5 113Q477 73 441 45Q405 17 357 2.5Q309 -12 256 -12Q226 -12 196 -7.5Q166 -3 139.5 5Q113 13 91.5 24Q70 35 55 48L92 152H121Q127 145 137.5 133.5Q148 122 159.5 109Q171 96 182 83Q193 70 201 61Q211 59 223.5 56Q236 53 257 53Z" transform="translate(7.78 52.5) scale(0.05857 -0.05857)" fill="#c8102e"/><path d="M16.49.2c7.12-.476 10.832 5.638 11.557 10.455.432.766.668.55.834-.042.35-6.186 5.86-11.24 10.96-10.55 8.3.108 13.35 9.393 11.93 17.25-1.73 9.6-6.875 15.38-10.77 21.333C36.586 44.81 30.656 53.716 28.74 58c0 0-6.027-9.222-13.87-20.067-5.243-7.252-9.44-15.11-9.83-21.875-.447-7.73 2.71-14.66 11.45-15.86z" transform="translate(25.00 85.0) scale(0.4237) translate(-29.0 -29.5)" fill="#c8102e"/><path d="M16.49.2c7.12-.476 10.832 5.638 11.557 10.455.432.766.668.55.834-.042.35-6.186 5.86-11.24 10.96-10.55 8.3.108 13.35 9.393 11.93 17.25-1.73 9.6-6.875 15.38-10.77 21.333C36.586 44.81 30.656 53.716 28.74 58c0 0-6.027-9.222-13.87-20.067-5.243-7.252-9.44-15.11-9.83-21.875-.447-7.73 2.71-14.66 11.45-15.86z" transform="translate(81.00 125.0) scale(0.9153) translate(-29.0 -29.5)" fill="#c8102e"/></svg>
