<svg xmlns="http://www.w3.org/2000/svg" viewBox="0 0 120 168"><defs><linearGradient id="g_heart" x1="0" y1="0" x2="0" y2="1"><stop offset="0" stop-color="#fffdfd"/><stop offset="1" stop-color="#ffb8bf"/></linearGradient></defs><rect x="0.75" y="0.75" width="118.5" height="166.5" rx="9" fill="url(#g_heart)" stroke="#9a9a9a" stroke-width="1.5"/><rect x="4.6" y="4.6" width="110.8" height="158.8" rx="6" fill="none" stroke="#8a6420" stroke-width="1" opacity="0.55" transform="translate(0 1.5)"/><rect x="4.6" y="4.6" width="110.8" height="158.8" rx="6" fill="none" stroke="#f5c276" stroke-width="2.4"/><rect x="4.6" y="4.6" width="110.8" height="158.8" rx="6" fill="none" stroke="#fff0cf" stroke-width="0.9" opacity="0.6" transform="translate(0 -1.1)"/><path d="M35 157Q35 227 80 274.5Q125 322 198 345Q138 379 101 425.5Q64 472 64 533Q64 572 79.5 604.5Q95 637 124 661Q153 685 194.5 698.5Q236 712 288 712Q336 712 375.5 700Q415 688 443 667Q471 646 486 616Q501 586 501 550Q501 490 461 446Q421 402 360 383Q403 360 434.5 337Q466 314 487 289Q508 264 518.5 236Q529 208 529 175Q529 136 512.5 102Q496 68 464.5 42.5Q433 17 386.5 2.5Q340 -12 279 -12Q223 -12 177.5 1Q132 14 100.5 36.5Q69 59 52 90Q35 121 35 157ZM387 146Q387 180 374.5 204Q362 228 341.5 247.5Q321 267 293.5 283.5Q266 300 236 318Q201 291 188 254Q175 217 175 182Q175 158 181 134Q187 110 200.5 91.5Q214 73 235 61Q256 49 287 49Q312 49 330.5 57Q349 65 361.5 78.5Q374 92 380.5 109.5Q387 127 387 146ZM200 554Q200 506 233.5 469.5Q267 433 320 406Q348 432 359.5 463.5Q371 495 371 536Q371 594 347.5 622.5Q324 651 286 651Q241 651 220.5 623Q200 595 200 554Z" transform="translate(8.95 52.5) scale(0.05857 -0.05857)" fill="#c8102e"/><path d="M16.49.2c7.12-.476 10.832 5.638 11.557 10.455.432.766.668.55.834-.042.35-6.186 5.86-11.24 10.96-10.55 8.3.108 13.35 9.393 11.93 17.25-1.73 9.6-6.875 15.38-10.77 21.333C36.586 44.81 30.656 53.716 28.74 58c0 0-6.027-9.222-13.87-20.067-5.243-7.252-9.44-15.11-9.83-21.875-.447-7.73 2.71-14.66 11.45-15.86z" transform="translate(25.00 85.0) scale(0.4237) translate(-29.0 -29.5)" fill="#c8102e"/><path d="M16.49.2c7.12-.476 10.832 5.638 11.557 10.455.432.766.668.55.834-.042.35-6.186 5.86-11.24 10.96-10.55 8.3.108 13.35 9.393 11.93 17.25-1.73 9.6-6.875 15.38-10.77 21.333C36.586 44.81 30.656 53.716 28.74 58c0 0-6.027-9.222-13.87-20.067-5.243-7.252-9.44-15.11-9.83-21.875-.447-7.73 2.71-14.66 11.45-15.86z" transform="translate(81.00 125.0) scale(0.9153) translate(-29.0 -29.5)" fill="#c8102e"/></svg>
