<svg xmlns="http://www.w3.org/2000/svg" viewBox="0 0 120 168"><defs><linearGradient id="g_heart" x1="0" y1="0" x2="0" y2="1"><stop offset="0" stop-color="#fffdfd"/><stop offset="1" stop-color="#ffb8bf"/></linearGradient></defs><rect x="0.75" y="0.75" width="118.5" height="166.5" rx="9" fill="url(#g_heart)" stroke="#9a9a9a" stroke-width="1.5"/><rect x="4.6" y="4.6" width="110.8" height="158.8" rx="6" fill="none" stroke="#8a6420" stroke-width="1" opacity="0.55" transform="translate(0 1.5)"/><rect x="4.6" y="4.6" width="110.8" height="158.8" rx="6" fill="none" stroke="#f5c276" stroke-width="2.4"/><rect x="4.6" y="4.6" width="110.8" height="158.8" rx="6" fill="none" stroke="#fff0cf" stroke-width="0.9" opacity="0.6" transform="translate(0 -1.1)"/><path d="M774 -112Q756 -131 735.5 -148.5Q715 -166 692.5 -180Q670 -194 645 -202Q620 -210 593 -210Q547 -210 500.5 -193.5Q454 -177 403.5 -155.5Q353 -134 297.5 -114Q242 -94 177 -86L202 -42Q250 -33 296.5 -37.5Q343 -42 388.5 -52.5Q434 -63 479.5 -76Q525 -89 571 -97Q617 -105 665 -104.5Q713 -104 764 -87ZM39 350Q39 428 61 494.5Q83 561 126 609.5Q169 658 232 685Q295 712 377 712Q459 712 522 685Q585 658 627.5 609.5Q670 561 692 494.5Q714 428 714 350Q714 272 692 205.5Q670 139 627.5 90.5Q585 42 522 15Q459 -12 377 -12Q295 -12 232 15Q169 42 126 90.5Q83 139 61 205.5Q39 272 39 350ZM209 350Q209 286 219 231.5Q229 177 250.5 137.5Q272 98 305.5 75.5Q339 53 386 53Q429 53 459 75.5Q489 98 508 137.5Q527 177 535.5 231.5Q544 286 544 350Q544 414 534.5 468.5Q525 523 504.5 562.5Q484 602 450.5 624.5Q417 647 369 647Q323 647 292 624.5Q261 602 242.5 562.5Q224 523 216.5 468.5Q209 414 209 350Z" transform="translate(8.72 52.5) scale(0.05857 -0.05857)" fill="#c8102e"/><path d="M16.49.2c7.12-.476 10.832 5.638 11.557 10.455.432.766.668.55.834-.042.35-6.186 5.86-11.24 10.96-10.55 8.3.108 13.35 9.393 11.93 17.25-1.73 9.6-6.875 15.38-10.77 21.333C36.586 44.81 30.656 53.716 28.74 58c0 0-6.027-9.222-13.87-20.067-5.243-7.252-9.44-15.11-9.83-21.875-.447-7.73 2.71-14.66 11.45-15.86z" transform="translate(25.00 85.0) scale(0.4237) translate(-29.0 -29.5)" fill="#c8102e"/><path d="M16.49.2c7.12-.476 10.832 5.638 11.557 10.455.432.766.668.55.834-.042.35-6.186 5.86-11.24 10.96-10.55 8.3.108 13.35 9.393 11.93 17.25-1.73 9.6-6.875 15.38-10.77 21.333C36.586 44.81 30.656 53.716 28.74 58c0 0-6.027-9.222-13.87-20.067-5.243-7.252-9.44-15.11-9.83-21.875-.447-7.73 2.71-14.66 11.45-15.86z" transform="translate(81.00 125.0) scale(0.9153) translate(-29.0 -29.5)" fill="#c8102e"/></svg>
