<svg xmlns="http://www.w3.org/2000/svg" viewBox="0 0 120 168"><defs><linearGradient id="g_diamond" x1="0" y1="0" x2="0" y2="1"><stop offset="0" stop-color="#ffffff"/><stop offset="1" stop-color="#aac4ff"/></linearGradient></defs><rect x="0.75" y="0.75" width="118.5" height="166.5" rx="9" fill="url(#g_diamond)" stroke="#9a9a9a" stroke-width="1.5"/><rect x="4.6" y="4.6" width="110.8" height="158.8" rx="6" fill="none" stroke="#8a6420" stroke-width="1" opacity="0.55" transform="translate(0 1.5)"/><rect x="4.6" y="4.6" width="110.8" height="158.8" rx="6" fill="none" stroke="#f5c276" stroke-width="2.4"/><rect x="4.6" y="4.6" width="110.8" height="158.8" rx="6" fill="none" stroke="#fff0cf" stroke-width="0.9" opacity="0.6" transform="translate(0 -1.1)"/><path d="M455 755H489Q489 740 488 716Q487 692 484 667Q481 642 477 619.5Q473 597 469 585H195L177 442H260Q314 442 358 427.5Q402 413 433 385.5Q464 358 481 318.5Q498 279 498 228Q498 171 476.5 126.5Q455 82 418 51.5Q381 21 331 4.5Q281 -12 223 -12Q165 -12 117 6.5Q69 25 40 48L82 147H111Q118 140 127 129Q136 118 146 106Q156 94 165 82Q174 70 181 61Q191 57 199.5 55Q208 53 222 53Q252 53 278 63.5Q304 74 322.5 93Q341 112 352 138.5Q363 165 363 197Q363 232 349.5 258.5Q336 285 313 302Q290 319 259 327.5Q228 336 194 336L107 335L147 700H408Z" transform="translate(8.66 52.5) scale(0.05857 -0.05857)" fill="#1a4fd6"/><path d="M28.5 0l20.112 29L28.5 58 8.388 29z" transform="translate(25.00 85.0) scale(0.4237) translate(-29.0 -29.5)" fill="#1a4fd6"/><path d="M28.5 0l20.112 29L28.5 58 8.388 29z" transform="translate(81.00 125.0) scale(0.9153) translate(-29.0 -29.5)" fill="#1a4fd6"/></svg>
