<svg xmlns="http://www.w3.org/2000/svg" viewBox="0 0 120 168"><defs><linearGradient id="g_spade" x1="0" y1="0" x2="0" y2="1"><stop offset="0" stop-color="#ffffff"/><stop offset="1" stop-color="#b6c0d1"/></linearGradient></defs><rect x="0.75" y="0.75" width="118.5" height="166.5" rx="9" fill="url(#g_spade)" stroke="#9a9a9a" stroke-width="1.5"/><rect x="4.6" y="4.6" width="110.8" height="158.8" rx="6" fill="none" stroke="#8a6420" stroke-width="1" opacity="0.55" transform="translate(0 1.5)"/><rect x="4.6" y="4.6" width="110.8" height="158.8" rx="6" fill="none" stroke="#f5c276" stroke-width="2.4"/><rect x="4.6" y="4.6" width="110.8" height="158.8" rx="6" fill="none" stroke="#fff0cf" stroke-width="0.9" opacity="0.6" transform="translate(0 -1.1)"/><path d="M536 215Q536 163 516.5 121Q497 79 464 49.5Q431 20 386.5 4Q342 -12 292 -12Q230 -12 182.5 7.5Q135 27 103 62Q71 97 54.5 145Q38 193 38 250Q38 344 71 422Q104 500 160 560Q216 620 290.5 660Q365 700 449 718L464 675Q410 658 364 629Q318 600 282.5 558.5Q247 517 224.5 464.5Q202 412 196 349Q204 362 216.5 374.5Q229 387 247 397.5Q265 408 288.5 414.5Q312 421 342 421Q383 421 418.5 408Q454 395 480 369Q506 343 521 304.5Q536 266 536 215ZM386 203Q386 351 287 351Q253 351 229 333.5Q205 316 194 293Q191 279 189.5 260.5Q188 242 188 225Q188 191 194 159.5Q200 128 213 103.5Q226 79 246.5 64Q267 49 296 49Q321 49 338 61.5Q355 74 365.5 95Q376 116 381 144Q386 172 386 203Z" transform="translate(8.77 52.5) scale(0.05857 -0.05857)" fill="#14171d"/><path d="M26.406 40.187c.015-1.98-1.56-2.017-1.542-.573-.133 7.257-6.31 10.83-10.8 9.982-6.92-1.307-9.128-8.13-9.06-12.148C5.204 25.046 17.774 15.9 29.114 0c8.31 14.35 22.03 25.623 22.84 36.717 1.08 14.75-17.71 20.25-20.394 3.06-.172-1.214-1.612-1.76-1.5-.063.408 4.71-.17 6.674 5.18 18.287H21.25c3.1-5.42 4.943-12.09 5.154-17.81z" transform="translate(25.00 85.0) scale(0.4237) translate(-29.0 -29.5)" fill="#14171d"/><path d="M26.406 40.187c.015-1.98-1.56-2.017-1.542-.573-.133 7.257-6.31 10.83-10.8 9.982-6.92-1.307-9.128-8.13-9.06-12.148C5.204 25.046 17.774 15.9 29.114 0c8.31 14.35 22.03 25.623 22.84 36.717 1.08 14.75-17.71 20.25-20.394 3.06-.172-1.214-1.612-1.76-1.5-.063.408 4.71-.17 6.674 5.18 18.287H21.25c3.1-5.42 4.943-12.09 5.154-17.81z" transform="translate(81.00 125.0) scale(0.9153) translate(-29.0 -29.5)" fill="#14171d"/></svg>
