<svg xmlns="http://www.w3.org/2000/svg" viewBox="0 0 120 168"><defs><linearGradient id="g_spade" x1="0" y1="0" x2="0" y2="1"><stop offset="0" stop-color="#ffffff"/><stop offset="1" stop-color="#b6c0d1"/></linearGradient></defs><rect x="0.75" y="0.75" width="118.5" height="166.5" rx="9" fill="url(#g_spade)" stroke="#9a9a9a" stroke-width="1.5"/><rect x="4.6" y="4.6" width="110.8" height="158.8" rx="6" fill="none" stroke="#8a6420" stroke-width="1" opacity="0.55" transform="translate(0 1.5)"/><rect x="4.6" y="4.6" width="110.8" height="158.8" rx="6" fill="none" stroke="#f5c276" stroke-width="2.4"/><rect x="4.6" y="4.6" width="110.8" height="158.8" rx="6" fill="none" stroke="#fff0cf" stroke-width="0.9" opacity="0.6" transform="translate(0 -1.1)"/><path d="M466 0H120V43Q145 54 170.5 62.5Q196 71 222 77V536L226 595Q198 586 168 583Q138 580 106 581L101 618Q154 632 216.5 656Q279 680 332 712H366V77Q391 71 416 62.5Q441 54 466 43ZM493 350Q493 440 512.5 507.5Q532 575 566.5 620.5Q601 666 648.5 689Q696 712 752 712Q872 712 942 621.5Q1012 531 1012 350Q1012 260 992.5 192.5Q973 125 937.5 79.5Q902 34 853 11Q804 -12 746 -12Q685 -12 638 12.5Q591 37 558.5 83.5Q526 130 509.5 197Q493 264 493 350ZM643 350Q643 278 647.5 221Q652 164 664 124.5Q676 85 695.5 64Q715 43 745 43Q780 43 802.5 60Q825 77 838.5 114Q852 151 857 209Q862 267 862 350Q862 422 858 479Q854 536 842.5 575.5Q831 615 809.5 636Q788 657 752 657Q720 657 699 640Q678 623 665.5 586Q653 549 648 490.5Q643 432 643 350Z" transform="translate(5.08 52.5) scale(0.05857 -0.05857)" fill="#14171d"/><path d="M26.406 40.187c.015-1.98-1.56-2.017-1.542-.573-.133 7.257-6.31 10.83-10.8 9.982-6.92-1.307-9.128-8.13-9.06-12.148C5.204 25.046 17.774 15.9 29.114 0c8.31 14.35 22.03 25.623 22.84 36.717 1.08 14.75-17.71 20.25-20.394 3.06-.172-1.214-1.612-1.76-1.5-.063.408 4.71-.17 6.674 5.18 18.287H21.25c3.1-5.42 4.943-12.09 5.154-17.81z" transform="translate(25.00 85.0) scale(0.4237) translate(-29.0 -29.5)" fill="#14171d"/><path d="M26.406 40.187c.015-1.98-1.56-2.017-1.542-.573-.133 7.257-6.31 10.83-10.8 9.982-6.92-1.307-9.128-8.13-9.06-12.148C5.204 25.046 17.774 15.9 29.114 0c8.31 14.35 22.03 25.623 22.84 36.717 1.08 14.75-17.71 20.25-20.394 3.06-.172-1.214-1.612-1.76-1.5-.063.408 4.71-.17 6.674 5.18 18.287H21.25c3.1-5.42 4.943-12.09 5.154-17.81z" transform="translate(81.00 125.0) scale(0.9153) translate(-29.0 -29.5)" fill="#14171d"/></svg>
