<svg xmlns="http://www.w3.org/2000/svg" viewBox="0 0 120 168"><defs><linearGradient id="g_diamond" x1="0" y1="0" x2="0" y2="1"><stop offset="0" stop-color="#ffffff"/><stop offset="1" stop-color="#aac4ff"/></linearGradient></defs><rect x="0.75" y="0.75" width="118.5" height="166.5" rx="9" fill="url(#g_diamond)" stroke="#9a9a9a" stroke-width="1.5"/><rect x="4.6" y="4.6" width="110.8" height="158.8" rx="6" fill="none" stroke="#8a6420" stroke-width="1" opacity="0.55" transform="translate(0 1.5)"/><rect x="4.6" y="4.6" width="110.8" height="158.8" rx="6" fill="none" stroke="#f5c276" stroke-width="2.4"/><rect x="4.6" y="4.6" width="110.8" height="158.8" rx="6" fill="none" stroke="#fff0cf" stroke-width="0.9" opacity="0.6" transform="translate(0 -1.1)"/><path d="M38 482Q38 533 56 575Q74 617 106.5 647.5Q139 678 184 695Q229 712 284 712Q342 712 388 692.5Q434 673 466 638Q498 603 514.5 552.5Q531 502 531 441Q531 348 503 269.5Q475 191 424 131.5Q373 72 301.5 34.5Q230 -3 144 -12L121 31Q236 61 298 139Q360 217 376 331Q357 306 326 290Q295 274 246 274Q203 274 165.5 287Q128 300 99.5 326.5Q71 353 54.5 392Q38 431 38 482ZM188 488Q188 459 194.5 433Q201 407 214 387Q227 367 246 355.5Q265 344 291 344Q321 344 344 355.5Q367 367 379 387Q381 400 382 419Q383 438 383 456Q383 495 377.5 530.5Q372 566 360 592.5Q348 619 329 635Q310 651 282 651Q232 651 210 610.5Q188 570 188 488Z" transform="translate(8.77 52.5) scale(0.05857 -0.05857)" fill="#1a4fd6"/><path d="M28.5 0l20.112 29L28.5 58 8.388 29z" transform="translate(25.00 85.0) scale(0.4237) translate(-29.0 -29.5)" fill="#1a4fd6"/><path d="M28.5 0l20.112 29L28.5 58 8.388 29z" transform="translate(81.00 125.0) scale(0.9153) translate(-29.0 -29.5)" fill="#1a4fd6"/></svg>
