<svg xmlns="http://www.w3.org/2000/svg" viewBox="0 0 120 168"><defs><linearGradient id="g_diamond" x1="0" y1="0" x2="0" y2="1"><stop offset="0" stop-color="#ffffff"/><stop offset="1" stop-color="#aac4ff"/></linearGradient></defs><rect x="0.75" y="0.75" width="118.5" height="166.5" rx="9" fill="url(#g_diamond)" stroke="#9a9a9a" stroke-width="1.5"/><rect x="4.6" y="4.6" width="110.8" height="158.8" rx="6" fill="none" stroke="#8a6420" stroke-width="1" opacity="0.55" transform="translate(0 1.5)"/><rect x="4.6" y="4.6" width="110.8" height="158.8" rx="6" fill="none" stroke="#f5c276" stroke-width="2.4"/><rect x="4.6" y="4.6" width="110.8" height="158.8" rx="6" fill="none" stroke="#fff0cf" stroke-width="0.9" opacity="0.6" transform="translate(0 -1.1)"/><path d="M27 700H335V662Q319 652 299 644Q279 636 259 633V121Q259 39 234.5 -13.5Q210 -66 176.5 -96.5Q143 -127 108 -141Q73 -155 51 -160L32 -134Q47 -122 61 -103.5Q75 -85 85.5 -56Q96 -27 102.5 14.5Q109 56 109 115V633Q87 638 65.5 644.5Q44 651 27 662Z" transform="translate(9.42 52.5) scale(0.05857 -0.05857)" fill="#1a4fd6"/><path d="M28.5 0l20.112 29L28.5 58 8.388 29z" transform="translate(25.00 85.0) scale(0.4237) translate(-29.0 -29.5)" fill="#1a4fd6"/><path d="M28.5 0l20.112 29L28.5 58 8.388 29z" transform="translate(81.00 125.0) scale(0.9153) translate(-29.0 -29.5)" fill="#1a4fd6"/></svg>
