<svg xmlns="http://www.w3.org/2000/svg" xmlns:xlink="http://www.w3.org/1999/xlink" width="225" height="314" fill="#d40000" baseProfile="tiny" viewBox="0 0 225 314"><defs><path id="b" d="m28.5 0 20.112 29L28.5 58 8.388 29z"/><path id="a" d="M0 32.008V29.27h2.66L8.326 0h3.224l6.24 29.27h2.148v2.738H12.62V29.27h1.98l-.787-4.484H6.427l-.57 4.484h1.978v2.738zm13.178-10.416L9.97 5.922l-3.007 15.67z"/></defs><rect width="100%" height="100%" fill="#fefefe"/><use xlink:href="#a" transform="translate(7 12)"/><use xlink:href="#b" transform="matrix(.4 0 0 .4 6 51)"/><use xlink:href="#a" transform="matrix(-1 0 0 -1 218 302)"/><use xlink:href="#b" transform="matrix(-.4 0 0 -.4 218 263)"/><use xlink:href="#b" transform="translate(84 128.5)"/></svg>