<svg xmlns="http://www.w3.org/2000/svg" xmlns:xlink="http://www.w3.org/1999/xlink" width="225" height="314" fill="#d40000" baseProfile="tiny" viewBox="0 0 225 314"><defs><path id="b" d="m28.5 0 20.112 29L28.5 58 8.388 29z"/><path id="a" d="M.313 22.58c-.408-2.746-.402-9.843-.066-11.94C1.277 4.21 3.78 1.27 7.97.305c4.067-.936 9.79.105 11.044 5.48l-3.407.064c-1.84-3.64-6.495-2.66-9.115-1.09-2.094 1.262-3.04 6.52-2.635 6.843-.003 0 3.957-2.877 7.076-2.665 6.668.682 9.417 6.354 9.184 11.72-.21 6.45-2.294 11.6-9.36 11.943-6.72-.25-9.8-3.85-10.444-10.03zm16.57-1.704c.036-4.476-2.034-7.822-5.95-8.192-3.915-.368-7.863 3.382-7.59 7.942.273 4.578 2.078 8.434 6.825 8.412 5.108-.024 6.69-4.977 6.714-8.162z"/></defs><rect width="100%" height="100%" fill="#fefefe"/><use xlink:href="#a" transform="translate(7 12)"/><use xlink:href="#b" transform="matrix(.4 0 0 .4 6 51)"/><use xlink:href="#a" transform="matrix(-1 0 0 -1 218 302)"/><use xlink:href="#b" transform="matrix(-.4 0 0 -.4 218 263)"/><use xlink:href="#b" transform="translate(34 28)"/><use xlink:href="#b" transform="translate(134 28)"/><use xlink:href="#b" transform="translate(34 128.5)"/><use xlink:href="#b" transform="translate(134 128.5)"/><use xlink:href="#b" transform="matrix(-1 0 0 -1 91 286)"/><use xlink:href="#b" transform="matrix(-1 0 0 -1 191 286)"/></svg>