<svg xmlns="http://www.w3.org/2000/svg" xmlns:xlink="http://www.w3.org/1999/xlink" width="225" height="314" fill="#d40000" baseProfile="tiny" viewBox="0 0 225 314"><defs><path id="b" d="m28.5 0 20.112 29L28.5 58 8.388 29z"/><path id="a" d="M0 31.505V0h3.11v31.505zM12.328 0c-2.994 0-5.4 2.687-5.4 6.02v19.462c0 3.336 2.406 6.02 5.4 6.02h1.746c2.994 0 5.406-2.685 5.406-6.02V6.022C19.48 2.686 17.07 0 14.074 0zm.904 2.978c1.768 0 3.19 1.337 3.19 3.002v19.723c0 1.664-1.424 3.006-3.19 3.006-1.77 0-3.19-1.35-3.19-3.01V5.98c-.003-1.665 1.42-3.002 3.19-3.002"/></defs><rect width="100%" height="100%" fill="#fefefe"/><use xlink:href="#a" transform="translate(7 12)"/><use xlink:href="#b" transform="matrix(.4 0 0 .4 6 51)"/><use xlink:href="#a" transform="matrix(-1 0 0 -1 218 302)"/><use xlink:href="#b" transform="matrix(-.4 0 0 -.4 218 263)"/><use xlink:href="#b" transform="translate(34 28)"/><use xlink:href="#b" transform="translate(34 95)"/><use xlink:href="#b" transform="translate(84 64.5)"/><use xlink:href="#b" transform="matrix(-1 0 0 -1 91 221)"/><use xlink:href="#b" transform="matrix(-1 0 0 -1 91 286)"/><use xlink:href="#b" transform="translate(134 28)"/><use xlink:href="#b" transform="translate(134 95)"/><use xlink:href="#b" transform="matrix(-1 0 0 -1 141 248.5)"/><use xlink:href="#b" transform="matrix(-1 0 0 -1 191 221)"/><use xlink:href="#b" transform="matrix(-1 0 0 -1 191 286)"/></svg>