<svg xmlns="http://www.w3.org/2000/svg" width="580" height="800" fill="none" viewBox="0 0 580 800"><path fill="#e6eef4" d="M551.862.203H27.724C12.484.203.138 12.548.138 27.79v744.828c0 15.241 12.346 27.586 27.586 27.586h524.138c15.24 0 27.586-12.345 27.586-27.586V27.79c0-15.24-12.344-27.586-27.586-27.586"/><path fill="#d71e00" d="M524.276 758.823c7.617 0 13.793-6.175 13.793-13.793V55.375c0-7.617-6.175-13.794-13.793-13.794H55.31c-7.617 0-13.794 6.175-13.794 13.794v689.656c0 7.617 6.175 13.794 13.794 13.794h468.966ZM69.104 745.031V55.375L55.31 69.17h468.966l-13.794-13.794v689.656l13.794-13.794H55.31Z"/><path fill="#d71e00" d="M45.56 163.291c-5.386 5.385-5.386 14.12 0 19.506s14.12 5.386 19.506 0L182.735 65.128c5.386-5.386 5.386-14.12 0-19.506s-14.12-5.386-19.506 0zm254.206-98.155c5.386-5.386 5.386-14.12 0-19.506s-14.12-5.386-19.506 0L45.557 280.333c-5.386 5.386-5.386 14.12 0 19.506s14.12 5.386 19.506 0zm117.048-.01c5.386-5.386 5.386-14.12 0-19.506s-14.12-5.386-19.506 0L45.557 397.373c-5.386 5.386-5.386 14.12 0 19.506s14.12 5.386 19.506 0zm117.035.004c5.386-5.386 5.386-14.12 0-19.507-5.386-5.386-14.121-5.386-19.507 0L45.557 514.41c-5.386 5.386-5.386 14.121 0 19.506 5.386 5.386 14.12 5.386 19.506 0zm.179 116.857c5.386-5.386 5.386-14.12 0-19.506-5.385-5.386-14.12-5.386-19.506 0L45.557 631.447c-5.386 5.386-5.386 14.12 0 19.506s14.12 5.386 19.506 0zm.007 117.035c5.386-5.386 5.386-14.12 0-19.507-5.386-5.385-14.12-5.385-19.506 0L69.163 724.88c-5.386 5.385-5.386 14.12 0 19.506s14.12 5.386 19.506 0zm-358.23 436.254c-5.386 5.386-5.386 14.121 0 19.507s14.12 5.386 19.506 0l338.718-338.717c5.385-5.386 5.385-14.12 0-19.507-5.386-5.386-14.121-5.386-19.507 0zm117.035.004c-5.386 5.386-5.386 14.12 0 19.506s14.12 5.386 19.506 0l221.683-221.683c5.386-5.386 5.386-14.12 0-19.506s-14.12-5.386-19.506 0zm241.195-85.144c5.386-5.386 5.386-14.12 0-19.506s-14.12-5.386-19.506 0L409.88 735.278c-5.386 5.386-5.386 14.12 0 19.506s14.121 5.386 19.507 0z"/></svg>