<svg xmlns="http://www.w3.org/2000/svg" viewBox="0 0 120 168"><defs><linearGradient id="g_diamond" x1="0" y1="0" x2="0.18" y2="1"><stop offset="0" stop-color="#b0cbdc"/><stop offset="0.5" stop-color="#b0cbdc" stop-opacity="0.85"/><stop offset="1" stop-color="#3d80b8"/></linearGradient></defs><rect x="0" y="0" width="120" height="168" rx="9" fill="url(#g_diamond)"/><rect x="0.5" y="0.5" width="119" height="167" rx="8.5" fill="none" stroke="#0e4c7a" stroke-width="1" opacity="0.3"/><path d="M-9.345545198352482 0.0 302.6884890526772 700.0H462.8834814654238L775.5209191415565 0.0H606.3429438543247L349.56936917407324 617.5667678300455H413.8128116193367L157.03923693908519 0.0ZM147.31151094732277 149.75655755473662 189.81281161933666 272.69109039670496H550.4306308259268L593.5353349230436 149.75655755473662Z" transform="translate(7.48 44.0) scale(0.05142857142857143 -0.05142857142857143)" fill="#0e4c7a"/><path d="M28.5 0l20.112 29L28.5 58 8.388 29z" transform="translate(26.0 64.0) scale(0.52) translate(-29.0 -29.5)" fill="#0e4c7a"/><path d="M28.5 0l20.112 29L28.5 58 8.388 29z" transform="translate(60.0 118.0) scale(1.42 1.1) translate(-29.0 -29.5)" fill="none" stroke="#0e4c7a" stroke-width="4.0" stroke-linejoin="round"/></svg>