<svg xmlns="http://www.w3.org/2000/svg" viewBox="0 0 120 168"><defs><linearGradient id="g_heart" x1="0" y1="0" x2="0.18" y2="1"><stop offset="0" stop-color="#d3a8a5"/><stop offset="0.5" stop-color="#d3a8a5" stop-opacity="0.85"/><stop offset="1" stop-color="#b63e41"/></linearGradient></defs><rect x="0" y="0" width="120" height="168" rx="9" fill="url(#g_heart)"/><rect x="0.5" y="0.5" width="119" height="167" rx="8.5" fill="none" stroke="#7e1717" stroke-width="1" opacity="0.3"/><path d="M151.3259267288099 0.0 432.824626056796 638.3259267288099 475.30890960329504 567.6858877086495H98.0536527205723L169.53793626707133 643.912313028398V453.61781920659007H25.82722740082376V700.0H586.8128116193367V595.428029481899L326.659657489703 0.0Z" transform="translate(10.25 44.0) scale(0.05142857142857143 -0.05142857142857143)" fill="#7e1717"/><path d="M16.49.2c7.12-.476 10.832 5.638 11.557 10.455.432.766.668.55.834-.042.35-6.186 5.86-11.24 10.96-10.55 8.3.108 13.35 9.393 11.93 17.25-1.73 9.6-6.875 15.38-10.77 21.333C36.586 44.81 30.656 53.716 28.74 58c0 0-6.027-9.222-13.87-20.067-5.243-7.252-9.44-15.11-9.83-21.875-.447-7.73 2.71-14.66 11.45-15.86z" transform="translate(26.0 64.0) scale(0.52) translate(-29.0 -29.5)" fill="#7e1717"/><path d="M16.49.2c7.12-.476 10.832 5.638 11.557 10.455.432.766.668.55.834-.042.35-6.186 5.86-11.24 10.96-10.55 8.3.108 13.35 9.393 11.93 17.25-1.73 9.6-6.875 15.38-10.77 21.333C36.586 44.81 30.656 53.716 28.74 58c0 0-6.027-9.222-13.87-20.067-5.243-7.252-9.44-15.11-9.83-21.875-.447-7.73 2.71-14.66 11.45-15.86z" transform="translate(60.0 118.0) scale(1.42 1.1) translate(-29.0 -29.5)" fill="none" stroke="#7e1717" stroke-width="4.0" stroke-linejoin="round"/></svg>