<svg xmlns="http://www.w3.org/2000/svg" viewBox="0 0 120 168"><defs><linearGradient id="g_diamond" x1="0" y1="0" x2="0.18" y2="1"><stop offset="0" stop-color="#b0cbdc"/><stop offset="0.5" stop-color="#b0cbdc" stop-opacity="0.85"/><stop offset="1" stop-color="#3d80b8"/></linearGradient></defs><rect x="0" y="0" width="120" height="168" rx="9" fill="url(#g_diamond)"/><rect x="0.5" y="0.5" width="119" height="167" rx="8.5" fill="none" stroke="#0e4c7a" stroke-width="1" opacity="0.3"/><path d="M30.844244526338606 147.15315412963363V255.5183177975287L361.03143290700194 700.0H531.2264253197485L208.41881638846738 255.5183177975287L129.19239106871885 279.4672664209842H680.2434424452634V147.15315412963363ZM408.32592672880986 0.0V147.15315412963363L412.912313028398 279.4672664209842V410.0H566.1243225666594V0.0Z" transform="translate(7.71 44.0) scale(0.05142857142857143 -0.05142857142857143)" fill="#0e4c7a"/><path d="M28.5 0l20.112 29L28.5 58 8.388 29z" transform="translate(26.0 64.0) scale(0.52) translate(-29.0 -29.5)" fill="#0e4c7a"/><path d="M28.5 0l20.112 29L28.5 58 8.388 29z" transform="translate(60.0 118.0) scale(1.42 1.1) translate(-29.0 -29.5)" fill="none" stroke="#0e4c7a" stroke-width="4.0" stroke-linejoin="round"/></svg>