<svg xmlns="http://www.w3.org/2000/svg" viewBox="0 0 120 168"><defs><linearGradient id="g_spade" x1="0" y1="0" x2="0.18" y2="1"><stop offset="0" stop-color="#cbcfa4"/><stop offset="0.5" stop-color="#cbcfa4" stop-opacity="0.85"/><stop offset="1" stop-color="#b6b441"/></linearGradient></defs><rect x="0" y="0" width="120" height="168" rx="9" fill="url(#g_spade)"/><rect x="0.5" y="0.5" width="119" height="167" rx="8.5" fill="none" stroke="#7a7b18" stroke-width="1" opacity="0.3"/><path d="M32.82722740082376 0.0V104.57197051810103L303.32592672880986 359.69109039670496Q334.56676783004553 389.3285280728376 349.9888900932149 412.06086061131583Q365.41101235638416 434.79319314979404 370.61781920659007 453.72382397572073Q375.824626056796 472.6544548016475 375.824626056796 489.4816822024713Q375.824626056796 530.5667678300455 347.661662692391 553.5144157814871Q319.4986993279861 576.4620637329286 264.37957944938216 576.4620637329286Q219.50130067201388 576.4620637329286 182.14854758291784 559.0569585952742Q144.7957944938218 541.6518534576197 119.14133969217428 506.03143290700194L1.4816822024712764 581.7565575547367Q41.29189247778019 641.6884890526773 113.06806850205939 676.7323325384782Q184.8442445263386 711.7761760242793 279.13873834814655 711.7761760242793Q357.3115109473228 711.7761760242793 415.8808801213961 686.5863862995882Q474.45024929546935 661.396596574897 506.8298287448515 615.1119119878604Q539.2094081942337 568.8272274008237 539.2094081942337 505.4476479514416Q539.2094081942337 471.4476479514416 530.4077064816822 437.74934966399303Q521.6060047691308 404.05105137654454 496.20940819423373 366.85275308909604Q470.8128116193367 329.6544548016475 421.62302189464555 283.6544548016475L197.83243008887925 73.24344244526338L167.4698677650119 132.31411229135054H562.4502492954693V0.0Z" transform="translate(11.5 44.0) scale(0.05142857142857143 -0.05142857142857143)" fill="#7a7b18"/><path d="M26.406 40.187c.015-1.98-1.56-2.017-1.542-.573-.133 7.257-6.31 10.83-10.8 9.982-6.92-1.307-9.128-8.13-9.06-12.148C5.204 25.046 17.774 15.9 29.114 0c8.31 14.35 22.03 25.623 22.84 36.717 1.08 14.75-17.71 20.25-20.394 3.06-.172-1.214-1.612-1.76-1.5-.063.408 4.71-.17 6.674 5.18 18.287H21.25c3.1-5.42 4.943-12.09 5.154-17.81z" transform="translate(26.0 64.0) scale(0.52) translate(-29.0 -29.5)" fill="#7a7b18"/><path d="M26.406 40.187c.015-1.98-1.56-2.017-1.542-.573-.133 7.257-6.31 10.83-10.8 9.982-6.92-1.307-9.128-8.13-9.06-12.148C5.204 25.046 17.774 15.9 29.114 0c8.31 14.35 22.03 25.623 22.84 36.717 1.08 14.75-17.71 20.25-20.394 3.06-.172-1.214-1.612-1.76-1.5-.063.408 4.71-.17 6.674 5.18 18.287H21.25c3.1-5.42 4.943-12.09 5.154-17.81z" transform="translate(60.0 118.0) scale(1.42 1.1) translate(-29.0 -29.5)" fill="none" stroke="#7a7b18" stroke-width="4.0" stroke-linejoin="round"/></svg>