<svg xmlns="http://www.w3.org/2000/svg" viewBox="0 0 120 168"><defs><linearGradient id="g_spade" x1="0" y1="0" x2="0.18" y2="1"><stop offset="0" stop-color="#cbcfa4"/><stop offset="0.5" stop-color="#cbcfa4" stop-opacity="0.85"/><stop offset="1" stop-color="#b6b441"/></linearGradient></defs><rect x="0" y="0" width="120" height="168" rx="9" fill="url(#g_spade)"/><rect x="0.5" y="0.5" width="119" height="167" rx="8.5" fill="none" stroke="#7a7b18" stroke-width="1" opacity="0.3"/><path d="M30.844244526338606 147.15315412963363V255.5183177975287L361.03143290700194 700.0H531.2264253197485L208.41881638846738 255.5183177975287L129.19239106871885 279.4672664209842H680.2434424452634V147.15315412963363ZM408.32592672880986 0.0V147.15315412963363L412.912313028398 279.4672664209842V410.0H566.1243225666594V0.0Z" transform="translate(7.71 44.0) scale(0.05142857142857143 -0.05142857142857143)" fill="#7a7b18"/><path d="M26.406 40.187c.015-1.98-1.56-2.017-1.542-.573-.133 7.257-6.31 10.83-10.8 9.982-6.92-1.307-9.128-8.13-9.06-12.148C5.204 25.046 17.774 15.9 29.114 0c8.31 14.35 22.03 25.623 22.84 36.717 1.08 14.75-17.71 20.25-20.394 3.06-.172-1.214-1.612-1.76-1.5-.063.408 4.71-.17 6.674 5.18 18.287H21.25c3.1-5.42 4.943-12.09 5.154-17.81z" transform="translate(26.0 64.0) scale(0.52) translate(-29.0 -29.5)" fill="#7a7b18"/><path d="M26.406 40.187c.015-1.98-1.56-2.017-1.542-.573-.133 7.257-6.31 10.83-10.8 9.982-6.92-1.307-9.128-8.13-9.06-12.148C5.204 25.046 17.774 15.9 29.114 0c8.31 14.35 22.03 25.623 22.84 36.717 1.08 14.75-17.71 20.25-20.394 3.06-.172-1.214-1.612-1.76-1.5-.063.408 4.71-.17 6.674 5.18 18.287H21.25c3.1-5.42 4.943-12.09 5.154-17.81z" transform="translate(60.0 118.0) scale(1.42 1.1) translate(-29.0 -29.5)" fill="none" stroke="#7a7b18" stroke-width="4.0" stroke-linejoin="round"/></svg>