<svg xmlns="http://www.w3.org/2000/svg" viewBox="0 0 120 168"><defs><linearGradient id="g_spade" x1="0" y1="0" x2="0.18" y2="1"><stop offset="0" stop-color="#cbcfa4"/><stop offset="0.5" stop-color="#cbcfa4" stop-opacity="0.85"/><stop offset="1" stop-color="#b6b441"/></linearGradient></defs><rect x="0" y="0" width="120" height="168" rx="9" fill="url(#g_spade)"/><rect x="0.5" y="0.5" width="119" height="167" rx="8.5" fill="none" stroke="#7a7b18" stroke-width="1" opacity="0.3"/><path d="M240.98298287448515 -11.776176024279211Q185.6204205506178 -11.776176024279211 134.7578582267505 0.31021027530890954Q83.89529590288316 12.39659657489703 46.912313028398 35.98298287448515L106.56936917407327 155.12432256665943Q135.75915889876435 134.93453284196835 169.06936917407327 127.43453284196835Q202.3795794493822 119.93453284196835 237.79319314979406 119.93453284196835Q328.10210275308907 119.93453284196835 381.4633644049425 175.10600476913072Q434.824626056796 230.2774766962931 434.824626056796 337.82722740082374Q434.824626056796 355.8442445263386 433.9195209191415 377.88678734012575Q433.0144157814871 399.9293301539129 428.7905918057663 422.1701712551485L473.1361370041188 380.15315412963366Q455.9463472794277 341.3259267288099 425.12762844136137 314.80890960329504Q394.30890960329504 288.29189247778015 353.08508562757424 274.8867873401257Q311.86126165185345 261.4816822024713 261.05105137654454 261.4816822024713Q194.0340342510297 261.4816822024713 139.5340342510297 288.37827877736834Q85.0340342510297 315.2748753522653 52.74084110123564 364.2663667895079Q20.447647951441578 413.2578582267505 20.447647951441578 479.4476479514416Q20.447647951441578 550.8272274008237 55.73233253847822 602.8102102753089Q91.01701712551485 654.7931931497941 151.29319314979406 683.2846845870367Q211.56936917407327 711.7761760242793 285.13873834814655 711.7761760242793Q382.1217212226317 711.7761760242793 452.191090396705 672.0693691740732Q522.2604595707783 632.3625623238673 560.234933882506 555.4574571862129Q598.2094081942337 478.5523520485584 598.2094081942337 365.36256232386734Q598.2094081942337 244.17277259917626 552.8298287448515 160.08638629958813Q507.45024929546935 76.0 427.38938868415346 32.111911987860395Q347.3285280728376 -11.776176024279211 240.98298287448515 -11.776176024279211ZM296.91491437242576 382.2434424452634Q332.39659657489705 382.2434424452634 359.7578582267505 395.7689681335356Q387.11911987860395 409.2944938218079 402.15315412963366 433.13873834814655Q417.1871883806633 456.9829828744852 417.1871883806633 487.43063082592676Q417.1871883806633 517.2748753522653 402.7565575547366 540.515716453501Q388.3259267288099 563.7565575547367 360.9646650769564 577.3854866681119Q333.60340342510295 591.0144157814871 294.5013006720139 591.0144157814871Q260.22642531974856 591.0144157814871 233.96856709299806 578.2905918057663Q207.71070886624756 565.5667678300456 192.78007804032083 542.3259267288099Q177.8494472143941 519.0850856275742 177.8494472143941 486.82722740082374Q177.8494472143941 438.7421417732495 210.4175157164535 410.49279210925647Q242.98558421851288 382.2434424452634 296.91491437242576 382.2434424452634Z" transform="translate(10.09 44.0) scale(0.05142857142857143 -0.05142857142857143)" fill="#7a7b18"/><path d="M26.406 40.187c.015-1.98-1.56-2.017-1.542-.573-.133 7.257-6.31 10.83-10.8 9.982-6.92-1.307-9.128-8.13-9.06-12.148C5.204 25.046 17.774 15.9 29.114 0c8.31 14.35 22.03 25.623 22.84 36.717 1.08 14.75-17.71 20.25-20.394 3.06-.172-1.214-1.612-1.76-1.5-.063.408 4.71-.17 6.674 5.18 18.287H21.25c3.1-5.42 4.943-12.09 5.154-17.81z" transform="translate(26.0 64.0) scale(0.52) translate(-29.0 -29.5)" fill="#7a7b18"/><path d="M26.406 40.187c.015-1.98-1.56-2.017-1.542-.573-.133 7.257-6.31 10.83-10.8 9.982-6.92-1.307-9.128-8.13-9.06-12.148C5.204 25.046 17.774 15.9 29.114 0c8.31 14.35 22.03 25.623 22.84 36.717 1.08 14.75-17.71 20.25-20.394 3.06-.172-1.214-1.612-1.76-1.5-.063.408 4.71-.17 6.674 5.18 18.287H21.25c3.1-5.42 4.943-12.09 5.154-17.81z" transform="translate(60.0 118.0) scale(1.42 1.1) translate(-29.0 -29.5)" fill="none" stroke="#7a7b18" stroke-width="4.0" stroke-linejoin="round"/></svg>