<svg xmlns="http://www.w3.org/2000/svg" viewBox="0 0 120 168"><defs><linearGradient id="g_spade" x1="0" y1="0" x2="0.18" y2="1"><stop offset="0" stop-color="#cbcfa4"/><stop offset="0.5" stop-color="#cbcfa4" stop-opacity="0.85"/><stop offset="1" stop-color="#b6b441"/></linearGradient></defs><rect x="0" y="0" width="120" height="168" rx="9" fill="url(#g_spade)"/><rect x="0.5" y="0.5" width="119" height="167" rx="8.5" fill="none" stroke="#7a7b18" stroke-width="1" opacity="0.3"/><path d="M422.3210564347135 -11.776176024279211Q339.86593684514776 -11.776176024279211 269.64828383553726 15.22382397572079Q199.43063082592673 42.22382397572079 147.93913938868417 91.12042055061782Q96.44764795144158 140.01701712551485 67.85275308909604 205.96401899151164Q39.257858226750486 271.9110208575084 39.257858226750486 350.0Q39.257858226750486 428.4855757173886 67.85275308909604 494.23427929593686Q96.44764795144158 559.9829828744852 148.01588806994727 608.9666477288433Q199.58412818845292 657.9503125832016 269.5937658067779 684.8632443037404Q339.60340342510295 711.7761760242793 422.1897897246911 711.7761760242793Q505.17277259917626 711.7761760242793 574.8107657706482 684.9705610202856Q644.4487589421201 658.1649460162919 695.888643507479 609.37566615794Q747.3285280728377 560.5863862995881 775.9234229351832 494.6294493821808Q804.5183177975288 428.6725124647735 804.5183177975288 349.9396596574897Q804.5183177975288 271.60340342510295 775.9234229351832 205.5085085627574Q747.3285280728377 139.41361370041187 695.888643507479 90.62433384206Q644.4487589421201 41.835053983708136 574.8107657706482 15.029438979714463Q505.17277259917626 -11.776176024279211 422.3210564347135 -11.776176024279211ZM651.1897897246911 -160.70810752221982Q610.0340342510297 -160.70810752221982 573.4646650769564 -151.8115109473228Q536.8952959028832 -142.91491437242576 501.31741816605245 -122.72512464773466Q465.73954042922173 -102.53533492304356 427.5667678300455 -68.86256232386732Q389.3939952308693 -35.18978972469109 343.6348363321049 14.569369174073271L514.0196184695426 57.67407327119012Q541.0366355950574 20.674073271190117 563.7689681335356 -1.136137004118794Q586.5013006720138 -22.946347279427705 608.4319314979406 -32.15315412963365Q630.3625623238673 -41.359960979839585 654.3589502724556 -41.359960979839585Q718.4476479514416 -41.359960979839585 767.6714719271623 11.484283546499029L840.1047040971168 -75.32852807283763Q768.7251246477347 -160.70810752221982 651.1897897246911 -160.70810752221982ZM422.1897897246911 125.52091914155648Q469.0680685020594 125.52091914155648 508.7310318664643 141.74474311727727Q548.3939952308692 157.96856709299806 578.0779179091014 188.13797387778737Q607.7618405873337 218.30738066257672 624.2493898362638 259.4469236962065Q640.7369390851941 300.58646672983633 640.7369390851941 350.0Q640.7369390851941 400.05105137654454 624.2493898362638 441.00866117698547Q607.7618405873337 481.9662709774264 578.0779179091014 511.9988519422142Q548.3939952308692 542.031432907002 508.7310318664643 558.2552568827227Q469.0680685020594 574.4790808584435 422.1897897246911 574.4790808584435Q375.3115109473228 574.4790808584435 335.34684587036634 558.2552568827227Q295.38218079340993 542.031432907002 265.6982581151777 511.9988519422142Q236.01433543694546 481.9662709774264 219.5267861880153 441.00866117698547Q203.03923693908519 400.05105137654454 203.03923693908519 350.0Q203.03923693908519 300.58646672983633 219.5267861880153 259.4469236962065Q236.01433543694546 218.30738066257672 265.6982581151777 188.13797387778737Q295.38218079340993 157.96856709299806 335.34684587036634 141.74474311727727Q375.3115109473228 125.52091914155648 422.1897897246911 125.52091914155648Z" transform="translate(4.98 44.0) scale(0.05142857142857143 -0.05142857142857143)" fill="#7a7b18"/><path d="M26.406 40.187c.015-1.98-1.56-2.017-1.542-.573-.133 7.257-6.31 10.83-10.8 9.982-6.92-1.307-9.128-8.13-9.06-12.148C5.204 25.046 17.774 15.9 29.114 0c8.31 14.35 22.03 25.623 22.84 36.717 1.08 14.75-17.71 20.25-20.394 3.06-.172-1.214-1.612-1.76-1.5-.063.408 4.71-.17 6.674 5.18 18.287H21.25c3.1-5.42 4.943-12.09 5.154-17.81z" transform="translate(26.0 64.0) scale(0.52) translate(-29.0 -29.5)" fill="#7a7b18"/><path d="M26.406 40.187c.015-1.98-1.56-2.017-1.542-.573-.133 7.257-6.31 10.83-10.8 9.982-6.92-1.307-9.128-8.13-9.06-12.148C5.204 25.046 17.774 15.9 29.114 0c8.31 14.35 22.03 25.623 22.84 36.717 1.08 14.75-17.71 20.25-20.394 3.06-.172-1.214-1.612-1.76-1.5-.063.408 4.71-.17 6.674 5.18 18.287H21.25c3.1-5.42 4.943-12.09 5.154-17.81z" transform="translate(60.0 118.0) scale(1.42 1.1) translate(-29.0 -29.5)" fill="none" stroke="#7a7b18" stroke-width="4.0" stroke-linejoin="round"/></svg>