<svg xmlns="http://www.w3.org/2000/svg" viewBox="0 0 120 168"><defs><linearGradient id="g_club" x1="0" y1="0" x2="0.18" y2="1"><stop offset="0" stop-color="#a0cfa4"/><stop offset="0.5" stop-color="#a0cfa4" stop-opacity="0.85"/><stop offset="1" stop-color="#42b742"/></linearGradient></defs><rect x="0" y="0" width="120" height="168" rx="9" fill="url(#g_club)"/><rect x="0.5" y="0.5" width="119" height="167" rx="8.5" fill="none" stroke="#1c871e" stroke-width="1" opacity="0.3"/><path d="M265.7761760242792 -11.776176024279211Q192.56936917407327 -11.776176024279211 120.98298287448515 7.844244526338609Q49.39659657489703 27.46466507695643 -1.1727725991762412 63.29189247778018L61.9319314979406 187.20940819423367Q102.10470409711684 157.58898764361587 154.92342293518317 140.5634619553436Q207.7421417732495 123.53793626707133 262.0 123.53793626707133Q322.515716453501 123.53793626707133 357.6701712551485 147.5974962063733Q392.824626056796 171.65705614567526 392.824626056796 213.7421417732495Q392.824626056796 253.63743767613266 361.75655755473656 276.9986993279861Q330.6884890526772 300.35996097983957 261.5523520485584 300.35996097983957H188.46466507695644V406.7421417732495L382.73954042922173 628.1531541296337L401.32592672880986 569.6688705831347H33.62042055061782V700.0H524.2434424452633V595.428029481899L329.96856709299806 374.0170171255148L248.34554519835248 421.12172122263166H294.65705614567526Q424.2434424452634 421.12172122263166 490.2264253197485 363.0268263602861Q556.2094081942337 304.9319314979406 556.2094081942337 214.34554519835248Q556.2094081942337 154.94894862345546 525.1230218946455 103.2676674615218Q494.0366355950574 51.58638629958812 429.87237155863863 19.905105137654456Q365.7081075222198 -11.776176024279211 265.7761760242792 -11.776176024279211Z" transform="translate(11.73 44.0) scale(0.05142857142857143 -0.05142857142857143)" fill="#1c871e"/><path d="M20.976 57.14c2.88-5.774 4.976-11.7 5.348-18.036.342-2.33-1.074-2.37-1.288-.73C20.96 53.97-.727 49.744.02 35.08.622 23.182 12.44 20.624 18.6 24.513c2.435 1.434 2.296.575.968-.91C10.416 13.39 15.958.24 28.33 0c13.38.793 16.854 14.87 8.647 23.147-1.02.994-3.283 4.19.123 1.956 8.287-5.888 19.787.443 19.553 9.52-.434 16.74-20.84 17.987-25.203 4.007-.42-1.55-1.63-2.328-1.295.305.604 4.767 1.855 11.953 5.438 18.205H20.976z" transform="translate(26.0 64.0) scale(0.52) translate(-29.0 -29.5)" fill="#1c871e"/><path d="M20.976 57.14c2.88-5.774 4.976-11.7 5.348-18.036.342-2.33-1.074-2.37-1.288-.73C20.96 53.97-.727 49.744.02 35.08.622 23.182 12.44 20.624 18.6 24.513c2.435 1.434 2.296.575.968-.91C10.416 13.39 15.958.24 28.33 0c13.38.793 16.854 14.87 8.647 23.147-1.02.994-3.283 4.19.123 1.956 8.287-5.888 19.787.443 19.553 9.52-.434 16.74-20.84 17.987-25.203 4.007-.42-1.55-1.63-2.328-1.295.305.604 4.767 1.855 11.953 5.438 18.205H20.976z" transform="translate(60.0 118.0) scale(1.42 1.1) translate(-29.0 -29.5)" fill="none" stroke="#1c871e" stroke-width="4.0" stroke-linejoin="round"/></svg>