<svg xmlns="http://www.w3.org/2000/svg" viewBox="0 0 120 168"><defs><linearGradient id="g_club" x1="0" y1="0" x2="0.18" y2="1"><stop offset="0" stop-color="#a0cfa4"/><stop offset="0.5" stop-color="#a0cfa4" stop-opacity="0.85"/><stop offset="1" stop-color="#42b742"/></linearGradient></defs><rect x="0" y="0" width="120" height="168" rx="9" fill="url(#g_club)"/><rect x="0.5" y="0.5" width="119" height="167" rx="8.5" fill="none" stroke="#1c871e" stroke-width="1" opacity="0.3"/><path d="M30.844244526338606 147.15315412963363V255.5183177975287L361.03143290700194 700.0H531.2264253197485L208.41881638846738 255.5183177975287L129.19239106871885 279.4672664209842H680.2434424452634V147.15315412963363ZM408.32592672880986 0.0V147.15315412963363L412.912313028398 279.4672664209842V410.0H566.1243225666594V0.0Z" transform="translate(7.71 44.0) scale(0.05142857142857143 -0.05142857142857143)" fill="#1c871e"/><path d="M20.976 57.14c2.88-5.774 4.976-11.7 5.348-18.036.342-2.33-1.074-2.37-1.288-.73C20.96 53.97-.727 49.744.02 35.08.622 23.182 12.44 20.624 18.6 24.513c2.435 1.434 2.296.575.968-.91C10.416 13.39 15.958.24 28.33 0c13.38.793 16.854 14.87 8.647 23.147-1.02.994-3.283 4.19.123 1.956 8.287-5.888 19.787.443 19.553 9.52-.434 16.74-20.84 17.987-25.203 4.007-.42-1.55-1.63-2.328-1.295.305.604 4.767 1.855 11.953 5.438 18.205H20.976z" transform="translate(26.0 64.0) scale(0.52) translate(-29.0 -29.5)" fill="#1c871e"/><path d="M20.976 57.14c2.88-5.774 4.976-11.7 5.348-18.036.342-2.33-1.074-2.37-1.288-.73C20.96 53.97-.727 49.744.02 35.08.622 23.182 12.44 20.624 18.6 24.513c2.435 1.434 2.296.575.968-.91C10.416 13.39 15.958.24 28.33 0c13.38.793 16.854 14.87 8.647 23.147-1.02.994-3.283 4.19.123 1.956 8.287-5.888 19.787.443 19.553 9.52-.434 16.74-20.84 17.987-25.203 4.007-.42-1.55-1.63-2.328-1.295.305.604 4.767 1.855 11.953 5.438 18.205H20.976z" transform="translate(60.0 118.0) scale(1.42 1.1) translate(-29.0 -29.5)" fill="none" stroke="#1c871e" stroke-width="4.0" stroke-linejoin="round"/></svg>