<svg xmlns="http://www.w3.org/2000/svg" viewBox="0 0 120 168"><defs><linearGradient id="g_club" x1="0" y1="0" x2="0.18" y2="1"><stop offset="0" stop-color="#a0cfa4"/><stop offset="0.5" stop-color="#a0cfa4" stop-opacity="0.85"/><stop offset="1" stop-color="#42b742"/></linearGradient></defs><rect x="0" y="0" width="120" height="168" rx="9" fill="url(#g_club)"/><rect x="0.5" y="0.5" width="119" height="167" rx="8.5" fill="none" stroke="#1c871e" stroke-width="1" opacity="0.3"/><path d="M277.37957944938216 -11.776176024279211Q204.17277259917626 -11.776176024279211 132.58638629958813 7.844244526338609Q61.0 27.46466507695643 10.430630825926727 63.29189247778018L73.53533492304356 187.20940819423367Q113.70810752221982 157.58898764361587 166.32852807283763 140.5634619553436Q218.94894862345546 123.53793626707133 273.20680685020596 123.53793626707133Q333.7225233037069 123.53793626707133 369.07527639280295 147.7957944938218Q404.428029481899 172.0536527205723 404.428029481899 214.7421417732495Q404.428029481899 242.41361370041187 389.99739865597223 262.9646650769564Q375.56676783004553 283.515716453501 340.0935941903317 294.64464556687625Q304.62042055061784 305.7735746802515 241.10470409711684 305.7735746802515H62.24084110123564L97.84424452633861 700.0H525.4332321699545V569.6688705831347H156.10470409711684L240.1073054411446 643.515716453501L214.8834814654238 362.86126165185345L130.88088012139605 436.7081075222198H278.7957944938218Q382.7957944938218 436.7081075222198 446.20089963147626 408.2166160849772Q509.6060047691307 379.7251246477347 538.7094081942337 330.7336332104921Q567.8128116193367 281.7421417732495 567.8128116193367 219.7421417732495Q567.8128116193367 158.34554519835248 536.7264253197486 105.4659657489703Q505.64003902016043 52.58638629958812 441.47577498374164 20.405105137654456Q377.3115109473228 -11.776176024279211 277.37957944938216 -11.776176024279211Z" transform="translate(11.13 44.0) scale(0.05142857142857143 -0.05142857142857143)" fill="#1c871e"/><path d="M20.976 57.14c2.88-5.774 4.976-11.7 5.348-18.036.342-2.33-1.074-2.37-1.288-.73C20.96 53.97-.727 49.744.02 35.08.622 23.182 12.44 20.624 18.6 24.513c2.435 1.434 2.296.575.968-.91C10.416 13.39 15.958.24 28.33 0c13.38.793 16.854 14.87 8.647 23.147-1.02.994-3.283 4.19.123 1.956 8.287-5.888 19.787.443 19.553 9.52-.434 16.74-20.84 17.987-25.203 4.007-.42-1.55-1.63-2.328-1.295.305.604 4.767 1.855 11.953 5.438 18.205H20.976z" transform="translate(26.0 64.0) scale(0.52) translate(-29.0 -29.5)" fill="#1c871e"/><path d="M20.976 57.14c2.88-5.774 4.976-11.7 5.348-18.036.342-2.33-1.074-2.37-1.288-.73C20.96 53.97-.727 49.744.02 35.08.622 23.182 12.44 20.624 18.6 24.513c2.435 1.434 2.296.575.968-.91C10.416 13.39 15.958.24 28.33 0c13.38.793 16.854 14.87 8.647 23.147-1.02.994-3.283 4.19.123 1.956 8.287-5.888 19.787.443 19.553 9.52-.434 16.74-20.84 17.987-25.203 4.007-.42-1.55-1.63-2.328-1.295.305.604 4.767 1.855 11.953 5.438 18.205H20.976z" transform="translate(60.0 118.0) scale(1.42 1.1) translate(-29.0 -29.5)" fill="none" stroke="#1c871e" stroke-width="4.0" stroke-linejoin="round"/></svg>