<svg xmlns="http://www.w3.org/2000/svg" viewBox="0 0 120 168"><defs><linearGradient id="g_club" x1="0" y1="0" x2="0.18" y2="1"><stop offset="0" stop-color="#a0cfa4"/><stop offset="0.5" stop-color="#a0cfa4" stop-opacity="0.85"/><stop offset="1" stop-color="#42b742"/></linearGradient></defs><rect x="0" y="0" width="120" height="168" rx="9" fill="url(#g_club)"/><rect x="0.5" y="0.5" width="119" height="167" rx="8.5" fill="none" stroke="#1c871e" stroke-width="1" opacity="0.3"/><path d="M352.3285280728376 -11.776176024279211Q255.94894862345546 -11.776176024279211 185.57787773683071 27.930630825926727Q115.20680685020594 67.63743767613266 77.2323325384782 144.74084110123562Q39.257858226750486 221.8442445263386 39.257858226750486 334.63743767613266Q39.257858226750486 455.82722740082374 84.63743767613266 539.9136137004118Q130.01701712551485 624.0 210.57787773683071 667.8880880121396Q291.13873834814655 711.7761760242793 396.484283546499 711.7761760242793Q451.84684587036634 711.7761760242793 503.0111099067852 699.6897897246911Q554.175373943204 687.603403425103 590.5549533925862 664.0170171255148L530.8978972469109 544.8756774333406Q501.7081075222198 565.0654671580317 468.6995989594624 572.5654671580317Q435.69109039670496 580.0654671580317 399.67407327119014 580.0654671580317Q309.3651636678951 580.0654671580317 256.00390201604165 524.8939952308692Q202.64264036418817 469.7225233037069 202.64264036418817 362.17277259917626Q202.64264036418817 344.1557554736614 203.54774550184263 322.11321265987425Q204.4528506394971 300.0706698460871 208.67667461521785 277.8298287448515L164.3311294168654 319.84684587036634Q182.52091914155648 358.6740732711901 212.8396379796228 385.1910903967049Q243.15835681768914 411.7081075222198 284.6838825059614 425.11321265987425Q326.2094081942337 438.5183177975287 376.41621504443964 438.5183177975287Q444.0366355950574 438.5183177975287 498.23493388250597 411.62172122263166Q552.4332321699545 384.7251246477347 584.7264253197486 335.9319314979406Q617.0196184695426 287.13873834814655 617.0196184695426 220.55235204855842Q617.0196184695426 149.7761760242792 581.734933882506 97.49149143724257Q546.4502492954693 45.206806850205936 486.47577498374164 16.715315412963363Q426.5013006720139 -11.776176024279211 352.3285280728376 -11.776176024279211ZM342.9659657489703 108.9855842185129Q377.2408411012356 108.9855842185129 403.6969976154346 121.70940819423367Q430.15315412963366 134.43323216995447 444.88548666811187 157.9757749837416Q459.61781920659007 181.5183177975287 459.61781920659007 213.17277259917626Q459.61781920659007 261.2578582267505 427.2480489919792 289.50720789074353Q394.87827877736834 317.7565575547366 340.5523520485584 317.7565575547366Q305.0706698460871 317.7565575547366 278.2094081942337 304.2310318664644Q251.34814654238022 290.7055061781921 235.8141122913505 267.16296336440496Q220.28007804032083 243.6204205506178 220.28007804032083 212.56936917407327Q220.28007804032083 183.32852807283763 234.90900715369608 159.7859852590505Q249.53793626707133 136.24344244526338 277.00260134402777 122.61451333188813Q304.4672664209842 108.9855842185129 342.9659657489703 108.9855842185129Z" transform="translate(9.12 44.0) scale(0.05142857142857143 -0.05142857142857143)" fill="#1c871e"/><path d="M20.976 57.14c2.88-5.774 4.976-11.7 5.348-18.036.342-2.33-1.074-2.37-1.288-.73C20.96 53.97-.727 49.744.02 35.08.622 23.182 12.44 20.624 18.6 24.513c2.435 1.434 2.296.575.968-.91C10.416 13.39 15.958.24 28.33 0c13.38.793 16.854 14.87 8.647 23.147-1.02.994-3.283 4.19.123 1.956 8.287-5.888 19.787.443 19.553 9.52-.434 16.74-20.84 17.987-25.203 4.007-.42-1.55-1.63-2.328-1.295.305.604 4.767 1.855 11.953 5.438 18.205H20.976z" transform="translate(26.0 64.0) scale(0.52) translate(-29.0 -29.5)" fill="#1c871e"/><path d="M20.976 57.14c2.88-5.774 4.976-11.7 5.348-18.036.342-2.33-1.074-2.37-1.288-.73C20.96 53.97-.727 49.744.02 35.08.622 23.182 12.44 20.624 18.6 24.513c2.435 1.434 2.296.575.968-.91C10.416 13.39 15.958.24 28.33 0c13.38.793 16.854 14.87 8.647 23.147-1.02.994-3.283 4.19.123 1.956 8.287-5.888 19.787.443 19.553 9.52-.434 16.74-20.84 17.987-25.203 4.007-.42-1.55-1.63-2.328-1.295.305.604 4.767 1.855 11.953 5.438 18.205H20.976z" transform="translate(60.0 118.0) scale(1.42 1.1) translate(-29.0 -29.5)" fill="none" stroke="#1c871e" stroke-width="4.0" stroke-linejoin="round"/></svg>