<svg xmlns="http://www.w3.org/2000/svg" viewBox="0 0 120 168"><defs><linearGradient id="g_club" x1="0" y1="0" x2="0.18" y2="1"><stop offset="0" stop-color="#a0cfa4"/><stop offset="0.5" stop-color="#a0cfa4" stop-opacity="0.85"/><stop offset="1" stop-color="#42b742"/></linearGradient></defs><rect x="0" y="0" width="120" height="168" rx="9" fill="url(#g_club)"/><rect x="0.5" y="0.5" width="119" height="167" rx="8.5" fill="none" stroke="#1c871e" stroke-width="1" opacity="0.3"/><path d="M329.3455451983525 -11.776176024279211Q240.56936917407327 -11.776176024279211 174.59489486234554 14.517017125514851Q108.62042055061782 40.81021027530891 71.93913938868415 89.19829828744852Q35.257858226750486 137.58638629958813 35.257858226750486 203.17277259917626Q35.257858226750486 268.1557554736614 71.43063082592673 313.44044006069805Q107.60340342510297 358.7251246477347 173.7761760242792 382.51831779752877Q239.94894862345546 406.3115109473228 329.3455451983525 406.3115109473228Q418.7421417732495 406.3115109473228 485.21661608497726 382.51831779752877Q551.691090396705 358.7251246477347 588.1655647084327 313.13873834814655Q624.6400390201604 267.5523520485584 624.6400390201604 203.17277259917626Q624.6400390201604 137.58638629958813 587.6570561456753 89.19829828744852Q550.6740732711901 40.81021027530891 484.3978972469109 14.517017125514851Q418.12172122263166 -11.776176024279211 329.3455451983525 -11.776176024279211ZM329.3455451983525 107.39919791892478Q389.89529590288316 107.39919791892478 425.57527639280295 134.4417407327119Q461.25525688272273 161.48428354649903 461.25525688272273 208.1557554736614Q461.25525688272273 254.82722740082374 425.57527639280295 281.5680685020594Q389.89529590288316 308.30890960329504 329.3455451983525 308.30890960329504Q268.7957944938218 308.30890960329504 233.71921742900497 281.5680685020594Q198.64264036418817 254.82722740082374 198.64264036418817 208.1557554736614Q198.64264036418817 161.48428354649903 233.71921742900497 134.4417407327119Q268.7957944938218 107.39919791892478 329.3455451983525 107.39919791892478ZM329.3455451983525 418.89789724691093Q379.89529590288316 418.89789724691093 409.4718729677 442.13873834814655Q439.0484500325168 465.37957944938216 439.0484500325168 505.4476479514416Q439.0484500325168 547.1191198786039 408.56676783004553 569.8599609798396Q378.08508562757424 592.6008020810752 329.3455451983525 592.6008020810752Q280.6060047691307 592.6008020810752 250.7277259917624 569.8599609798396Q220.8494472143941 547.1191198786039 220.8494472143941 505.4476479514416Q220.8494472143941 465.37957944938216 250.12432256665943 442.13873834814655Q279.39919791892476 418.89789724691093 329.3455451983525 418.89789724691093ZM329.3455451983525 323.6884890526772Q247.94894862345546 323.6884890526772 187.57787773683071 345.98168220247123Q127.20680685020594 368.2748753522653 93.7323325384782 410.66296336440496Q60.257858226750486 453.05105137654454 60.257858226750486 512.4306308259268Q60.257858226750486 574.0170171255148 94.24084110123565 618.4051051376545Q128.2238239757208 662.7931931497941 189.0 687.2846845870367Q249.7761760242792 711.7761760242793 329.3455451983525 711.7761760242793Q409.5183177975287 711.7761760242793 470.2944938218079 687.2846845870367Q531.0706698460872 662.7931931497941 565.3553544331238 618.4051051376545Q599.6400390201604 574.0170171255148 599.6400390201604 512.4306308259268Q599.6400390201604 453.05105137654454 566.1655647084327 410.66296336440496Q532.691090396705 368.2748753522653 471.91491437242576 345.98168220247123Q411.13873834814655 323.6884890526772 329.3455451983525 323.6884890526772Z" transform="translate(9.03 44.0) scale(0.05142857142857143 -0.05142857142857143)" fill="#1c871e"/><path d="M20.976 57.14c2.88-5.774 4.976-11.7 5.348-18.036.342-2.33-1.074-2.37-1.288-.73C20.96 53.97-.727 49.744.02 35.08.622 23.182 12.44 20.624 18.6 24.513c2.435 1.434 2.296.575.968-.91C10.416 13.39 15.958.24 28.33 0c13.38.793 16.854 14.87 8.647 23.147-1.02.994-3.283 4.19.123 1.956 8.287-5.888 19.787.443 19.553 9.52-.434 16.74-20.84 17.987-25.203 4.007-.42-1.55-1.63-2.328-1.295.305.604 4.767 1.855 11.953 5.438 18.205H20.976z" transform="translate(26.0 64.0) scale(0.52) translate(-29.0 -29.5)" fill="#1c871e"/><path d="M20.976 57.14c2.88-5.774 4.976-11.7 5.348-18.036.342-2.33-1.074-2.37-1.288-.73C20.96 53.97-.727 49.744.02 35.08.622 23.182 12.44 20.624 18.6 24.513c2.435 1.434 2.296.575.968-.91C10.416 13.39 15.958.24 28.33 0c13.38.793 16.854 14.87 8.647 23.147-1.02.994-3.283 4.19.123 1.956 8.287-5.888 19.787.443 19.553 9.52-.434 16.74-20.84 17.987-25.203 4.007-.42-1.55-1.63-2.328-1.295.305.604 4.767 1.855 11.953 5.438 18.205H20.976z" transform="translate(60.0 118.0) scale(1.42 1.1) translate(-29.0 -29.5)" fill="none" stroke="#1c871e" stroke-width="4.0" stroke-linejoin="round"/></svg>