<svg xmlns="http://www.w3.org/2000/svg" viewBox="0 0 120 168"><defs><linearGradient id="g_diamond" x1="0" y1="0" x2="0.18" y2="1"><stop offset="0" stop-color="#b0cbdc"/><stop offset="0.5" stop-color="#b0cbdc" stop-opacity="0.85"/><stop offset="1" stop-color="#3d80b8"/></linearGradient></defs><rect x="0" y="0" width="120" height="168" rx="9" fill="url(#g_diamond)"/><rect x="0.5" y="0.5" width="119" height="167" rx="8.5" fill="none" stroke="#0e4c7a" stroke-width="1" opacity="0.3"/><path d="M151.3259267288099 0.0 432.824626056796 638.3259267288099 475.30890960329504 567.6858877086495H98.0536527205723L169.53793626707133 643.912313028398V453.61781920659007H25.82722740082376V700.0H586.8128116193367V595.428029481899L326.659657489703 0.0Z" transform="translate(10.25 44.0) scale(0.05142857142857143 -0.05142857142857143)" fill="#0e4c7a"/><path d="M28.5 0l20.112 29L28.5 58 8.388 29z" transform="translate(26.0 64.0) scale(0.52) translate(-29.0 -29.5)" fill="#0e4c7a"/><path d="M28.5 0l20.112 29L28.5 58 8.388 29z" transform="translate(60.0 118.0) scale(1.42 1.1) translate(-29.0 -29.5)" fill="none" stroke="#0e4c7a" stroke-width="4.0" stroke-linejoin="round"/></svg>