<svg xmlns="http://www.w3.org/2000/svg" viewBox="0 0 120 168"><defs><linearGradient id="g_diamond" x1="0" y1="0" x2="0.18" y2="1"><stop offset="0" stop-color="#b0cbdc"/><stop offset="0.5" stop-color="#b0cbdc" stop-opacity="0.85"/><stop offset="1" stop-color="#3d80b8"/></linearGradient></defs><rect x="0" y="0" width="120" height="168" rx="9" fill="url(#g_diamond)"/><rect x="0.5" y="0.5" width="119" height="167" rx="8.5" fill="none" stroke="#0e4c7a" stroke-width="1" opacity="0.3"/><path d="M146.7225233037069 0.0V640.3259267288099L216.94894862345546 569.6688705831347H6.8102102753089095V700.0H309.1073054411446V0.0Z M731.3625623238673 -11.776176024279211Q645.0 -11.776176024279211 577.1204205506178 30.620420550617823Q509.2408411012357 73.01701712551485 470.2493496639931 153.81021027530892Q431.2578582267505 234.60340342510298 431.2578582267505 350.0Q431.2578582267505 465.39659657489705 470.2493496639931 546.1897897246911Q509.2408411012357 626.9829828744852 577.1204205506178 669.3795794493822Q645.0 711.7761760242793 731.3625623238673 711.7761760242793Q817.7251246477347 711.7761760242793 885.6047040971168 669.3795794493822Q953.484283546499 626.9829828744852 992.4757749837416 546.1897897246911Q1031.4672664209843 465.39659657489705 1031.4672664209843 350.0Q1031.4672664209843 234.60340342510298 992.4757749837416 153.81021027530892Q953.484283546499 73.01701712551485 885.6047040971168 30.620420550617823Q817.7251246477347 -11.776176024279211 731.3625623238673 -11.776176024279211ZM731.3625623238673 124.72772599176241Q771.8612616518535 124.72772599176241 802.5327335790158 147.96856709299806Q833.2042055061781 171.20940819423367 850.6433448948624 221.07066984608713Q868.0824842835465 270.9319314979406 868.0824842835465 350.0Q868.0824842835465 429.4646650769564 850.6433448948624 479.12762844136137Q833.2042055061781 528.7905918057663 802.5327335790158 552.031432907002Q771.8612616518535 575.2722740082376 731.3625623238673 575.2722740082376Q691.4672664209842 575.2722740082376 660.4940927812704 552.031432907002Q629.5209191415565 528.7905918057663 612.0817797528723 479.12762844136137Q594.6426403641882 429.4646650769564 594.6426403641882 350.0Q594.6426403641882 270.9319314979406 612.0817797528723 221.07066984608713Q629.5209191415565 171.20940819423367 660.4940927812704 147.96856709299806Q691.4672664209842 124.72772599176241 731.3625623238673 124.72772599176241Z" transform="translate(6.65 44.0) scale(0.05142857142857143 -0.05142857142857143)" fill="#0e4c7a"/><path d="M28.5 0l20.112 29L28.5 58 8.388 29z" transform="translate(26.0 64.0) scale(0.52) translate(-29.0 -29.5)" fill="#0e4c7a"/><path d="M28.5 0l20.112 29L28.5 58 8.388 29z" transform="translate(60.0 118.0) scale(1.42 1.1) translate(-29.0 -29.5)" fill="none" stroke="#0e4c7a" stroke-width="4.0" stroke-linejoin="round"/></svg>