<svg xmlns="http://www.w3.org/2000/svg" viewBox="0 0 120 168"><defs><linearGradient id="g_diamond" x1="0" y1="0" x2="0.18" y2="1"><stop offset="0" stop-color="#b0cbdc"/><stop offset="0.5" stop-color="#b0cbdc" stop-opacity="0.85"/><stop offset="1" stop-color="#3d80b8"/></linearGradient></defs><rect x="0" y="0" width="120" height="168" rx="9" fill="url(#g_diamond)"/><rect x="0.5" y="0.5" width="119" height="167" rx="8.5" fill="none" stroke="#0e4c7a" stroke-width="1" opacity="0.3"/><path d="M212.2774766962931 -11.776176024279211Q141.13873834814655 -11.776176024279211 81.77617602427921 14.422122263169307Q22.41361370041188 40.62042055061782 -16.155755473661394 90.41361370041187L74.03663559505745 197.571970518101Q102.64003902016042 159.9515499674832 134.76896813353565 140.64133969217428Q166.8978972469109 121.33112941686538 204.34554519835248 121.33112941686538Q303.2748753522653 121.33112941686538 303.2748753522653 237.29449382180792V569.6688705831347H57.43063082592673V700.0H464.46986776501194V246.46726642098417Q464.46986776501194 116.34554519835248 400.12432256665943 52.28468458703664Q335.778777368307 -11.776176024279211 212.2774766962931 -11.776176024279211Z" transform="translate(14.47 44.0) scale(0.05142857142857143 -0.05142857142857143)" fill="#0e4c7a"/><path d="M28.5 0l20.112 29L28.5 58 8.388 29z" transform="translate(26.0 64.0) scale(0.52) translate(-29.0 -29.5)" fill="#0e4c7a"/><path d="M28.5 0l20.112 29L28.5 58 8.388 29z" transform="translate(60.0 118.0) scale(1.42 1.1) translate(-29.0 -29.5)" fill="none" stroke="#0e4c7a" stroke-width="4.0" stroke-linejoin="round"/></svg>