<svg xmlns="http://www.w3.org/2000/svg" viewBox="0 0 120 168"><rect x="0.5" y="0.5" width="119" height="167" rx="9" fill="#ffffff" stroke="#cccccc" stroke-width="1"/><path d="M0 25.663L2.578 23.8c2.24 3.577 4.74 5.935 8.566 5.53 5.742-.39 8.12-6.296 6.918-10.753-1.16-3.99-5.916-5.938-9.694-3.808-.892.5-1.922 1.12-1.922 1.12L5.1 13.7l8.87-10.317H4.346v4.27H.654V0h18.812v2.6s-5.04 5.13-6.707 7.94c4.1.148 7.41 2.7 8.59 6.737.69 2.124.38 6.984-.527 9.076-1.51 3.492-5.65 6.325-9.434 6.488-6.34.42-9.71-3.94-11.39-7.17z" transform="translate(7.897,8.500) scale(0.6176)" fill="#1E3483"/><path d="M28.5 0l20.112 29L28.5 58 8.388 29z" transform="translate(8.119,33.000) scale(0.2373)" fill="#1E3483"/><g transform="rotate(180 60 84)"><path d="M0 25.663L2.578 23.8c2.24 3.577 4.74 5.935 8.566 5.53 5.742-.39 8.12-6.296 6.918-10.753-1.16-3.99-5.916-5.938-9.694-3.808-.892.5-1.922 1.12-1.922 1.12L5.1 13.7l8.87-10.317H4.346v4.27H.654V0h18.812v2.6s-5.04 5.13-6.707 7.94c4.1.148 7.41 2.7 8.59 6.737.69 2.124.38 6.984-.527 9.076-1.51 3.492-5.65 6.325-9.434 6.488-6.34.42-9.71-3.94-11.39-7.17z" transform="translate(7.897,8.500) scale(0.6176)" fill="#1E3483"/><path d="M28.5 0l20.112 29L28.5 58 8.388 29z" transform="translate(8.119,33.000) scale(0.2373)" fill="#1E3483"/></g><rect x="31.0" y="41.0" width="58.0" height="86.0" rx="5" fill="#1E3483"/><path d="M28.5 0l20.112 29L28.5 58 8.388 29z" transform="translate(51.644,43.500) scale(0.2881)" fill="#ffffff"/><path d="M28.5 0l20.112 29L28.5 58 8.388 29z" transform="translate(51.644,75.500) scale(0.2881)" fill="#ffffff"/><g transform="rotate(180 60.00 116.00)"><path d="M28.5 0l20.112 29L28.5 58 8.388 29z" transform="translate(51.644,107.500) scale(0.2881)" fill="#ffffff"/></g></svg>