<svg xmlns="http://www.w3.org/2000/svg" viewBox="0 0 120 168"><rect x="0.5" y="0.5" width="119" height="167" rx="9" fill="#ffffff" stroke="#cccccc" stroke-width="1"/><path d="M0 32.008V29.27h2.66L8.326 0h3.224l6.24 29.27h2.148v2.738H12.62V29.27h1.98l-.787-4.484H6.427l-.57 4.484h1.978v2.738H0zm13.178-10.416L9.97 5.922l-3.007 15.67h6.215z" transform="translate(8.515,8.500) scale(0.6176)" fill="#1E3483"/><path d="M28.5 0l20.112 29L28.5 58 8.388 29z" transform="translate(8.119,33.000) scale(0.2373)" fill="#1E3483"/><g transform="rotate(180 60 84)"><path d="M0 32.008V29.27h2.66L8.326 0h3.224l6.24 29.27h2.148v2.738H12.62V29.27h1.98l-.787-4.484H6.427l-.57 4.484h1.978v2.738H0zm13.178-10.416L9.97 5.922l-3.007 15.67h6.215z" transform="translate(8.515,8.500) scale(0.6176)" fill="#1E3483"/><path d="M28.5 0l20.112 29L28.5 58 8.388 29z" transform="translate(8.119,33.000) scale(0.2373)" fill="#1E3483"/></g><rect x="31.0" y="41.0" width="58.0" height="86.0" rx="5" fill="#1E3483"/><path d="M28.5 0l20.112 29L28.5 58 8.388 29z" transform="translate(37.390,61.000) scale(0.7797)" fill="#ffffff"/></svg>