<svg xmlns="http://www.w3.org/2000/svg" viewBox="0 0 120 168"><rect x="0.5" y="0.5" width="119" height="167" rx="9" fill="#ffffff" stroke="#cccccc" stroke-width="1"/><path d="M.313 22.58c-.408-2.746-.402-9.843-.066-11.94C1.277 4.21 3.78 1.27 7.97.305c4.067-.936 9.79.105 11.044 5.48l-3.407.064c-1.84-3.64-6.495-2.66-9.115-1.09-2.094 1.262-3.04 6.52-2.635 6.843-.003 0 3.957-2.877 7.076-2.665 6.668.682 9.417 6.354 9.184 11.72-.21 6.45-2.294 11.6-9.36 11.943-6.72-.25-9.8-3.85-10.444-10.03zm16.57-1.704c.036-4.476-2.034-7.822-5.95-8.192-3.915-.368-7.863 3.382-7.59 7.942.273 4.578 2.078 8.434 6.825 8.412 5.108-.024 6.69-4.977 6.714-8.162z" transform="translate(8.206,8.500) scale(0.6176)" fill="#1A1A1A"/><path d="M26.406 40.187c.015-1.98-1.56-2.017-1.542-.573-.133 7.257-6.31 10.83-10.8 9.982-6.92-1.307-9.128-8.13-9.06-12.148C5.204 25.046 17.774 15.9 29.114 0c8.31 14.35 22.03 25.623 22.84 36.717 1.08 14.75-17.71 20.25-20.394 3.06-.172-1.214-1.612-1.76-1.5-.063.408 4.71-.17 6.674 5.18 18.287H21.25c3.1-5.42 4.943-12.09 5.154-17.81z" transform="translate(8.119,33.000) scale(0.2373)" fill="#1A1A1A"/><g transform="rotate(180 60 84)"><path d="M.313 22.58c-.408-2.746-.402-9.843-.066-11.94C1.277 4.21 3.78 1.27 7.97.305c4.067-.936 9.79.105 11.044 5.48l-3.407.064c-1.84-3.64-6.495-2.66-9.115-1.09-2.094 1.262-3.04 6.52-2.635 6.843-.003 0 3.957-2.877 7.076-2.665 6.668.682 9.417 6.354 9.184 11.72-.21 6.45-2.294 11.6-9.36 11.943-6.72-.25-9.8-3.85-10.444-10.03zm16.57-1.704c.036-4.476-2.034-7.822-5.95-8.192-3.915-.368-7.863 3.382-7.59 7.942.273 4.578 2.078 8.434 6.825 8.412 5.108-.024 6.69-4.977 6.714-8.162z" transform="translate(8.206,8.500) scale(0.6176)" fill="#1A1A1A"/><path d="M26.406 40.187c.015-1.98-1.56-2.017-1.542-.573-.133 7.257-6.31 10.83-10.8 9.982-6.92-1.307-9.128-8.13-9.06-12.148C5.204 25.046 17.774 15.9 29.114 0c8.31 14.35 22.03 25.623 22.84 36.717 1.08 14.75-17.71 20.25-20.394 3.06-.172-1.214-1.612-1.76-1.5-.063.408 4.71-.17 6.674 5.18 18.287H21.25c3.1-5.42 4.943-12.09 5.154-17.81z" transform="translate(8.119,33.000) scale(0.2373)" fill="#1A1A1A"/></g><rect x="31.0" y="41.0" width="58.0" height="86.0" rx="5" fill="#1A1A1A"/><path d="M26.406 40.187c.015-1.98-1.56-2.017-1.542-.573-.133 7.257-6.31 10.83-10.8 9.982-6.92-1.307-9.128-8.13-9.06-12.148C5.204 25.046 17.774 15.9 29.114 0c8.31 14.35 22.03 25.623 22.84 36.717 1.08 14.75-17.71 20.25-20.394 3.06-.172-1.214-1.612-1.76-1.5-.063.408 4.71-.17 6.674 5.18 18.287H21.25c3.1-5.42 4.943-12.09 5.154-17.81z" transform="translate(33.644,43.500) scale(0.2881)" fill="#ffffff"/><path d="M26.406 40.187c.015-1.98-1.56-2.017-1.542-.573-.133 7.257-6.31 10.83-10.8 9.982-6.92-1.307-9.128-8.13-9.06-12.148C5.204 25.046 17.774 15.9 29.114 0c8.31 14.35 22.03 25.623 22.84 36.717 1.08 14.75-17.71 20.25-20.394 3.06-.172-1.214-1.612-1.76-1.5-.063.408 4.71-.17 6.674 5.18 18.287H21.25c3.1-5.42 4.943-12.09 5.154-17.81z" transform="translate(69.644,43.500) scale(0.2881)" fill="#ffffff"/><path d="M26.406 40.187c.015-1.98-1.56-2.017-1.542-.573-.133 7.257-6.31 10.83-10.8 9.982-6.92-1.307-9.128-8.13-9.06-12.148C5.204 25.046 17.774 15.9 29.114 0c8.31 14.35 22.03 25.623 22.84 36.717 1.08 14.75-17.71 20.25-20.394 3.06-.172-1.214-1.612-1.76-1.5-.063.408 4.71-.17 6.674 5.18 18.287H21.25c3.1-5.42 4.943-12.09 5.154-17.81z" transform="translate(33.644,75.500) scale(0.2881)" fill="#ffffff"/><path d="M26.406 40.187c.015-1.98-1.56-2.017-1.542-.573-.133 7.257-6.31 10.83-10.8 9.982-6.92-1.307-9.128-8.13-9.06-12.148C5.204 25.046 17.774 15.9 29.114 0c8.31 14.35 22.03 25.623 22.84 36.717 1.08 14.75-17.71 20.25-20.394 3.06-.172-1.214-1.612-1.76-1.5-.063.408 4.71-.17 6.674 5.18 18.287H21.25c3.1-5.42 4.943-12.09 5.154-17.81z" transform="translate(69.644,75.500) scale(0.2881)" fill="#ffffff"/><g transform="rotate(180 42.00 116.00)"><path d="M26.406 40.187c.015-1.98-1.56-2.017-1.542-.573-.133 7.257-6.31 10.83-10.8 9.982-6.92-1.307-9.128-8.13-9.06-12.148C5.204 25.046 17.774 15.9 29.114 0c8.31 14.35 22.03 25.623 22.84 36.717 1.08 14.75-17.71 20.25-20.394 3.06-.172-1.214-1.612-1.76-1.5-.063.408 4.71-.17 6.674 5.18 18.287H21.25c3.1-5.42 4.943-12.09 5.154-17.81z" transform="translate(33.644,107.500) scale(0.2881)" fill="#ffffff"/></g><g transform="rotate(180 78.00 116.00)"><path d="M26.406 40.187c.015-1.98-1.56-2.017-1.542-.573-.133 7.257-6.31 10.83-10.8 9.982-6.92-1.307-9.128-8.13-9.06-12.148C5.204 25.046 17.774 15.9 29.114 0c8.31 14.35 22.03 25.623 22.84 36.717 1.08 14.75-17.71 20.25-20.394 3.06-.172-1.214-1.612-1.76-1.5-.063.408 4.71-.17 6.674 5.18 18.287H21.25c3.1-5.42 4.943-12.09 5.154-17.81z" transform="translate(69.644,107.500) scale(0.2881)" fill="#ffffff"/></g></svg>