<svg xmlns="http://www.w3.org/2000/svg" viewBox="0 0 120 168"><rect x="0.5" y="0.5" width="119" height="167" rx="9" fill="#ffffff" stroke="#cccccc" stroke-width="1"/><path d="M.004 23.055c.16-4.375 1.77-6.02 4.944-8.31-2.53-1.796-3.6-4.438-3.384-6.688C2.084 2.61 6.376-.115 11.05.003c4.674.12 8.703 3.763 9.018 7.722.272 3.443-.77 5.103-3.257 6.914 2.96 2.44 4.85 4.05 4.77 8.36-.07 4.31-3.8 9.43-10.31 9.59-6.51.16-11.42-5.167-11.26-9.54zm18.172.013c.28-3.96-3.288-6.635-7.312-6.676-3.923-.04-7.432 3.246-7.433 6.803 0 3.822 4.57 5.896 7.52 5.908 3.584.014 6.995-2.623 7.235-6.035zM16.89 8.898c.077-3.34-3.058-5.73-6.29-5.637-2.875.09-5.92 2.25-5.922 5.04-.003 3.49 3.462 5.23 6.417 5.3 2.68.06 5.735-2.175 5.794-4.694z" transform="translate(7.897,8.500) scale(0.6176)" fill="#13B226"/><path d="M20.976 57.14c2.88-5.774 4.976-11.7 5.348-18.036.342-2.33-1.074-2.37-1.288-.73C20.96 53.97-.727 49.744.02 35.08.622 23.182 12.44 20.624 18.6 24.513c2.435 1.434 2.296.575.968-.91C10.416 13.39 15.958.24 28.33 0c13.38.793 16.854 14.87 8.647 23.147-1.02.994-3.283 4.19.123 1.956 8.287-5.888 19.787.443 19.553 9.52-.434 16.74-20.84 17.987-25.203 4.007-.42-1.55-1.63-2.328-1.295.305.604 4.767 1.855 11.953 5.438 18.205H20.976z" transform="translate(8.119,33.000) scale(0.2373)" fill="#13B226"/><g transform="rotate(180 60 84)"><path d="M.004 23.055c.16-4.375 1.77-6.02 4.944-8.31-2.53-1.796-3.6-4.438-3.384-6.688C2.084 2.61 6.376-.115 11.05.003c4.674.12 8.703 3.763 9.018 7.722.272 3.443-.77 5.103-3.257 6.914 2.96 2.44 4.85 4.05 4.77 8.36-.07 4.31-3.8 9.43-10.31 9.59-6.51.16-11.42-5.167-11.26-9.54zm18.172.013c.28-3.96-3.288-6.635-7.312-6.676-3.923-.04-7.432 3.246-7.433 6.803 0 3.822 4.57 5.896 7.52 5.908 3.584.014 6.995-2.623 7.235-6.035zM16.89 8.898c.077-3.34-3.058-5.73-6.29-5.637-2.875.09-5.92 2.25-5.922 5.04-.003 3.49 3.462 5.23 6.417 5.3 2.68.06 5.735-2.175 5.794-4.694z" transform="translate(7.897,8.500) scale(0.6176)" fill="#13B226"/><path d="M20.976 57.14c2.88-5.774 4.976-11.7 5.348-18.036.342-2.33-1.074-2.37-1.288-.73C20.96 53.97-.727 49.744.02 35.08.622 23.182 12.44 20.624 18.6 24.513c2.435 1.434 2.296.575.968-.91C10.416 13.39 15.958.24 28.33 0c13.38.793 16.854 14.87 8.647 23.147-1.02.994-3.283 4.19.123 1.956 8.287-5.888 19.787.443 19.553 9.52-.434 16.74-20.84 17.987-25.203 4.007-.42-1.55-1.63-2.328-1.295.305.604 4.767 1.855 11.953 5.438 18.205H20.976z" transform="translate(8.119,33.000) scale(0.2373)" fill="#13B226"/></g><rect x="31.0" y="41.0" width="58.0" height="86.0" rx="5" fill="#13B226"/><path d="M20.976 57.14c2.88-5.774 4.976-11.7 5.348-18.036.342-2.33-1.074-2.37-1.288-.73C20.96 53.97-.727 49.744.02 35.08.622 23.182 12.44 20.624 18.6 24.513c2.435 1.434 2.296.575.968-.91C10.416 13.39 15.958.24 28.33 0c13.38.793 16.854 14.87 8.647 23.147-1.02.994-3.283 4.19.123 1.956 8.287-5.888 19.787.443 19.553 9.52-.434 16.74-20.84 17.987-25.203 4.007-.42-1.55-1.63-2.328-1.295.305.604 4.767 1.855 11.953 5.438 18.205H20.976z" transform="translate(33.644,43.500) scale(0.2881)" fill="#ffffff"/><path d="M20.976 57.14c2.88-5.774 4.976-11.7 5.348-18.036.342-2.33-1.074-2.37-1.288-.73C20.96 53.97-.727 49.744.02 35.08.622 23.182 12.44 20.624 18.6 24.513c2.435 1.434 2.296.575.968-.91C10.416 13.39 15.958.24 28.33 0c13.38.793 16.854 14.87 8.647 23.147-1.02.994-3.283 4.19.123 1.956 8.287-5.888 19.787.443 19.553 9.52-.434 16.74-20.84 17.987-25.203 4.007-.42-1.55-1.63-2.328-1.295.305.604 4.767 1.855 11.953 5.438 18.205H20.976z" transform="translate(69.644,43.500) scale(0.2881)" fill="#ffffff"/><path d="M20.976 57.14c2.88-5.774 4.976-11.7 5.348-18.036.342-2.33-1.074-2.37-1.288-.73C20.96 53.97-.727 49.744.02 35.08.622 23.182 12.44 20.624 18.6 24.513c2.435 1.434 2.296.575.968-.91C10.416 13.39 15.958.24 28.33 0c13.38.793 16.854 14.87 8.647 23.147-1.02.994-3.283 4.19.123 1.956 8.287-5.888 19.787.443 19.553 9.52-.434 16.74-20.84 17.987-25.203 4.007-.42-1.55-1.63-2.328-1.295.305.604 4.767 1.855 11.953 5.438 18.205H20.976z" transform="translate(51.644,59.500) scale(0.2881)" fill="#ffffff"/><path d="M20.976 57.14c2.88-5.774 4.976-11.7 5.348-18.036.342-2.33-1.074-2.37-1.288-.73C20.96 53.97-.727 49.744.02 35.08.622 23.182 12.44 20.624 18.6 24.513c2.435 1.434 2.296.575.968-.91C10.416 13.39 15.958.24 28.33 0c13.38.793 16.854 14.87 8.647 23.147-1.02.994-3.283 4.19.123 1.956 8.287-5.888 19.787.443 19.553 9.52-.434 16.74-20.84 17.987-25.203 4.007-.42-1.55-1.63-2.328-1.295.305.604 4.767 1.855 11.953 5.438 18.205H20.976z" transform="translate(33.644,75.500) scale(0.2881)" fill="#ffffff"/><path d="M20.976 57.14c2.88-5.774 4.976-11.7 5.348-18.036.342-2.33-1.074-2.37-1.288-.73C20.96 53.97-.727 49.744.02 35.08.622 23.182 12.44 20.624 18.6 24.513c2.435 1.434 2.296.575.968-.91C10.416 13.39 15.958.24 28.33 0c13.38.793 16.854 14.87 8.647 23.147-1.02.994-3.283 4.19.123 1.956 8.287-5.888 19.787.443 19.553 9.52-.434 16.74-20.84 17.987-25.203 4.007-.42-1.55-1.63-2.328-1.295.305.604 4.767 1.855 11.953 5.438 18.205H20.976z" transform="translate(69.644,75.500) scale(0.2881)" fill="#ffffff"/><g transform="rotate(180 60.00 100.00)"><path d="M20.976 57.14c2.88-5.774 4.976-11.7 5.348-18.036.342-2.33-1.074-2.37-1.288-.73C20.96 53.97-.727 49.744.02 35.08.622 23.182 12.44 20.624 18.6 24.513c2.435 1.434 2.296.575.968-.91C10.416 13.39 15.958.24 28.33 0c13.38.793 16.854 14.87 8.647 23.147-1.02.994-3.283 4.19.123 1.956 8.287-5.888 19.787.443 19.553 9.52-.434 16.74-20.84 17.987-25.203 4.007-.42-1.55-1.63-2.328-1.295.305.604 4.767 1.855 11.953 5.438 18.205H20.976z" transform="translate(51.644,91.500) scale(0.2881)" fill="#ffffff"/></g><g transform="rotate(180 42.00 116.00)"><path d="M20.976 57.14c2.88-5.774 4.976-11.7 5.348-18.036.342-2.33-1.074-2.37-1.288-.73C20.96 53.97-.727 49.744.02 35.08.622 23.182 12.44 20.624 18.6 24.513c2.435 1.434 2.296.575.968-.91C10.416 13.39 15.958.24 28.33 0c13.38.793 16.854 14.87 8.647 23.147-1.02.994-3.283 4.19.123 1.956 8.287-5.888 19.787.443 19.553 9.52-.434 16.74-20.84 17.987-25.203 4.007-.42-1.55-1.63-2.328-1.295.305.604 4.767 1.855 11.953 5.438 18.205H20.976z" transform="translate(33.644,107.500) scale(0.2881)" fill="#ffffff"/></g><g transform="rotate(180 78.00 116.00)"><path d="M20.976 57.14c2.88-5.774 4.976-11.7 5.348-18.036.342-2.33-1.074-2.37-1.288-.73C20.96 53.97-.727 49.744.02 35.08.622 23.182 12.44 20.624 18.6 24.513c2.435 1.434 2.296.575.968-.91C10.416 13.39 15.958.24 28.33 0c13.38.793 16.854 14.87 8.647 23.147-1.02.994-3.283 4.19.123 1.956 8.287-5.888 19.787.443 19.553 9.52-.434 16.74-20.84 17.987-25.203 4.007-.42-1.55-1.63-2.328-1.295.305.604 4.767 1.855 11.953 5.438 18.205H20.976z" transform="translate(69.644,107.500) scale(0.2881)" fill="#ffffff"/></g></svg>