<svg xmlns="http://www.w3.org/2000/svg" viewBox="0 0 120 168"><rect x="0.5" y="0.5" width="119" height="167" rx="9" fill="#ffffff" stroke="#cccccc" stroke-width="1"/><path d="M4.98 31.887C7.114 20.8 9.39 12.477 15.36 3.44H3.227v3.892H0V0h17.754l2.188 3.44c-6.34 6.797-12.146 28.77-11.12 28.446h-3.84z" transform="translate(8.318,8.500) scale(0.6364)" fill="#1E3483"/><path d="M28.5 0l20.112 29L28.5 58 8.388 29z" transform="translate(8.119,33.000) scale(0.2373)" fill="#1E3483"/><g transform="rotate(180 60 84)"><path d="M4.98 31.887C7.114 20.8 9.39 12.477 15.36 3.44H3.227v3.892H0V0h17.754l2.188 3.44c-6.34 6.797-12.146 28.77-11.12 28.446h-3.84z" transform="translate(8.318,8.500) scale(0.6364)" fill="#1E3483"/><path d="M28.5 0l20.112 29L28.5 58 8.388 29z" transform="translate(8.119,33.000) scale(0.2373)" fill="#1E3483"/></g><rect x="31.0" y="41.0" width="58.0" height="86.0" rx="5" fill="#1E3483"/><path d="M28.5 0l20.112 29L28.5 58 8.388 29z" transform="translate(33.644,43.500) scale(0.2881)" fill="#ffffff"/><path d="M28.5 0l20.112 29L28.5 58 8.388 29z" transform="translate(69.644,43.500) scale(0.2881)" fill="#ffffff"/><path d="M28.5 0l20.112 29L28.5 58 8.388 29z" transform="translate(51.644,59.500) scale(0.2881)" fill="#ffffff"/><path d="M28.5 0l20.112 29L28.5 58 8.388 29z" transform="translate(33.644,75.500) scale(0.2881)" fill="#ffffff"/><path d="M28.5 0l20.112 29L28.5 58 8.388 29z" transform="translate(69.644,75.500) scale(0.2881)" fill="#ffffff"/><g transform="rotate(180 42.00 116.00)"><path d="M28.5 0l20.112 29L28.5 58 8.388 29z" transform="translate(33.644,107.500) scale(0.2881)" fill="#ffffff"/></g><g transform="rotate(180 78.00 116.00)"><path d="M28.5 0l20.112 29L28.5 58 8.388 29z" transform="translate(69.644,107.500) scale(0.2881)" fill="#ffffff"/></g></svg>