<svg xmlns="http://www.w3.org/2000/svg" viewBox="0 0 120 168"><rect x="0.5" y="0.5" width="119" height="167" rx="9" fill="#ffffff" stroke="#cccccc" stroke-width="1"/><path d="M.224 26.224l3.025-.942c1.14 2.995 3.45 3.88 5.89 3.688 4.38-.34 5.83-5.147 6.16-9.397-1.71 1.772-4.276 2.674-6.46 2.586C1.86 21.79.07 16.3.01 10.55-.18 5.71 1.86 2.202 5.36.592c1.855-.812 6.1-.812 7.96.15 4.283 2.217 5.867 6.05 5.58 15.19.004 7.523-1.625 16.287-9.838 16.476-4.748.644-8.352-2.98-8.838-6.184zM12.11 17.98c1.428-.887 2.23-1.717 2.868-2.963.525-1.02.703-1.553.553-3.67-.38-5.457-3.29-8.547-7.52-7.933-2.35.344-3.64 1.64-4.38 4.05-1.364 4.45.367 9.656 3.61 10.854 1.464.54 3.716.386 4.88-.338z" transform="translate(8.824,8.500) scale(0.6176)" fill="#1E3483"/><path d="M28.5 0l20.112 29L28.5 58 8.388 29z" transform="translate(8.119,33.000) scale(0.2373)" fill="#1E3483"/><g transform="rotate(180 60 84)"><path d="M.224 26.224l3.025-.942c1.14 2.995 3.45 3.88 5.89 3.688 4.38-.34 5.83-5.147 6.16-9.397-1.71 1.772-4.276 2.674-6.46 2.586C1.86 21.79.07 16.3.01 10.55-.18 5.71 1.86 2.202 5.36.592c1.855-.812 6.1-.812 7.96.15 4.283 2.217 5.867 6.05 5.58 15.19.004 7.523-1.625 16.287-9.838 16.476-4.748.644-8.352-2.98-8.838-6.184zM12.11 17.98c1.428-.887 2.23-1.717 2.868-2.963.525-1.02.703-1.553.553-3.67-.38-5.457-3.29-8.547-7.52-7.933-2.35.344-3.64 1.64-4.38 4.05-1.364 4.45.367 9.656 3.61 10.854 1.464.54 3.716.386 4.88-.338z" transform="translate(8.824,8.500) scale(0.6176)" fill="#1E3483"/><path d="M28.5 0l20.112 29L28.5 58 8.388 29z" transform="translate(8.119,33.000) scale(0.2373)" fill="#1E3483"/></g><rect x="31.0" y="41.0" width="58.0" height="86.0" rx="5" fill="#1E3483"/><path d="M28.5 0l20.112 29L28.5 58 8.388 29z" transform="translate(33.644,43.500) scale(0.2881)" fill="#ffffff"/><path d="M28.5 0l20.112 29L28.5 58 8.388 29z" transform="translate(69.644,43.500) scale(0.2881)" fill="#ffffff"/><path d="M28.5 0l20.112 29L28.5 58 8.388 29z" transform="translate(33.644,63.500) scale(0.2881)" fill="#ffffff"/><path d="M28.5 0l20.112 29L28.5 58 8.388 29z" transform="translate(69.644,63.500) scale(0.2881)" fill="#ffffff"/><path d="M28.5 0l20.112 29L28.5 58 8.388 29z" transform="translate(51.644,75.500) scale(0.2881)" fill="#ffffff"/><g transform="rotate(180 42.00 96.00)"><path d="M28.5 0l20.112 29L28.5 58 8.388 29z" transform="translate(33.644,87.500) scale(0.2881)" fill="#ffffff"/></g><g transform="rotate(180 78.00 96.00)"><path d="M28.5 0l20.112 29L28.5 58 8.388 29z" transform="translate(69.644,87.500) scale(0.2881)" fill="#ffffff"/></g><g transform="rotate(180 42.00 116.00)"><path d="M28.5 0l20.112 29L28.5 58 8.388 29z" transform="translate(33.644,107.500) scale(0.2881)" fill="#ffffff"/></g><g transform="rotate(180 78.00 116.00)"><path d="M28.5 0l20.112 29L28.5 58 8.388 29z" transform="translate(69.644,107.500) scale(0.2881)" fill="#ffffff"/></g></svg>