<svg xmlns="http://www.w3.org/2000/svg" viewBox="0 0 120 168"><rect x="0.5" y="0.5" width="119" height="167" rx="9" fill="#ffffff" stroke="#cccccc" stroke-width="1"/><path d="M19.876 0H9.636v3.498h3.808s-.045-.664-.012 7.14c.02 5.474.016 8.968-.05 11.267.02 3.062-.485 4.936-1.69 6.06-1.908 1.605-5.64 1.444-7.02-.066-1.022-1.19-1.238-3.46-1.177-6.13H.015s.003 1.29 0 1.97C-.588 36.34 16.28 34.2 16.82 25.42c.112-1.877.056-1.194.01-11.598-.05-11.146-.01-10.32-.01-10.32h3.056V0z" transform="translate(8.515,8.500) scale(0.6176)" fill="#1E3483"/><path d="M28.5 0l20.112 29L28.5 58 8.388 29z" transform="translate(8.119,33.000) scale(0.2373)" fill="#1E3483"/><g transform="rotate(180 60 84)"><path d="M19.876 0H9.636v3.498h3.808s-.045-.664-.012 7.14c.02 5.474.016 8.968-.05 11.267.02 3.062-.485 4.936-1.69 6.06-1.908 1.605-5.64 1.444-7.02-.066-1.022-1.19-1.238-3.46-1.177-6.13H.015s.003 1.29 0 1.97C-.588 36.34 16.28 34.2 16.82 25.42c.112-1.877.056-1.194.01-11.598-.05-11.146-.01-10.32-.01-10.32h3.056V0z" transform="translate(8.515,8.500) scale(0.6176)" fill="#1E3483"/><path d="M28.5 0l20.112 29L28.5 58 8.388 29z" transform="translate(8.119,33.000) scale(0.2373)" fill="#1E3483"/></g><rect x="31.0" y="41.0" width="58.0" height="86.0" rx="5" fill="#1E3483"/><g transform="translate(60.00,84.00) scale(0.05000,-0.05000) translate(-320.50,-640.00)"><g transform="translate(0,1280) scale(0.1,-0.1)" fill="#ffffff" stroke="none"><path d="M4650 12747 c-482 -381 -803 -706 -1084 -1100 -147 -206 -324 -529 -426 -779 -71 -171 -159 -447 -171 -536 -21 -150 -68 -256 -138 -311 -63 -50 -139 -80 -285 -111 -709 -152 -1248 -491 -1678 -1055 -218 -287 -450 -722 -537 -1008 -207 -681 -150 -1109 181 -1364 65 -49 168 -83 498 -164 683 -167 1296 -239 2037 -239 757 -1 1475 85 2263 270 285 67 551 140 608 168 73 35 156 126 197 214 49 106 66 199 72 388 5 158 4 171 -27 310 -207 947 -635 1586 -1333 1995 -256 149 -531 256 -901 350 -117 30 -220 62 -235 73 -67 49 -91 124 -91 286 0 93 4 113 34 197 57 158 105 268 183 422 352 690 901 1124 1623 1283 41 9 91 24 110 34 71 36 106 100 94 170 -7 41 -59 142 -83 163 -14 13 -834 398 -843 396 -1 0 -32 -23 -68 -52z"/><path d="M620 6178 c0 -13 5 -124 10 -248 5 -124 14 -556 20 -960 20 -1439 42 -1760 169 -2490 45 -255 89 -431 146 -586 254 -681 769 -1174 1550 -1484 66 -26 152 -57 190 -70 190 -61 336 -149 440 -263 l66 -73 47 46 c120 116 268 202 647 377 568 262 758 387 1030 680 154 165 230 266 305 403 302 554 446 1398 490 2870 11 376 33 1810 28 1815 -2 2 -75 -12 -163 -31 -1480 -317 -2901 -353 -4295 -108 -185 33 -600 120 -662 140 -14 4 -18 0 -18 -18z"/></g></g></svg>