<svg xmlns="http://www.w3.org/2000/svg" viewBox="0 0 120 168">
  <defs>
    <linearGradient id="p" x1="0" y1="0" x2="0.2" y2="1">
      <stop offset="0" stop-color="#f7ecd4"/><stop offset="1" stop-color="#e2cba1"/>
    </linearGradient>
<linearGradient id="cloak" x1="0.1" y1="0" x2="0.9" y2="1">
      <stop offset="0" stop-color="#2e2e38"/>
      <stop offset="0.45" stop-color="#1e1e26"/>
      <stop offset="1" stop-color="#141419"/>
    </linearGradient>
    <linearGradient id="hoodin" x1="0" y1="0" x2="0.6" y2="1">
      <stop offset="0" stop-color="#3a3a4c"/>
      <stop offset="1" stop-color="#1a1a24"/>
    </linearGradient>
    <linearGradient id="steel" x1="0" y1="0" x2="0.2" y2="1">
      <stop offset="0" stop-color="#9aa7b4"/>
      <stop offset="0.55" stop-color="#78848f"/>
      <stop offset="1" stop-color="#5a646e"/>
    </linearGradient>
    <linearGradient id="wood" x1="0" y1="0" x2="1" y2="0">
      <stop offset="0" stop-color="#c4763a"/>
      <stop offset="0.5" stop-color="#a85c28"/>
      <stop offset="1" stop-color="#83431c"/>
    </linearGradient>
  </defs>
  <rect x="0.75" y="0.75" width="118.5" height="166.5" rx="9" fill="url(#p)" stroke="#7a5526" stroke-width="1.5"/>
  <rect x="4.6" y="4.6" width="110.8" height="158.8" rx="6" fill="none" stroke="#c98d49" stroke-width="1.6" opacity="0.85"/>
  <g transform="translate(25.00 10.60) scale(0.5733) translate(-60 -26)"><path d="M.004 23.055c.16-4.375 1.77-6.02 4.944-8.31-2.53-1.796-3.6-4.438-3.384-6.688C2.084 2.61 6.376-.115 11.05.003c4.674.12 8.703 3.763 9.018 7.722.272 3.443-.77 5.103-3.257 6.914 2.96 2.44 4.85 4.05 4.77 8.36-.07 4.31-3.8 9.43-10.31 9.59-6.51.16-11.42-5.167-11.26-9.54zm18.172.013c.28-3.96-3.288-6.635-7.312-6.676-3.923-.04-7.432 3.246-7.433 6.803 0 3.822 4.57 5.896 7.52 5.908 3.584.014 6.995-2.623 7.235-6.035zM16.89 8.898c.077-3.34-3.058-5.73-6.29-5.637-2.875.09-5.92 2.25-5.922 5.04-.003 3.49 3.462 5.23 6.417 5.3 2.68.06 5.735-2.175 5.794-4.694z" transform="matrix(2.0863 0 0 2.0863 37.481 26.001)" fill="#201a14"/></g>
  <g transform="translate(25.00 70.72) scale(0.5603) translate(-60 -122.5)"><path d="M20.976 57.14c2.88-5.774 4.976-11.7 5.348-18.036.342-2.33-1.074-2.37-1.288-.73C20.96 53.97-.727 49.744.02 35.08.622 23.182 12.44 20.624 18.6 24.513c2.435 1.434 2.296.575.968-.91C10.416 13.39 15.958.24 28.33 0c13.38.793 16.854 14.87 8.647 23.147-1.02.994-3.283 4.19.123 1.956 8.287-5.888 19.787.443 19.553 9.52-.434 16.74-20.84 17.987-25.203 4.007-.42-1.55-1.63-2.328-1.295.305.604 4.767 1.855 11.953 5.438 18.205H20.976z" transform="matrix(0.9100 0 0 0.9100 34.446 97.000)" fill="#201a14"/></g>
  <g transform="translate(66.65 113.00) scale(0.09917) translate(-499.8 -486.7)"><path fill="#e8b21b" d="M686.2 14.9L707.8 14.9L687.4 18.3L670.3 15.3L667.1 18.2L667.9 12.9L659.8 17.5L626.7 75.8L623.4 86L634.1 80.5L635.6 73.3L632.7 73.1L647.7 44.4L653.5 39.8L648.7 51.1L673.6 18.6L680.6 18.8L676.8 33.1L689.7 21.2L698.3 18.8L645 77.2L641 86.7L637.2 86.1L638.1 98.9L642.4 94.2L642.8 103.5L629.7 127.4L631.9 135.3L619.6 144.3L627.4 129.5L623 132.7L617 128.1L611.5 132.3L609.1 130L614 143.5L591.3 201.1L591.1 184L597.9 159L591.1 168.3L595.4 148.4L584.9 146.1L590.1 135.8L583.5 146.1L578.9 147.2L608.7 115L613.6 115.7L613.1 123L619 126.9L626.8 122.9L631.8 110.2L629.2 90.6L621.2 87.5L625.5 72.2L660.5 12.7ZM596.9 144.2L610.2 116.6L592.5 136.5L589.6 143.8L595.8 137.3ZM603 136.2L598.9 146.8L602.1 148.9L607.1 145Z"/><path fill="#f1c436" d="M707.8 14.9L692.6 28.2L650.3 80.6L642.8 103.5L642.4 94.2L638.1 98.9L637.2 86.1L641 86.7L642.9 79.6L642.7 87.2L698.4 18.2L676.8 33.1L680.6 18.8L673.6 18.6L648.7 51.1L653.5 39.8L648.7 42.9L632.7 73.1L635.6 73.3L634.1 80.5L623.4 86L659.8 17.5L667.9 12.9L667.1 18.2L670.3 15.3L687.4 18.3Z"/><path fill="#c87b00" d="M709.5 14.6L714.5 51.2L725.3 85L716.5 67.5L700.1 70.6L679.7 81.3L665 100.9L664.6 117L674.1 138.4L670.8 157.1L654.1 130.2L644.3 125.4L637.9 127.3L642.8 128.6L633.9 136.4L632.1 150.1L629.7 127.4L640.2 112L650.2 80.8L692.6 28.2L707.8 14.9L686.2 14.9Z"/><path fill="#ece6d1" d="M642.9 79.6L680.9 39.4L642.7 87.2Z"/><path fill="#9b5400" d="M719.5 114.3L715.1 111L715.2 102.3L725.8 83.5L720 64.4L726.7 83.5L716.7 102.6Z"/><path fill="#db9a08" d="M725.3 85L714.8 104.6L715.3 111.6L722.8 116.7L685.9 119.9L671.3 127.4L666.4 121.8L665.5 98.5L681.6 80L700.1 70.6L716.5 67.5ZM666.8 103.6L671 115.4L701 110.8L710.9 103.7L716.3 88L699.3 81.2L685.7 81.5L673.9 88.6Z"/><path fill="#c87b00" d="M625.5 72.2L621.2 87.5L628.8 89.9L630.8 100.8L620.2 88.4Z"/><path fill="#9b5400" d="M702.2 81.9L704.8 89L701.3 95L666.8 103.6L678.1 85L688.3 80.9Z"/><path fill="#b36701" d="M710.3 84.5L712.5 91.7L704.1 102.3L671.7 112.4L666.8 110.2L666.8 103.6L701.3 95L704.8 89L702.2 81.9Z"/><path fill="#c87b00" d="M666.8 110.2L671.7 112.4L701.7 103.5L712.5 91.7L710.3 84.5L716.3 88L710.9 103.7L702.9 110.1L673.1 115.5Z"/><path fill="#e8b21b" d="M722.8 116.7L732.9 121.2L716.6 134.1L723.5 126.4L679 134.3L671.3 127.4L685.9 119.9Z"/><path fill="#d38d02" d="M736.1 124.2L738.7 165.5L762.9 235.4L761.8 252.8L762.5 237.9L752 228.1L715.8 217.3L685.3 199.8L670.1 201.9L656.4 211.6L643.6 188L632.4 179.4L612.5 182.6L610.1 194.4L607.1 184.6L611.3 203.3L603.1 210.3L596.7 204.3L594.2 198.7L607.4 167.7L619.6 144.3L631.9 135.3L630.4 147.6L635.5 154.8L628.3 156.2L641.5 167L648.8 167.6L662.4 160.7L664.9 148.5L670.8 157.1L674.1 138.4L669.7 126L683.6 137.4L699.5 141L715 135.3L732.8 121.5L722.2 115.5L732.7 119ZM698 174.4L701.3 180.7L711 176.2L713.7 164.1L720.2 156.4L702.1 160.1L700.6 162.8L710.9 161.7L699.6 165.8Z"/><path fill="#dacdaa" d="M596.9 144.2L595.8 137.3L589.6 143.8L592.5 136.5L610.2 116.6Z"/><path fill="#9b5400" d="M738.4 142.4L739.5 162.8L747.2 189.5L737.1 157L736.1 124.2Z"/><path fill="#f1c436" d="M716.6 134.1L696.8 141L679 134.3L723.5 126.4Z"/><path fill="#e8b21b" d="M655.9 132.6L664.1 145.9L664.9 156.4L656.5 165.6L641.5 167L630.9 156.7L657 157.1L659.5 145.3L645.8 129.9Z"/><path fill="#dacdaa" d="M619.6 144.3L616.9 147L609 132.7L610.1 128.4L610.7 132.4L614.6 128.4L623 132.7L627.4 129.5Z"/><path fill="#b36701" d="M645.8 129.9L656.3 139.4L659.9 153.6L656.4 144.7L648.3 140.5L636.7 142.3L634.3 152.3L633.5 140.5Z"/><path fill="#f1c436" d="M603 136.2L607.1 145L602.1 148.9L598.9 146.8Z"/><path fill="#f1c436" d="M619 145.4L594.2 198.7L586.8 224.3L585.2 197.4L591.1 168.3L597.9 159L591.1 184L591.5 201L597.2 180.3L615.5 143.7L614 138.6L616.9 147Z"/><path fill="#84dbec" d="M650.8 140.8L659.6 150.2L657 157.1L645.9 159.3L635.5 154.8L635.3 143.5Z"/><path fill="#ade9f2" d="M738.1 143.6L806.7 156.2L873 178L924.5 208.2L921.4 209L924.5 212.6L874.2 182.2L876.3 185.9L815.7 162L798.4 162.8L779.4 158.1L760.7 172.8L840.1 208.1L863.8 205.7L848.6 211.8L877.9 205L878.4 208.8L854.6 219L841.2 219.2L803.8 202.2L749.3 186.6L740.6 167.7ZM743 158.2L767.6 156.5L756.1 152.6L744.1 154.8Z"/><path fill="#84dbec" d="M583.5 146.1L595.2 148L591 156.9L576.2 159.7L582.5 154.2L562.8 157.4L534.6 177.5L526.6 187.7L494.3 195.3L459.3 215.1L479 190.6L525.7 162.4L541.9 157.3L532 168.2L540.5 167.8L554.1 158.2L568.5 153.7L544.1 155.7Z"/><path fill="#db9a08" d="M591.1 168.3L585.2 197.4L586.8 224.3L594.2 198.7L603.1 210.3L611.3 203.3L610 199.1L624.9 209.6L642.3 206.1L645.5 197.3L641.5 185.9L656.8 211.7L672.6 201L690.6 201L715.8 217.3L752 228.1L762.3 237.5L761.8 252.8L746.6 282.2L742.8 286.7L736 286.9L710.2 280.7L737.5 277.5L744.2 273.3L746.8 266.1L728.5 244.2L710.2 229.7L696.2 208.2L686.2 201.9L665.1 209.6L659.2 218.3L657.4 233.7L664.9 250.7L673.9 250.9L674.5 255.5L664.2 259.1L668.7 264.1L633.7 252.9L617.4 234L599 233.7L584.2 227.3L568.2 200.5L566.1 184.7L584.7 179.5L595.2 150.5Z"/><path fill="#d0f3f6" d="M595.2 151L590.4 164.2L563.5 168.1L564.5 171.1L544.3 178.7L546.5 168.7L547 172.7L556.8 163.9L590.6 157.1Z"/><path fill="#84dbec" d="M743 158.2L744.1 154.8L756.1 152.6L767.6 156.5Z"/><path fill="#d0f3f6" d="M541.9 157.3L568.5 153.7L533.4 169.1L535.9 161Z"/><path fill="#ade9f2" d="M577.3 159.8L556.8 163.9L547 172.7L546.5 168.7L544.3 178.7L564.5 171.1L563.5 168.1L586.9 164L590.4 164.2L586.1 176.3L580.2 179.9L524 188.8L562.8 157.4L583.4 154.4Z"/><path fill="#b36701" d="M713.7 171.8L710 164L701.5 166.4L698 174.4L697.4 169.2L710.8 162L700.2 162.7L704.3 158.4L719.6 156.1L713.7 164.1Z"/><path fill="#84dbec" d="M798.4 162.8L788.3 163.1L768.9 173.2L826.3 189.2L844.2 199L853 199.2L832.4 183.2L879.6 196.9L863.8 205.7L845.3 208.9L800.5 192.5L774.5 176.4L760.3 172.1L779.4 158.1Z"/><path fill="#84dbec" d="M880.2 180.7L939.6 213.3L954 216.5L959.1 212.7L958 219.8L954.3 216.8L936.9 217.6L931.1 218.6L933.8 221.2L902 203.8L896.5 205L896 199.2L891.3 200.1L890.6 195.5L878.5 190.4L879.5 193.8L866.4 184.3L849.4 179.1L821.6 180.5L781.9 170.8L802.6 164.6L812.4 165.5L807.5 161.4L821.1 163.2L848.3 176L876.3 185.8L874.2 182.2L924 212.8L921.4 209L924.5 208.2Z"/><path fill="#d0f3f6" d="M798.4 162.8L812.4 165.5L802.6 164.6L782.4 171.6L821.6 180.5L849.7 179.2L868.4 185.2L885.1 195.7L883.1 198.7L889.2 198.8L861.2 211.1L848.6 211.8L879.2 196.3L832.4 183.2L853 199.2L846.9 199.5L826.3 189.2L768.9 173.2L788.3 163.1Z"/><path fill="#5e9194" d="M525.7 162.4L476.7 192.4L459.7 215.4L494.7 195.1L555.2 185.3L499.8 196.7L458.3 216.5L480.8 187.4Z"/><path fill="#81b1b2" d="M713.7 171.8L706.1 178L698.1 175.2L705.3 164.4L711.4 165.1Z"/><path fill="#5e9194" d="M941.8 213.3L855.9 170.1L899.5 187.9Z"/><path fill="#f1c436" d="M641.5 185.9L645.2 199.4L642.3 206.1L633 209.4L615 205L606.7 191L607.7 184.5L613.7 199.6L612.9 195.5L640.5 198L640.9 187.5L633 180.6L619.3 180.4L609.6 187.1L622.5 178.7L632.7 179.5Z"/><path fill="#b36701" d="M610.1 194.4L612.2 185.1L623.3 179.9L634.8 181.6L641.8 192.7L640.5 198L612.9 195.5L613.7 199.6Z"/><path fill="#84dbec" d="M877.9 205L887.2 200.9L896 205.3L885.9 210.6L910 213.1L881.3 216.8L914.4 215.2L924.6 221.5L919.1 223.9L935.2 225.5L927.7 229.4L938.9 229.3L940.6 244.8L944.8 240.2L937.6 255.4L940 248.1L931.4 256.2L936.6 245.9L916.9 239.6L904.6 240.8L886.4 253.7L875.3 245.3L871.8 236.6L851.7 224.4L853.2 231.1L797.5 202L748 191.7L746.7 185.5L803.8 202.2L843.9 219.7L877.4 209.4L880.2 207.4L876.2 206.9ZM891.1 239.9L885.6 244.7L887.3 247.9L906.8 235.5L925.5 233.2L908.4 231.7L893 238.6L881.5 231.5L886.6 230L884.7 227.6L876.6 226L879.1 232.7L889.7 238.3L887.7 240.9Z"/><path fill="#ade9f2" d="M896.5 205L887.2 200.9L889.3 198L883.1 198.7L885.6 196.4L878.1 190.5L890.6 195.5L891.3 200.1L896 199.2Z"/><path fill="#9b5400" d="M699 215.6L698.6 220.6L685.2 218.3L659.4 221.4L665.1 209.6L684.6 201.9L694.5 206.4Z"/><path fill="#81b1b2" d="M933.8 221.2L950.9 221.6L931.2 227.8L935.2 225.5L919.1 223.9L924.6 221.5L910 213.1L885.3 210.1L901.2 203.6Z"/><path fill="#876d4b" d="M971.3 211L974.7 222.7L968.5 212.4L963.8 220.5L969.1 218.9L969.5 227.2L956.9 218.6L964.3 209.4Z"/><path fill="#e8b21b" d="M710.2 280.7L664.6 261.7L665.3 257.7L674.5 255.5L673.9 250.9L664.9 250.7L657 227.5L670 241.5L691 240.4L675.1 245.6L672.9 261.6L679.2 267.2L693 273.1L717.7 268.5L720.7 264.9L716.7 258.3L692.9 244.9L701.1 231.9L699.3 212.1L710.2 229.7L728.5 244.2L746.8 266.1L744.2 273.3L737.5 277.5Z"/><path fill="#352611" d="M971.3 211L977.3 219.6L976.9 229.3L951.2 264.9L970.8 237.6L972.2 232.2L965.2 226.4L974.3 227.2Z"/><path fill="#5f4929" d="M975 220.2L973.7 227.7L969.5 227.2L969.1 218.9L963.8 220.5L968.5 212.4Z"/><path fill="#f1c436" d="M678.7 242.5L693.4 236.3L664.6 232.1L668.1 238.2L659.6 230L658.7 223.5L659.8 227.4L694.8 228.8L699.2 215.7L701.1 231.9L693.7 246.9L714.8 256.9L720.4 266.6L693 273.1L679.2 267.2L672.9 261.6L675.1 245.6L691.1 240.6Z"/><path fill="#ade9f2" d="M958 219.8L972.2 232.2L963.4 229L941.6 259.1L947.6 267.6L931.4 256.2L939.4 247.9L938 255.1L946.4 234.4L957.6 224.8L948.3 221.1L938.3 223.5L931.1 218.6L954.3 216.8Z"/><path fill="#c87b00" d="M698.6 220.6L694.8 228.8L659 226.8L659.2 218.3L659.8 221.8L685.2 218.3Z"/><path fill="#5e9194" d="M950.9 221.6L957.4 225.3L940.6 244.8L938.9 229.3L927.3 228.9Z"/><path fill="#ade9f2" d="M875.3 245.3L851.5 224.5L871.8 236.6Z"/><path fill="#81b1b2" d="M893 238.6L887.7 240.9L890 238.6L879.1 232.7L875.8 226.3L884.5 227.5L886.6 230L881.5 231.5Z"/><path fill="#5e9194" d="M972.2 232.2L947.6 267.6L941.6 259.1L963.4 229Z"/><path fill="#dacdaa" d="M659.6 230L668.9 238.4L664.6 232.1L693.7 236.6L684.8 242.2L672.5 242.2Z"/><path fill="#47797d" d="M854.5 230L886.4 253.7L904.7 240.8L918.5 241.2L907.3 243L886.1 255.1Z"/><path fill="#d0f3f6" d="M891.1 239.9L908.4 231.7L925.5 233.2L906.8 235.5L887.3 247.9L885.6 244.7Z"/><path fill="#46331e" d="M929.9 254.2L896.4 315.6L874.4 371.1L874.5 380.3L904.3 315.5L934.5 264.8L938.7 260.9L948.2 267.8L933.5 283.6L904.8 335.2L892.7 366.8L890 378.7L894.1 381.5L881.6 389.1L885.8 391.6L879.8 391.1L870.4 380.4L873.9 367.1L898.8 307.5Z"/><path fill="#876d4b" d="M931.2 255.8L938.7 260.9L904.3 315.5L874.5 380.3L874.4 371.1L896.4 315.6Z"/><path fill="#b36701" d="M668.7 264.1L730.4 286.3L742.4 286.9L746.6 282.2L744.8 287.7L732.2 287.8L695.4 277.6Z"/><path fill="#070e11" d="M937.5 282.6L910.9 327.8L892.8 368.4L905.2 334.4Z"/><path fill="#ece6d1" d="M783.4 289L748.2 328.1L750.5 330.5L744.1 328.6L773.4 295.1Z"/><path fill="#132628" d="M700.2 307.4L700.3 326L688.8 328.3L685.4 339.7L703.5 342.3L706.8 355.7L698.6 371.8L685.3 382.8L683.2 396.1L684 340L688.5 313.9L695 291.6L700 297.3ZM686.3 348.6L686 353.4L694.6 352.3L695.7 346.3Z"/><path fill="#81b1b2" d="M695 291.6L684.2 337.8L681.6 382.3L682.5 337.7L688.2 300.6Z"/><path fill="#3b6a6e" d="M693.5 291.9L685 307.5L683 327.7L683.3 320.5L680.6 328L680.7 316.1L678.1 312.1L674.7 315L674.8 310.3L688.4 295.4L659.5 310.7L658.6 314.5L665.5 312.7L646 332.1L623 378L622.8 371.6L616.1 379.2L631.4 355.9L640.5 331.4L654.8 318.9L639.8 321L661.4 308.8L648.8 310.2Z"/><path fill="#ece6d1" d="M792 302.5L767.9 313.8L782.6 304.1L815.1 292.2Z"/><path fill="#81b1b2" d="M674.8 310.3L668.3 319.5L674.9 307.1L659.6 319.4L665.5 312.7L658.6 314.5L659.5 310.7L688.4 295.4Z"/><path fill="#132628" d="M669 315.2L652.3 338.5L644.8 343L647.2 336.1L661.7 322L652.8 325.2L672.5 307.8Z"/><path fill="#5e9194" d="M644.3 320.3L608.8 344.3L625.9 322.3L590.4 352.7L597.9 339.4L622.9 319.2L660.9 308Z"/><path fill="#26494e" d="M674.8 310.3L674.7 315L678.1 312.1L680.7 316.1L680.6 328L667.7 375.8L667 397.6L669.5 425.1L675.3 440.4L674.8 385L675.2 450.4L678.4 456.7L655.5 439.9L636.9 408.8L634.1 410.5L637.7 414.9L635.8 428.3L611.6 429.9L604.7 424.1L592.8 425.3L626.1 418.8L607.9 410.5L626.4 403L633.3 383.5L641.7 377.7L636.5 379.5L641.7 368.9L633.3 383.5L638.9 364.5L655.5 346.3L657.6 374L669 327.2L661.3 359.5L659.8 400.4L661.7 418.9L666.8 427.9L666.4 379.8L676.9 328ZM641.3 402L648.1 401.7L652.4 393.2L653.2 359.7L636.9 395.5Z"/><path fill="#ece6d1" d="M807.3 316L790.6 317.2L775 323.4L763.7 333.5L774.8 333.9L771.4 336.8L757.2 331.7L789.3 314.4L807.5 313.2Z"/><path fill="#305c61" d="M685.6 313.3L678.5 361.9L688.6 454.6L694.1 472.9L690.7 474.5L686 474.4L678.7 466.2L683.9 465.9L676.4 457.7L675.9 461.4L667 448.3L678.2 456.7L675.3 448.8L679.8 453L682.6 427L677 404.2L676 369.9L675.3 440.4L669 422.3L667.1 380.8Z"/><path fill="#132628" d="M669 327.2L677.5 314.1L666.4 379.8L666.8 427.9L661.7 418.9L659.8 400.4L661.3 359.5Z"/><path fill="#26494e" d="M669 315.2L666.9 329.1L663.2 327L653.2 343.7L637 352.6L647.5 330L661.7 321.5L645.5 338.5L646.9 343.4Z"/><path fill="#132628" d="M640.5 331.4L630.7 346.2L627.9 360.2L586 408.3L587.5 380.4L596.7 354.4L602.8 349L600.6 375.1L615.9 347.4L644.3 320.3L654.8 318.9Z"/><path fill="#47797d" d="M622.9 319.2L597.9 339.4L584.8 357.7L596.4 339.7L594.1 337.4L609.8 323.8Z"/><path fill="#305c61" d="M671.4 319.9L657 374.5L656.7 346.9L653.3 349L663.2 327L666.6 329.4Z"/><path fill="#3b6a6e" d="M612.6 340.3L613.2 337.3L597.8 343.4L626.5 322.3Z"/><path fill="#81b1b2" d="M609.8 323.8L588.9 339.1L577.3 355.1L575.8 347L594.1 328L561.5 344.8L561.3 341.3L569.8 336.7L565.8 336.1L544.5 354.2L551 340.2L520 362.7L527.6 354.6L523.1 356.4L527.7 348.5L541.2 338.3Z"/><path fill="#47797d" d="M640.1 324L625.6 338.3L607 348.7L627.6 329.6Z"/><path fill="#a38c5b" d="M700.3 326L715 330.5L745.2 331L703.8 329.5L689 335.9L697.7 335L703.5 342.3L686.8 342.4L686.6 332.7L691.3 331.7L687.2 332.3L687.9 329.2Z"/><path fill="#26494e" d="M600.7 331.4L593.2 338.6L596.4 339.7L584.8 357.7L603.4 341.6L613.5 337.4L607.6 348.7L625.6 338.3L614.5 349.5L600.6 375.1L602.8 349L596.7 354.4L587.5 380.4L586 408.3L627.9 360.2L630.7 346.2L640.5 331.4L631.4 355.9L616.1 379.2L590.9 407.9L580.5 413.8L581 409.5L573.4 417.7L576.4 418.7L574.8 422.9L562.8 434.8L563.4 439.4L590.4 455.9L606.9 453L619.7 444.9L609.7 446.8L614.8 444.3L625.7 444L616.1 454.6L625.5 454.5L601.1 461.7L582.5 454.3L568.7 443.5L559.4 452.1L556.7 442.3L562.3 431.5L533.2 422.4L493.6 403.1L448.5 404.7L411.3 420L441.7 404.7L488.1 402.7L473.1 395.2L470.4 388.6L473.9 382.5L482.7 395L493.8 398.3L513 393.7L515.9 389.5L509.1 389.9L520.6 378.7L523.9 379.4L523.1 384.6L513.4 402.8L535.8 405.8L525.5 411.3L542.9 407.8L538.9 392.2L530.4 401.7L519.5 398.9L530.8 394L536.5 379L542.5 396.2L551.5 404.9L539.6 415.6L537.8 421.4L541.3 422.1L552.7 409.9L552.7 399.4L561.8 408.6L558 392.3L544.6 368.7L552.9 374.5L560.8 392.9L562.3 386.5L555.1 363.7L559.9 349.8L568.9 341L561.2 349.8L560.5 370.1L565.2 388.7L575.2 403.7L586.5 363.1L581.9 366.1L584.9 359.2L578.4 366L582.2 354.3L576.7 359.2L584.8 351.4L588.9 339.1Z"/><path fill="#5f4929" d="M740.1 327.9L757.2 331.7L764.3 341.4L750.4 332L711.6 329.4Z"/><path fill="#5e9194" d="M577.2 345.4L579.2 339.2L573.9 342.3L576 337.3L570.9 339.4L554.2 352.9L548.1 362.7L550.8 347.3L565.8 336.1L569.8 336.7L561.3 341.3L561.5 344.8L594.6 328.2Z"/><path fill="#ece6d1" d="M745.2 331L764.3 341.4L747.5 351.1L757.7 350.7L755.8 354.8L750.7 356.3L753.4 352.6L749.3 353.1L741.8 364.7L741.3 356.3L731 359.6L720.9 356.5L700.4 376.9L707.1 348.2L700.2 336.4L689.2 335.4L703.8 329.5ZM719 348.7L726.2 350.1L735 345.9L723 347.4L721.3 340.9L725.1 338.6L713.8 335.2Z"/><path fill="#5e9194" d="M661.5 330.8L652.1 350.8L634.6 371.2L622.4 400.1L619 401L622.6 379.5L617.8 392L604 407.8L573.6 424.4L576.4 418.7L573.2 418.2L579.4 411.1L581.7 409.6L580.5 413.8L590.9 407.9L622.8 371.6L623 378L637 352.6L640.8 348L640.4 351.7L650 347.1Z"/><path fill="#81b1b2" d="M544.9 335.3L523.3 341.9L515.2 366.1L507 371.5L515.9 348L511.8 348.5L523.3 338.9Z"/><path fill="#46331e" d="M776.2 334.9L778.9 336.2L772.2 339.9L766.9 352L766 337.1Z"/><path fill="#3b6a6e" d="M553.3 335.7L541.2 338.3L518.4 352.5L525.2 342.6L537.1 336.8Z"/><path fill="#c2b083" d="M723 347.4L718.6 348.4L713.4 335.5L725.1 338.6L721.3 340.9Z"/><path fill="#47797d" d="M537.1 336.8L522.4 345.9L518.4 352.5L525.4 346.1L523.1 356.4L527.6 354.6L520 362.7L546 344.5L522 363.2L502.9 386.4L504.2 367.9L511.4 354.3L505.3 352L515.9 348L507.5 371.4L515.2 366.1L522.1 343.3Z"/><path fill="#132628" d="M577.2 345.4L573.8 372.6L586.5 363.1L573.7 403.9L562.4 380.9L560.3 358.9L561.2 349.8L568.9 341L576 337.3L573.3 341.7L579.2 339.2Z"/><path fill="#47797d" d="M682.2 340.3L681.1 375.8L678.5 361.9L679.4 339.6Z"/><path fill="#1c3b3f" d="M543.9 353.3L536 365.9L532.1 391.9L519.5 398.9L530.4 401.7L538.9 392.2L543.3 407.1L538.4 410L525.5 411.3L535.8 405.8L513.4 402.8L523.3 379L512.9 383.4L509.1 389.9L515.9 389.5L513 393.7L491.4 398.3L479.2 391.7L468.5 374L469.1 365.6L487.6 386.1L493.1 371.7L494.1 383.5L500.3 386.4L507.5 356.3L503.2 354.2L510 352.1L502.9 386.4L551 340.2Z"/><path fill="#47797d" d="M587.9 341.2L584.8 351.4L576.8 359.2L582.2 354.3L578.4 366L584.4 359.4L585 362.5L574.5 373L574.7 349L577.3 355.1Z"/><path fill="#3b6a6e" d="M548.1 343.4L506.6 381.8L523.8 361.5Z"/><path fill="#5f4929" d="M765.5 345.1L766.9 352L772.9 354.6L768.4 355.5L774.4 359.1L769.9 358.3L770.5 367.3L776.3 375.5L771.9 373.2L767.4 382.6L764.8 379.8L762.3 383.7L769.1 401.5L766.1 412.1L766.6 402.3L758 382.8L769.1 361.8L763.3 353L752.6 362.3L748.5 359.1L749 353.4L752.9 352.1L750.1 354.7L753.6 356.5L757.7 350.7L747.5 351.5Z"/><path fill="#81b1b2" d="M495 345.1L510.3 348.1L493.6 365.6L495.8 346.9L477.1 352.1L473.9 358.8L477.7 356.8L482.1 364.1L470.7 361.7L469.6 357.5L474.8 351.8Z"/><path fill="#47797d" d="M686.3 348.6L695.7 346.3L694.6 352.3L686 353.4Z"/><path fill="#47797d" d="M494 355.8L494.1 352.8L481.1 355L488.1 368.2L495.2 363.1L487.6 386.1L476.6 377L466.4 359.1L463.2 369.7L455.4 365.3L434.3 377.3L459.4 360.6L462.7 366.8L463.2 360.3L467.5 357.6L473.5 363.4L482.1 364.1L477.7 356.8L473.9 358.8L477.6 351.7L495.8 346.9Z"/><path fill="#305c61" d="M559.9 349.8L554.8 369L562.1 390.7L552.9 374.5L544.6 368.7L548.6 354.2L542.5 361.5L542.7 382.4L553.6 407.4L538.2 421.7L540.9 413.4L551.5 404.9L542.5 396.2L536.5 379L532 380.7L536 365.9L543.9 353.3L549 350.2L548.1 362.7Z"/><path fill="#5e9194" d="M474.8 351.8L469.6 358.2L476.3 363.9L467.5 357.6L462 366.7L459.4 360.6L411.4 390.5L413.9 393.4L397.7 404.2L392.7 415.5L437.5 406.3L354.7 448L375.7 423.8L387.6 425.8L392 421.6L391.4 418.3L380.1 420L393.5 408.4L404.2 390.4L446.7 368.4L456.9 356.1Z"/><path fill="#305c61" d="M494 355.8L492.6 364.7L488.1 368.2L481.1 355L494.1 352.8Z"/><path fill="#dacdaa" d="M766 354L763.4 370.9L739.4 381.4L726 374.9L737.9 384.4L725.9 384.1L705.5 394.1L707.4 386.4L714.6 389.6L724 384.9L716.6 386.3L710.7 382.5L724.4 378.2L713.3 374.3L721.2 370.9L727.4 373.1L731 359.6L741.3 356.3L741.8 364.7L748.3 356.9L752.9 362.3Z"/><path fill="#132628" d="M544.6 368.7L558 392.3L561.5 408.9L542.7 382.4L542.1 362.4L548.6 354.2Z"/><path fill="#132628" d="M503.2 354.2L507.5 356.3L499 386.6L494.1 383.5L493.1 371.7Z"/><path fill="#c2b083" d="M731 359.6L731.7 363.1L717.6 362.2L710.2 372.6L719.1 357.2Z"/><path fill="#81b1b2" d="M454.7 357.5L446.7 368.4L404.2 390.4L384 419.4L378.2 419.7L400 389.3Z"/><path fill="#305c61" d="M470.1 367.8L467.9 365.8L468.5 374L474.2 386.1L470.4 387.6L471.9 392.9L476.5 399L488.1 402.7L441.7 404.7L437.7 402.1L400.7 406.5L401.1 401.4L413.9 393.4L411.4 390.5L450.6 367.4L457.5 365.5L462.9 369.9L466.4 359.1ZM464.6 396.8L457.7 366.5L440.6 382.7L453 381.9L454.6 391.5L450.1 399.5Z"/><path fill="#132628" d="M640.7 401L636.9 395.5L653.1 359.7L651.7 395.7L646.4 402.8Z"/><path fill="#a38c5b" d="M779.2 377.2L778.7 385.3L774.1 368.4L770.9 370L771.3 361.9L773.8 365.4L776.4 359.7Z"/><path fill="#352611" d="M731.7 363.1L716 369.3L719.8 371.6L709.3 377.8L703.8 390.6L700 388.7L695.7 392.2L697.9 394L691.9 394.6L717.6 362.2Z"/><path fill="#3b6a6e" d="M638.9 364.5L626.4 403L607.9 410.5L626.1 418.8L610.5 422.9L593.1 420.7L591 424.9L601.5 422L592.8 425.3L604.7 424.1L611.6 429.9L599.1 430.2L604.3 425.1L595.4 426.3L571.6 439.2L587 443.8L592.5 437.4L597.8 438.8L588.8 447.8L619.7 444.9L604.5 454L590.4 455.9L563.6 439.8L562.8 434.8L573.6 424.4L604 407.8L617.8 392L622.6 379.5L620.5 402.1Z"/><path fill="#876d4b" d="M728.5 365.4L727.4 373.1L715.8 369.9Z"/><path fill="#26494e" d="M464.3 397.6L450.1 399.5L454.6 391.5L453 381.9L440.6 382.7L457.7 366.5Z"/><path fill="#dacdaa" d="M711.8 367.9L704.3 381.2L688.1 391.2L693.3 384.8L693 376.7L700.3 369.8L700.9 376.9Z"/><path fill="#a38c5b" d="M765.2 369.6L758.4 381.1L759.6 386.9L736.3 384L725.3 375.3L739.4 381.4Z"/><path fill="#1c3b3f" d="M675.3 448.8L675.6 369.6L677 404.2L682.6 427L679.8 453Z"/><path fill="#ece6d1" d="M775.5 376.6L779.1 388.9L776.3 387.6L773.2 393.9L768.8 383.2L771.3 373.8Z"/><path fill="#876d4b" d="M713.3 374.3L724.4 378.2L713.8 379.2L711 382.8L723.8 385.1L714.6 389.6L707.4 386.4L705.5 394.1L711.3 393.6L708.6 396L695.6 392.7L700.8 388.5L703.8 390.6Z"/><path fill="#c2b083" d="M693 376.7L693.3 384.8L688.1 391.2L686.6 381.9Z"/><path fill="#c2b083" d="M769.8 378.1L768.8 383.7L774.4 392.9L771.4 402.3L762.3 383.7Z"/><path fill="#352611" d="M869.2 380.1L863.8 389.5L872.1 396.3L877.7 392.6L871.1 389.5L878.4 388.2L886.8 392.3L897.6 389.5L900.3 384.5L893.5 384.3L894.1 381.5L903.1 381.9L907.5 387.1L899.9 394.1L886.5 393.5L872.8 400L862.4 389.1L862.6 382.9Z"/><path fill="#c2b083" d="M869.2 380.1L877 388.1L864.3 390.9L864.2 384.9Z"/><path fill="#876d4b" d="M780.5 380.8L778.8 401.7L770.8 425.9L764.8 432.4L752.5 436.2L750 433.1L739.3 441.6L733.2 441.1L735.5 445.1L730.9 445.1L731.9 440.1L726.5 443.9L723.9 441.7L730.4 435.6L737.7 432.2L731.1 437.5L744.7 435.6L751.9 428.3L743.6 424.6L730 428.7L738.6 422.1L721.2 424L711.2 421L712 409.4L707.7 406.8L701.9 413.5L709.7 422.9L707.2 426L699.7 419L694.9 426.4L699.6 425.6L698.7 433.1L689.4 431.7L694.3 436.8L688.6 436.9L687.4 413.8L692.4 414.9L692.3 410L697.5 412.1L700.1 407.5L692 403.8L695.6 403.9L695.1 400.2L697.9 402.4L710.6 398L713 391.3L725.9 384.1L734.8 385L728.6 385.6L729.5 391.6L712.4 403.2L714.8 410.8L714.8 404.2L716.7 406.7L720.5 421.8L753.1 419.3L753.1 423.1L743.9 422.8L754.4 424.3L754.5 429.7L759.4 430.8L770.3 408.9L765.1 392.9L771.4 402.3Z"/><path fill="#46331e" d="M686.6 381.9L688.1 391.2L695.4 389.3L689.9 403.2L700.1 407.5L694.4 412.6L691.8 405.7L689.5 409L693.9 410.1L690.5 412.8L692.8 414.4L687.3 414.2L690.9 448.6L683.6 416.1L683 390.8L684 396Z"/><path fill="#c2b083" d="M899 384.4L881.2 391.1L885.7 384.9Z"/><path fill="#5f4929" d="M750.8 385.7L724.7 394.6L712.3 404L729.5 391.6L728.6 385.6L737.4 383.1Z"/><path fill="#876d4b" d="M871.1 389.5L877.6 393.1L869.7 395.6L864.3 390.9Z"/><path fill="#a38c5b" d="M713 391.3L710.6 398L689.9 403.2L692.4 395.3L698.5 399.9L701.5 395.5L699.2 393L706.5 396.2Z"/><path fill="#ece6d1" d="M896.9 394.4L885.7 395.6L894.1 397L892.2 399.9L874.8 396.7Z"/><path fill="#876d4b" d="M899.9 394.1L903.7 398.2L893.7 401.4L894.1 397L885.6 395.9Z"/><path fill="#46331e" d="M867.4 396.1L853.1 423.9L841 430.8L839.3 428.5L832.3 435.2L831.9 442.7L785.1 469.1L828.1 440.5L836.6 429.1L852.6 422.1Z"/><path fill="#876d4b" d="M867.4 396.1L872.8 400L874.8 396.7L876 401L864.7 429.3L867.8 438.6L858 441.7L853.1 426.7Z"/><path fill="#352611" d="M875.8 397.9L886.7 402.8L889.7 402L886.9 399.3L893.7 401.4L903.7 398.2L906.6 404.8L901.6 416.4L910.7 420.9L910.1 427.2L903.4 431.3L890.6 426.3L879.6 418.6L879.7 413.7L901.5 428.5L908.7 421.8L899 416.7L887.6 419.8L878.8 412.2L873.4 435.4L876.5 435L866 438.3L864.7 429.3L874 401.7L880.3 411.1L886.3 413L897.7 412.2L904.4 404L884.7 404.1Z"/><path fill="#a38c5b" d="M876 399.4L901.3 407.1L897.7 412.2L886.2 413L878.3 409.2Z"/><path fill="#47797d" d="M401.1 401.4L400.7 406.5L404.2 408.2L437.7 402.1L441.7 404.7L392.7 415.5Z"/><path fill="#ece6d1" d="M730 427.5L709.2 420.5L702.8 409L711.8 409L711.2 421L721.2 424L738.6 422.1Z"/><path fill="#c2b083" d="M762.8 422.2L763.1 416.3L756.4 430.8L754.4 424.3L743.9 422.8L753.4 422.9L752.6 419.7L769.4 408.1Z"/><path fill="#305c61" d="M657.3 442L627.3 430.5L613.2 429.9L635.8 428.3L637.7 414.9L634.1 410.5L636.9 408.8Z"/><path fill="#876d4b" d="M901.2 418L897.6 422.5L905.9 425L900.3 425.5L904.9 428L901.5 428.5L891.9 424.9L878.8 412.2L887.6 419.8Z"/><path fill="#47797d" d="M375.7 423.8L378.2 419.7L392.4 419.9L387.6 425.8Z"/><path fill="#c2b083" d="M857.2 417.9L853.5 429.9L846.2 426.9Z"/><path fill="#c2b083" d="M703.4 419.3L709.4 430.7L711.6 423.5L722.3 425.8L723.2 429.4L712.6 436.3L723.1 437.6L729.1 432.5L730.4 435.6L704.9 450.1L710.3 435.5L704.8 434.1L703.7 427.5L702 432.3L696.9 428.9L699 424.9L694.9 426.4L699.7 419Z"/><path fill="#dacdaa" d="M745.2 425.3L732.3 430.9L736.9 432.7L732.7 434.9L730.6 432.3L723.1 437.6L712.6 436.3L735.6 425.2Z"/><path fill="#5e9194" d="M611.6 429.9L627.3 430.5L658 442.3L664.1 453.8L622 435.2L592.5 437.4L587 443.8L571.9 439.9L595.4 426.3L604.3 425.1L599.1 430.2Z"/><path fill="#c2b083" d="M735.8 436.8L738.7 432.8L732.7 431.9L734.5 430.1L741.4 429.9L745.2 425.3L751.9 428.3L744.7 435.6Z"/><path fill="#a38c5b" d="M704.8 434.1L702.8 438.1L706.3 435L710.8 438.4L704.6 440.4L704.7 448.2L700 449.2L693.1 443.6L700.5 437.2L698.5 434L703.9 433.4L701.2 427.4Z"/><path fill="#dacdaa" d="M842.8 427.8L841.6 446.1L834.3 443.4L831.6 436.6Z"/><path fill="#5f4929" d="M698.1 429.9L703.9 433.4L698.5 434L700.5 437.2L693.2 444.4L704.9 450.1L711.8 445.8L705 459L689.9 457.4L688.6 436.9L694.3 436.8L688.9 432.4L695.7 434.4Z"/><path fill="#a38c5b" d="M856.5 432.5L855.8 440.9L844 436.3L846.2 431.5Z"/><path fill="#dacdaa" d="M879.9 432.4L869 445.9L844.9 451.2Z"/><path fill="#352611" d="M759.3 435.4L735.5 445.1L750.1 435.1L759.4 432.9Z"/><path fill="#352611" d="M885.1 437.2L883.2 449.3L871 454.1L872.9 449.4L881 448.2L873.9 447.3L877.4 441.8L880.4 444L883.5 433.5Z"/><path fill="#132628" d="M664.1 453.8L679.1 472.9L690.7 474.5L694.1 472.9L687.8 441.5L691.3 458.9L705 459L714.1 451.6L717.9 455L723.1 451L715.8 458.7L722 459.3L712.3 463.1L709.8 467.9L738.7 478.2L726.1 486.1L735 477.2L719.2 473.2L701.2 483.1L669.7 481.9L611.2 509.1L616.8 505.2L613.9 504.4L585.9 504.8L590.9 501.8L588 499.1L605.8 497.2L624.1 488.6L637.4 474.8L661.3 470.3L576.1 466.3L559.4 452.1L569.6 443.7L588 457.1L607.6 461.3L628.1 453.3L616.1 454.8L625.7 444L588.7 447.3L603 436.5L619.5 435L651.2 445.5Z"/><path fill="#a38c5b" d="M727.9 437.7L723.9 441.7L726.5 443.9L714.2 447.6L720.5 450.7L724 446.1L720.8 451.2L715.6 448.8L710.9 455.4L705.2 455.6L711.4 444.4L721.1 443.3Z"/><path fill="#5f4929" d="M847.3 441.2L854 443.5L835.8 451.5L834.6 466.1L830.9 463.6L805.2 480.6L821.8 470.1L809.2 462.4L820.5 454.3L824.4 457L813.1 465.8L825.2 465.5L831.5 461.6L830.8 444.6L838.6 448.2L843.9 438.6Z"/><path fill="#a38c5b" d="M874.6 438.8L880.1 440.7L874.4 447.8L861.7 449.6Z"/><path fill="#5f4929" d="M727.7 444.4L720 452.8L715.3 449L720.3 451.4L724 446.1L720.5 450.7L714.1 447.8L724.3 445.3L727.8 440.3Z"/><path fill="#3b6a6e" d="M667 448.3L675.9 461.4L676.4 457.7L684.2 466.3L673.2 462.7L687.6 474L683.2 473.8L664.1 453.8L658 442.3Z"/><path fill="#c2b083" d="M830.6 446.3L783.8 480.5L783.8 473.8L789.6 469.3L784.3 469.7L821.2 446.6Z"/><path fill="#352611" d="M871.5 448.3L868.6 452.8L852.5 452.9L843.1 458.9L849.9 451.9Z"/><path fill="#dacdaa" d="M881.5 449.7L875.1 456.4L860.9 456.6L843.3 463.6L852.5 452.9L863.1 453.8L865.7 450.6L867.1 453.1L880.3 446.9L872.9 449.4L872.7 454.6Z"/><path fill="#a38c5b" d="M845.2 449.6L851.8 451.6L840.1 457L845.1 464L836 464.5L847.8 469.5L842 472.4L839.2 469.1L832.1 477.6L838.2 474.4L834.5 481.6L831 480.1L817.6 489.1L823.7 483.9L818.2 483.8L819 480.9L832.1 471.8L821.5 472.4L823.8 468.4L831.2 463.5L834.6 466.1L835.8 451.5Z"/><path fill="#5f4929" d="M883.2 449.3L885.5 452.4L880.2 467.5L863.9 471.2L879.2 465.2L869.3 463.8L877.7 460.6L867.1 460.4L877.4 455.7L880.7 460.2Z"/><path fill="#876d4b" d="M726 449.6L728.8 453.9L739.2 455.1L716.1 458.9Z"/><path fill="#ece6d1" d="M829.1 451.4L829 456.5L821.7 462.8L831.3 462L819.3 467.8L813.5 466.4Z"/><path fill="#a38c5b" d="M883.1 451.5L880.7 460.2L877.4 455.7L865.1 463.6L859.2 460.4L849.5 462.3Z"/><path fill="#dacdaa" d="M867.4 467.7L847.4 469.1L850.9 464.3L877.2 460.4L869.4 463.8L878.6 465.8Z"/><path fill="#070e11" d="M860.5 463.1L847.7 467.9L838.2 465.5L856.9 460.3Z"/><path fill="#3b6a6e" d="M521.5 468.6L507.6 467L516.4 478.6L500.9 472.4L490.4 475.4L490.3 480.8L481.1 477.9L484 470.3L495.7 462.6Z"/><path fill="#876d4b" d="M809.2 462.4L816.6 469.8L803.5 469.6L795.6 475.4L799.5 479.8L796.7 484L782.1 489.8L782.6 470.8L789.6 468.8L783.6 474.6L783.8 480.5L787.7 480.5Z"/><path fill="#5e9194" d="M521.5 468.6L532.9 473.1L532.6 476.4L523.7 472.3L533.2 482.3L547.1 487.8L530.9 488.1L516.4 478.6L507.6 467Z"/><path fill="#1c3b3f" d="M608.8 468.6L572.5 476.7L611.1 472.2L592.3 481L613 482.5L584.3 480.8L597.2 477.3L592.1 476.1L558.3 484.5L552.5 476.1L572 471L559.2 474.1L558.4 471.4L576.1 466.3Z"/><path fill="#352611" d="M880.2 467.5L878.5 471.1L857.4 475.9L833.9 518.3L807.5 551.2L679.2 661.5L798.3 557.9L829.8 521.5L852.1 480.7L846.2 482.9L844.6 476.1L840.7 476.5L807.7 522.9L785.3 546.4L744.8 576.9L803.7 524.7L831.5 487.3L838.3 474.8L832.4 477L840.5 470.6L854.8 475.1L857 469.8Z"/><path fill="#26494e" d="M637.4 474.8L620.3 473.8L601.3 479.2L625.8 478.8L619.7 487.6L611.2 491.6L601.2 487.8L608.1 489.9L615.7 485.4L614.8 482.2L620.2 482.5L618.1 485.4L621.1 481.7L592.3 481L611.1 472.2L605.2 469.3L609.7 472.2L632.6 471.3L627.9 468.7L636.4 467.9L656.4 469.2L661.3 470.8Z"/><path fill="#5e9194" d="M627.9 468.7L632.6 471.3L609.7 472.2L606.8 469.2Z"/><path fill="#5f4929" d="M810.9 470.6L797.1 479.7L795.6 475.4L803.5 469.6Z"/><path fill="#5f4929" d="M860.6 469.5L854.8 475.1L844 471.5Z"/><path fill="#47797d" d="M611.1 472.2L572.5 476.7L606.8 469.4Z"/><path fill="#47797d" d="M558.4 471.4L559.2 474.1L572.2 470.6L553 475.3L558 486.1L553.9 491.3L532 489.9L520.5 481.3L530.9 488.1L547.1 487.8L533.2 482.3L523.9 471.9L532.6 476.4L527.2 469.6L550.2 473.6Z"/><path fill="#c2b083" d="M818.2 483.8L783.1 503.3L764.4 503.3L753.3 512.9L767.8 498.6L821.5 472.4L832.1 471.8Z"/><path fill="#132628" d="M782.6 470.8L782.1 489.8L806.4 481.7L767.8 498.6L750.3 514.8L749.5 517.5L771.3 517L766.9 519.8L765.6 533.8L759.8 544.5L744.3 549.5L740.9 543.3L743.2 538.5L737.7 534L742.4 518.8L777 477.9L771 479.4Z"/><path fill="#1c3b3f" d="M516.4 478.6L532 489.9L555.8 489.8L562 492.9L559.7 497.3L565 497.7L566 501.4L536.3 498.8L543.6 497.7L543.6 493.9L529.5 490.6L505.3 474.7L502.3 475.6L504.2 478.1L514.2 483.8L489.4 485.4L481.1 477.9L490.8 480.7L490.4 475.4L496 473.1L505.6 472.7Z"/><path fill="#c2b083" d="M818 472.5L796.5 483.6L804.3 475.3Z"/><path fill="#1c3b3f" d="M719.2 473.2L714.9 474.9L718.2 478.4L726.5 476.5L722 487.9L715.6 489.6L710.8 484L700.6 491L708.5 497.4L691 488.3L701.9 485.1L679.3 482.1L673.7 492.1L674.9 484.8L661.7 489.7L663.8 486.1L618.9 509.5L584.9 511.2L591.2 515.1L581.1 510.3L603.5 503.6L616.5 505L612.6 509L659.7 484.7L677.8 480.2L701.2 483.1Z"/><path fill="#1c3b3f" d="M637.4 474.8L622 490.1L604.6 497.7L591.6 498.2L598.5 494.4L585.5 496.4L580.7 493.5L590.8 491.1L580.2 488.1L588 486.4L613.6 491L625.8 478.8L601.3 479.2L617.5 474.1Z"/><path fill="#3b6a6e" d="M730.9 476.4L723.2 489.8L722.8 480L726.5 476.5L721 479.1L714.9 474.9Z"/><path fill="#132628" d="M555.8 489.8L563.8 484.2L567.4 484.6L563.1 487.3L570 486.7L573.7 499.1L569.9 508.2L515.9 496.7L492.1 486.4L514.2 483.8L504.2 478.1L502.3 475.6L505.3 474.7L529.5 490.6L543.6 493.9L543.6 497.7L536.3 498.8L565.4 501.8L565 497.7L559.7 497.3L562 492.9Z"/><path fill="#876d4b" d="M844.6 476.1L801.1 542.7L804.4 530.3L786.6 553.7L744.4 588.2L744.9 582.6L740.9 584.5L752.1 574.7L748.6 574.9L785.3 546.4L818.7 508.8L838.6 478.1Z"/><path fill="#47797d" d="M589 482L598.5 485.9L569.4 483.7L572.3 479.6L592.1 476.1L597.2 477.3L581.9 479.4Z"/><path fill="#46331e" d="M679.2 661.5L649.2 690.5L599.3 750.5L578.6 815.8L575.4 791.2L577.9 773.9L577.2 789.4L580.7 791.9L584.9 767.7L602.6 737.8L597.9 739.7L601.8 736.7L599.3 734.4L593.4 741.8L594.4 732.3L576.6 762.8L575.7 754L590.9 728.2L579.7 751.8L593 731.3L613.7 709.9L608.9 721.9L596.5 733.3L604.6 726.5L604.3 733.1L625.9 705.3L616.2 713.9L620.2 706.8L643.3 683.1L654.9 671.8L652.6 679.2L665.6 665.1L659.8 675.4L686.4 646.1L703.9 633.1L686.8 641.5L675.5 653.4L681.1 645L675.1 648.3L659.2 664.1L683 638L689.3 632L688.4 637.4L691.1 637L712 622.6L738.9 596.1L715.9 543.3L722.2 536.5L713.7 540.3L712.9 535.8L717.4 537L718.9 531.3L728 539.2L736.8 554.8L741 581.9L752.1 573.4L740.9 584.5L744.9 582.6L745.7 588.3L779 562.2L759.9 581.4L786.6 560.9L810 526.3L807.4 537.5L825.2 517.7L844.6 476.1L846.2 482.9L852.1 480L830.2 521.1L800.3 556Z"/><path fill="#26494e" d="M771 479.4L758.8 494.1L733.9 492.9L743.3 497L712 498.1L723.1 498.5L725.6 491.6L738 482.5L736.2 487.5L767.8 480.7L747.1 481.3L756 480.1L751.4 478.1L739.5 481L745.7 476.5Z"/><path fill="#81b1b2" d="M746 514.8L739.9 510.8L744.9 509.8L751.6 497.7L710.9 510.9L711.6 502.6L722.5 500.7L715 499L743.9 496.8L733.9 492.9L758.8 494.1L776.6 477Z"/><path fill="#5e9194" d="M765.5 479.5L734.8 486.3L747.4 478.9Z"/><path fill="#26494e" d="M572.3 479.6L569.6 484.6L576 483.3L588 486.4L581.4 489.3L591 489.7L580.8 493.7L598.9 495.3L588 499.1L590.9 501.8L585.7 504.5L593.8 508.8L579.1 508.5L582 518.6L577.9 515.7L578.1 522.6L569.6 527.7L574.1 512.5L569.2 515.9L566.9 537L565 526.9L562.7 531.4L562.8 549.3L556.4 535.5L557.2 520.9L560.8 515.8L560.7 519.1L571.3 512.3L573.6 497.6L569.4 486L563 487.1L566.8 484.1L553.9 491.3L557.3 483L568.5 484.1Z"/><path fill="#46331e" d="M831.7 481.7L771.3 517L758.7 516.2L767.9 509.2L785.6 506.5L805 497.2L810.9 492.3L807.5 490L818.2 483.8L823.9 483L817.9 489.2Z"/><path fill="#3b6a6e" d="M613 482.5L615.7 485.4L608.1 489.9L576 483.3L598.5 485.9L589 482Z"/><path fill="#26494e" d="M708.5 497.4L698.6 496.9L697.8 501.6L687.3 501.9L691.8 496.5L684 495.2L663.2 502.1L679.3 482.1L701.9 485.1L691 488.3Z"/><path fill="#132628" d="M722 487.9L721.6 495.2L725.4 495.4L722.6 498.6L708.5 497.4L700.6 492.1L710.8 484L715.6 489.6Z"/><path fill="#132628" d="M673.7 492.1L649 511.4L642.3 523.3L695.5 506.6L684.2 513.9L659.7 568L654.7 572.1L646.7 567.7L645.8 560.6L638.9 574.4L620 579.6L613.2 593.1L608.9 591.3L609 582.4L619.6 569.5L602.5 568.1L588.2 574.1L586.2 565.2L575.5 568L585.1 560.3L584.3 564.5L591 560.7L604.4 545.2L605 549L611.8 536.7L575.7 561.8L579.5 558.3L562.8 549.3L571.5 554.1L563 541.2L562.7 531.4L565 526.9L566.3 537.7L569.6 527.7L578.5 522.2L577.9 515.7L590.1 524.9L612.6 524.2L661.7 489.7L674.6 484.7Z"/><path fill="#3b6a6e" d="M661.7 489.7L634.6 506.8L629.1 504.9L642.1 494.7L663.8 486.1Z"/><path fill="#5f4929" d="M807.5 490L810.9 492.3L805 497.2L779 506.8Z"/><path fill="#5f4929" d="M835.5 492.2L836.5 498.8L826.6 515.6L806.6 537.5L810 526.3L821.4 515.5Z"/><path fill="#876d4b" d="M515.3 496.5L520.3 500.1L488.9 501.3L495.3 496L480.7 498.3L462.3 510.9L457.6 520.5L460.8 508.9L479.2 497.7Z"/><path fill="#132628" d="M697.2 501.8L656.2 514.5L679.2 496.2L691 496.2L686.9 501.6Z"/><path fill="#a38c5b" d="M488.9 501.3L471.6 505.9L461.2 513.6L480.7 498.3L495.4 496Z"/><path fill="#47797d" d="M710.5 497.9L722.5 500.7L712.2 502.3L686.3 518.9L671.9 537.5L684.2 513.9L695.6 505.2L656.2 517.9L685.6 507.7L698.5 501.3L698.6 496.9Z"/><path fill="#1c3b3f" d="M739.9 510.8L727.6 527.5L732.6 536L723.7 527.1L707.9 526.9L705.9 534.5L700.8 529.6L709.5 548.1L705.3 551.3L678.6 542.1L677.6 534.7L686.3 518.9L706.3 507.1L711.9 505.1L711.4 508.2L698.9 525.2L706.3 516.6L717.1 515.7L729.6 505L751.6 497.7L744.9 509.8Z"/><path fill="#5e9194" d="M672.5 499.8L649.7 515.6L656.6 506.5Z"/><path fill="#352611" d="M520.3 500.1L528.8 505.1L529.6 514.7L547.8 512.2L529.3 516.4L528.5 521.5L512.4 513.3L514.3 515.6L510.6 516.7L497.2 516.4L501.4 543.3L492.3 514.7L496.5 510.9L492.9 509.7L491.2 516.1L482.6 516.2L469.7 526.5L469.6 536L464.1 539.3L457.6 520.5L469.2 507.2L488.9 501.3Z"/><path fill="#5e9194" d="M560.8 515.8L573.6 501.8L571.3 512.3L560.7 519.1Z"/><path fill="#a38c5b" d="M783.1 503.3L756.3 513L764.4 503.3Z"/><path fill="#47797d" d="M641.1 503.5L618.8 520.8L603.1 525.3L585.6 522.7L579 508.7L596.2 515.2Z"/><path fill="#46331e" d="M569.9 508.2L561.5 514.8L528.5 521.5L529.3 516.4L542.1 514.6L557.4 506.1Z"/><path fill="#26494e" d="M656 507.1L649.7 515.6L660.7 508.1L656.2 514.5L664.7 512.8L642.3 523.3L647.2 513.3Z"/><path fill="#47797d" d="M716 509L724.9 511L706.3 516.6L698.1 524.9L704.6 514.1Z"/><path fill="#5f4929" d="M89.6 532.3L82.9 535.1L82.5 543L93.2 539.6L92.9 532.5L102.3 546L119.4 552.5L123.8 557.9L139.9 558.8L147.3 565.7L160.8 567L144.7 569.5L145.9 575.5L158.6 580.3L144.6 576.1L133.2 578.9L119.6 569.7L101.7 566.8L94 553.8L79.6 546.4L75.9 537.1L60.1 526.3L68.6 518.1L46.8 510.9L33.5 511L50.8 510.2L69.2 515.8ZM67.1 524L63 526.1L72.5 532.4L76.3 529.8L73.9 526.9L79.1 528.1L71.7 521.3ZM114.2 560.7L123 558.6L116.7 557.3L120.2 556.3L116.7 553.5L93.4 546.4L99.6 552.3L92 549.6L100.9 563.6ZM120.3 561L110.8 565.2L118.5 565.1L132.9 576.2L142.6 574.1L138 571.1L141.9 565.6L139.8 560.6Z"/><path fill="#3b6a6e" d="M608.2 510.9L593.8 515.3L584.6 511.4Z"/><path fill="#c2b083" d="M56.8 513.1L49.7 516.5L32.1 513.3L39.9 510.6Z"/><path fill="#5e9194" d="M739.9 510.8L746 514.8L737.8 530.4L733.9 524.6Z"/><path fill="#876d4b" d="M33.1 511.2L32.5 513.8L68.6 518.1L61 522L35.5 515.5L22.3 518.3Z"/><path fill="#5e9194" d="M569.6 527.7L565.8 535L566.4 523.9L573.6 511.5Z"/><path fill="#a38c5b" d="M521.4 518.1L533.8 553.7L532.2 574.6L527.9 562.9L530.9 552.1L527.3 535.5L521 527L519.8 517.3L509.8 513.2Z"/><path fill="#c2b083" d="M510.6 516.7L516.8 519.4L509.9 519.3L514.6 524.9L512.7 530.8L512.1 523.9L508.6 523.3L510.9 521.3L504.9 521.3L505.4 516.8L500.5 515Z"/><path fill="#070e11" d="M528.5 521.5L535.4 562.5L536.6 556.4L545.3 556.9L537.6 569.6L538.4 575.5L543 573.4L554.6 551.3L551 529.9L557.2 520.9L554.9 534.1L558.7 545.6L565.3 552.8L579.5 558.3L559.4 572.2L541 579.2L530.6 577.1L528.7 580.7L538.6 582.3L557.2 573.8L540.9 581.8L552.9 580.2L584 564.6L588.5 566.8L588.2 574.1L602.8 568.3L589.3 575.8L585.5 583.9L598.1 571.6L619.8 569.6L610.9 577.4L608.9 591.3L599.1 588.8L592.1 580.7L596.9 587.1L589.3 587.5L595.2 590.2L562.7 606L559.2 593.3L572.2 589.6L556.1 592.2L552 584.8L544.9 585.7L548 595.7L545.4 608.5L533.3 622.3L508.6 630.3L491.9 629.8L474.5 616L493.3 628.5L519.9 626.1L537.8 615.6L544.6 602.4L540.4 590.7L522.9 584.6L540.8 589.7L546.1 599.3L545.9 593.7L539.6 585.1L530.3 582.1L499.6 582.3L482.6 590.7L473.7 607L473.7 592.2L477.7 591.6L474.9 590.1L475.7 572.9L464.9 539.8L469.2 543.3L475.8 567.7L467.4 536.4L479.5 567.7L473.6 541.1L474.9 536L480.5 551.2L477.6 552.2L484.4 570.5L480.9 586.7L476.2 572.8L479.4 591L503 580.2L502.4 563.4L506.6 555.9L505.4 575.7L509.8 576L506.9 562.8L509.4 570.9L515.3 574.8L513.9 578.2L520.2 576L525.4 579.9L524.2 572.8L527.5 578.3L529.9 576.5L527.3 564.9L520.2 559.6L528.1 563.2L531.5 574.6L531.1 559.5L533.7 566.1L531.2 543.7L521.5 521.5L521.4 518.1Z"/><path fill="#dacdaa" d="M488.2 518.1L495 536.5L488.5 522.1L474.6 525.5L472.3 534.9L471.4 526.7Z"/><path fill="#46331e" d="M504.7 519.1L507.1 532.9L503.9 541.4L507.2 538.3L504 547L509.4 557L506.5 560.5L506.6 555.9L502.4 563.4L493.4 544.5L495.7 533.4L488.5 519L495.8 526.5L495.6 520.6L501.4 543.3L500.3 529.5Z"/><path fill="#a38c5b" d="M516.4 519L527.6 545.3L527.9 553L525.1 548L522.5 556.1L520 533.1L509.9 519.7Z"/><path fill="#352611" d="M520 520.6L530.9 552.1L528.1 563.2L517 559.1L513.7 552.3L520 541.8L522 555.8L525.1 548L527.9 553L524.6 533.8L517.4 522.7Z"/><path fill="#3b6a6e" d="M734.1 522.8L738.5 530.1L736.4 539L727.8 529.2L732.5 519.9Z"/><path fill="#d0f3f6" d="M514.6 524.9L520 541.8L513.4 549.7L518.1 562.8L512 562.8L514.2 574.2L509.4 570.9L508.3 550.6L503.9 545.8L507.2 538.3L503.9 541.4L507.1 532.9L504.9 521.3L510.9 521.3L508.6 523.3L512.1 523.9L512.5 530.8Z"/><path fill="#dacdaa" d="M72.5 532.4L67.1 524L71.1 521.1L79.1 528.1L73.9 526.9L76.3 529.8Z"/><path fill="#a38c5b" d="M489.5 523.2L490.7 531.2L481 525.3L478.2 529.1L482.6 526.7L494.8 541.9L479.8 531L479.1 538.2L475.4 538.2L474.4 529.9L473.7 542.6L472.4 527.3L482.6 522.1Z"/><path fill="#876d4b" d="M315.5 529.3L281.3 533.5L275.8 535.6L275.1 540.8L275.4 534.5L268.8 532.2L254.2 539.9L270 530.2L290.8 530.5L304.4 526.1Z"/><path fill="#3b6a6e" d="M359.1 526.2L351.4 530.7L361.4 526.4L369 533.3L360.1 533.8L344.2 548.6L364.3 541.7L364.1 552.8L360.9 544L356.9 544L342 551L331.4 561.6L339 544.6L344.5 542.7L340.9 548.5L358.1 532.6L339.2 539.4L331 554.3L334.4 542L345.4 530.3Z"/><path fill="#c2b083" d="M329.1 527L332.8 527.6L321 533.8L306.1 534.3L301.6 529.9L293.6 532.1Z"/><path fill="#c2b083" d="M341.8 528.1L344.5 533.4L331.8 546L337.5 532.5L335.9 527.3Z"/><path fill="#ece6d1" d="M332.8 527.6L322.4 537.2L304.2 536.5L323.4 533.3Z"/><path fill="#876d4b" d="M718 529.6L728 534.3L718.9 531.3L714.7 537L715.4 533.6L710.1 533.9L714.7 534L714.3 530.8L711.1 530.4L707.8 532.5L709.5 536L705.9 534.5L705.9 528Z"/><path fill="#dacdaa" d="M333.3 528.2L332.1 539.4L325.6 542.9L303.8 537.4L322.4 537.2Z"/><path fill="#a38c5b" d="M334.9 534.3L330.2 544.4L312.1 540.4L294.7 543.8L277.4 539.5L297.9 538.9L299.6 533.7L305.8 532.9L304.7 538.1L325.6 542.9L332.1 539.4L333.3 528.2Z"/><path fill="#070e11" d="M705.9 534.5L718.6 546.5L734.1 588.5L671.6 640.7L645.4 668.9L670 639.1L731.7 588.8L719.6 561.6L703.8 540.9L699.8 531.4L702.9 528.5Z"/><path fill="#dacdaa" d="M727 529.5L735.5 540.3L739.6 561L732.2 538L718 529.6Z"/><path fill="#ece6d1" d="M301.9 533.1L295.8 539.3L281.6 540.4L275.7 536.1L301.6 530Z"/><path fill="#47797d" d="M551 529.9L552.9 546.9L549.5 545.3L549.1 550.1L534 548.6L532.6 535.8Z"/><path fill="#5f4929" d="M801.4 542.2L773.5 572.7L759.5 580.5L779 562.2L746.1 588L788.1 552.1L804.4 530.3Z"/><path fill="#47797d" d="M378.6 530.6L375.3 536.4L382.6 532.9L375.5 539.1L367.3 565.3L376.7 551.6L384.4 550.7L369.6 567.4L377.3 564.2L368.9 575.3L363.9 573.4L360.7 577.7L363.4 542.7L365.5 546.7L371.1 546.8L374.9 537.6L352.5 541.8L360.1 533.8Z"/><path fill="#305c61" d="M386.2 534.1L381.8 539L392.9 531.8L401.6 534.2L388.1 542.1L397 535.3L392.4 533.8L384.2 542.5L386.8 544.8L370.3 555.2L375.5 539.1L382.6 532.9L375.3 536.4L377.2 532.3Z"/><path fill="#ade9f2" d="M479.1 531.3L478.3 534.7L484 532.5L490.9 542L494.9 542L497 553.2L492.7 561.3L498.6 566.8L498.5 577.9L501.5 577.6L497.8 580.5L487.9 576.7L488.8 581.6L484.1 582.2L482.2 573.7L490.1 553.8L478.7 546.8Z"/><path fill="#3b6a6e" d="M678.7 532.7L679.5 549.9L699.3 548.7L707.4 558.4L688.7 564.8L701.1 566.7L680.2 571.5L677.4 564.8L682.7 558L674.1 554.4L673.8 547.3L670.6 547.3L665.3 555.5L671.4 555.5L671.8 558.6L657.7 571.6L660.5 586.4L654.7 572.1L659.7 568L670.5 539.4Z"/><path fill="#c2b083" d="M90.5 531.7L93.2 539.6L82.5 543L81.7 537.2Z"/><path fill="#c2b083" d="M271.8 534.2L268.6 533.3L264.3 539.5L266.1 542.7L255.9 547.6L270.6 545.9L269.9 537.1L274.2 535.8L274.9 544.7L270.7 549.4L250.7 552.1L247.1 542.6L268 532.4Z"/><path fill="#5e9194" d="M349.3 537.6L336 545.4L341 538L357.7 532.3Z"/><path fill="#ece6d1" d="M272.1 534.5L270.6 545.9L256.1 548.5L266.1 542.7L264.3 539.5L268.6 533.3Z"/><path fill="#5e9194" d="M401.6 534.2L407.2 534.8L395.8 540.9L399.4 542.8L382.3 552.1L382.6 549.6L377.8 551.1L386.8 544.8L384.2 542.5L391.1 534.8L397 535.3L388.1 542.1Z"/><path fill="#1c3b3f" d="M336.3 534.8L329.9 554.6L339.8 541.1L349.5 538.7L339 544.6L329.7 561.5L335.2 584.7L363 579.6L347.6 578.4L356.1 567.1L354.9 561.8L361.7 557.3L362 549.5L356.9 544L360.9 544L364.1 552.8L361.3 577.9L363.9 573.4L368.9 575.3L381.8 558L397.9 550.8L384.4 564.1L382.5 560.4L368.4 580.4L386.3 568.9L374.5 589.4L416.4 567.6L437.4 563.9L428.6 561.4L448.2 563.6L447.7 558.1L463 570L453 569.8L450.8 572L455.4 572.7L435.2 578.3L457.7 575.2L454.6 580.1L463.6 579.1L461.4 571.7L464.2 571.1L470.1 591.2L447.8 594.5L418.5 608.3L465 596.1L473.9 600.1L475.3 616.1L459.1 621.4L450.3 621.5L455.2 616.7L429.2 622.2L446.1 610.1L471.7 602.7L466.3 600.8L436.9 611.6L425.2 621.3L396 635.2L355.2 642.6L342.8 639.4L307.3 640.2L326.4 635.1L295.6 639.6L295.6 634.5L311.5 634.7L329.3 627.6L321.4 633.3L324.8 633.4L354.5 618L355.3 621.2L365 616.4L380 606.1L391.9 607.3L355 623.5L338.6 634.3L341.8 634.9L412.6 600.9L460.6 585.5L402.7 600L413.4 590.1L406.9 589.8L412.1 584.3L365.5 612.6L367.8 608.7L318.5 629.8L301.4 629.9L330.8 622.4L323.5 619.7L307.1 624L318.5 618.4L332 617.7L328.9 598L282.3 586.8L303 587.9L299.2 585L303.6 580.8L292.3 582.5L302.1 568.7L323.6 550.9L307.6 573.2L310.1 575.4ZM445.6 567.4L439.8 565.2L405.2 577.7L435.7 569.2L432.6 573.6Z"/><path fill="#5f4929" d="M728 534.3L734.6 542.4L736.4 553.8L723.4 533.9Z"/><path fill="#1c3b3f" d="M737.7 534L743.2 538.5L740.9 543.3L744.3 549.5L759.8 544.5L741.3 565.4L734.4 538.2Z"/><path fill="#3b6a6e" d="M410.7 535L448.3 560.4L439.4 557.4L426.9 559.2L434.7 557.3L420.3 555.9L422.8 549.2L407 555.2L420.1 544.1L415.4 540.9L401.5 549.8L402.1 545.9L389.9 549.2L390.9 552.7L369.7 567.6L384.4 550.7L399.7 542.6L395.8 540.9Z"/><path fill="#305c61" d="M677.6 534.7L678.8 542.5L697.8 549.5L679.5 549.9Z"/><path fill="#352611" d="M601.5 547.3L594.4 550.9L611.8 536.7L605 549L604.7 545.2Z"/><path fill="#81b1b2" d="M364.8 542.2L344.2 548.6L344.9 545.3L368.6 537L374.9 537.6L371.1 546.8L365.5 546.7Z"/><path fill="#5f4929" d="M467 549.8L467.2 554.2L464.3 551.4L467.2 562.2L469.4 556.7L474.1 568.2L477.6 591.1L473.8 595L468.7 586.2L472.4 589.6L471.6 578L465.1 566.2L460 536.8Z"/><path fill="#5f4929" d="M276.6 537.6L294.7 543.8L312.1 540.4L330.2 544.4L283.8 545.2L257.3 553.7L248.7 561.2L232.3 565.6L208.7 578.7L202 578.4L208.6 575.7L212 566.4L216.5 572L246 561L247.6 547.8L251.6 552.6L270.7 549.4Z"/><path fill="#5e9194" d="M407 555.2L391.5 565.4L405.6 546.2L415.4 540.9L420.1 543.6Z"/><path fill="#876d4b" d="M249.8 541.8L246.5 543.2L247.8 551.1L240.1 550.3L241.7 544.9L211.4 560.8L213.3 567.8L208.4 561.7L203.3 561.9L191.5 570.6L177.6 572.8L181.7 579.8L194.1 579.9L189.3 576.6L193.7 576.8L193.8 573.7L208.5 575.2L202.5 576.6L208.7 578.7L204.3 580.2L184.4 579.7L183.2 585.5L173.3 588.1L159 580.5L174.4 582.5L174.5 572.7L147.7 567.8L144.8 571.5L146.7 567L188.5 569.4L202.8 559.5L218.2 556.6L239.7 543.4Z"/><path fill="#132628" d="M331 562.3L342 551L359.3 545.3L361.7 557.3L354.9 561.8L356.1 567.1L347.6 578.4L363 579.6L335.2 584.7L329.1 568.8Z"/><path fill="#dacdaa" d="M247.5 551.1L245.9 558.2L236.6 559.8L234.1 556.5L238.2 555.2L238 551.2L217.6 563.7L211.2 561.5L241.7 544.9L240.1 550.3Z"/><path fill="#305c61" d="M327.5 545L330.3 547.7L310.1 575.4L307.6 573.2L324 550.9L297.7 568.7L302.1 568.7L292.4 583L303.6 580.8L299.2 585L303 587.9L284.9 585.7L254.9 600.8L255.2 590L263.1 579.1L299.1 563.2L267.2 577.5L257.8 587.3L267.5 586.7Z"/><path fill="#1c3b3f" d="M552.9 546.9L552.3 557L540.9 571L548.9 551.5L545.3 556.9L536.3 556.6L535.5 562.7L534 548.6L549.1 550.1L549.5 545.3Z"/><path fill="#c2b083" d="M113.9 561L100.9 563.6L92 549.6L99.6 552.3L93.4 546.4L116.7 553.5L120.2 556.3L116.7 557.3L123 558.6Z"/><path fill="#305c61" d="M401.5 549.8L404.8 550.8L392 561.5L391.5 565.4L394.2 564.2L383.6 578.6L386.3 568.9L383.7 568.5L368.1 582.4L382.5 560.4L384.4 564.1L397.8 551.1L388.4 550.7L402.1 545.9Z"/><path fill="#47797d" d="M680.2 571.5L665.4 576.5L661 582L657.7 571.6L671.8 558.6L671.4 555.5L665.3 555.5L670.6 547.3L673.8 547.3L674.1 554.4L682.7 558L677.4 564.8Z"/><path fill="#305c61" d="M709.5 548.1L717 558.2L712 554L712.1 561.5L698.7 563.5L707.4 558.4L699.3 548.7L702.6 552.5Z"/><path fill="#26494e" d="M426.9 559.2L432.8 562.4L416.4 564.1L379.9 581.1L407 555.2L422.8 549.2L420.3 555.9L434.7 557.3Z"/><path fill="#c2b083" d="M247.8 551.1L245.4 559L232.5 563.6L235.9 560.4L231.4 557L219.5 567.2L214.2 567.4L212.8 563.6L237.2 551.3L238.2 555.2L234.1 556.5L236.6 559.8L245.9 558.2Z"/><path fill="#352611" d="M488.8 555.1L484.4 570.5L479.4 553Z"/><path fill="#876d4b" d="M582.6 562.9L552.9 580.2L540.9 581.8L557.2 573.8L538.6 582.3L527.7 579.4L541 579.2L559.4 572.2L595.1 551.1Z"/><path fill="#070e11" d="M470 585.3L461.6 569.2L462.8 551.5L471.5 577.7L473.1 586.7L472.1 589.8Z"/><path fill="#352611" d="M499.6 560.9L501.8 576.3L498.7 578.2L498.6 566.8L492.7 560.8L494.3 554.4L496.9 560.9L497 553.2Z"/><path fill="#1c3b3f" d="M717 558.2L719 570.7L708.9 575.3L708.9 570.4L706.2 580.7L684.3 596.6L671 598.7L660.7 593.6L657.8 582.8L660.5 586.4L661.5 581.3L662.3 589.6L671.2 591.4L696.6 575.2L696.1 570.9L682.1 571.3L701.3 565.9L688.7 564.8L710.3 562.5L712 554Z"/><path fill="#a38c5b" d="M232.5 563.6L215.3 572.1L211.5 562.2L214.4 567.7L219.1 567.3L231.4 557L235.9 560.4Z"/><path fill="#5e9194" d="M448.3 560.4L448.2 563.6L426.4 559.9L439.4 557.4Z"/><path fill="#ade9f2" d="M520.2 559.6L527.3 564.9L529.9 576.5L527.5 578.3L524.2 572.8L525.4 579.9L514.2 574.2L512 562.8L517.7 563.2L517 559.1Z"/><path fill="#5e9194" d="M304.9 559L285.6 576.8L267.5 586.7L257.9 587.7L267.2 577.5Z"/><path fill="#876d4b" d="M508.4 559.8L508.5 568L505.8 565.1L509.1 576.4L505.3 575.4L503.7 565.1Z"/><path fill="#dacdaa" d="M120.3 561L134.8 560.9L141.2 566.5L132.9 576.2L116.8 563.9Z"/><path fill="#876d4b" d="M502.4 563.4L503 580.2L483.1 587.4L482.1 582.7L501 578.6L498.5 561.8Z"/><path fill="#dacdaa" d="M211.6 568.5L207.8 572.8L203.3 569.1L202.1 573.7L198.6 568.5L199 576.4L190.5 572.1L203.3 561.9L208.4 561.7Z"/><path fill="#305c61" d="M719.6 561.6L726.5 575L706.2 580.7L708.9 570.4L708.9 575.3L719 570.7Z"/><path fill="#c2b083" d="M199.8 564.3L190.5 572.1L194.1 576.4L189.3 576.6L194.1 579.9L181.7 579.8L176.9 574.1L191.5 570.6Z"/><path fill="#47797d" d="M445.6 567.4L432.6 573.6L435.7 569.2L405.2 577.7L439.8 565.2Z"/><path fill="#47797d" d="M408.1 567.5L416.4 567.6L411.9 571L374.1 588.9L378.6 582.3Z"/><path fill="#dacdaa" d="M174 573.9L144.9 572.5L147.7 567.8L166 569Z"/><path fill="#47797d" d="M463 570L463.6 579.1L454.6 580.1L457.7 575.2L435.2 578.3Z"/><path fill="#132628" d="M661.5 581.3L676.8 572.2L697.2 572.1L670.1 591.9L661.9 589.3Z"/><path fill="#a38c5b" d="M145 571.5L174 573.9L174.8 582L170 583L173.5 580L170.9 575.9L167.5 578.6L159.3 576.1L164.2 581.5L145.9 575.5Z"/><path fill="#5f4929" d="M204.3 580.2L183.2 585.5L184.4 579.7Z"/><path fill="#dacdaa" d="M522.9 584.6L503.3 585.2L480.9 592.4L497.1 582.9L522.5 581.9L516.6 579.7L539.6 585.1L546.1 599.3L540.8 589.7Z"/><path fill="#a38c5b" d="M522.9 584.6L525.3 587.1L508.8 586.2L488.4 591.8L503.3 585.2Z"/><path fill="#132628" d="M574.1 598L574.7 600.6L585.5 597.9L581.6 602L589 602L581.1 620.8L591 611.8L598.1 611.3L571.4 638L558.7 634.6L543.7 656.4L540.2 652.4L551.2 616.8L539 632.5L512.8 649.1L503.9 653.1L506.4 647.8L494.8 642L495.3 630.7L520.6 627.8L533 622.6L543 612.8L548 598L544.9 585.7L552 584.8L556.1 592.2L572.7 590.3L559.2 593.3L561.5 605.6L571 603.1Z"/><path fill="#305c61" d="M402.7 600L396.9 606.2L386 610.4L392.1 606.1L379.4 606.3L354.1 620.7L353 616.2L370.3 610.3L412.1 584.3L406.9 589.8L413.4 590.1Z"/><path fill="#47797d" d="M386 610.4L409.8 596.6L460.8 584.7L403.7 604.6L391.3 613.7L341.8 634.9L338.6 634.3L355 623.5Z"/><path fill="#070e11" d="M525.3 587.1L537.7 591L542.5 597.3L515.9 587.3L489.7 592.6L508.8 586.2Z"/><path fill="#352611" d="M542.8 595.9L542.6 606.8L541.6 599.9L537.9 606.4L536.2 602.6L527.5 606.9L528.1 603.9L522 605.4L532.1 600L524.3 602L530.7 596.4L517.8 599.1L522.7 593.5L506 595.7L484.2 607.2L494.6 605.3L483.5 611L488.9 612.9L479.7 613.3L484.5 621.7L475.2 612L477 603.5L486.3 592.1L515.9 587.3Z"/><path fill="#1c3b3f" d="M601.5 591L612.5 594.7L600.3 593.6L597.7 595.3L604.8 597.4L596.9 598.9L609 600.8L613.9 593.7L623.4 599.6L607.7 607.1L612.8 600.1L581.1 620.8L589 602L581.6 602L585.5 597.9L574.7 600.6L574.1 598L590.1 593.8L596.9 587.1Z"/><path fill="#876d4b" d="M491.2 588.9L475.5 602L480.9 592.4Z"/><path fill="#876d4b" d="M734.2 589.7L729.1 600.5L698.8 621.5L635.6 680.9L671.6 640.7Z"/><path fill="#5f4929" d="M734.2 589.7L739.1 595.5L736.4 598.9L703.5 621.9L727.2 606L723.2 612.9L690.2 636.9L703.6 624.4L689.3 632L698.8 621.5L729.1 600.5Z"/><path fill="#305c61" d="M470.1 591.2L441.8 600.5L451 600.5L443.8 603.5L418.5 608.3L447.8 594.5Z"/><path fill="#46331e" d="M525.5 599.3L519.9 602L524.5 601.3L522.1 605.9L528.1 603.9L525.7 606.4L530.7 608.8L501.4 621.4L500.7 617.9L507.8 614.4L498 613.9L504 607.9L492.9 613.7L483.7 613.4L494.6 606.8L484.6 606.8L506 595.7L522.7 593.5L517.4 598.7Z"/><path fill="#3b6a6e" d="M605.5 593.5L613.6 596.9L609 600.8L596.5 598.3L604.4 597.7L597.7 595.3Z"/><path fill="#3b6a6e" d="M629.1 602.5L628.7 608.6L626.3 605.2L613.4 609L586 626.5L612.1 600.5L607.7 607.1L623.4 599.6L616.6 595.6Z"/><path fill="#dacdaa" d="M544.4 599.9L542.9 609.3L533.8 619.1L508.9 628.6L486.3 625.6L477.1 618.5L473.8 609.6L477.3 600.6L475.2 612L480.7 620.4L492.6 626.6L508.6 626.9L531.1 619.3L541.4 609.5Z"/><path fill="#3b6a6e" d="M432.3 619.3L419.7 627.6L444.4 618.6L447.2 620.9L441.2 623.9L454.7 623.8L384.8 649.1L427 651.8L440.3 665.3L491.6 664.8L449.4 671.2L445.9 675.8L454 676.1L452 678.1L415.6 696.7L379.6 709.6L360.9 710.6L387.2 696.7L357.9 707.7L340.6 710L332.3 715.7L383.3 712.9L419.1 699.9L399.7 709.8L420.5 705.8L399.1 712.7L373.4 727.7L414.2 728.1L351 743L357.7 739.1L345.4 740L351.8 737L347.9 734.1L362.8 727.8L336.5 728.4L384.1 713.9L339.3 722L293.3 721.2L335.5 709.2L322.4 699.8L326.5 694.3L313.2 697.8L324.2 691L330.9 692.7L368 681.2L394.4 677.6L428.5 679.9L432.7 672L430.3 663.6L393.1 660.3L394.2 651.1L369.8 650.2L409.3 630.6L436.7 611.7L463.8 601.4L472.1 602.2L446.1 610.1Z"/><path fill="#070e11" d="M542.6 606.8L518.1 624.9L504.1 626.6L520.7 621.7L538.9 609.5L513.8 621.8L528.9 612.1L515.5 617.5L537.9 606.4L541.5 599.9Z"/><path fill="#1c3b3f" d="M636.4 611.6L631.3 614.3L628.4 611.4L609.5 623L578.2 654.6L528.1 687.2L462.6 709.2L431.1 715.4L439.1 710.4L431.7 711.5L424 703.1L459.8 683.6L477.5 680.5L480.5 672.4L488.6 675.6L482.8 681.1L503.9 675.7L487.7 684L482.2 692.4L498.5 691.1L493.5 686.6L496 682L502.5 685L518.8 673.5L529.5 660.8L539 638.7L510.2 666.7L488.2 673L484.9 672.8L487.3 668.2L471 670L478.4 672L468.2 679.5L430 696.2L422.8 697.3L421.1 694.1L470.8 667L491.6 664.8L461.3 665.9L450.6 662.1L483.5 657.1L487 657.8L483.5 661.4L516.4 650.1L505.7 652.3L539 632.5L550.8 616.8L538.1 670.7L553.9 656.2L546.5 660.5L560.8 639.3L548.8 648.8L558.7 634.6L571.4 638L617.1 607.5L626.3 605.2L628.7 608.6L629.1 602.5Z"/><path fill="#5f4929" d="M664.7 627.3L658.4 612L640.9 612.5L623.9 623.9L619.8 632.3L620.8 635.5L631.3 630.1L630.6 634.1L635.7 632.3L636.9 636.9L644.5 636.1L644.1 639.4L638.5 636.8L642 639.3L640.1 644L626.4 636.8L616.7 637L620.3 622.8L646.8 607.3L658.7 607.3L664.3 612Z"/><path fill="#5f4929" d="M502.1 615.9L495.6 618.5L495.5 622.2L510.2 616.2L516.5 618.4L511.8 621.6L514.3 622.9L505.6 623.2L506 627L492.6 626.6L483 621.7L479.7 613.2L492.9 613.7L503.3 607.7L498 613.9Z"/><path fill="#26494e" d="M307.1 624L323.5 619.7L330.8 622.4L301.5 629.4L313.5 630.3L292.9 632.8L316.4 633.3L295.6 634.5L296.2 639.7L326.8 635.4L304.7 638.8L318.2 640.4L305.1 647.2L307 653.9L270.2 640.2L264.3 631.2L263 620.4L266.4 613.2L274.9 608.8L280.8 621.4Z"/><path fill="#c2b083" d="M535.5 609.3L520.7 621.7L504.1 625.9Z"/><path fill="#c2b083" d="M662.7 624.8L655.6 625.1L657.4 638.6L664.5 635.3L670 639.1L648.5 663.6L653.4 656.9L648.3 634.8L651.5 634.4L643.8 622.8L648 621.3L649.5 625.5L649.8 620.2L640.9 618.4L631.5 623.3L640.9 612.5L654.4 610.8L662 615.5Z"/><path fill="#47797d" d="M628.7 613.7L610.3 626.3L573.2 666.3L566 671.1L568.3 667.1L561.9 669.3L536.4 686.5L579.2 653.8L609.5 623Z"/><path fill="#876d4b" d="M640.9 612.5L631.5 623.3L640.9 618.4L649.5 620L649.5 625.5L648 621.3L643.8 622.8L651.5 634.4L645.1 636.3L637.9 659L636.8 644.7L642 639.3L638.5 636.8L644.1 639.4L644.8 636.3L636.9 636.9L635.7 632.3L630.6 634.1L631.3 630.1L620.8 635.5L619.8 632.3L623.9 623.9Z"/><path fill="#132628" d="M631.3 614.3L618.4 623.9L616.4 634.2L617 637.5L633.3 639.8L636.8 644.7L632.2 678.4L642.6 667.2L645.6 635.7L652.1 641.4L653 658L627.5 688.6L616.6 695.3L589.4 735L590.9 728.2L587.4 734.9L553.8 742.5L578.2 727.9L585.6 730.5L572.5 727.7L587.1 720.2L591.6 698.8L586.3 701.5L587.9 695.6L582.1 697.6L613.9 634.6L602 643.4L590.1 664.3L585.7 667.7L579.3 666.2L610.3 626.3Z"/><path fill="#47797d" d="M354.5 618L321.8 634.4L329.3 627.6L316.4 633.3L292.9 633.3L318.5 629.8Z"/><path fill="#26494e" d="M474.2 616.7L494.5 630.7L472 640.6L477.7 642.6L474.8 646.5L491.1 646.6L486.1 653L458.8 661L518.7 648.1L508.8 653.2L483.5 661.4L487 657.8L483.5 657.1L450.6 662.1L461.3 665.9L450.8 666.4L440 665.1L427 651.8L384.4 648.6L452.4 625.2L454.4 622.9L441.2 623.9L447.2 620.9L444.4 618.6L419.7 627.6L432.3 619.3L429.9 622.6L455.2 616.7L450.3 621.5L459.1 621.4Z"/><path fill="#876d4b" d="M662.7 624.8L665.8 631.8L658.7 639.5L655.6 625.1Z"/><path fill="#305c61" d="M413.8 627.5L376 648.7L336.9 658L319.6 657.9L349.8 648.8L350.5 641L377.8 639.2Z"/><path fill="#1c3b3f" d="M495.3 630.7L494.8 642L506.4 647.8L503.9 653.1L458.8 661L487.4 652.3L490.6 644.7L475.1 646.7L477.7 642.6L472 640.6Z"/><path fill="#5f4929" d="M604.6 726.5L618.4 701.8L655.5 665.2L680.5 644.5L675.5 653.4L686.8 641.5L704 632.2L659.8 675.4L666.1 665.3L650.7 680.7L654.7 671.9L620.2 706.9L616.2 713.9L625.9 705.3L605.8 731.5L603.3 732.6Z"/><path fill="#26494e" d="M584.9 691.3L593 664.4L568.8 680.3L562.6 694.3L542.4 712.8L561.5 708.2L560.7 716.9L579.8 707.8L590.5 697.8L587.1 709.5L591.8 709.1L587 720.5L572.5 727.7L585.6 730.5L578.2 727.9L539.1 753.7L536.2 754.1L540.8 748.8L525.9 752.6L528.8 747.2L574.1 718.1L536.8 721.2L539.5 718.1L536.2 718.2L518.9 724.7L517.4 722.3L544.3 714.4L536.2 713.1L538.1 710.1L517.2 716.1L506.4 725L464 732.2L452.6 727.6L473.7 724.9L482.4 715.4L504.4 710.2L511.3 703L536.6 693.7L531.4 693.1L539 685.2L561.9 669.3L571.3 667.7L590.6 649.9L579.3 666.2L585.7 667.7L611.1 634.4L613.9 634.6L612.5 639.3ZM553.7 686.5L530 698.5L539.9 697.5ZM511.8 713.6L522.5 712.5L559.3 696.8L555.8 695.8L560.9 691.3L530.5 704.5L523.1 704.1L529.8 706.3L527.4 708.7Z"/><path fill="#305c61" d="M483.5 701.9L457.7 716.4L414.2 728.1L373.4 727.7L399.1 712.7L420.5 705.8L399.7 709.8L419.1 699.9L383.3 712.9L332.3 715.7L340.6 710L357.9 707.7L387.2 696.7L361.2 710.9L379.6 709.6L415.6 696.7L454.2 676.6L445.8 675.3L455 669.6L470.8 667L430.6 691.5L421.6 693.5L422.8 697.3L469.2 679L478.6 671.3L471 670L487.3 668.2L484.9 672.8L488.2 673L504.9 669L519.7 660.5L539 638.7L529.5 660.8L518.8 673.5L502.5 685L496 682L493.5 686.6L497.8 691.5L482.2 692.4L487.7 684L503.9 675.7L482.8 681.1L488.6 675.6L480.9 672.4L477.5 680.5L459.8 683.6L423.9 702.6L431.7 711.5L439.1 710.4L431.1 715.4ZM453.5 715.3L438 716.1L420.8 724.5Z"/><path fill="#305c61" d="M543.7 656.4L553.7 642.7L560.8 639.3L546.5 660.5L555.1 653.7L548.9 662.6L537.2 670.6Z"/><path fill="#47797d" d="M350.5 641L349.8 648.8L320.6 657L271.5 681.8L256.7 698.9L279.9 704.5L261.8 706.8L267.9 722.5L295.9 725.2L274.5 717.2L284.7 720.2L303.4 714.2L291.4 716.7L295.8 712.4L281 712.5L301.7 702.1L296.7 701.8L317.8 689.7L368 681.2L330.9 692.7L323 691.4L313.2 697.8L326.5 694.3L322.4 699.8L336.1 708.7L293.3 721.2L327.1 720.6L339.3 722L328.8 728.1L363 729L316.5 743.1L317.4 747L326.4 749.3L303.2 750L278.2 756.8L303.7 763.2L324.5 771.4L324.3 774.8L302.1 771.7L282.9 759L270.3 757.9L288.3 750.5L293.8 744.4L347.2 731.8L309 733L311.6 727.9L265.2 725.9L255.4 718.9L251 705.4L252.7 698L269.7 679.5L313.7 660.3L305.4 647L318.2 640.4Z"/><path fill="#c2b083" d="M644.3 644.2L642.5 667.6L632.2 678.4L641 664Z"/><path fill="#a38c5b" d="M641.7 645.6L641 664L632.2 676.4L636.2 652.5L637.9 659Z"/><path fill="#46331e" d="M802.9 662.7L797 661.7L808.8 657.5L810.9 652.3L797.1 658.1L810.9 649.1L784.4 653.2L787.3 658.7L780.9 662.4L785.9 662L785 667.4L790.4 666.4L783.3 670.7L795.2 677.2L786.3 680.6L783.5 677.2L780.5 680L787.3 686.7L778.5 687.2L779 680.8L784.8 675.1L779.4 667.3L778.9 661.3L783.7 656L781.5 653.8L811.9 647.1L814.8 649.5L812.5 657.1Z"/><path fill="#ece6d1" d="M804.6 654.3L791.2 658.9L784.1 653.6L810.4 648.9Z"/><path fill="#47797d" d="M368 681.2L406.5 668.8L374.7 657.3L358.8 656.8L363.6 651.6L391.3 650.2L395.5 653L391.4 659.8L426.2 662.2L432.4 666.7L431.3 676.8L424.2 681.4L397.1 677.4Z"/><path fill="#3b6a6e" d="M366.2 651.1L353.4 658.2L336.9 658Z"/><path fill="#c2b083" d="M810.6 653.6L797 661.7L780.9 662.4L800.7 654.4L804.6 654.3L799 659.8Z"/><path fill="#5f4929" d="M781.5 653.8L779.4 667.3L777.3 664.1L761.8 673.1L748 687.7L753 696.4L749.9 698.6L752 702.1L740.8 711.4L744.6 716L738.3 710.2L748 701.6L744.3 701.4L747.7 695.5L744.9 689L722.9 708.4L722.4 710.9L726.2 708.4L722.7 713.7L675.2 742.6L669.7 753.2L666.2 751.5L665.8 746.7L669.6 749.4L672.4 746.4L671 742.3L711.8 717.6L755.7 680L761 671.6L777.6 661.1Z"/><path fill="#5e9194" d="M376 678L390.4 668.9L323 678.4L320 675.8L329.8 672.7L324.1 671.1L329.4 668.6L327.3 667.2L299.1 669L319.6 657.9L369.4 656.5L406.3 668.1Z"/><path fill="#a38c5b" d="M802.9 662.7L800.1 666.2L809 666L807.5 670.2L785 667.4Z"/><path fill="#a38c5b" d="M654.8 664L593 731.3L579.7 751.8L621.1 694.2Z"/><path fill="#dacdaa" d="M779.4 667.3L780.4 671.4L775.5 674.3L775.5 671.1L767.6 672.2L763.2 676.5L765.9 678.5L748.2 688.4L761.8 673.1L777.3 664.1Z"/><path fill="#1c3b3f" d="M584.9 691.3L588.5 683.5L582.1 697.6L588 696L579.8 707.8L560.7 716.9L561.4 708.2L542.4 712.8L562.6 694.3L568.8 680.3L593 664.4ZM583.9 683.3L565.6 699.9L574.8 697.9Z"/><path fill="#5f4929" d="M802.3 682.5L795.9 681.7L793.9 676.6L804.7 677.6L810.8 669.4L807.2 666.3L814.6 667.3L813.4 675.8Z"/><path fill="#81b1b2" d="M376 678L305.1 689.9L272.4 701.1L256.7 698.9L270.5 682.5L299.1 669L327.3 667.2L329.5 668.6L324.1 671.1L329.8 672.7L320 675.8L323 678.4L390.4 668.9Z"/><path fill="#dacdaa" d="M796.3 670.6L792 671L797 673.3L791.4 674.1L793.9 676.2L783.3 670.7L790.2 666.6L799.9 667.4Z"/><path fill="#1c3b3f" d="M682.7 673.7L681.4 679.9L677.7 679.9L674.5 701.6L664.3 723.7L664 677.6L651.2 690.3L649.4 726.1L643.2 700.5L649.2 690.5L673.1 668.5L676.6 667.5Z"/><path fill="#3b6a6e" d="M194.8 671L183.8 692.2L176.4 688.2L172.8 695.3L179.8 726.4L174.5 741.3L167.5 726.3L170.7 714.1L167.2 693.6L181 671.9L189.3 667.8Z"/><path fill="#26494e" d="M194.8 671L189.3 693.3L196.9 708.7L231.7 712.3L244.2 707.6L252.7 698L251.9 712.4L260.8 724.1L312.3 729.7L292.4 739.9L252.8 747.5L275.7 749.2L291 745.5L288.3 750.5L249.3 754L260.3 760.7L257.7 762L227.8 764.6L250.2 767.4L202.5 767L194.8 754.2L174.5 746.4L166.6 729.1L167.3 723.7L169.7 733.4L174.5 741.3L176.6 739.2L179.6 723.9L172.8 695.3L176.4 688.2L183.8 692.2ZM203.2 735.3L197.7 734.1L198.5 737.6L227.7 745.9L279.3 733.2L240.2 734.9L256.7 729.5L237.8 722.9L193.8 726.3L191.8 728.6Z"/><path fill="#a38c5b" d="M780.4 671.4L780.1 675.2L763.2 676.5L767.6 672.2L775.5 671.1L775.5 674.3Z"/><path fill="#305c61" d="M682.7 673.7L688.2 699.9L668.3 719.4L677.7 679.9L681.4 679.9Z"/><path fill="#352611" d="M784 674.3L747.4 690.2L761.1 679.5Z"/><path fill="#ece6d1" d="M776 676.3L774.1 678.5L779 682.6L750.1 693L757.6 683.9Z"/><path fill="#3b6a6e" d="M545.2 676.7L531.4 693.1L536.6 693.7L511.3 703L504.4 710.2L482.4 715.4L473.7 724.9L452.7 727.3L464 732.2L454.1 739.4L467.4 736.3L466.2 747.5L424.5 781.9L418.2 792L423.3 789.2L422.4 794L408.9 808.2L391.6 814.7L364 810L386.2 812.4L411.5 804.8L416 793.8L391.5 794.1L415 786.9L423.9 778.6L410.9 785.7L392.5 788.1L413.4 781.5L406.2 782.8L447.6 760.4L464.4 745.9L456.7 746.9L457.9 742.7L446.4 742.8L448.3 739.5L445.4 739.2L438 741L442.1 742.7L431.1 749.6L427.5 746.6L439.4 735.7L428.8 743.5L425.8 738.5L415.2 749.7L399.4 755.1L385.3 756.2L388.5 750.8L461.3 721.5L463.7 718L448.4 721.5L483.5 701.9L528.1 687.2Z"/><path fill="#876d4b" d="M786.3 680.6L800.7 686.1L801.7 681.8L804 689L782.4 687.9L787.3 686L780.5 680L784.1 677.1Z"/><path fill="#c2b083" d="M663.4 716.8L660 723.7L658.7 719.1L659.8 683L657 706.1L651.1 690.6L663.8 677.3Z"/><path fill="#dacdaa" d="M793.2 678.3L801.2 681.5L801.5 686.1L787.7 682.5L787.9 679.2Z"/><path fill="#5e9194" d="M357.4 682L317.8 689.7L291.7 708L271.4 712.8L278.7 720.6L295.9 725.2L267.9 722.5L261.4 712.2L262.2 706.5L279.9 704.9L272.4 701.1L275.4 698.3L330.5 684.4Z"/><path fill="#c2b083" d="M779.7 682.3L756.7 695.5L749.1 694.1L751.1 689.4L751.9 693.7Z"/><path fill="#132628" d="M583.9 683.3L574.8 697.9L565.6 699.9Z"/><path fill="#5f4929" d="M778.5 687.2L773.1 694.9L767.9 692L758 694.2L775.3 683.6L781 683.8Z"/><path fill="#a38c5b" d="M663.3 717L658.8 743.3L650.3 727L651.5 694.8L657.2 706L659.8 683L658.7 719.1L660 723.7Z"/><path fill="#3b6a6e" d="M553.8 686.7L539.9 697.5L530 698.5Z"/><path fill="#c2b083" d="M744.9 689L745 694.9L747.7 694.6L745.3 702.5L734 700.7Z"/><path fill="#3b6a6e" d="M511.8 713.6L527.4 708.7L529.8 706.3L523.1 704.1L530.5 704.5L560.9 691.3L555.8 695.8L559.3 696.8L522.5 712.5Z"/><path fill="#dacdaa" d="M771.7 697.1L774.3 698.9L767.2 698.3L759.9 703.2L756.1 698.3L751.4 699.9L766.5 693.6Z"/><path fill="#a38c5b" d="M773.9 695.1L785.1 701.1L781.7 705.6L755.5 704L755.5 709.7L749.4 713.4L740.7 711.9L746.6 713.1L755.3 698.2L759.9 703.2L767.2 698.3L774.3 698.9Z"/><path fill="#c2b083" d="M643.2 700.5L644.4 749.1L648.8 744L648.8 749.7L652 744.2L652.4 747.3L657.6 748.3L656.1 744.9L664.5 748.1L659.5 748.5L655.8 754.4L655.8 751L648.1 751.9L651.7 756.8L648.4 760.2L647.5 754.8L639.9 752.9L636.2 736.7L636.9 709.4L640.5 705.9L640.8 710.7Z"/><path fill="#a38c5b" d="M734 700.7L741.9 700.4L743.5 704.5L737.9 706.5L734.5 703.4L727.6 709L734.2 704.5L736.1 710.8L729.2 711.6L734.6 714.6L735.7 712.1L740.5 719.5L722.4 725.5L721.2 722.5L732.1 714.2L715.9 716.2L722.7 713.7L726.2 708.4L722.4 710.9L722.9 708.4Z"/><path fill="#46331e" d="M767.4 708L763.5 707.4L767.9 707L766.2 703.6L778.6 706L787.1 702.7L782.9 707.4Z"/><path fill="#352611" d="M765 705.7L767.9 707L755.7 714.7L734 726.5L725.9 725.3L693.3 748.1L721.2 723.5L740.1 720.2L736.4 712.8L729.7 709.8L736.1 710.8L734.4 704.2L737.3 709.3L740.5 706.8L739.9 714.7L746.8 716.1L757.3 711.7L754.8 704.4Z"/><path fill="#5f4929" d="M645.5 717.8L658.8 743.3L663.4 716.8L664.5 742.2L671 742.3L670.2 744.9L656 744.9L656.8 748.4L650.6 742L644.8 749.7L648.4 728.1L645.5 735.3L641.4 705.8L645.1 727.8Z"/><path fill="#1c3b3f" d="M636.9 709.4L636.4 736.5L635 731.7L626.9 730.2L614.2 735.7Z"/><path fill="#305c61" d="M518.9 724.7L506.4 725L517.7 715.9L538.1 710.1L536.2 713.1L544.4 714.3L517.4 722.3Z"/><path fill="#3b6a6e" d="M281 712.5L295.8 712.4L291.4 716.7L303.5 713.7L282 720.3L270.8 713.4Z"/><path fill="#dacdaa" d="M721.2 723.5L693.6 746.7L673.4 757.2L671.2 750.9L719.7 721.2L679.8 745L673.9 745.2L677.3 741.1L719.1 714.6L719.2 718L727.1 712.9L732.3 715Z"/><path fill="#5e9194" d="M342 726.4L328.2 727.7L342.2 721.1L384.4 714.4Z"/><path fill="#3b6a6e" d="M453.5 715.3L420.8 724.5L438 716.1Z"/><path fill="#5e9194" d="M420.6 744.8L413.1 754.1L385.8 768.1L362.4 771.5L350 769.6L388.9 759.8L395.1 755.1L371.2 762.9L354 761L350.3 764.4L323.7 766.2L324.5 771.4L278.2 756.9L307.3 749.4L321.5 749.6L338.5 757.3L380.8 753.2L371.6 751.4L411.8 734.2L396.4 739.7L392.9 739.4L400.1 736L379.8 737.6L333.4 749.4L317.4 747L316.5 743.1L347.8 735.9L351.8 737L345.4 740L357.7 739.1L350.8 742.9L360 741.5L460.1 715.3L448.3 721.8L463.7 718L461.3 721.5L388.5 750.8L385.3 756.2L398.6 755.4Z"/><path fill="#305c61" d="M549.6 731.6L566.9 719.3L544.2 727.2L519 728.2L520.2 724.3L536.2 718.2L539.5 718.1L536.8 721.2L574.1 718.1Z"/><path fill="#5e9194" d="M549.6 731.6L502.8 748.2L505.6 737L492.4 738.2L477.9 732.9L466.2 747.5L467.4 736.3L453.8 738.8L473.5 729.5L521.7 724L519.5 728.6L541.9 727.5L566.9 719.3Z"/><path fill="#46331e" d="M672.7 755.8L669 750.3L673.7 746.2L719.6 720.6L671.2 750.9Z"/><path fill="#1c3b3f" d="M252.4 735.8L233.8 739.2L203.2 735.3L191.4 727.8L240.4 722.8L256.8 730.4L240 734.7Z"/><path fill="#26494e" d="M636.4 736.5L621.8 744.7L626.7 739.5L623.7 739.2L603.2 751.9L619.5 726.7L614.2 735.7L626.9 730.2L635 731.7Z"/><path fill="#352611" d="M618.1 728.5L598.7 760.8L586.7 792.6L583.2 819.2L588.3 851L578.7 856.3L559.2 858.3L552.9 849.4L553.2 820.4L568 768.7L576.1 757.9L558.8 798.4L554.1 834.5L556.2 827.4L558.7 833.5L554.7 848.2L585.2 845.3L579.6 820.8L584.3 795.1L592.4 768.7Z"/><path fill="#5e9194" d="M291 745.5L275.7 749.2L263.1 747.4L309 733L347.4 730.9L336.7 736.6Z"/><path fill="#305c61" d="M548.4 732L527 749.4L525.3 752.3L528.4 752.6L541.1 748.9L528.9 758.2L499.5 764.5L457.6 761.5L434 777.8L422.4 794L423.3 789.2L418.2 792L426.2 780.2L456.7 756.6L466.2 751.8L491.7 748.6L484.2 734.2L492.4 738.2L505.8 737.2L501.8 748L476.1 759.7L503.5 762.1L512.2 758.6L504.6 759L502.8 749.5Z"/><path fill="#5e9194" d="M203.2 735.3L236 739.2L279.3 733.2L227.7 745.9L198.5 737.6L197.7 734.1Z"/><path fill="#1c3b3f" d="M484.2 734.2L491.7 748.6L459.1 755.3L473.8 735.1Z"/><path fill="#5f4929" d="M575.7 783.8L572.5 783L576.5 772.4L560 801.2L571.8 771.7L601.7 734L597.8 739.4L602.6 737.8L584.9 767.7L580.7 791.9L577.2 789.4L578.6 774Z"/><path fill="#1c3b3f" d="M587.4 734.9L574.7 754.7L539.1 753.7L553.8 742.5Z"/><path fill="#81b1b2" d="M321.5 749.6L356.4 746L382.5 737.1L400.1 736L392.9 739.4L396.4 739.7L412.1 734.5L371.6 751.4L383.4 751.8L378.3 753.7L338.5 757.3Z"/><path fill="#47797d" d="M427.5 746.6L411.3 755.3L425.8 738.5L428.8 743.5L439.6 735.8Z"/><path fill="#352611" d="M639.9 752.9L618.9 763.1L616.3 772L620.6 776.6L646.6 768.9L660.9 769.9L671 764.7L670.3 758.2L680.5 764.4L686.7 753.2L692.7 752.7L679.7 766.7L672.9 764.9L662.3 770.8L641.7 771.9L623.3 779L616.9 775.7L615.9 765.3L636.8 751.6L637.8 736.2Z"/><path fill="#26494e" d="M406.2 782.8L392.4 788.4L410.9 785.7L423.4 778.2L412.6 787.9L369.5 797.5L372.7 793.9L352.3 794.3L358 791.7L354.2 788.6L360.4 776.3L407.9 760.5L399.1 760.9L427.5 746.6L431.6 749.6L442.1 742.7L437.9 741.2L440.4 740.1L455.9 741.4L456.7 746.9L464.5 745.4L456.8 754.6Z"/><path fill="#876d4b" d="M592 738.9L591 750.1L573 769.7L562 793.6L561.3 801L577.5 771.8L572.3 789.8L577.2 802L573.6 821.4L569.8 799.6L572.3 807.6L568.9 806.8L567.2 834.8L564.7 832.3L561.6 846.9L564.3 847.3L555.3 848.7L558.9 830.2L556.2 827.4L554.6 835.1L554.2 827.6L559.1 797.5L569.2 769.2Z"/><path fill="#876d4b" d="M703.4 741.4L692.7 752.7L686.7 753.2L681 764.2L674.5 763.3L689.2 747.1L697 747.1Z"/><path fill="#dacdaa" d="M669.7 753.2L670.7 757.3L667.6 752.5L662 753.6L666.3 754.4L665.8 760.8L656.1 764.4L659.4 748.5L664.5 748.5L661.7 746.3L673.4 742.6L669.9 749.3L665.8 746.7Z"/><path fill="#3b6a6e" d="M511.9 745.2L502.1 750L504.6 759L512.2 758.6L508 761.4L476.1 759.7Z"/><path fill="#c2b083" d="M686.5 749.2L676.7 763.8L671.7 760.6Z"/><path fill="#3b6a6e" d="M288.3 750.5L269.6 757.3L282.9 759L302.1 771.7L322.2 773.6L317.4 776.2L305.7 772.6L317.3 778.3L327.4 776.2L325.4 771.1L362.4 771.5L408.2 760.3L357.9 778.2L339.1 775.8L334.1 779.5L315 780.6L308.7 778L316 785.3L267.5 769.3L227.8 765.6L260.3 761.2L249.3 754.3L253 752.6Z"/><path fill="#876d4b" d="M671.7 756.5L674.9 759.9L669.5 758.5L671 764.7L660.9 769.9L646.6 768.9L620.6 776.6L616.3 772L616.5 768.4L617.6 772.3L619.1 767.9L631.5 766.7L628.5 765.2L631 761.3L639.5 759.4L634.1 764.1L646.8 765.1L644.5 761.1L649.9 763.6L649.1 759.4L651.8 762.5L652.5 756.7L658.8 764.7L662.2 759.8L665.8 760.8L664 753.5Z"/><path fill="#dacdaa" d="M639.9 752.9L647.5 754.8L649.9 763.6L645 760.8L646.8 765.1L634.1 764.1L637.9 759.5L631 761.3L628.6 765.8L632.1 766.1L627 769.6L622.1 768.6L630.9 759.8L645.3 757.7Z"/><path fill="#c2b083" d="M637.7 753.1L644 757.5L621.5 763.1Z"/><path fill="#a38c5b" d="M633.5 754.4L622.2 761.5L630.9 759.8L617.9 771.9L618.9 763Z"/><path fill="#81b1b2" d="M350 769.6L325.4 771.1L323.7 766.2L350.3 764.4L354 761L371.2 762.9L395.7 755.2Z"/><path fill="#47797d" d="M357.9 778.2L354.2 788.6L358 791.7L353.1 794.8L372.7 793.9L369.5 797.5L391.4 792.5L394.6 795.5L415.7 793.7L413.3 803.6L396.9 797.3L397.2 800.9L386.7 806.9L407.6 803.7L385.6 810.9L385.2 806.2L376.8 804.9L391.5 800.8L383.2 799.9L387.8 794.9L366.1 801L344.2 801.3L352 806.8L334.2 800.8L323.5 789.9L338.8 800.2L332.2 791L341.9 791.4L336.6 787.5L347.3 790.3L355.5 784.1L334.1 779.5L339.1 775.8Z"/><path fill="#81b1b2" d="M334.1 779.5L350.4 782.6L320 786.5L316.9 784.4L319.2 781.9L308.3 778.2Z"/><path fill="#a38c5b" d="M320 786.5L330.8 797.8L294.4 806.8L322.3 792.9L314.8 791.9L315.4 789.2L293.6 795.6L319.1 781.9L316.9 784.4Z"/><path fill="#5e9194" d="M336.8 796.9L325.4 789.3L329.2 789.5L326.8 787.1L323.7 786.6L327.3 792.9L320 786.5L354.9 783.1L347.3 790.3L336.6 787.5L342.1 790.3L332.2 791Z"/><path fill="#a38c5b" d="M575.7 783.8L577.2 829.4L582.6 841.9L577.4 841.5L576.3 837L577.2 802L572.3 789.8Z"/><path fill="#876d4b" d="M313.3 786.3L293.4 796L315.4 789.2L314.8 791.9L322.3 792.9L319.4 795.6L259.5 812.2L249.2 819.6L249.5 824.2L253.2 824.2L245.1 824L242.9 816.9L251.1 816.3L248 813.7L250.8 811.3L272.3 805.6L277.3 800.2Z"/><path fill="#46331e" d="M288 795.5L257.6 807.5L236.2 811.5L225.3 824.7L222.8 820.4L227.9 819.2L236 804.1L233.2 795L226.9 794.7L218.6 801.5L216.4 808.6L225.5 797.8L212.2 815.2L217.2 800.1L225.3 793.3L237.2 796.9L236.5 810.7Z"/><path fill="#a38c5b" d="M222.8 820.4L216.1 819.8L216.9 815.3L211.5 816.3L217.2 812.4L225.9 818.3L229.1 800.5L226.2 799.8L227.6 795.3L224.1 795.5L232.7 794.6L236.1 801.5L234.6 810.6Z"/><path fill="#5e9194" d="M413.3 803.6L403 809.8L386.2 812.4L364 810L344.1 801.8L366.1 801L387.8 794.9L383.2 799.9L391.5 800.8L376.8 804.9L385.2 806.2L385.6 810.9L407.6 803.7L386.7 806.9L397.2 800.9L396.9 797.3Z"/><path fill="#dacdaa" d="M225.5 816.8L217.6 812.5L214.6 814.5L213.8 811.3L216 809.6L215.9 813.1L225.5 797.8L216.4 808.6L218.6 801.5L227.2 795Z"/><path fill="#5f4929" d="M330.8 797.8L335.1 802.4L222.3 834.9L192.4 903.8L184.2 902.1L194.2 898.7L214.1 842.6L189 895.8L202.7 864.6L185.1 898.9L179 901.7L176 909.1L167.5 903.5L162.5 904.5L161.2 895.6L205.8 836.3L203.9 827.6L211.5 816.3L213.9 817.2L205.1 830.2L212 836.3L220.2 821.2L229.8 823L230.3 828.3L242.1 823.2L239.7 815.7L232.9 821.9L230.3 820.2L240 811.9L249.2 826.4L284.2 817.2ZM192.5 858.9L166.7 895.8L175.6 904.5L185.1 895.2L214.7 840.1L206.4 837.4Z"/><path fill="#a38c5b" d="M572.9 814.9L572.1 836.7L574.3 833.2L576.1 843.6L581.6 844.8L562.1 847.4L565.1 831.7L567.7 843.8L568.9 806.8L572.3 807.6L569.8 799.6Z"/><path fill="#a38c5b" d="M277.3 800.2L272.3 805.6L250.8 811.3L248.1 814.4L251.5 815.7L247.5 817.8L241.1 812L234 814.2Z"/><path fill="#dacdaa" d="M316.9 802.5L305.1 808.8L249.2 823.7L249.5 819.2L259.5 812.2L299 802L294.9 807Z"/><path fill="#5f4929" d="M581.6 806.3L579.8 823.6L584.8 845.5L576.5 844.1L574.3 833.2L572.1 836.7L572.9 814.9L577.4 841.4L582.6 841.9L577.2 829.4L577.5 806.1L578.6 815.8Z"/><path fill="#c2b083" d="M234 814.2L230.4 820.4L232.9 821.9L238.9 815.6L242.9 821.6L230.3 828.3L228.6 822.4Z"/><path fill="#c2b083" d="M215.5 817.8L207.8 834.5L206.8 824.9Z"/><path fill="#dacdaa" d="M219.8 820L215.3 834.5L212.5 831.8L212.6 836.1L208.8 835.8L213.7 821Z"/><path fill="#dacdaa" d="M208 837.5L208.5 843.1L196.7 866.5L172.5 899.9L167.8 898.7L172.3 885.7L180.4 883L190.9 871.3L197.4 858.2L192.6 862.6L192.5 858.9Z"/><path fill="#dacdaa" d="M206.7 866L189.5 896.6L212.2 844.1Z"/><path fill="#876d4b" d="M209.5 846L202.6 861.4L180.6 890.9L176.9 903.7L170.5 901.4L167.8 898.7L172.5 899.9Z"/><path fill="#c2b083" d="M178.1 884.1L184.7 874L175.6 882.3L192.5 858.9L192.6 862.6L197.1 857.7L190.9 871.3Z"/><path fill="#c2b083" d="M202.6 861.4L185 895.3L176.1 902.4Z"/><path fill="#a38c5b" d="M206.7 866L194.1 899L181.2 902.3L178.7 908.8L183.6 902.9L180.8 913L184 919.7L192.8 911.8L195.8 922.1L192.5 922.6L193 919.1L186.7 927L179 911.9L174.7 913L177 919L171.3 917.5L172.6 914.8L164.1 919.5L160.6 915.2L161.3 906.2L162.7 916.6L166.5 910.3L172.3 907L176 909.1L179 901.7L189.9 897.7Z"/><path fill="#c2b083" d="M184.3 902.6L192.4 903.8L184.8 920L180.8 913Z"/><path fill="#dacdaa" d="M170.6 908L162.1 916.7L162.5 904.5L168.4 903.9Z"/><path fill="#46331e" d="M192.4 903.8L208 941.4L200.4 953.9L192 942.7L195.9 943.2L197.7 950.6L203.1 948.9L204.9 934.4L199.2 925.1L192.2 925.4L187.4 933.6L179.8 930.3L183.2 932.5L179 934L178.6 941.6L174.1 939.4L177 934.7L167.6 943.9L163.5 940.7L163.3 922.2L158.1 913.2L161.3 906.2L160.6 915.2L164.1 919.5L174.3 915.9L165.4 922.7L169.2 941L171.9 927.1L175.3 931.3L178.7 928.6L174.8 912.5L179 911.9L186.7 927L193 919.1L193.3 923.4L196.1 921.7L193.8 912.3L189.5 914.6Z"/><path fill="#dacdaa" d="M177 919L178.7 928.6L175.3 931.3L171.9 927.1L169.2 941L168.3 925.1L174.2 919.3L166.2 921.2L173.4 917Z"/><path fill="#c2b083" d="M195.9 943.2L198.4 936.9L193.8 937L193.4 931.4L197.7 924L204.9 934.4L205 941.9L202.1 940.2L203.7 947L200.5 950.9Z"/><path fill="#876d4b" d="M197.7 924L193.4 931.4L195.5 940L190.6 941.2L180 960.6L175.1 958.5L172.7 940.8L176 942L177.7 955.4L177 944.1L185.1 943.4L186.1 938.4L179.8 930.3L187.4 933.6L192.2 925.4Z"/><path fill="#c2b083" d="M181.4 933.2L184.5 934.1L185.3 942.8L177 944.1L177.2 955.6L176 942L172.6 940.7L177.5 934.8L174.1 939.4L178.6 941.6Z"/></g>
</svg>
