<svg xmlns="http://www.w3.org/2000/svg" viewBox="0 0 120 168">
  <defs>
    <linearGradient id="p" x1="0" y1="0" x2="0.2" y2="1">
      <stop offset="0" stop-color="#f7ecd4"/><stop offset="1" stop-color="#e2cba1"/>
    </linearGradient>
  </defs>
  <rect x="0.75" y="0.75" width="118.5" height="166.5" rx="9" fill="url(#p)" stroke="#7a5526" stroke-width="1.5"/>
  <rect x="4.6" y="4.6" width="110.8" height="158.8" rx="6" fill="none" stroke="#c98d49" stroke-width="1.6" opacity="0.85"/>
  <g transform="translate(25.00 10.60) scale(0.5733) translate(-60 -26)"><path d="M0 31.505V0h3.11v31.505H0zM12.328 0c-2.994 0-5.4 2.687-5.4 6.02v19.462c0 3.336 2.406 6.02 5.4 6.02h1.746c2.994 0 5.406-2.685 5.406-6.02V6.022C19.48 2.686 17.07 0 14.074 0h-1.746zm.904 2.978c1.768 0 3.19 1.337 3.19 3.002v19.723c0 1.664-1.424 3.006-3.19 3.006-1.77 0-3.19-1.35-3.19-3.01V5.98c-.003-1.665 1.42-3.002 3.19-3.002z" transform="matrix(2.1584 0 0 2.1584 38.977 26.000)" fill="#b3241b"/></g>
  <g transform="translate(25.00 70.72) scale(0.5603) translate(-60 -122.5)"><path d="M28.5 0l20.112 29L28.5 58 8.388 29z" transform="matrix(0.8966 0 0 0.8966 34.448 97.000)" fill="#b3241b"/></g>
  <g transform="translate(71.83 105.00) scale(0.09559) translate(-535.3 -621.6)"><path fill="#000000" d="M280.4 644L278 639.2L291 619.7L292.1 608.9L282.4 605L273.1 610.9L278 651.1L270.8 668.8L271.4 701.9L277 702.5L271 704.5L271.3 715.6L281 726.2L292.7 715.5L301.2 699.8L300.8 677.4L292.4 656.5L279.2 646.4L281.3 644L292.6 653L303.7 671.1L323.5 652.6L319.4 621.3L321.6 593.1L341.1 545.8L331.3 534L335.8 510L349.4 503.1L384.7 508.9L407.7 491.8L427.9 495.4L427.3 491.6L406.6 490.5L381.6 480.4L371.6 488.7L378.9 479.1L372 474L350.6 486.5L339.5 484L339.3 476.3L366.2 458.4L360.9 454.6L343.5 466L336.1 463.7L332.3 456.2L324.8 480.2L324.7 448.6L317.9 464.8L322.7 483.2L319.4 482.7L312 461.8L318.1 433.1L305.9 447.7L302.5 464.9L299.3 461.3L304.8 436.9L327.1 414.4L304.5 421L295.2 430.1L296.6 424.7L340.1 399.3L323.9 396.9L306.4 406L308.4 400.5L324.5 391.3L348.8 394.4L360.5 384.8L345 354.5L347 336.5L356.2 330.6L369.9 330.2L392.6 342L399.2 332.9L402.1 319.5L381.3 315.9L367.2 303.7L373.1 274.8L395.7 244.8L427.1 222.9L460.9 213L501 214L519.6 205L540 214.8L545.7 226.8L544.3 238L566.6 271.8L572.8 294.5L573 338.8L583.6 342.1L599.2 336.5L608.9 349.7L603.3 360.3L607.1 363.9L611.1 366.1L635.4 357.2L647.8 362.1L655.3 372L636.8 362.1L618.2 371.5L635.7 372.2L646.2 379.5L631.1 375.8L619.4 382.2L619.6 386.1L649.5 389.5L631.5 397.3L644.2 400.6L656.2 389.8L649.5 404.1L621 401.8L627.7 407.6L647.6 409.2L645.1 413.4L614.6 416.6L640.6 421.9L658.3 411.5L651.6 423.1L638.8 431.3L612.7 429.9L643.4 445.4L652.3 456.7L639.1 447.2L615.8 440L637.8 450.7L614.4 450.7L631.8 464.1L593.8 452.9L609.1 470.8L621.7 471L631.7 465.6L625.3 472.1L605 475.8L569.6 465.1L590.6 482L616.6 480.3L605.1 487.7L587.7 487.2L589.8 505.7L578.1 485.7L584.8 506.5L577.9 514.5L557.3 505.7L537.5 468L531.8 469L533.7 481L547 508.5L531.8 497.1L518.6 472.5L525.9 499.2L518.3 494.5L508.1 472.9L512 490.8L504.9 486.8L501.2 467.9L480.3 483.2L503.8 495.9L506.8 523.1L528.5 517L575.2 533.3L578.2 549.2L564.1 572.3L573.4 588.8L591.6 600.2L595.3 609.5L610.1 610.5L630.7 630.4L633.3 652L640 657.5L661.8 669.8L680.6 658.1L700.5 659.9L710.6 650.7L813.9 264.5L814.1 260.4L800.7 252.8L799 241L803 234.9L823.9 227.6L840.1 167.7L839.6 144.7L825.9 131.6L817.2 111.8L818.8 82.5L833.8 59.7L862 46.2L891.7 47.8L916.6 63.1L930.4 88.8L930.3 113.9L911.7 143.2L908.2 174.2L889.1 193.4L892.7 204.5L905.8 212.6L906.4 221L951.4 234.2L955.6 240L954.7 256.5L935.3 265.3L934.1 281.6L926.2 291.9L933.4 331.1L927.9 379.3L936.5 389.3L930.9 402.2L935.7 407.9L932.8 422.3L922.1 436.3L899.7 445.1L888 461.6L864.1 466L840.1 461L830.5 441.6L812.2 432.8L805 422.8L804.3 405L812.6 398.9L810.1 385.1L816.4 374.5L814.8 342L739.8 643L747.8 644.2L754.1 654.7L751.9 670.9L740.2 680.7L751.3 691.8L744.1 710.8L744.8 725.2L729.7 759.9L702.2 771.7L652.9 977.3L660 999.6L674.6 1011.4L682.8 1033.2L681.7 1041.5L716.6 1121.9L719.8 1144.1L713.2 1163.5L693.3 1171.8L667.6 1159.2L626.1 1081L606.8 1159.5L614 1176.5L608.8 1190.7L572.6 1196.9L502.8 1197L474 1194.2L457.5 1186.4L454.9 1174.1L467.2 1148.2L465.2 1134.5L470.7 1122.5L468.6 1101.9L481.8 1076.9L481.7 1061.8L472.1 1038.4L479.6 1025L494.9 1018.9L499.7 958L487.9 864.5L459.1 861.6L449.6 826.3L433.2 826.2L427.4 853.6L414 858.3L404.9 932.1L420.3 975.5L424.6 1012.4L441.6 1017.4L449.5 1026.3L439 1089.3L454.1 1119.2L447 1134.3L447.7 1161.5L423.3 1169.4L308.6 1177.8L258.9 1177.9L234.4 1170.7L232 1159.9L243.6 1144.9L295.3 1124.5L308.8 1107.3L331.7 1104L332.8 1089.1L340 1076.9L326 1065.8L326.6 1055.2L374 1026.3L366 1000L369 997.2L364.8 946.9L363.3 943.9L350.5 946.7L342.2 938.7L347.4 929.2L341.9 917.3L347.1 910.8L347.2 896.4L337 903.4L335.3 990.5L324 992.4L318.3 983.4L310.2 984.7L304.1 978.9L309.4 967.2L303.8 951.6L318.3 945.9L319.8 898.8L308.4 885.4L308.3 868.1L287.8 842.8L283.9 814.5L295.2 786.8L326.2 762.6L314.9 760.3L304.9 748.4L299.3 713.2L279.5 732.1L279.8 760.2L263.6 773.6L218.4 782.9L167 774.9L142.8 756.9L139.1 736L147.5 714.9L115 689.2L147.7 650.2L149.9 588.6L140.1 565.2L146 546.5L167.8 535.7L226.1 531L271.2 543.2L275.2 558.9L282.7 562.9L270.6 588.5L270.8 604.4L288.5 603.3L295.7 611.4ZM859.4 51.2L839.6 60L825.7 76.3L818.8 96.8L823.8 119.7L839.5 140.9L847.3 119.5L842.7 100.9L847.7 86.2L865.8 73.4L889.7 74.4L902.6 91.7L903.5 108.5L893 122.7L873 132.4L868.1 145.1L873 129.3L888.3 121.6L881.3 119.6L869.4 125.5L861.6 137.2L861.2 146.8L887.5 148.6L902.3 143.5L918.5 129.4L925.1 116.9L927.7 94.4L923.9 81.2L900.8 55.6L881.3 49.3ZM850.9 117L874.9 102.5L899 110L898.9 92.8L880.8 77.5L860 80L847.3 96.1ZM847.5 134.9L844 160.7L854.7 181.7L877.2 189.6L901.8 177.2L907.5 163.7L906.6 143.1L896.5 149.9L900.3 150.9L896.9 163.8L894.6 153.1L886.7 170.7L870.2 171.3L859.5 160.3L856.2 141.6L860 129.2L874.5 117.3L893.2 118.1L887.9 107.7L873.6 106.9L860.9 112.9ZM864.2 153.8L867.3 164.2L879 168.9L886 165.7L890.2 156.3L889 152ZM836 196.9L829 228.2L843 223.6L853.6 184.8L843.1 169.4ZM864.1 205.1L862.7 190.1L856.8 189.3L846.3 223.6L853.9 219.6L856.1 208.6ZM890.3 209.7L893.1 216.4L876.3 219.2L865.8 216.9L860.6 209.9L859.3 216.1L871.6 222.9L857.5 217L865.3 225.5L877.5 227.2L896.6 222.7L873.2 223.6L900.4 217.8L899.4 212.2L888.2 202.8L886.9 205.8L886.1 191.8L884.5 208.3L882.5 192.2L868 191.6L870 212.5L888.3 211.5L890 214.7ZM517.8 208.4L505.8 215.5L538.9 229.6L540.5 234.2L541.3 224.4L535.6 214.6ZM372.7 292.2L397.4 285.4L446.5 288.6L487.6 305.5L515.8 327.1L516.1 321.6L529.8 320.8L541.6 334.9L568.3 334.9L568.6 292.2L555 256.6L530.9 232.1L494.1 216.9L454.2 217.7L417.1 232.4L388.1 258.1ZM901.7 224.8L875.9 231.3L854.8 223.3L808.2 235.6L827.9 235.4L815.3 239L804 237.6L803 248.8L812.5 256.5L858.8 268.7L881.1 271.2L915.6 266.3L950.1 257.1L951.8 238.4L905.5 224.9L903.7 219.5L899 223.3ZM812.4 281.7L715.8 648.3L721.1 646.5L787.3 387.4L723.6 640.1L723.1 646.1L736.6 643.9L823.6 287.1L822.4 263.3L816.7 262.1ZM837.5 290.6L874 298.5L912.9 292.8L929.7 283.4L932.4 266.9L882.3 274.1L824.6 265L826.7 282.7ZM818.7 379.2L812.6 385.9L819.7 404.9L876.8 416.9L839.6 414.2L820 408.9L812.6 402.1L806.4 413.7L821.1 420.1L887.9 425.3L910.8 421.5L932 410.8L927 404.1L902.2 414.5L886.9 415.9L878.5 414.8L875.8 409.2L827.7 403.6L831 386.9L828.4 400.9L837.1 401.8L835.7 385.5L818.4 382.7L834.9 382L833.9 338.3L840.1 296.8L826.6 288.5L818.3 330.3ZM416.2 305.5L406.8 317.9L402 343.2L418.6 348.1L407.2 375.5L395.5 389.3L403.1 375.5L399.3 375L369.6 398.9L360.1 412.4L365 407.6L365.5 413.5L340.9 420.6L334.1 436.6L351.9 449.6L380.2 448.2L402.7 437.1L425.4 412.5L416 427.8L391.1 449.5L416 452.1L449.1 438.6L458.4 452.7L437.9 464.4L416.1 467.4L382.1 465.5L376.2 468.8L378.7 464.2L368.5 460.4L364.4 467.5L341.2 477.8L341.6 481.5L357.7 479.3L371.6 468.8L389.6 482.4L407.2 487.2L424.5 488.8L456 483.1L478.6 473.1L501.9 451.4L505.7 444.2L501.3 438.8L506.6 442.3L509.2 432.7L500.4 416.4L506.9 423.5L504.8 414.5L509.5 427.8L511.2 420.5L510.6 440.9L523.4 444L535.5 438.6L542.9 415.9L555.5 399.3L553.5 392.1L542.1 395.1L536.3 406.8L535.9 397.6L547.8 386.2L582.3 376.9L596.9 389.6L595.3 392.3L582.2 379.3L541.3 393.2L556.9 390.7L556.2 404.9L542.5 424.8L551.7 429.1L570.9 428.1L586.4 421.8L612.2 392.9L610.8 371.5L591.8 359.3L547.3 360.7L527 367.2L524.6 378.6L523.3 371.9L512.5 363.8L502.1 398.3L505.7 404.9L499.3 405.3L503.9 411.9L499.5 408.2L494.7 425.4L480.2 445.3L491.3 444.6L486.6 451.2L499.6 432L502.9 434.7L483.5 452.5L478.2 445.9L491.5 424.6L489.9 417.7L510.7 362.5L498.3 336.9L494.4 315.4L461.6 299L461.6 306.6L472 312.2L462.3 311.7L473.9 314.2L464.8 305.8L473.2 307.8L466.3 301.1L477.8 306.8L486.2 319.2L479.7 320.9L481.9 328L468 317.1L461.6 316.8L461.2 322.8L457 322.5L450.6 355.8L470.2 359.3L468.6 362.5L450.2 359L451.8 378.9L467 382L458.9 386.1L448.4 379.9L446.2 366.8L454.8 296.8L441.3 294.1L432.9 369L430 336.1L436.5 293.2L433.1 293.4L427.4 316.2L424.3 360.1L421.9 315L416.2 314.9L421.9 311.6L425.9 292.2L420.1 291.8ZM917.1 295.7L907.7 297.6L914 345.5L909.5 372.6L901.2 390.1L907.6 391.2L911.7 405.1L932.7 393.8L927.4 383L912.3 384.3L924.6 379.5L929.8 349.6L925.1 298.5L923 294.6ZM838.1 374.3L843.9 296.9L837 332.8ZM904 298.4L906.1 373.4L910.8 339ZM837.1 380L840.3 395.6L842.3 392.6L848.1 402.3L863 301.6L848.9 300.1L840.4 379.9L839.2 374.3ZM896.6 299.8L881.1 302.6L887.9 353.5L884.9 392L880.2 398.4L897.4 389.6L901.2 375.4L903.3 333.8ZM860.1 353L854.9 355.4L850 402.8L876 407.2L882.9 389L884.3 355.6L877.8 302.6L866.1 302.1L857.1 348.4ZM516.9 343.7L514.6 331.1L504.8 320.6L510.7 349.7L515.5 350.3ZM519.4 327.9L526.4 348.8L536.2 344.3L533.8 327L525.4 323.8ZM351.1 336L347.7 354.5L372.1 393.1L383.4 381.2L371 359.4L354.7 350.8L363 349.9L371.1 355.5L387.2 377.4L384.7 380.5L396.2 372.8L396.3 352.4L374.1 334.2ZM542.7 341.8L558.5 352.4L570 351.8L572.6 343.1L575.4 352.6L599.5 358.4L605.1 354L603.5 344.5L596.6 339L586.1 343.7L596.1 356.6L578.6 344.1L575.3 351.3L575.7 343.3L562.4 337.4L544.3 336.9ZM530.1 358.2L531.5 362L556.6 354.4L540.7 342.7L528.2 351.7ZM399.4 371.3L405.7 371.8L415.4 349.7L400.7 348.1ZM888.2 395L881.4 399.6L881 411.4L906.9 408.1L905.2 393.5ZM912.5 425.5L855.1 428.6L807.4 417.8L810.9 427L822 434.4L861.9 443.3L909.8 438.6L929.6 424.8L929.3 417.1ZM437.2 450.4L441.6 459.6L456.2 450.9L449.9 440.9ZM835.1 449.2L842.8 458.1L863 462.2L888.5 457.6L895.4 446.8L866.5 447.6L834.9 442ZM390.4 450.2L374.7 452.1L373.5 456.7L385.6 461ZM417.2 455.1L411.4 456L413.5 464.7L439.5 460L433.4 449.7ZM389.1 461.9L385.2 463.5L397.4 465.6L410.5 463.6L408.7 455.7L394 453.2ZM551 471.2L562.2 501.6L579.6 511.9L580.9 505.7L572.2 490.9ZM479.7 473.8L458 485.8L431.4 491.8L438.8 530.7L427.9 529.3L436.3 529.6L430.8 514.3L421 520.7L419.1 525.1L427.1 531.1L418.9 527.4L419.5 531.6L432.2 544.5L418 536.1L416.2 556.9L452.6 547.3L483.7 522.6L486.5 516.3L476.9 507L463 524L439.5 530.7L469.8 514.6ZM483.7 490L492.6 498.3L481.2 492.9L477.2 497.1L479.6 507.8L491.3 513.1L496.6 504.5L489.5 520.9L465.6 542.8L435.1 557.4L403.8 560.4L386.3 546.4L392.6 521.3L410.6 505.2L398.3 517.1L388.1 541.8L396.2 554L411.3 559.1L415.9 522.9L428.5 507.1L427 498.1L412.2 495.8L420.2 503.1L409.2 495.8L380.8 521.5L372.6 543.6L378.8 563.2L396.1 573.9L423.6 575.9L394.1 576.6L376.5 565.7L377.8 587.8L393.6 608.9L384.6 604.3L375.9 591L369.2 547.3L371.6 531.5L383.6 512.2L356.3 530.9L335.7 561.9L323.2 607L327.7 653.2L349.1 696.4L378.2 718.7L429.7 730.8L486.6 724.2L463.5 692.2L451.1 700.5L433.1 702.3L415.3 690.7L406.3 676.5L402.4 660.5L406.5 635.2L423.5 628.7L433.5 615.9L429.6 612.5L464.5 614.8L434.9 617L423.3 631.1L407.9 639.1L405.3 662.1L411.3 679L424.2 694.2L439.8 698.3L428.5 698.8L453.1 696.6L468.1 671.4L484.6 659.7L496.9 658L511.5 668.2L516.2 679.7L515.6 703.6L529 696L540.1 679.9L541.9 670L534.6 645.6L530.2 642.4L532.6 653.8L530.5 648.7L517.8 655.3L502.8 634.3L499.1 600.9L505.3 575.1L500.5 576.9L496 593.8L494 618.1L511.6 662.2L491.3 623.7L497 574.5L473.8 572L444.2 602L412.3 614.3L392.1 613.1L409.2 612.6L434 603.8L469.5 575.8L467.5 555.5L495.1 535.4L504.4 517.2L499.7 497.8L489.1 488.4L479.9 487L478.8 493.1ZM357.5 524.4L375.9 511.5L342.1 507.9L335.8 518.6L335.6 537.3L341.6 542.5ZM521.2 520.4L509.3 524.6L504.5 530.2L513.9 526.1L470.6 555.8L469.6 561.9L475.9 568.9L506.6 568.3L541 543.5L566 537.8L552.6 542.8L561.2 553L561.3 567.7L565.6 566.9L575.6 541.1L562.7 531L538.4 536.5L502.2 560.6L475.2 565.6L512.7 533.6L482.9 562L502 557.9L547.3 530.8L533.4 521.2ZM147.6 557.6L147.8 581L179.4 593.3L241.8 593L274.6 579.5L272.4 549.4L263.5 541.9L242.9 535.8L208.8 533L175.5 536.7L151.9 545.5ZM504.8 586.8L502 615L512.5 647.3L522.8 651.9L517.3 642.4L527.1 635.6L529.3 626.8L535.2 634.7L536.9 629L577.7 689.8L590.6 719.8L604.5 731.3L611.4 729.9L623.6 703.7L595.8 675.3L602.9 706.9L617.7 716.5L611.5 717.8L603.6 711L596.8 696.8L592.7 666L600.3 647.2L612.7 636.2L622.2 636L629.1 650.6L626.7 630L609.3 613.8L584.1 613.1L587.1 609L592.7 610.6L588.3 601L570.3 593.9L575.2 592L564.3 592.9L570.7 590.4L567 580.6L541.8 557.3L557.8 570.4L555 550.8L544.3 548.8L551.9 547L550 544.1L513.3 569.5ZM154.6 627.7L175.9 638.8L176.5 597.5L178.1 639.6L220.7 642.7L259.9 635.9L267 631.3L267 589.5L254.5 596.1L261.5 591.5L208.8 599L152.3 588.5ZM149.7 630.3L147.9 657.1L118 688.5L145.9 710.6L180.5 724.9L189.1 725.2L208.4 665.3L167.3 655.2L151.6 641.6L171.6 654.1L209.4 663.6L209.9 677.7L246.7 673.7L274 659.4L270.9 628.4L266.9 635L254.7 639.9L212.9 645L174.3 640.9ZM640.7 710.4L627.8 705L615.4 731.1L597.1 731.2L583.7 716.9L576.8 694.2L562.9 670.8L540.6 642.7L531.3 634.2L528.1 636.1L539.8 647.3L544.9 670.4L534.5 695.3L546.9 720.6L561.9 719.1L571.8 726.9L575.5 746.4L559 763.2L575.7 794.2L575.9 810.1L606 881L621 893.3L635.5 941.8L677 770.8L660.4 757.4L661.1 741.4L648.5 734ZM644 704.2L649.2 685L659.2 671.6L622.8 646.8L609.3 644.1L600.8 652.6L596 669.3L623.8 697.9L640.3 707.3ZM739 648L710.9 655.2L673.3 685.1L665.8 704.4L673.7 726.7L665.4 714.5L665.7 693L696 660.2L673.6 665.1L653.3 685.7L645.8 710.5L649.3 727.3L662.9 738.1L676.5 727L663.9 744.5L670.4 759.4L663.8 753.8L662.8 745.3L660.9 750.3L675.2 766.2L684.5 739L682.1 720.4L692.6 674.9L700.9 665.6L695.5 673.3L699.2 680.3L746.5 673.6L750.1 652.7L746.4 647.7ZM475.7 702.6L479.8 705L485.9 702.7L480.7 700.2L489.7 700.9L510.1 690.3L512.4 678.3L504.3 664.6L485.8 662L469.9 673L466.7 688.5ZM312.2 671.7L327.6 680L329.2 707.6L314.7 732.4L325.3 709.3L302.2 712.1L307.7 747.8L320.7 759L334 758.4L331.5 747.6L335.6 734.2L356.7 709.7L355.5 719L337.9 736.9L336.8 750.4L347 767.8L375.7 789.4L403.5 765.8L397.3 761L375.8 778.8L399.4 758.7L415.5 773.3L429.3 795.6L467.7 793L463.5 768.8L495 746.7L492.8 742.9L462.3 751.6L428 751.9L435.1 760.1L388.5 753.6L369.2 740.9L357.9 726.6L359.1 714.4L360.5 729L376.3 743L371.7 738L375.7 738L380.2 722.9L349.2 701L325.9 664.1L313.8 667.2ZM194.7 718.2L189.4 728.6L149.3 717L146.5 725.9L155.8 737.4L146.5 729.6L143.8 732.7L146.8 757.8L158.9 767.4L190.8 777.2L223.5 778.2L260.6 770.8L276.1 760.8L273.6 726.7L252.1 737.5L217.1 742L182.6 738.3L151 727L150.6 718.6L155.6 726.1L173.5 734L212.2 739.6L261 731.9L267.9 726.5L267.2 669.7L243.7 678L207.3 681.6ZM304.4 704L307 709.4L326.5 705.9L326.4 686.2L318.5 675.5L304.1 675.6ZM696.2 685.5L694.5 699L701.8 703.7L738.4 708.4L746.9 697.6L744.4 685.5L711.8 684L734.9 679.2ZM494.1 702.8L483.3 707.8L498 746.2L508.1 747.6L521.5 742L525.9 734.4L506.4 696.7ZM519.1 716.3L526.8 729.7L543.4 721.3L532.6 698.1L513.9 706.9ZM694.2 720L715.6 730L736.1 731.7L741.3 712.6L714.6 709.6L693 701.4L690 716.6ZM687.4 727.4L688.6 736.7L705.4 747.2L703.3 767.7L728.8 757.2L736.3 734.4L729.4 735.3L726.6 752.3L706.5 756L724.4 751.2L728.4 737.6L704.4 731.6L712.6 731.6L690.8 720ZM527.5 734.6L523.7 744.8L509.2 750L496.4 748.9L468.8 767.1L465.1 773.6L472.4 793.6L492.5 791.2L533.3 773.7L570.2 747.8L572.8 739.3L563.5 723L547.5 724.9ZM378.8 733.9L378.6 743.2L385.5 749.7L425.3 756.4L423.3 732L413.6 732.3L412.1 745L416.4 749L386.5 739L384.2 731.5L388.3 725.6L381.2 725.7ZM392.5 727.3L391.4 739.4L409.9 744.9L410.4 731.7ZM480.2 728.3L425.9 732.9L425.7 746.5L457.4 749.3L492.1 740.2L487.6 726.9ZM691.9 746.1L642.1 954.2L650 973.6L702.8 750.3L687.4 743L639.2 940.7L642 951.1ZM337.3 767.1L319.1 812L321.5 822.2L343 836.8L380.3 849.9L416.6 854.2L424.2 850.7L427.2 825.3L411.2 816.2L473.4 823.3L452.3 826.2L462.2 859.6L478 862.2L530.6 852.5L525.1 832.3L532.1 833.3L528.4 831.8L558.8 913.7L582.2 915.4L608 899.8L572.1 810.1L526.7 829.9L513.1 826L537.5 823.2L570 805.3L573.7 798.7L567.6 785.5L514.3 807.6L502.9 806.6L494.5 795.3L510.5 804.7L542.3 795.4L562.5 781.6L557.3 764.2L489.4 795.2L439.4 799.3L425.3 797.4L406.4 768.1L378 793.1L359.8 783.1L337.2 760.1ZM309.4 777L290.1 801.6L287 819L292.7 845.6L310.2 863.7L311.8 860L299.9 847.7L292.1 830.6L293.2 808.9L296.7 838.4L314.4 857.2L300.2 836.6L298.9 811.4L306.2 793.5L329.3 776.7L336.3 763.4ZM326.7 780.5L303.9 804L302.9 831.2L318.5 853L329.8 849.2L350 853.6L362.1 847.5L326.7 831L316 816.3ZM376.1 902.4L362.5 918.9L359 932.2L367.1 941.5L372.1 1002.5L382.4 1056.6L417.5 1041.8L423.3 1032.7L417.1 976.5L402.1 930L411 857.4L373.5 851.4ZM312.7 868.6L315.2 887.2L332.3 898.6L337 897.1L320.3 884.6L338.4 895.3L337.8 884.7L327.8 883.2L324.4 876L333.1 865.8L336.2 865L336.6 871.1L337.1 864.5L332.4 862.9L345.1 857.9L339.5 875.9L347.4 888.1L361.6 887.1L364.1 879.1L354.7 879.1L352.2 871.2L353.9 881.6L348.9 879.9L351.2 866.6L363.7 869.2L356 874.4L358.2 877.3L372 871.4L366.7 852.9L348.8 857.4L327.4 852.6L316.6 859.1ZM537.7 938.1L539.8 966.4L544.4 972.4L541 972.7L542.2 984.5L548.8 989.4L544.6 986.6L543.1 989.8L547.8 996.6L544 996.6L548 1015.8L551 1014.5L549.8 1027.2L572.7 1037.6L581.8 1051.7L580.4 1067.7L569.8 1080L581.8 1105.5L579.3 1118.9L587.4 1132.9L606.4 1050.2L600.5 1030.9L603.1 1022.9L573.7 955.4L563.9 947.8L554.1 926.1L554 910.5L532 854.5L525 859.3ZM498.8 913.2L504.1 951.7L510.9 957.1L527.9 949.4L518.3 957.9L500.9 950.6L497.6 1039.3L519.7 1054.4L551.6 1061L523.3 860.5L491 864.6ZM365.4 911.7L372.3 905.3L372.3 876.9L366.6 880.1ZM613.9 890.1L610.7 902.2L589.5 916.1L566.2 921.2L554.9 915L568.2 947.9L575 950.1L568.4 937.8L579.4 950.1L587.3 948.4L586.5 943.5L590.7 948.2L610.1 939L625.6 924.7L616.2 891L607.7 886.9L608.8 897.3ZM348.4 932.2L344.2 935L346.9 940.1L359.9 943.5L355.3 930.8L362.1 909.5L361.8 887.8L352.3 892.6L350.2 911.1L344.8 916.5L351.5 924.4L352.2 931.7ZM321.8 967.8L323.3 989.2L331.9 989.6L333.5 982.5L333.5 904.1L322.9 900.9ZM621.8 935.2L582.4 954.4L611.4 1023.9L581.2 955.2L576.9 954.6L606.7 1023.7L615.2 1028L623.8 1026.8L620.7 1015.5L626.5 1025.7L659.8 1008.2L626.6 930ZM309.2 963.3L319.1 963.1L318.6 951.6L307 952.4ZM664.8 1009.9L626.1 1030.7L604.4 1026.9L616.3 1057L625.7 1061.3L642.6 1059.5L677.1 1040.1L670.5 1010.8L665.9 1006.4ZM426.2 1023.3L429.2 1031.1L433.7 1027.4L427.5 1038.6L387.1 1058.9L359.9 1064.5L348.5 1062.1L378.3 1057.2L374.5 1032.2L332.9 1053.4L329.3 1063.9L344.8 1074.4L358.8 1078.9L399.1 1077.9L365.6 1080.3L384.6 1086.6L344.5 1078.7L334.4 1100.7L362.1 1094.7L378.6 1098.3L428.9 1130.1L445.3 1131.7L449.9 1114.6L437.7 1092.4L423.9 1099.8L408.1 1095.2L425.3 1096.9L436.6 1088.7L437.9 1063.3L436.5 1077.7L434.4 1069.7L446.3 1029.9L443.7 1022.2L432.5 1016.6L425.5 1016.1ZM476.2 1044.9L487.9 1062.5L521.8 1081.9L560.3 1080.6L573.5 1072.9L579.1 1058.5L572.1 1041.6L551.1 1032.3L563.5 1046.2L552.2 1040.3L555.3 1060.9L568.5 1056.3L566.4 1061.2L549.5 1064.4L518.2 1057.2L489.8 1040.1L486.9 1036.1L492.3 1037.2L491.7 1023.1L477.3 1032.5ZM674.4 1047.2L644.5 1063.3L624.2 1065.5L638.3 1098.3L664.3 1096.2L693.2 1079L679.3 1043.4ZM603.2 1080.8L590.4 1136.2L603.4 1158.2L622.5 1075L620.9 1065.5L608.8 1055.1ZM476.3 1116.1L513 1102.7L550.9 1103.7L575.8 1115.6L579.9 1109.8L567 1082.8L569.1 1078.6L556.1 1084.8L521 1084.8L493.2 1073.3L503.2 1076.3L483.7 1062.4L483.6 1081.7L471.4 1104.3L471.4 1114.8ZM688.2 1087.5L659.1 1102L639.9 1103.2L669.9 1156.8L687 1168.1L700.3 1168L714.2 1153.9L715.7 1134L697.2 1084.5ZM364.9 1114.8L346.6 1103.1L333.1 1108.3L358.8 1129.7L367.1 1143.8L361.1 1136.8L367.7 1155.4L356.9 1130.7L339.1 1114.6L315.3 1109L303.4 1117.5L318.3 1115.4L331.9 1120.5L347.5 1134.6L355.6 1155.3L367.7 1156.6L398.3 1153.3L405.6 1142.3L402.4 1124L388.9 1106L369.2 1099L345.5 1099.6ZM523.8 1106.9L503.9 1107.7L481.9 1115.8L473.3 1124.2L468.6 1144.9L509.1 1131.4L539.9 1131.5L571.5 1137.3L598.5 1153.1L585.5 1138L562.6 1127.7L584.2 1133.7L569.3 1123.7L533.6 1119.2L496.5 1124.4L505.7 1119.4L541.2 1116.5L569.2 1120.1L582.1 1127.1L557.6 1108.7ZM423 1139.1L440.2 1137.5L431.7 1135.8L439.2 1134.1L421.5 1132.3L404 1116.5L409.8 1138.7ZM304.7 1122.9L281 1132.4L301.7 1146.9L291.7 1147.9L273.3 1138.1L286 1147L272.2 1141L258.7 1144.8L265.5 1165.3L298.1 1168.6L351.4 1154.6L336.2 1126L319.9 1119ZM491.9 1139.2L470.5 1150.2L465.1 1159.8L488.1 1148.8L509.6 1160.4L520 1153L529.1 1154L511.4 1164.9L522.5 1158.4L539.5 1160L533.1 1149.8L515.3 1150.8L525 1147.1L541.7 1155.9L558.2 1150.9L568.5 1158.9L581.6 1155.9L600.1 1159.5L580.4 1145.3L557 1137.3L514.6 1134.7ZM407.5 1151.6L443.8 1146.8L446.1 1137.3L410.2 1142L410.2 1148.2L428.1 1149.1ZM445.4 1149.3L384.8 1159.5L353.5 1159L295.2 1171.1L247.1 1168.3L237.4 1160L234.1 1163.4L246.1 1172.8L313.4 1174.3L429.6 1164.8L444 1160.5ZM240.1 1155.6L242.1 1162.7L250.7 1166.5L258.5 1165.6L261.5 1159.1L257 1149.5ZM506.6 1160.5L490.3 1151L468.1 1158.6L485.8 1156.2ZM561.1 1161.8L549.3 1160.6L543.6 1165.7L564.9 1163.4L563.1 1156.8L553.3 1152.6L542.2 1161.5L553.4 1158ZM504.5 1177.2L502.8 1162.2L506.6 1163.4L494.3 1159.2L473.2 1160L459.2 1172.2L460.9 1176.9L479.7 1181.2ZM512.5 1167.2L510.4 1179.8L541.8 1180.2L539.2 1162.5L524.3 1160.5ZM605.4 1177.6L609.8 1173.8L605.9 1165.4L589.2 1162.1L593.8 1176.9ZM568.2 1168.8L569.3 1177.8L591.1 1177.2L584.1 1163L574.6 1163.1ZM543.7 1170.5L545.7 1180.3L564.6 1179.4L562.6 1165.2L549.8 1164.6ZM544.9 1184.3L481.5 1185.1L458 1178.6L465.2 1187.7L485.6 1192.2L589.1 1191.8L607.4 1187.2L610.8 1177.4Z"/><path fill="#bfa47b" fill-opacity="0.996" d="M900.8 55.6L922 80.2L926.7 109.8L914.7 133.5L887.5 148.6L905.5 140.9L919.1 127L925.5 109.7L924.6 93.6L905.4 62.7L894.1 55.2L878.4 50.5L856.3 52.6L878.6 49.1Z"/><path fill="#ad7d5c" d="M904.1 61.8L897.8 66.7L886.8 56.6L851.6 55.3L833.9 65.9L823.4 81.3L837.5 61.6L859.4 51.2L884.1 51.4Z"/><path fill="#6f4b3c" d="M891.4 58.2L872.6 55.8L836 64.3L854.9 54.6Z"/><path fill="#50322e" d="M891.4 58.2L890.5 63.1L905.3 65.5L900.2 79.4L912 98.5L915.5 120.4L888 144.3L900.5 142.8L887.5 148.6L869.8 148.9L871.9 133.7L893 122.7L903.5 108.5L902.6 91.7L888.5 76.5L896 78L874.9 72.7L853.9 78.4L843.4 95.7L846.3 119.1L840.2 120.6L831.9 117.1L827.3 108.7L827.8 78.8L836 64.3L872.6 55.8Z"/><path fill="#8d624c" d="M923.7 91.5L921.6 115.7L926 105.9L921.7 122.1L900.5 142.8L916.1 117.9L912 98.5L900.2 79.4L905.3 67.1L902 64L905.4 62.7Z"/><path fill="#3a2225" d="M845.5 115.3L839.5 140.9L821.4 113.3L819.6 91.4L830.2 70.1L828.1 111.1L837.7 120.4L845.8 119.6Z"/><path fill="#ad7d5c" d="M887.9 107.7L861 113.9L847.6 135.3L851.7 122.4L860.9 112.9L873.6 106.9Z"/><path fill="#6f4b3c" d="M887.9 107.7L890.4 113L870.7 115.4L856.5 138.7L859.5 160.3L866.3 170.2L878.8 173.9L898.1 168.1L897.2 172.2L902 167.8L891.7 178.9L893 183.5L877.6 186.9L888 179.6L879 183.2L861.1 177.3L867.9 176.7L853.4 163.5L846.9 137L861 113.9Z"/><path fill="#3a2225" d="M893 111.8L892.5 118.6L871.6 118.6L861.1 131.8L872.6 113.8Z"/><path fill="#3a2225" d="M869 144.4L869.8 148.9L861.2 146.8L865.7 129.4L876.1 121.1L888.3 121.1L873 129.3Z"/><path fill="#3a2225" d="M846.9 137L853.4 163.5L867.9 176.7L861.1 177.3L879.7 181.2L872.5 184.5L877.6 186.9L889.7 184.9L870.4 188.8L854.3 180L844 160.7Z"/><path fill="#8d624c" d="M908.1 158.2L893 183.5L891.7 178.9L903.3 165.1L906.2 143.3Z"/><path fill="#50322e" d="M906.2 144.2L902 167.8L897.2 172.2L898.1 168.1L887.3 170.3L894.6 153.1L896.9 163.8L900.3 150.9L896.5 149.9Z"/><path fill="#3a2225" d="M827.9 226.3L843.4 169.2L853.5 185.3L843 223.6Z"/><path fill="#3a2225" d="M885.7 206.3L893.6 208.7L890 214.7L888.3 211.5L870 212.5L867.1 191.8L882.5 192.2Z"/><path fill="#dc901d" d="M517.8 208.4L520.3 221.7L505.8 215.5Z"/><path fill="#fbb21c" d="M523.9 208.5L532.9 214.9L524.8 214.2L525.9 224.1L520.3 221.7Z"/><path fill="#8d624c" d="M884.4 218.3L894.7 213.2L895 217.6L898.8 216.4L896 221.1L878.8 223.4L864.3 219.3L858.6 212L862.1 209.1L865.8 216.9Z"/><path fill="#ffee49" fill-opacity="0.996" d="M536.6 231.2L530 210.4L541.3 224.4L540.8 233.9Z"/><path fill="#ca8116" d="M530.6 216.2L535.2 226.6L537.3 224.4L536.6 231.2L525.9 224.1L524.8 214.2Z"/><path fill="#fbb21c" d="M528 230.3L544.1 244.5L561.8 272.8L569.8 300.7L568.1 335.3L558.8 333.4L567.2 332L565.7 300.3L547.8 257.5L524.9 230.2L491.8 217.8L450.6 219.8L407.2 240.4L384.9 264.4L369.1 301.4L375.5 278.8L389.8 255.8L429.7 225.7L456.9 217.2L485.5 215.9Z"/><path fill="#ca8116" d="M559.2 332.2L559.3 299.2L555.3 293.8L555.7 305.8L551.7 292.4L543.2 283.4L540.7 251.7L539.4 259.6L525.4 269.5L522.2 291.7L518.1 293L514.2 282.6L504.3 296.2L502.7 282L492.7 290.1L484.5 274.3L473.2 275.3L463.5 290.3L459.8 282.1L456.1 287.1L408.6 281.1L407.4 275.9L425.8 256.2L439.5 252.8L434 247.7L435.2 242.3L454.7 244L449.2 239.4L454.5 227.9L476.9 219.5L445.9 221.1L486.2 217.2L508.6 222.4L526.9 231.9L550.6 262.4L565.7 300.3L567.2 332Z"/><path fill="#96550a" d="M431.9 253.6L418 262.7L413.4 260.2L425.5 248.1L415.2 252.6L431.9 240.6L421.7 245.1L430.6 237.8L423.1 236.7L430.7 229.7L476.9 219.3L454.5 227.9L449.2 239.4L454.7 244L435.2 242.3L434 247.7L440 251.9Z"/><path fill="#bfa47b" fill-opacity="0.996" d="M905.5 224.9L952.2 240.2L950.8 256.3L937.4 260L948.8 256.9L950.3 241.6L906.1 231.2L899 223.3L903.7 219.5Z"/><path fill="#dc901d" d="M445.9 221.1L400.4 250.2L375.7 287L422.7 285.2L388.6 286.2L372.7 292.2L381.2 270.7L395.9 250.5L421.6 231.4Z"/><path fill="#50322e" d="M886.9 230.9L885.9 249.9L857.8 249.3L813.3 239.5L854.8 223.3L867.1 230.4Z"/><path fill="#8d624c" d="M901.7 224.8L906.1 231.2L917.5 233.4L904.6 239.4L910.6 241.6L896.4 247L942.4 240L950.3 241.6L948.8 256.9L933 261.1L941.5 255.3L940.3 246.4L898 255.9L857.8 252.4L903.4 251.9L947.7 243.1L886.8 251.2L886.9 230.9Z"/><path fill="#ffd29a" d="M905.5 224.9L949.9 236L952.2 240.2Z"/><path fill="#83470e" d="M421.7 245.1L415.5 253.2L425.5 248.1L414.4 262L432.6 252.3L406.1 273.5L409.1 283.9L376 288.2L400.4 250.2L430.7 229.7L423.1 236.7L430.6 237.8Z"/><path fill="#ad7d5c" d="M950.3 241.6L896.4 247L910.6 241.6L904.6 239.4L917.5 233.4Z"/><path fill="#6f4b3c" d="M813.3 239.5L857.8 249.3L886.8 248.2L886.8 251.2L860.2 250.3L808.1 240.2L877.4 255.6L880.7 268.7L933.3 261.4L878.2 271.3L877.8 257L808.8 243L805.3 237.5Z"/><path fill="#000000" d="M886.8 251.2L947.8 242.3L911.4 250.9L875 253.1L839.6 249.6L808.1 240.2Z"/><path fill="#3a2225" d="M878.2 271.3L810 255.4L805.7 240.2L877.8 257Z"/><path fill="#50322e" d="M932.9 260.7L892.5 269L880.2 268.5L879.3 262.4L879.8 257.2L940.3 246.4L941.5 255.3Z"/><path fill="#96550a" d="M557 305.7L558.8 333.4L541.6 334.9L531.2 321.2L518.8 324.1L491.2 302.5L467.8 293.2L468.6 280.4L484.1 275.4L493.4 290.1L502.7 282L504.3 296.2L514.6 282.5L519.9 293.4L529.1 264.4L537.4 261.9L540.7 251.7L543.2 283.4Z"/><path fill="#3a2225" d="M816 320.4L804.8 358.9L788.9 392.5L816.7 262.1L823 263.8L823.8 284.6Z"/><path fill="#3a2225" d="M928.3 267.3L927.2 274L906.2 279L859.4 280.6L843.5 276.2L853.7 289.6L833 285.7L825.8 265.2L882.3 274.1Z"/><path fill="#8d624c" d="M927.8 285.7L896.9 295.7L898.5 289.4L894.9 290.4L895.9 285.3L917.6 280.3L896.5 280.2L922.3 276.3L931.6 266.2Z"/><path fill="#fbb21c" d="M409.8 271.7L408 280.9L456.1 287.1L459 282.8L467.8 293.2L440.9 284.3L409.4 282.7L405.7 278.9Z"/><path fill="#50322e" d="M898.7 279.7L896.9 295.7L891.7 296.8L869.4 298.2L837.5 290.6L861.5 290.6L853.7 289.6L843.5 276.2L856.5 280.4Z"/><path fill="#000000" d="M467.2 293.2L408.7 283.4L440.9 284.3Z"/><path fill="#96550a" d="M466.6 294L502.2 312.8L517.4 326.2L461.6 293.5L422.7 285.2Z"/><path fill="#3a2225" d="M836.3 295.1L839.2 297.1L832.3 311.8L829.8 334.2L831.1 382.2L818.4 382.7L831 386.9L827.3 403.2L837 406.1L829.5 407.9L817.6 402.7L812.6 385.9L819.7 380.6L819.6 331L826.1 293.9L827.5 289.5Z"/><path fill="#feba77" d="M416.3 314.4L422.3 309.8L418.7 308.9L408 318.5L403.6 341.7L408.9 343.8L402.4 343.9L406.8 317.9L417.4 304.8L421.4 306L422.9 292.1L415.1 305.2L420.7 291.3L425.9 292.2L421.9 311.6Z"/><path fill="#ffd29a" d="M436.6 294L430 313.4L430.5 328.3L428 321L432 369L439.5 332.9L443.6 341.4L448.8 338.2L446.8 380L455.6 387.1L466.2 385.3L477.3 346.9L471.9 335L481.7 345L486.5 333.8L470.6 319.4L462 318.2L461.6 323.8L461.6 316.8L470.4 317.9L498.4 342.3L506.2 365L500.9 393.9L489.9 417.7L487.6 414.8L478.8 420.7L468.6 432.8L458 434.1L441.2 424.3L428.2 433.9L418.5 426.9L392.3 448.5L425.8 413.6L415.3 425.3L417.7 419.2L408.5 375.4L423.6 355.4L424.4 360L427.4 316.2L433.1 293.4ZM467.4 393.2L461 400.7L465 409.6L453.5 421.5L457.1 432.6L469.1 430.6L476.7 421.2L467.3 429.3L478.2 398.9L466.3 397.3L468.5 393.7L478.1 396.4Z"/><path fill="#3e240c" d="M467.8 293.2L489.9 303L515.8 323.3Z"/><path fill="#6f4b3c" d="M921.5 294.1L927.9 322L927.4 360.3L922.4 381.6L926.5 338.9L921 297.5L917.1 295.7Z"/><path fill="#feba77" d="M441.3 295.1L445.4 298.4L441.2 305.1L450.8 305.5L444.3 306.9L452.7 309.1L453.8 314.3L448.8 338.2L444 341.5L439.6 332.9L436.9 336.4Z"/><path fill="#8d624c" d="M836.3 295.1L840.1 296.8L835.7 318.8L831.2 317.2L839.2 297.1Z"/><path fill="#ad7d5c" d="M454.3 298.1L452.7 309.1L441.2 305.1L445.4 298.4L442.5 295.6Z"/><path fill="#3a2225" d="M917.1 295.7L921 297.5L926.4 344.5L921.5 383.6L912.3 384.3L917.8 385.6L919.4 399.8L921 386L926.1 384.1L927.9 393.4L924.6 401.4L911.7 405.1L907.6 391.2L901.8 389L909.5 372.6L914 345.5L907.7 297.6Z"/><path fill="#3a2225" d="M861 309.3L854.9 320.3L852.5 375.6L850.8 364.8L849.9 394.2L845.3 400.7L836.7 383L838.4 374.5L840.7 377.8L844.5 323.6L849.4 299.4L863.3 301.8Z"/><path fill="#feba77" d="M897.4 389.6L902 347.3L897.6 299.5L903.6 344.4Z"/><path fill="#3a2225" d="M895.5 300L897.4 389.6L886.4 392.8L887.5 343.4L881.1 302.6Z"/><path fill="#50322e" d="M807.2 306.8L788.6 392.1L807.3 351.1L735.9 642.4L723.1 646.1Z"/><path fill="#cd7e4f" d="M417.6 309.8L422.3 309.8L414 314.5L420.5 316.7L418.6 348.1L403.6 341.7L408.1 318.2Z"/><path fill="#bfa47b" fill-opacity="0.996" d="M496 334.3L487.9 332.5L480.3 323.6L487.2 318.5L484 309.7L493.5 315.6Z"/><path fill="#feba77" d="M423.6 355.4L413.1 366.6L420.5 340.8L420.5 316.7L416 316.9L421.3 314.5Z"/><path fill="#ad7d5c" d="M834.5 316.8L831.1 382.2L830 331.3L831.2 317.2Z"/><path fill="#feba77" d="M835.7 318.8L833.9 382.6L831.9 343.6Z"/><path fill="#feba77" d="M482.6 344.1L482.1 334.4L462.2 325.2L462 318.2L472.8 320.6L486.4 333.5Z"/><path fill="#8d624c" d="M816 320.4L736.6 643.9L728.7 645.2L735.9 642.4Z"/><path fill="#ffa668" d="M461.2 322.8L478.3 336.8L481.7 334L482.8 341.6L481.7 345L474.8 335.1L459.6 326.9L477.6 342L468.7 379.6L459.5 383.1L450.4 374L449.7 364.1L450.5 358.6L470.1 359.8L468.2 334.9L454.9 336L457 322.5Z"/><path fill="#ad7d5c" d="M514.6 331.1L516.9 343.7L512.8 349.5L506.8 324.1Z"/><path fill="#feba77" d="M534.5 345.7L524.7 347.1L519.4 327.9L532 327.3L536.4 335.8Z"/><path fill="#feba77" d="M392.1 375.8L392.6 348.2L371.4 335.3L351.1 336L371.2 333.4L390.3 344.2L396.4 352.8L396.2 372.8Z"/><path fill="#ffd29a" d="M468.7 358.9L450.2 354.5L454.9 336L463 332.5L468.2 334.9Z"/><path fill="#fbb21c" d="M873 336.7L875.9 355.9L861.9 355.3L879 357.5L880.7 392.6L877 406.3L850.9 403.8L855 355.2L863.9 352.6L868.6 336.7ZM860.6 371.6L863.9 390L871.1 384.1L875.4 368.5L871.3 367.5L872.4 359.9L867 360.4L863.6 376.1Z"/><path fill="#ffa668" d="M392.1 375.8L389.2 365L371.1 349.6L361.9 347.5L378.1 361.2L385 375.7L369.2 353.8L355.1 350.2L366.8 355.4L377.8 368.9L365 356.4L372.3 390.8L382.3 383.8L368.8 393.1L347.7 354.5L351.1 336L371.4 335.3L392.6 348.2Z"/><path fill="#ffa668" d="M498.3 336.9L510.7 362.5L504.3 378.3L506 362.8Z"/><path fill="#96550a" d="M554.9 338.6L564.5 343L567.1 349.6L545.8 345.6L542.7 341.8Z"/><path fill="#ffee49" fill-opacity="0.996" d="M600.4 356.8L601.8 344.8L589.5 339.8L596.6 339L603.5 344.5L605.1 354Z"/><path fill="#dc901d" d="M572.5 343.6L568.1 352.5L562.3 351.1L566.9 346.6L558.9 339.2Z"/><path fill="#ffa668" d="M600.4 356.8L595.5 344.7L588.5 345.8L587.3 341.5L601.8 344.8Z"/><path fill="#fbb21c" d="M553 354.8L531 362L544.7 356.8L530.7 352.4L530.1 358.2L528.2 352.1L540.7 342.7Z"/><path fill="#dc901d" d="M600.2 357L595.1 357L588.5 345.8L595.5 344.7Z"/><path fill="#cd7e4f" d="M390.7 376.6L384.7 380.5L387.4 377.8L379.6 363.3L362.3 347L389.2 365Z"/><path fill="#cd7e4f" d="M412.4 357.6L405.7 371.8L399.4 371.3L402.3 349.1L415.7 350Z"/><path fill="#cd7e4f" d="M377.8 368.9L383.5 381.5L372.6 391.1L365 356.4Z"/><path fill="#ffa668" d="M580.3 357.7L551.7 364.7L593.5 362.4L605.4 367.5L612.6 386.5L601.6 406.7L575.1 425.5L543.4 427.7L544 417.5L556.2 404.9L557.3 392.8L576.5 385.1L561.7 384.4L584.5 379.4L595.3 392.3L596.9 389.6L582.3 376.9L553.3 383.8L575.3 375.6L591.6 377.9L582.3 374L560.3 375.1L537 391.3L549.6 385.2L535.9 397.6L536.6 406.9L536.3 400.4L542.1 395.1L553.5 392.1L556 396.9L541.8 418.3L540.9 430.9L522.8 440.8L512.3 439L521.6 443.8L510.6 440.9L514.4 424L528 432.3L519.2 424L516.2 408.8L525.2 391.6L522.2 372L524.6 378.6L527.5 367L556.7 358.1Z"/><path fill="#fdecbe" d="M609 369.5L593.5 362.4L551.7 364.6L583.3 357.8Z"/><path fill="#ffee49" fill-opacity="0.996" d="M871.2 362.2L862.3 382.2L860.6 371.6L863.6 376.1L866.4 361Z"/><path fill="#3a2225" d="M787.7 389L781.1 406.7L781.7 399.4L793.5 361Z"/><path fill="#353028" d="M523.3 371.9L514.2 367.5L520.9 384L514.4 376.2L516.3 389.7L509.7 385L516.4 399.4L513.4 398.6L515 408.5L510 405.2L509.8 427.6L504.8 414.5L506.9 423.5L500.4 416.4L506.1 424.7L504.9 432.7L499.6 432L492.6 444.9L482.2 443.7L494.7 425.4L499.5 408.2L503.9 411.9L499.3 405.3L505.7 404.9L502.1 398.3L512.2 364.1Z"/><path fill="#000000" d="M522.3 372.6L523.7 390.9L516.2 408.8L513.4 398.6L517.2 400.9L511.4 391.7L516.9 394.8L510.9 384.3L519.7 399.2L520.6 388.1L513.3 377.5L520.8 381.1L514 367.8Z"/><path fill="#ffd29a" d="M554 429.3L575.1 425.5L597.9 411L612.1 389.1L609 369.5L613.7 388L599.8 410.6L578.4 425.7Z"/><path fill="#cd7e4f" d="M553.3 383.8L537 391.1L562.9 374.2L591.6 377.9L575.3 375.6Z"/><path fill="#ffd29a" d="M394.9 388.7L371.5 399.4L360.1 412.7L368.2 400.2L399.3 375L403.1 375.5Z"/><path fill="#feba77" d="M407.2 375.5L411.3 397.8L397.5 395L396.8 390.5L387.7 393.3Z"/><path fill="#cd7e4f" d="M557.3 392.8L541.3 393.7L547.8 389.2L576.3 384.4Z"/><path fill="#ffa668" d="M397.5 395L413.2 399.8L417.8 419.2L400.3 438.8L362.2 441.5L345 437.9L334.4 429.8L344 419.6L365.5 413.5L369 401.3L380.9 394.4L376.1 411.8L387 417.8L388.1 410.1L384.5 409.2L389.2 397L395.3 396.2L396.8 390.5Z"/><path fill="#000000" d="M396.8 391.4L396.3 395.1L380 398.9L379.1 415L375.6 406.7L380.9 394.4Z"/><path fill="#ad7d5c" d="M907.1 396.3L906.9 405L901.9 408L896 398.2L888.1 395.7L902 393Z"/><path fill="#ffa668" d="M467.4 393.2L466.3 397.3L478.2 398.3L472.5 407.4L463.3 404.6Z"/><path fill="#3a2225" d="M888.2 395L899.8 402.2L903 410L880.6 410.3L881.4 399.6Z"/><path fill="#feba77" d="M389.2 397L380.1 417.3L380.1 401.9Z"/><path fill="#50322e" d="M781.7 399.4L721.1 646.5L715.8 648.3Z"/><path fill="#3a2225" d="M819 408.3L836.2 420.7L807.2 412.8L812.6 402.1Z"/><path fill="#50322e" d="M883.7 415.6L907.7 417.4L888.5 420.3L894.9 423L857 425.8L821.1 420.1L806 412L807.8 404.9L807.2 412.8L825.4 420.6L836.1 419L819 408.3L855 420.9L879.2 422.3L872 420.6L880.9 418.6L875.7 415.6L829.5 407.9L844.2 404.2L875.8 409.2Z"/><path fill="#ad7d5c" d="M927 404.1L929.8 408.7L925.4 411.5L899.5 417.1Z"/><path fill="#000000" d="M513 408.3L528 432.6L514.4 424Z"/><path fill="#6f4b3c" d="M929.9 406.2L928.9 413.1L910.8 421.5L857 425.8L894.9 423L888.5 420.3L907.7 418.1L899.4 417.1L921 413.3Z"/><path fill="#6f4b3c" d="M820 408.9L852.9 417.9L880.9 418.6L872 420.4L879.2 422.3L859.3 421.8Z"/><path fill="#ffa668" d="M465 409.6L474.3 410.8L474.6 417.1L466.8 427.2L459.8 426.7Z"/><path fill="#feba77" d="M489.9 417.7L491.5 424.6L484.1 433.9L477.2 433.6L464.5 442.5L458.5 455.6L446.3 461.7L458.4 452.7L449.1 438.6L455.5 438.7L452.3 430.3L458 434.1L470.6 432.5L478.8 420.7L487.6 414.8Z"/><path fill="#3a2225" d="M900.5 427.2L909.1 427.9L908.6 431.9L858.5 432.4L850.5 439.9L841.6 439.4L814.6 429.6L807.4 417.8L849.4 428.1Z"/><path fill="#50322e" d="M900.5 427.2L921.5 423.3L911.1 437.2L864.7 443.4L824.4 435.4L808.7 421.6L823.2 434L849.9 440.1L858.5 432.4L908.6 431.9L909.1 427.9Z"/><path fill="#8d624c" d="M929.4 420.7L928.1 427.8L916.8 435.6L888.3 442.6L911.6 437L921.5 423.3Z"/><path fill="#beb387" d="M440.1 424.8L452.3 430.3L455.5 438.7L405.4 451.3L410.9 441.2L407.3 439.6L417.9 427.1L428.2 433.9Z"/><path fill="#cd7e4f" d="M340.5 434.6L360 445.2L371.6 444.3L345 437.9L363.7 443L400.3 438.8L367.9 450.8L345.6 445.8L333.5 431.6Z"/><path fill="#ad7d5c" d="M407.3 439.6L410.9 440.5L408.2 450.4L391.1 449.5Z"/><path fill="#bfa47b" fill-opacity="0.996" d="M469.1 440.1L477.2 443.2L482.6 454.8L491.2 454.7L477.1 467.2L474.2 465.3L463.3 479.3L457.9 472.1L452.8 480.6L444.4 473.2L448.1 478.6L443.4 485.3L431 487.2L427.8 477L425.3 486.9L422 477.3L421.8 487.2L408.2 486.1L405.1 477.2L409.6 471.4L430.8 469.6L435.5 466.9L426.7 466.5L456.7 459L461.5 466.9L456.5 457.2L461 446.1Z"/><path fill="#feba77" d="M436.8 449.8L449.9 440.9L456.2 450.9L441.6 459.6Z"/><path fill="#3a2225" d="M876.1 448.3L891.3 448.1L886.4 450.7L844.9 455.7L835.1 449.2L834.2 442.5Z"/><path fill="#beb387" d="M501.2 443L505.7 444.2L498.2 453.8L484.6 462.9L496.2 448.4L490.3 454.3L483.5 452.5Z"/><path fill="#6f4b3c" d="M893.3 451.7L868.6 461.8L840.5 457L861.9 461.1L870.1 453.3L891.5 449.1L876.1 448.3L895 446.6Z"/><path fill="#ffa668" d="M390.4 450.2L385.6 461L373.5 456.7L374.7 452.1Z"/><path fill="#50322e" d="M875.5 451.9L861.9 461.1L840.5 457L835.1 449.2L844.9 455.7Z"/><path fill="#ffa668" d="M433.2 452.8L434.9 461.4L414.6 460.2L416.1 455.1Z"/><path fill="#ffa668" d="M390 464.6L393.4 453.4L409.4 456.5L408.9 465.2Z"/><path fill="#ad7d5c" d="M488.1 462.4L478.6 473.1L464.2 478.1L475.5 464.2L476.6 471.6Z"/><path fill="#bfa47b" fill-opacity="0.996" d="M376.8 463.1L375.4 471.2L369.4 468.8L348.5 479.4L346.1 476.2Z"/><path fill="#8d624c" d="M386.6 466.1L396.5 477.9L399.2 470.4L401 485.9L375.1 471.2Z"/><path fill="#ad7d5c" d="M426.7 466.5L435.5 466.9L430.8 469.6L406.5 472.5L403.9 479.8L408.2 486.1L398.1 479.7L399.2 470.4L396.5 477.9L390.1 468Z"/><path fill="#feba77" d="M475.3 490.2L471.7 499.5L458.7 497.2L459.2 489.5L475.4 481.8L471.2 482.1L480.7 472.1Z"/><path fill="#ad7d5c" d="M460.8 480L444 485.5L450.5 476.1L456.4 480.1L456.9 472.5Z"/><path fill="#cd7e4f" d="M479.7 473.8L472.2 483.8L459.4 489.2L458.7 497.2L463.9 496.1L448.7 508.3L439.1 525L431.4 491.8L458 485.8Z"/><path fill="#3e240c" d="M483.1 492.2L497.1 501.5L491.3 513.1L479 506.9L477.2 497.1Z"/><path fill="#fbb21c" d="M504.6 509.5L494.1 534.7L449.4 565.9L422.4 574.3L397.7 572.7L383 566L380.2 556.1L383.5 551.9L404.7 562.1L419.2 562.8L464.3 545.4L493.9 516.9L499.1 502.2L496.1 494.6Z"/><path fill="#5b3511" d="M427.2 507.9L422 505.2L419 510.5L420.6 502.9L414.2 496.6L427.3 498.4Z"/><path fill="#ffd29a" d="M471.7 499.5L465.9 516.7L438.8 530.7L448.8 508.1L463.9 496.1Z"/><path fill="#ca8116" d="M411.2 496.9L420.2 503.1L418.6 508.1L409.1 504.3L396.9 513.7L389.1 525.3L385.2 545.3L375 556.7L374 543.4L381.5 523L395.6 506.4Z"/><path fill="#fbb21c" d="M406.5 498.3L381.5 523L373.5 552L373.6 537.9L380.3 522.3Z"/><path fill="#96550a" d="M419.9 504.4L406.6 532.2L408.8 552.5L413.5 524L424.4 510.6L415.9 522.9L411.3 559.1L405.4 558.5L390.7 548.4L388.9 537.2L395 523.8L390.4 544.2L393.1 533.4L401 532.7L405.7 509.5L412.7 505L418.4 508.3Z"/><path fill="#83470e" d="M427.2 507.9L413.5 524L409.3 552.7L407.3 529.9L422 505.2Z"/><path fill="#ca8116" d="M368.6 510.9L340.7 510.7L336 529.1L340.1 540.9L357.5 524.4L341.6 542.5L335.9 537.7L335.8 518.6L342.1 507.9Z"/><path fill="#ffee49" fill-opacity="0.996" d="M388.4 552.5L385.6 545.9L396.4 557.3L412.4 561.3L445.8 553.5L479.2 532.2L498.1 507.1L483.7 529.6L447.3 554.7L410.8 563Z"/><path fill="#5b3511" d="M368.6 510.9L375.7 511.9L340.1 540.9L336 529.1L340.7 510.7Z"/><path fill="#607970" d="M483.2 512L485.4 520.4L464 540.3L480.4 523.5L474.9 514.2L477.2 510.3Z"/><path fill="#83470e" d="M405.7 509.5L399.8 522L404.5 520.9L401 532.7L393.1 533.4L393.6 530.3L391.7 533.6Z"/><path fill="#5b3511" d="M377 518.8L343.3 556.8L367.1 524.4Z"/><path fill="#435c54" d="M427.9 529.3L420.4 523.8L430.8 514.3L436.3 529.6Z"/><path fill="#758e81" d="M474.9 514.2L478.4 523.7L464 536.8L429.7 542.3L420.1 530L447.6 532.2Z"/><path fill="#83470e" d="M377 518.8L370.5 529.7L368.1 547.4L378.1 595.6L393.9 608.5L376.1 578L376.5 565.7L394.1 576.6L420.5 576.9L424.8 607L409.2 612.6L392.2 611.8L391.8 615.4L427.3 612L409.3 618.5L380.8 617.9L383.3 620.8L355.7 610.9L355.9 621.1L359.7 622.7L354.3 631.6L349.1 603.8L342.4 602.9L343 641.8L366.6 690.2L399.8 725.7L367.4 709.8L355.5 696.2L335.5 658.1L329.3 629.7L330 591.1L336.4 567ZM349 579.1L349.3 570.6L341.3 574.4L339.5 588.7L348.5 582.1L353.2 598.7L367.9 600.8L363.9 599.1L369.6 593.6L367.6 584.3L363 584.3L367.4 581.9L364.8 576.5L355.7 572.3Z"/><path fill="#83470e" d="M528.1 519.9L542.8 529.9L525.3 525.7L539.9 532.6L528.6 537.5L516.5 535.7L508.4 543.1L512.7 533.6L496 544.9L515 523.6Z"/><path fill="#ca8116" d="M366.6 522.3L339.2 562.5L347.1 543.5Z"/><path fill="#435c54" d="M464.6 540.3L445.6 550.7L416.9 555.3L419.2 539.2L431.6 544.9L432.4 541.7L456.6 541.3L480.1 522.7Z"/><path fill="#dc901d" d="M513.9 526.1L482.5 555.7L492.6 544.9L485 547.7Z"/><path fill="#fbb21c" d="M360.6 526.6L342.5 550.5L328.4 604.7L331 648.9L349.5 689.2L329.8 654.4L352.2 698.2L398 725.2L373.3 716.1L349.1 696.4L332.4 666.9L324.3 638.2L323 610L328.8 578.8L342.6 548.2Z"/><path fill="#fbb21c" d="M575.7 544.1L570.2 534.7L556 533.3L503.9 563.2L488.6 567.1L480.4 563.6L504.7 559.5L549.5 532.6L567 531.4Z"/><path fill="#83470e" d="M571.7 535.9L553.7 537.3L504 569.2L477.2 569.6L469.6 561.9L474.2 564.2L483.5 557.4L475.4 565.7L495.9 566L520.6 555.7L551.3 534.6Z"/><path fill="#f6fbf6" fill-opacity="0.996" d="M272 559.4L267.9 563.8L271.7 553.4L263.6 543.7L220.6 534.9L174.9 538.6L150.3 548.2L147.6 557.6L147.3 551.4L154.1 544.2L172.8 537.4L223 533.3L265.6 543L272.7 550Z"/><path fill="#96550a" d="M538.2 533.6L499.3 559L482.5 561.8L512 536.3L508.4 543.1L517.5 536Z"/><path fill="#d5dad5" d="M271.8 556.2L246.8 568.2L210.3 570.2L159.4 562.2L151.7 558.5L150.2 554.5L155 556.5L149.7 549.5L153.8 547.3L185.9 561.9L232.3 562.9L201.7 561.1L242 560.5L257.6 555.6L262.2 548.6L246.1 540.3L193 537.1L158.3 544L184.5 537L220.6 534.9L261 542.5L269.8 548.7Z"/><path fill="#522605" d="M571.7 535.9L572.9 553L562.2 568.4L567.8 539.4L549.6 540.4Z"/><path fill="#dc901d" d="M386.6 536.5L388.4 552.5L380.2 556.1L383 566L375 556.7L385.2 545.3Z"/><path fill="#f6fbf6" fill-opacity="0.996" d="M201.7 561.1L173.2 558.2L159.1 550.2L179.4 557.9L229.5 559.3L251.4 556.9L261.4 549.4L233.3 539.6L170.1 542.2L178.7 538.7L233.6 538L253.9 542.7L263.6 551.4L242 560.5Z"/><path fill="#000000" d="M160 550.5L170.1 542.2L210.2 538L247.3 542.1L262 550.5L251.4 556.9L229.5 559.3L179.4 557.9ZM178.7 542.5L162 550.2L187.4 556.6L242.9 556.2L260.2 551.1L231.5 540.9Z"/><path fill="#3e240c" d="M561.8 560.2L560.5 550.9L552.6 542.5L567.8 539.4L568.3 551.2Z"/><path fill="#576a77" fill-opacity="0.996" d="M257.7 552.5L185.4 554.2L232.4 553.7L204.3 542.2L223.2 540.3L250.8 544.7L259.9 550.4Z"/><path fill="#758e81" d="M205.5 540.9L232.4 553.7L188.1 552.2L191.6 553.7L185.8 554.6L198.7 555.8L190.1 556.8L162 550.2L171.6 552.9L191.2 541.8Z"/><path fill="#576a77" fill-opacity="0.996" d="M191.2 541.8L172.1 552.8L162.4 548.6Z"/><path fill="#a5651f" d="M482.5 555.7L469.6 561.9L470.6 555.8L492.6 544.1Z"/><path fill="#304542" d="M546.2 549L519.7 570.9L516.7 578.7L523.4 570.2L511 600.4L511.1 588.1L507.9 591.3L504.8 586.8L508.9 574.3L536.4 550.7L549.2 544.1L552.2 546.7Z"/><path fill="#758e81" d="M551.6 548.7L557.8 568.1L539.3 554Z"/><path fill="#435c54" d="M544 549.8L539.2 553.2L545.7 555.1L540.8 555.3L544.1 559.6L535.9 560.7L526.5 573.5L523.3 571.6L526.9 564.4L516.1 578.6L527.9 561.4Z"/><path fill="#576a77" fill-opacity="0.996" d="M150.9 557.8L164.5 567.5L164.4 588.1L157.8 569.5L156.3 583.3L148.8 580Z"/><path fill="#a1afb5" d="M271.8 556.2L267.9 563.8L272.3 560L271 571.1L271.9 563.2L275.1 566.1L272.5 579.5L260 586.9L216.7 594.2L205.5 594.2L194.2 585.5L183.5 588.4L191 586.4L194.4 579.8L189.9 572.1L181.7 570L246.6 570.1ZM260.1 567.3L252.9 568.6L260 569.5L256.3 578.7L256.6 572.2L249.5 576L254.6 582.9L263.7 577.7Z"/><path fill="#96550a" d="M467 556.3L443.5 570.2L422.4 574.3Z"/><path fill="#000000" d="M150.9 557.8L189.3 569.3L165 566.1Z"/><path fill="#ca8116" d="M467 559L464.3 562.1L471 572.7L462.8 581.3L438.8 599.7L423.2 601.9L420.5 576.9Z"/><path fill="#758e81" d="M543 560.6L568.3 587.4L554.9 595.3L555.8 599.3L577.5 595.8L590.5 606.9L588 610.5L584.5 605.4L585.4 608.5L567.5 606.8L557.5 616.3L607.1 614.8L621.4 627.2L622.6 631.1L618.1 632.1L622.2 636L610 636.5L592.7 666L597.1 647.8L582.6 652.9L578.6 661L579.4 649L585.6 632.6L599.9 620.5L595.5 619L602.1 617.5L612.7 623.2L608.7 619.1L600.9 615.9L586.4 619.6L568 642.7L558.5 645.5L552.7 631L537.5 619.2L537.9 596.9L526.9 609.3L523.7 629.3L510.1 612.2L512.6 592.3L521.8 573.9Z"/><path fill="#f6fbf6" fill-opacity="0.996" d="M274.6 567.8L274.2 580.2L255 590.1L218.1 595.5L184.4 593.5L222.3 593.9L254.6 588.6L272.3 579.9Z"/><path fill="#607970" d="M175.9 568.3L173.9 591.4L164.4 588.1L166.8 568.2Z"/><path fill="#758e81" d="M246.8 568.2L224 572.2L181.7 570L192.1 576.1L180.5 574.1L178.2 579.6L183.9 591.6L175.4 588.6L175.9 568.3Z"/><path fill="#5b3511" d="M366.9 585.6L357.6 594L358.9 601.6L350.2 595L348.5 582.1L353.6 573.2L362.9 574.6L367.4 581.4L363 584.3Z"/><path fill="#96550a" d="M349 579.1L339.5 588.7L341.3 574.4L349.3 570.6Z"/><path fill="#ca8116" d="M476.7 572.9L474.1 574.9L478.9 576.9L494.5 578.2L488.2 588.5L484.9 609.1L473.7 615L485.2 615.7L489.4 620.3L490.2 626.9L481.8 633.4L484.9 646.2L465.3 614.1L429.6 612.5L432.1 615.1L424.7 625.9L405.1 635.7L401.2 666.3L413.4 689.9L428.1 700.6L444.2 702.4L432.9 703.8L415.6 692.5L409.4 694L417.5 705L404 714.1L384.3 681.4L382.6 652.1L389.5 623.3L392.3 617.8L409.3 618.5L433.7 611.4L464.9 589L470.9 581L448.8 598.8Z"/><path fill="#879aa8" d="M191.6 575.8L187.5 577.9L191.5 577.6L192.1 582.9L183.6 578.9L185.9 584.6L180.3 577.3L183.5 588.4L194.2 585.5L208.1 593.9L177 591.4L183.9 591.6L178.2 579.6L180.5 574.1Z"/><path fill="#ffee49" fill-opacity="0.996" d="M470.8 573.4L450.9 593.4L426.2 606.8Z"/><path fill="#fbb21c" d="M496.3 578.3L491.3 623.7L508.8 659.5L490.2 626.9L489.4 603.4Z"/><path fill="#96550a" d="M427.3 612L405 616.9L392.5 613.7L409.6 614.8L429.6 609L452.1 597.9L471.6 581L445.1 604.6Z"/><path fill="#ca8116" d="M499.2 583.4L498.9 632.5L494.9 607.3Z"/><path fill="#dc901d" d="M493 584.1L489.4 620.3L486.6 596.4Z"/><path fill="#a5651f" d="M366.9 585.6L369.2 595.5L359.2 598.9L360.6 589.8Z"/><path fill="#435c54" d="M510 595L506.7 605.6L523.7 629.3L528.1 609.2L537.9 596.9L537.5 619.2L552.7 631L553.3 639.4L560.8 647.8L586 619.8L588.2 624L599.7 620L583.6 631.4L577.6 653.7L578.7 665L589.8 664L597.1 647.8L592.1 663.4L594.2 695.4L581.3 696.2L550.1 640.4L540.4 636.6L536.9 629L535.2 634.7L529.3 626.8L527.1 635.6L511.5 645L501.9 613.1L504.8 586.8L507.9 591.3L511 588Z"/><path fill="#5b3511" d="M365.2 708.1L346.4 684L331.8 651.8L327.6 625.4L330 591.1L332.9 650.6L344.2 678Z"/><path fill="#fbb21c" d="M498.9 632.5L511.3 655.5L495.3 626.4L496.7 591.1Z"/><path fill="#7d5120" d="M159.6 591.6L180.1 599.2L174.4 599.9L173.6 636.8L171.6 608L169.6 636.3L154.5 628.6L154.3 592.6Z"/><path fill="#96550a" d="M251 595.8L203.8 600.9L203.1 622.1L202.1 601L178.9 598.1L240.8 596.9L261.5 591.5Z"/><path fill="#fbb21c" d="M265.2 629.3L262.6 634.7L244.7 640.1L209 641.9L237.9 638.8L238.1 600.5L234.4 599.1L239.8 598.2L242.1 639.3L241.4 598.8L263.9 592.1ZM252.5 598L242.9 600.6L244.7 638.4L254.9 634.6Z"/><path fill="#dc901d" d="M252.5 598L254.9 634.6L244.7 638.4L242.9 600.6Z"/><path fill="#dc901d" d="M180.1 599.2L202.1 601L203.1 622.1L203.5 601.3L208 601L208.8 640.6L211 601.6L234.4 599.1L236.7 632.1L237.7 600.1L237.9 638.8L209.5 642.8L182.5 640L186.8 633.6L182.8 627L186.3 629.5L186.2 617.5L188.9 634.9L189.7 616.4L185.8 602.1L179.7 600.7L178.1 639.6Z"/><path fill="#a5651f" d="M188.3 616.8L186.3 629.5L182.8 627L186.8 633.6L178.8 639.7L179 601.2L185.8 602.1Z"/><path fill="#522605" d="M343.2 604.2L345.9 649.2L375.8 701.6L344.9 649.9Z"/><path fill="#ca8116" d="M388.5 617.6L378.5 644.7L378.3 678.6L386.9 700.5L405 723.5L388.3 708.7L396.3 717.2L385.8 711.1L369.3 692.8L345.7 648.3L343.2 604.2L349.1 603.8L354.3 631.6L359.7 622.7L355.9 621.1L355.7 610.9L383.3 620.8L380.6 618Z"/><path fill="#5b3511" d="M278 639.2L275.1 612L278.3 606.3L286.8 605.2L292.1 608.9L292.2 616.9Z"/><path fill="#304542" d="M587.1 609L559.4 612.7L570.3 606.2L585 608.5L584.5 605.4Z"/><path fill="#96550a" d="M486.2 606.6L486.7 616.5L473.9 615.6Z"/><path fill="#fbb21c" d="M462.5 616.2L478.1 654.8L468.4 642.6L471 660.3L459.1 685.2L444.3 695.4L459.2 688.7L447.5 697L428.8 695.5L438.7 695.6L427.5 691.2L410.5 672.8L424.2 694.2L412.8 681.5L405.6 663.9L407.9 639.1L423.3 631.1L434.9 617ZM436.6 629.9L418.9 649.3L417.2 664.7L425.2 675.8L441.5 682.3L455 672.6L457.2 653.3L450.9 631.7L452.7 647.8L447 631.8L440.6 626.6Z"/><path fill="#000000" d="M392.3 617.8L381.5 647.4L382.3 678.3L391.2 700.7L409.6 724.5L388.5 700.4L379.9 678.2L380 644.3Z"/><path fill="#fbb21c" d="M390.6 617.5L380 644.3L379.9 678.2L388.5 700.4L408.1 724.9L388.5 703.1L378.3 678.6L379.1 642Z"/><path fill="#fbb21c" d="M412.4 708.6L406.5 714.3L412.7 723.9L407.5 720.7L383.5 683.7L380.9 652.2L389.5 623.3L382.6 652.1L384.4 681.6L403.3 713.7Z"/><path fill="#a5651f" d="M490.2 626.9L505.6 656.7L474.3 663.2L472.9 651.2L478.1 654.8L478.3 647L482.9 651.8L477.8 643.2L484.9 646.2L481.8 633.4Z"/><path fill="#ca8116" d="M443.6 628.8L447.2 635.5L433.3 635.3L440.2 626.6Z"/><path fill="#f6fbf6" fill-opacity="0.996" d="M184.5 658.2L209.5 662.1L211.2 676.1L242.7 673.3L271.7 660.2L272.3 639.6L234.2 652.7L205.5 653.6L179.8 648.6L178.3 654.6L178.1 647.7L234.1 651.3L258.9 645.9L273.1 636.7L247.6 647.1L208.2 650.2L176.8 645.4L149.8 629L174.3 640.9L207.2 645L249.6 641.2L266.9 635L270.7 628.4L273.9 630.5L273.6 660.2L253.6 671.6L209.9 677.7L209.4 663.6Z"/><path fill="#576a77" fill-opacity="0.996" d="M176.8 645.4L178.3 654.6L166.8 651.9L150.6 641.9L149.7 630.3Z"/><path fill="#522605" d="M456.2 664.8L448.1 674.8L455.6 657.4L450.4 631.5L456.9 650.5Z"/><path fill="#fbb21c" d="M449.8 645.6L443.7 669.3L426.1 672.6L430.7 677.1L424.4 673.8L418.8 663.7L426 655.5L418.8 659.7L420 649.8L438.6 635.3L448.4 638.6Z"/><path fill="#000000" d="M178.1 647.7L233.6 649.4L273.1 636.7L258.9 645.9L234.1 651.3Z"/><path fill="#a1afb5" d="M232.1 675.3L230.3 671.3L211.2 676.1L209.5 662.1L174.2 655L179.8 648.6L205.6 653.6L239.5 652.1L272.3 639.6L269.9 662ZM219.9 661.1L221.2 671L227.9 671L233.4 664.8L228.9 657.6Z"/><path fill="#3e240c" d="M278 639.2L285.2 663.4L283.1 671.7L288.5 659.5L289.2 672.7L287.4 679.6L272.4 691.9L284.7 675.2L271 686.5L270.8 668.8L277.8 661Z"/><path fill="#fdecbe" d="M151.5 642.1L177 660L208.4 665.3L188 726.3L147.6 711.6L118.8 690.9L142.2 666L151.1 648.5L144.1 665.9L119.6 688.9L129.9 695.9L161.5 663.6L164.3 654.7ZM166.3 694L150.8 695.4L160 703.1L169.4 697.7L160.1 679.2L175.5 677.2L169 670.1L158.7 673.8L155.8 681.1Z"/><path fill="#83470e" d="M472.9 651.2L473.7 660.3L461.2 680.8L471 660.3L468.1 643.1Z"/><path fill="#ffa668" d="M630 654L610.6 644.8L601.8 652.7L597.4 668.9L624 696.5L641.2 705.9L625.3 691L631 687.5L637.4 695.2L640 687.8L635.2 686.7L654.9 673.6L647.4 685.5L643 707.9L621.8 696.3L595.7 668.4L602.3 650.1L611.4 643.2Z"/><path fill="#3e240c" d="M424 644L419 666.2L434.7 680.1L417.6 666.7L418.1 651.2Z"/><path fill="#cd7e4f" d="M623.5 649.1L613.2 651.3L605.3 668.8L641.2 705.9L624 696.5L597.4 668.9L604.7 648.7L612.9 644.5Z"/><path fill="#beb387" d="M151.1 648.5L151.5 645.1L164.2 654.6L161.5 663.6L127 695.1L119.7 688L144.1 665.9Z"/><path fill="#ca8116" d="M452.7 647.8L454.9 663.2L448.1 674.8L456.2 664.8L456 670.1L441.9 681.3L435 681L431.1 675.1L446.7 667.4L449.8 645.6L452.7 652.2Z"/><path fill="#cd7e4f" d="M739 648L748.3 651.1L748.9 662.6L746.5 673.6L737 676.3L741.2 670.8L740.2 651.2L735.8 649.4Z"/><path fill="#a5651f" d="M736.3 648.5L740.2 651.2L712.1 655.5L690.7 676.6L675.3 684.2L710.9 655.2Z"/><path fill="#ca8116" d="M531.5 652L536.5 669.8L533.4 652.9L541.9 670L534.4 683.5L528.1 652.3L521.1 655.6L529.8 648.8Z"/><path fill="#fdecbe" d="M622.8 650.3L656.3 671.4L617.4 651Z"/><path fill="#ffd29a" d="M618 650L659.2 671.6L649.2 685L644 704.2L654.9 673.6L635.2 686.7L640 687.8L636.7 695.3L632.5 689.2L642.1 673.1L633.7 672.9L634.9 678.8L625.3 691L605.2 667.9L611.3 653.4Z"/><path fill="#607970" d="M593.9 652L589.8 664L578.7 665L582.6 652.9Z"/><path fill="#83470e" d="M740.2 651.2L740.8 666.5L736 653.6L736.1 675.6L701 679.7L695.9 676.8L712.1 655.5Z"/><path fill="#96550a" d="M536.7 682.7L529 696L515.6 703.6L513.1 694.9L528.4 677.4L520.3 686.9L510.5 653.6L528.1 652.3Z"/><path fill="#ca8116" d="M298.6 668.7L300.1 689L287.5 652.3Z"/><path fill="#96550a" d="M740.8 662L740.6 673.7L736.2 675.5L736 653.6L739.8 666.4Z"/><path fill="#dc901d" d="M349.5 689.2L362.5 706.3L352.2 698.2L339.2 678.3L330.1 654Z"/><path fill="#f6fbf6" fill-opacity="0.996" d="M208.4 665.3L187.6 663.5L167.3 655.2Z"/><path fill="#000000" d="M288.2 657L294.9 679.6L288.3 694.6L280.9 699.9L292.7 679.5L290 661.4L288.5 676.3L288.5 659.5L283.1 671.7Z"/><path fill="#ca8116" d="M473.3 655.9L474.3 663.2L484.9 659.3L468.1 671.4L455.1 694.8L439.8 700.7L427.1 697.5L447.5 697L459.2 688.8L444.3 695.4L459.1 685.2Z"/><path fill="#5b3511" d="M505.6 656.7L512 661.5L520.8 687.3L528.4 677.4L515.3 694.4L515.9 673.2L496.9 658Z"/><path fill="#000000" d="M232.4 666.7L221.2 671L219.9 661.1L229.2 658.9Z"/><path fill="#fbb21c" d="M696.4 661.3L681.2 662.4L664.4 673.5L648 703.7L653.3 685.7L665 671.6L681.1 661.1Z"/><path fill="#ca8116" d="M696.4 661.3L662.1 680.2L664.4 673.5L681 662.5Z"/><path fill="#f6fbf6" fill-opacity="0.996" d="M510.1 690.3L505.5 679.1L510.7 686.8L509.2 673.5L496.8 663.4L477.3 667.7L470.5 674L467.8 688.4L475.7 702.6L468 693.8L466.9 680.5L478.3 665.3L497.3 661.1L510.5 672.9Z"/><path fill="#522605" d="M288.1 688.1L276.7 699.2L290 673.6L290 661.4L292.7 679.5Z"/><path fill="#000000" d="M501.7 665.6L483.3 672L479.6 690.4L480.5 673L487.5 666.5L475.6 673.9L471.9 686.1L477.1 699.4L470.5 686.1L473.7 673.5L488.9 663.4Z"/><path fill="#758e81" d="M326.4 664.9L335.2 681.2L329.1 673.7L328.5 682.3L323.2 674.6L312.2 671.7Z"/><path fill="#d5dad5" d="M501.7 665.6L506.4 669L503.2 672.5L492 667L480.2 680.2L487.1 668.3Z"/><path fill="#879aa8" d="M500.6 669.9L506.7 688.4L488.4 697.4L483.9 681L481.5 691.8L479.8 679.2L489.5 668.1Z"/><path fill="#83470e" d="M688.4 667.6L669.4 684.7L664.2 698.6L656.9 698.2L651.7 709.4L662.1 680.2L669.1 673.3Z"/><path fill="#42565e" d="M480.3 688.8L491 700.3L480.7 700.2L484.3 702.3L479 705.2L472.9 698.9L477.8 700.4L473 678.5L487.5 666.4L480.5 673Z"/><path fill="#dc901d" d="M267.5 671.8L245.7 680.9L208.8 683.2L194.9 719.7L207.3 681.6Z"/><path fill="#000000" d="M166.6 693.5L155.8 681.1L158.7 673.8L169 670.1L175.5 677.2L160.1 679.2L169.4 697.7L160 703.1L150.8 695.4Z"/><path fill="#607970" d="M503.2 672.5L510.1 690.3L490.7 700.1L485.7 697.8L481.5 691.8L483.2 680.8L488.4 697.4L506.7 688.4Z"/><path fill="#607970" d="M593.1 671.5L598.5 704.4L614.9 721.1L609.4 731.2L592.4 720.7L581.4 696.6L594.2 695.4Z"/><path fill="#feba77" d="M641.1 673.4L629.5 689.3L633.7 672.9Z"/><path fill="#435c54" d="M335.2 681.2L339.6 687.7L330.6 689.1L337.2 711.6L344 723.2L351.3 717.9L338.5 730L326.9 729.8L321.1 734.8L329.2 707.6L328.2 673.7Z"/><path fill="#a5651f" d="M263.7 674.8L266.2 727.2L260.3 676Z"/><path fill="#feba77" d="M315.2 675.8L320.3 683L319.6 697.9L316.3 690.7L313.7 703.5L305.8 707.2L317.8 707.7L304.2 709.1L305.8 677Z"/><path fill="#7d5120" d="M692.6 674.9L693.4 681.8L687 687.3L680 709.2L679.5 681.6Z"/><path fill="#304542" d="M623.8 707.7L617.2 718.6L602.9 706.9L595.8 675.3Z"/><path fill="#cd7e4f" d="M317.4 708.5L305.8 707.2L319.6 697.9L318.1 675.4L325.6 683.5L327.2 695.3L326.5 705.9Z"/><path fill="#dc901d" d="M262.5 685.5L266.1 729.1L237.7 738.1L203 738.9L209.1 735.3L208.3 702.2L212.4 737.4L210.2 685.2L226.8 688.5L230.9 719.1L241.5 732.2L242.3 727.6L242.4 734.7L244.1 682.2L261.2 675.9Z"/><path fill="#7d5120" d="M662.6 676.2L649.6 708.1L653.9 731.5L662.9 738.1L650.3 729.6L645.8 710.4Z"/><path fill="#7d5120" d="M300.1 689L298.3 704.7L286.7 720.4L292.9 712.9L294.1 681.2L296.8 684.8L298.1 677Z"/><path fill="#522605" d="M714 684.8L696.7 682.9L735.6 679.6Z"/><path fill="#5b3511" d="M276.7 699.2L271.4 701.9L271 686.5L273.2 692L287.4 679.6Z"/><path fill="#83470e" d="M238.8 682L209.4 686.2L210.1 697.2L207.4 689.2L203.5 714.8L201.7 708.1L198.8 736.8L197 721.8L208.3 683.7Z"/><path fill="#fbb21c" d="M240.5 681.5L241.7 732.3L230.9 719.1L227.4 689.7L220.2 684.7Z"/><path fill="#ca8116" d="M417.9 682.1L438.9 695.8L424.2 694.2Z"/><path fill="#83470e" d="M679.5 681.6L672.6 702.6L682.1 720.4L680.4 728.1L680.3 721.7L672.2 723.6L666.6 709.4L671.8 687.3Z"/><path fill="#3e240c" d="M293.6 682.9L289.4 695.7L293.4 696L289.8 703.9L292.9 712.9L281 726.2L271.8 718L271 704.5L288.1 688.1L280.6 699.4L286.9 696.5Z"/><path fill="#83470e" d="M736.8 683.2L733 707.1L699.4 701.8L696.4 689.4L694.5 699L696.2 685.5Z"/><path fill="#cd7e4f" d="M746 687.1L744.1 704.1L736.6 707L736.8 683.2Z"/><path fill="#304542" d="M339.6 687.7L357.8 709.5L344 723.2L330.6 689.1Z"/><path fill="#3e240c" d="M664.2 698.6L670.8 724.2L673.7 726.7L680.3 721.7L680.4 728.1L685.2 720.7L676.1 766.5L667.7 760.5L664.9 746L678.3 729.2L674.8 726.6L662.9 737.2L653.9 731.5L650.9 721.3L649.7 707L656.9 690L651.7 709.4L656.9 698.2Z"/><path fill="#ca8116" d="M208.9 699.1L208.7 737L186.6 736.3L201.9 736.8L207.4 689.2Z"/><path fill="#522605" d="M469 727.8L459.6 720L429.4 722.5L453.3 718.1L449.9 707.4L441.2 704.5L463.1 692L486.7 723.8Z"/><path fill="#96550a" d="M419.1 695.8L420.1 715.5L437.5 721.1L429.5 722.9L459.6 720L469 727.8L416.7 728.5L406.5 714.3L417.6 704.6L409 694.2Z"/><path fill="#3e240c" d="M673.9 694.7L678.1 712.4L683.1 714.6L679.6 704.9L682.5 708.2L686.3 702.7L682.1 720.4L673.5 707.4Z"/><path fill="#758e81" d="M596.8 696.8L611.5 717.8L617.5 718.5L623.8 707.7L609.4 731.2L614.9 721.1L602.4 711.1Z"/><path fill="#a1afb5" d="M518.4 723.3L526 738.2L507.2 747.1L516.8 742.5L513.3 743L514.4 734.1L500.1 700.8L505.8 698.8Z"/><path fill="#5b3511" d="M533 698.4L519.1 716.3L513.9 706.9Z"/><path fill="#ca8116" d="M533 698.4L530.1 706.4L540.3 721.3L528.4 727.6L519.1 716.3Z"/><path fill="#fbb21c" d="M533.9 698.8L543.4 721.3L526.8 729.7L519.8 716.2L527.2 727.3L540.3 721.3Z"/><path fill="#a5651f" d="M422.1 699.8L449.9 707.4L453.8 717.2L425.7 720L419.5 714.8Z"/><path fill="#dc901d" d="M536.9 713.1L530.1 706.4L533 700.2L540.9 713.7L540.6 716.8Z"/><path fill="#879aa8" d="M500.1 700.8L513.3 743L516.9 742.5L510.2 746.2L492.2 704.7Z"/><path fill="#522605" d="M699.5 705.8L694.2 720L690 716.6L692.4 702Z"/><path fill="#42565e" d="M494.1 702.8L508.1 747.6L501.8 748.5L489 712.4Z"/><path fill="#758e81" d="M490.3 703.8L489 712.4L501.6 747.3L485.2 709.5Z"/><path fill="#a1afb5" d="M486.3 705.6L501.8 748.5L483.3 707.8Z"/><path fill="#83470e" d="M699.5 705.8L728.5 713.5L720.7 730.9L694.2 720Z"/><path fill="#304542" d="M315.6 729.3L312 733.7L308.3 714.3L307.6 733.1L302.7 729.2L302.2 712.1L325.3 709.3Z"/><path fill="#5b3511" d="M357.8 709.5L380.2 722.9L375.7 738L371.7 738L376.3 743L359.3 727Z"/><path fill="#cd7e4f" d="M714.6 709.6L740 713.3L738.3 728.7L722 729.6L728.7 713.9Z"/><path fill="#96550a" d="M199.4 710.5L199.2 737L182.5 735.6L182.1 729.3L181.5 735.9L168.2 731.9L153.6 724.7L149.3 717L189.4 728.6Z"/><path fill="#ca8116" d="M359.1 714.4L358.6 728.9L367 739L388.5 753.6L417.9 760.2L405.5 760.2L419.2 770.3L381.4 751.4L358.5 731.8L345.8 748L346.1 760.8L359.1 768.1L378.2 756.1L389.4 763L368.5 783.7L349.3 768.8L338.2 752.1L338.5 739.4Z"/><path fill="#576a77" fill-opacity="0.996" d="M325.4 731.2L320.3 741.1L327.2 731.2L338.5 730L330.7 746.2L334 758.4L329.3 759.7L311.3 751.7L304.1 727.9L310.4 735.4L308.6 723.1L312.5 734.1L325.9 717.4L320.9 732.4Z"/><path fill="#fbb21c" d="M382.6 758.2L396.8 759.7L370.7 783.2L374.2 787.8L399.8 767.2L400.4 760.6L403.5 765.8L373.1 788.2L341.4 761.2L337.9 736.9L356.8 718.5L339.4 736.7L338.1 751.6L349.2 768.7L366.9 783.3L389.3 763.3Z"/><path fill="#83470e" d="M715.6 734.4L712.3 735.6L717.9 737.9L712.6 744.2L721 738.7L724.9 748.3L705 755.5L705.8 746.9L689.2 735.6L688.9 721Z"/><path fill="#d5dad5" d="M558.2 758.4L571.5 742.8L567 727.1L547 726.2L527.5 734.6L550.3 724.1L566.5 724.7L572.7 743.6Z"/><path fill="#a1afb5" d="M570.8 744.7L566.1 732.9L517.3 762.6L564.7 730.8L511.5 762.2L466.5 775.1L473.5 793.1L505.3 785.2L494.8 790.5L473.1 794.1L466.2 779.6L468.8 767.1L491.2 752.3L466.2 772.4L484.5 770.3L515.6 759.4L554.9 737.3L562.5 729.4L554.1 726.2L539.2 730L545.8 726.6L567 727.1Z"/><path fill="#758e81" d="M515.6 759.4L514.1 752.9L527.9 743.6L523.7 744.8L527.5 734.6L554.1 726.2L562.8 729.8Z"/><path fill="#f6fbf6" fill-opacity="0.996" d="M208.8 778.4L254.9 771.1L274.2 761.7L274.9 737.7L249.8 748.1L222.3 750.4L265.1 741.9L274.8 736.5L274.5 728.8L254.5 738.3L218.6 744L168.8 738.2L153.5 727.2L180.1 737.7L217.1 742L252.1 737.5L274.3 727L274.5 762.8L246.5 774.8Z"/><path fill="#522605" d="M479.6 744L477.3 733.1L470.5 732.1L487.6 726.9L492.1 740.2Z"/><path fill="#5b3511" d="M410.4 731.7L409.4 745L389.8 736.1L392.5 727.3Z"/><path fill="#83470e" d="M480.2 728.3L470.4 732.6L477.3 733.1L479.6 744L436.3 749.2L427.6 747.8L424.8 742.2L425.5 735.1L442.7 736.6Z"/><path fill="#d5dad5" d="M275.2 734L242.1 746.3L206.1 747.6L182.9 742.8L231.2 743.3L256.9 737.5L273.7 728.5Z"/><path fill="#d5dad5" d="M149.2 733.7L147.9 756.8L152.6 761.9L170.8 770.8L208.8 778.4L171.3 772.2L152.1 763L146.6 756.9L145.6 729.9Z"/><path fill="#758e81" d="M160.7 735.1L184 743.8L172.2 743.9L169.6 759.8L168.3 744.6L148.6 729.2Z"/><path fill="#000000" d="M517.3 762.2L484 774.5L466.5 775.1L510.4 762.8L565.2 731Z"/><path fill="#96550a" d="M395.9 758.9L378.2 756.1L359.1 768.1L343.1 754.4L358.5 731.8Z"/><path fill="#879aa8" d="M570.8 744.7L561.6 754.9L561.4 741.3L555.9 743.4L566.4 732.8Z"/><path fill="#607970" d="M378.6 733.3L384.2 733.8L389.8 745L405 749.7L416.9 749.6L412.1 745L414.4 741.5L422.4 755L396 753.2L384.6 748.1L378.4 742.8Z"/><path fill="#cd7e4f" d="M715.6 734.4L726.6 738.3L725.8 746L712.7 736Z"/><path fill="#42565e" d="M153.7 735.7L160.4 738.6L157.1 741.1L161.9 750.9L158 752L159.5 766.1L150.6 760.3L150.4 734.8Z"/><path fill="#42565e" d="M386.5 739L412.5 749.3L392.3 746.2Z"/><path fill="#a1afb5" d="M236.1 775.4L229.9 772.4L234.4 756.3L219 750.1L247.1 748.8L274.9 737.7L274.9 761.1ZM264.4 753.8L261.6 755.5L261.1 747.7L259.2 756L263.1 759.1L268.8 756.5L270.4 748.8L265.8 748Z"/><path fill="#758e81" d="M558.8 738.9L555.9 743.4L561.4 741.3L561.6 754.9L543.9 766.9L537.6 758.3L525.3 759.1Z"/><path fill="#000000" d="M159.9 740L168.5 745.1L169.1 757.8L165 759.7L158.9 757.1L167.3 753.4Z"/><path fill="#50322e" d="M693.4 745.5L640.8 953.1L639.2 940.7L684.2 754.6L687.9 742.3Z"/><path fill="#576a77" fill-opacity="0.996" d="M184 743.8L183.3 773.7L159.5 766.1L159.1 757.6L171 757.6L172.2 743.9Z"/><path fill="#522605" d="M484.6 752.5L475.1 751L493.1 742.9L494.9 746.9Z"/><path fill="#607970" d="M515.6 759.4L498 766.2L495.7 752.3L527.9 743L514.1 752.9Z"/><path fill="#5b3511" d="M730.6 743.9L725.9 758L703.1 766.2L706.6 753.7L722.3 754.7Z"/><path fill="#3a2225" d="M700.5 759.1L678.6 848.6L680 818.8L667.2 859.2L651.3 935.9L652 941.6L657.7 938.7L647 967.3L642.1 954.2L691.9 746.1L702.8 750.3Z"/><path fill="#879aa8" d="M214.3 749.6L223.7 753.3L219.5 758.1L221.5 767.4L233.7 766.7L229.9 772.4L236.1 775.4L182.2 773.8L183.7 746Z"/><path fill="#96550a" d="M478.7 748.3L461.9 760.4L430.5 758.3L427.3 752.9Z"/><path fill="#42565e" d="M499 750.1L495.2 755.1L498 766.2L466.1 772.8Z"/><path fill="#ca8116" d="M484.6 752.5L466.3 762.9L461 771L464.9 792.3L432.5 793.5L430.2 782.6L420.4 770.8L427.7 761.2L461.9 760.4Z"/><path fill="#f6fbf6" fill-opacity="0.996" d="M233.7 766.7L221.9 767.8L219.6 757.7L230.1 752.4L235.4 759ZM234.6 761L227.3 753.7L220 761L227.3 768.3Z"/><path fill="#000000" d="M234.6 761L227.3 768.3L220 761L227.3 753.7Z"/><path fill="#607970" d="M543.9 766.9L522.2 777.5L517.4 763.2L535.1 757.5Z"/><path fill="#8d624c" d="M700.5 759.1L650 973.6L647 967.3L659.3 933.1Z"/><path fill="#96550a" d="M428.7 759.7L435.4 760.8L427.5 761.4L421.7 771L405.5 760.2Z"/><path fill="#7d5120" d="M341.1 765.5L325.2 809.5L326.3 824.6L338.7 832.5L352.1 811.6L367.3 816.6L349.8 795.8L370.7 808.5L396.9 793.9L404.2 795.4L413.5 816L393.8 817.6L420 825.7L392.2 839.4L402.4 841.8L407.4 853L354 841.5L321.5 822.2L321 806.9L336.1 773L336.5 760.5Z"/><path fill="#83470e" d="M400.4 760.6L399.8 767.2L376.7 787.4L370.3 784.9Z"/><path fill="#3a2225" d="M324.1 777.6L307.1 784.4L292.6 811.7L292.1 830.6L299.9 847.7L311.8 860L310.2 863.7L292.7 845.6L288.1 816.2L290.5 819.6L295.5 792.8L309.4 777L335.8 762.8L329.8 776.2Z"/><path fill="#fbb21c" d="M419.2 770.3L430.2 782.6L432.5 793.5L464.9 792.3L464.9 785.2L467.9 792.8L429.3 795.6L405.2 763.5Z"/><path fill="#42565e" d="M517.4 763.2L522.5 778.3L505.8 786.1L479.6 787.7L470.7 779.9Z"/><path fill="#af8750" d="M557.3 764.2L561.3 778L554.3 788.4L550.9 776.6Z"/><path fill="#7d5120" d="M556.5 764.7L550.9 776.6L554.3 788.4L529.3 800.7L528.6 792.1L520.6 793.5L550 778.2Z"/><path fill="#3e240c" d="M553.3 766.6L536.9 785.3L520.6 793.5L521.9 801.2L512.5 803.7L507.8 797.9L501.5 800.7L494.6 794.8L502.9 806.6L509.7 807.4L517.1 823.1L513.1 826L526.7 829.9L525 843.4L513.6 844.2L492.9 808.8L464.2 813.9L468.3 816.8L457.4 821.9L447.5 815.7L420.3 812.1L418 816.7L413.5 816L404.9 795.8L397.6 793.8L370.7 808.5L349.8 795.8L367.3 816.6L352.1 811.6L338.7 832.5L326.3 824.6L325.2 809.5L341.1 765.5L377.3 793.1L406.4 768.1L425.3 797.4L439.4 799.3L489.4 795.2Z"/><path fill="#ca8116" d="M337.3 767.1L319.8 816.4L322.3 799.2Z"/><path fill="#758e81" d="M471.9 776.6L477 786.4L496.3 788.5L473.5 793.1L466.9 776.8Z"/><path fill="#6f4b3c" d="M324.1 777.6L306.2 793.5L298.4 814.2L300.2 836.6L313 858.1L295.7 835.8L295 804.7L308 784.7L300.9 794.7L296.4 816.3L309.1 786.2Z"/><path fill="#000000" d="M313.7 784.4L304.8 793.2L296.3 816.3L300.9 794.7L310.7 781Z"/><path fill="#cd7e4f" d="M563.4 800.6L556.8 791.6L537 801.5L566.1 786.2L571.9 800.3L566.7 806.1Z"/><path fill="#7d5120" d="M559.9 795.9L564.4 808L537.7 819.4L529 803.5L556.8 791.6Z"/><path fill="#5b3511" d="M529.3 800.7L512.5 803.7L521.9 801.2L520.6 793.5L527.3 792Z"/><path fill="#5b3511" d="M529 803.5L537.7 819.4L542.4 818.5L538.7 822.8L524.7 823.8L514.3 807.6Z"/><path fill="#96550a" d="M509.7 807.4L515.5 808.3L524.7 823.8L537.5 823.2L519 825.8Z"/><path fill="#7d5120" d="M525.3 833L530.6 852.5L488.8 861.9L463.6 832.3L485.8 833.8L472 828.3L485.8 825.8L418 816.7L420.3 812.1L447.5 815.7L457.4 821.9L468.3 816.8L464.2 813.9L492.9 808.8L513.6 844.2L526.7 842.8Z"/><path fill="#50322e" d="M678.6 848.6L658.6 935.6L652.6 941.8L670.2 847.6L680.7 818.6Z"/><path fill="#feba77" d="M605.6 902L571.6 810L600.6 878.7L608 898.9Z"/><path fill="#af8750" d="M570.9 810.5L606.1 898.1L599.3 907L582.2 915.4L598.6 906.4L598.8 896.1L565.9 815.4Z"/><path fill="#46311a" d="M567.3 813.3L544.4 833L573.9 915.1L578.5 916.3L571.6 917.4L566.7 917L560.9 904.5L562 914.2L534 835.3L526.7 830.8Z"/><path fill="#755a33" d="M565.9 815.4L598.8 896.1L598.6 906.4L578.5 916.3L544.4 833Z"/><path fill="#3e240c" d="M411.2 816.2L427.2 825.3L424.2 850.7L416.6 854.2L407.4 853L402.4 841.8L392.2 839.4L420 825.7L393.6 817.2Z"/><path fill="#3e240c" d="M477.5 831.7L460.6 829.3L466.8 831.7L463.7 832.7L473.8 840.6L486.4 861.9L463.5 859.1L457.2 845.7L452.3 825.4L482.9 824.9L472 828.3Z"/><path fill="#755a33" d="M532.1 833.3L562 914.2L558 912.3L561 911.1L528.4 831.8Z"/><path fill="#ffa668" d="M406.7 891.5L409.2 859.9L375.7 853.7L376.1 902.4L373.5 851.4L411 857.4Z"/><path fill="#8d624c" d="M332 853.2L315.2 863.3L317 888.9L313 882.2L314.1 863.3L322.4 854.6Z"/><path fill="#3a2225" d="M350.7 878.8L364 878.8L362.4 886.5L344.9 887.1L341.7 869.6L345.4 862.9L368.1 853.8L371.1 873.9L358.2 877.3L356 874.4L363.7 869.2L351.2 866.6L348.5 879.1L353.9 881.6Z"/><path fill="#50322e" d="M332 853.2L344.3 857.5L332.4 862.9L337.1 864.5L336.6 871.1L336.2 865L333.1 865.8L324.4 876L327.8 883.2L337.8 884.7L327.4 891.2L320.3 884.6L335.3 898.6L320.7 894.2L313.8 881.6L316 861.7Z"/><path fill="#cd7e4f" d="M405.7 889.9L404.3 893.5L386.2 888.5L381.3 907L375.1 907.5L375.7 853.7L409.2 859.9Z"/><path fill="#6f4b3c" d="M355.9 858.1L342.3 866.7L342.9 885L340.8 864.8L344.7 857.5Z"/><path fill="#ffa668" d="M527 897.1L521.7 861.3L492.7 866.7L498.8 913.2L491 864.6L523.1 860Z"/><path fill="#cd7e4f" d="M525 895.2L517.2 884.5L503.4 891.5L510.6 916.1L503.6 927.6L504.2 945.2L520.3 956.1L510.9 957.1L500.6 945.3L492.6 867L521.7 861.3Z"/><path fill="#feba77" d="M523.2 890.9L527.3 941.4L522.5 955.1L522.8 941.7L505.4 921.2L510.6 916.1L503.4 891.5L507.2 886.6L518.1 887L512.5 884.1Z"/><path fill="#ffa668" d="M618.4 932.6L617.8 927.3L624.7 921.3L617.1 896.9L608.3 905.2L615.3 892.7L608.5 887L617.8 894L625.8 921.1Z"/><path fill="#feba77" d="M405.7 889.9L399.9 919.6L401 906.5L395.3 900.2L397.8 920.5L393 934.9L391.3 975L396.2 988.2L392.1 1018L395.9 1029.5L398.8 1026.4L404 1034.7L421.2 1027.3L423.2 1035.3L408.5 1046.6L381.6 1056.6L379.4 1044.7L383.4 1055L415.6 1041.5L419 1035.6L405.4 1043L395.2 1039.1L389 1006.7L392 995.3L382.2 975.6L383.7 938.7L369.9 938.4L376.2 935.8L374.9 930.2L364.7 929.8L362 924L364.9 940.7L359.5 926.9L366 914.5L381.3 907L386.2 888.5L404.3 893.5Z"/><path fill="#3a2225" d="M359.9 943.5L351.8 944L345 935.8L352.3 930.9L344.4 919L350.2 911.1L352.3 892.6L361.8 887.8L362.1 909.5L355.3 930.8Z"/><path fill="#ffd29a" d="M523.2 890.9L551.6 1061L507.4 1048.3L519 1051.1L512.1 1011.3L518.5 1027.1L520.5 1003L517.1 984.2L513.3 984.3L515.6 995.1L510.2 997.3L512.2 977.2L523.4 961.6L512.5 967.4L512.1 963.9L519.6 962.4L527.9 949.7Z"/><path fill="#ffd29a" d="M405.9 897L400.5 933.7L417.1 976.5L421.2 1027.3L404 1034.7L399.3 1024.3L395.9 1029.5L392.1 1018L396.2 988.2L391.3 975L393 934.9L398.2 909L399.9 919.6Z"/><path fill="#cd7e4f" d="M617.5 928.2L609.1 905L616.6 896.4L624.9 923.4Z"/><path fill="#50322e" d="M333.5 912.2L329.7 990L327.1 906.4L323.4 902.7L321.7 968.3L322.2 901.3L333.4 903.6Z"/><path fill="#3a2225" d="M328.7 969L327.9 989.7L323.1 988.8L321.3 972.7L323.5 902.5L328.3 911.3Z"/><path fill="#dc901d" d="M608.2 904.4L597.6 915.6L577.4 920.9Z"/><path fill="#8d624c" d="M333.5 912.2L333.5 982.5L329.7 990Z"/><path fill="#83470e" d="M617 927.7L615 934.3L590.3 946.9L577.7 921.3L606.1 911.1Z"/><path fill="#a5651f" d="M562 919.2L555.7 920.1L574 948.9L568.2 944.7L568.2 947.9L555.2 921.1L554.9 915Z"/><path fill="#522605" d="M562 919.2L566.5 923.2L577.1 920.2L587.3 948.4L577.4 949.1L563.6 928.4L563.4 936.1L555.7 920.1Z"/><path fill="#fdecbe" d="M402.7 924.1L416 974.2L400.5 933.7Z"/><path fill="#ffa668" d="M522.5 955.1L504.2 945.2L507.1 922.7L522.8 941.7Z"/><path fill="#cd7e4f" d="M364.7 929.8L372 939.8L383.7 938.7L382.2 975.6L385.3 976.7L383.8 982.2L379.9 978.9L378.4 992.4L381.5 985L386.5 987.2L390.2 1022.5L399.1 1045.7L383.4 1055L368.5 943.2L361 934.8L361.6 924.3Z"/><path fill="#ffa668" d="M369.9 938.4L364.7 929.8L374.6 929.7L376.2 935.8Z"/><path fill="#feba77" d="M657 1011L626.5 931.7L621.8 935.5L626.4 929.9L659.7 1007.8Z"/><path fill="#af8750" d="M657 1011L637.8 970.9L640.7 983.4L632.5 981.9L636.6 975.2L623 939.4L626 931.4Z"/><path fill="#46311a" d="M621.8 935.2L623 939.4L591.5 952.8L595.7 952.8L623.9 1025L615.2 1028L610.4 1027.3L582.4 954.4Z"/><path fill="#755a33" d="M626.9 953.8L633.1 983.5L640.7 983.4L656.4 1011.4L627 1024.4L595.7 952.8L623 939.4Z"/><path fill="#ffa668" d="M523 956.7L516.8 962.9L503.8 956.2L498.8 1037.8L507.4 1048.3L497.5 1038.4L500.9 950.6L509.7 957.3Z"/><path fill="#3a2225" d="M309.2 963.3L307.7 953L318.6 951.6L319.1 963.1Z"/><path fill="#755a33" d="M578.2 954.2L599.1 1002.5L579.4 954.5L594.8 983.9L610.4 1027.3Z"/><path fill="#cd7e4f" d="M513 962.1L512 973.2L517.2 968.7L508.9 1003L518.1 1032.9L517.8 1052L498.8 1037.8L503.8 956.2L517.7 960.1Z"/><path fill="#7d5120" d="M511.7 984.5L513.2 1022.6L508.9 1003Z"/><path fill="#ffd29a" d="M387.9 986.4L395.2 1038.2L387.3 1007.1Z"/><path fill="#feba77" d="M517.4 991.7L520.9 1008.5L518 1019.9L510 999.9L514.9 995.6L513.2 1002.8L517.9 997.9Z"/><path fill="#ca8116" d="M669.3 1011.4L637.9 1030.8L608 1030.7L634.1 1028.5L667.3 1009.1Z"/><path fill="#fbb21c" d="M664.8 1009.9L649.3 1021.9L626.1 1030.7Z"/><path fill="#cd7e4f" d="M669.3 1011.4L677.2 1035.4L675.2 1041.8L649.2 1056.3L672.8 1041.7L666.1 1017.5Z"/><path fill="#83470e" d="M666.8 1014.6L670.4 1044.2L644.9 1058.8L621.2 1060.3L637.5 1058.8L629 1033.8Z"/><path fill="#ca8116" d="M443.7 1022.2L443.9 1039.7L435.9 1058L432.5 1055.2L440.2 1045.3L442.1 1030.9L431.5 1018.3L426.2 1023.3L425.4 1016.4Z"/><path fill="#a5651f" d="M435.3 1025L442.1 1030.9L434.7 1041.7L382.5 1064.6L366.7 1065.6L417.5 1047.5L433.1 1030.3L428.7 1024.2L427.9 1030L427.8 1021.2L431.5 1018.3Z"/><path fill="#5b3511" d="M483 1028.8L496.6 1056L520.8 1067.8L502.7 1061.9L505.6 1072.3L483.3 1056.3L476.2 1044.9Z"/><path fill="#522605" d="M608 1030.7L629 1033.8L637.1 1059.4L621.7 1059.1Z"/><path fill="#000000" d="M441.5 1032.6L426.2 1051.9L391.4 1069L413 1063.2L367.7 1074.5L421.1 1053.4Z"/><path fill="#3e240c" d="M375.2 1034.4L377.6 1057.7L345.9 1062.4L334.1 1058.1L343.5 1053.7L350.7 1043Z"/><path fill="#a5651f" d="M570.1 1039.9L578.6 1050.6L577.3 1065.4L542.3 1066.6L561.9 1064.8L569.9 1057.5L566.3 1058L563.5 1046.2L551 1035.9Z"/><path fill="#ffa668" d="M397.4 1049.7L395.6 1039.8L405.4 1043L419 1035.6L415.6 1041.5Z"/><path fill="#fbb21c" d="M366.7 1065.6L349.6 1064.9L389.7 1058L429.4 1036.6L409.5 1051.6Z"/><path fill="#7d5120" d="M439.9 1038L439.3 1047.6L432.5 1055.2L435.9 1058L431.7 1073.3L431.1 1063.7L421.3 1084L399.3 1071.7L374.5 1074.4L405 1066.8L412.8 1061.8L391.4 1069L420.7 1055.3L416.8 1063Z"/><path fill="#3e240c" d="M556.8 1042.4L566.6 1056.4L556.2 1061L552.1 1042.4Z"/><path fill="#fbb21c" d="M489.8 1040.1L529.4 1060.9L552.3 1064.6L567.9 1061.9L551.8 1066.1L526.1 1061.5L502.4 1051.2Z"/><path fill="#7d5120" d="M434.7 1041.7L411.3 1058.7L369.6 1072.8L336.4 1065L333.2 1067.7L330.2 1063.6L332.3 1055.4L348.3 1044.5L335.6 1060L375.1 1066Z"/><path fill="#feba77" d="M685.6 1085.1L692 1078.1L678.6 1046.2L674.4 1047.2L679 1043L693.6 1077.5Z"/><path fill="#af8750" d="M685.6 1085.1L681.8 1080.4L685.3 1073.5L673 1048.4L678.2 1045.9L692 1078.1Z"/><path fill="#a5651f" d="M531.8 1063L521.9 1064.1L546.8 1069.6L507.9 1062L497.4 1048.1Z"/><path fill="#50322e" d="M673 1048.4L683.3 1071.5L672.5 1053.1L646.8 1064.7Z"/><path fill="#755a33" d="M683.3 1071.5L684.8 1085.2L658.8 1097.7L639.2 1098.8L631.4 1083.8L639.2 1097.2L653.6 1097.7L641.8 1067.5L672.1 1053.1Z"/><path fill="#7d5120" d="M483.3 1056.3L505.6 1072.3L502.7 1061.9L532 1069L577.3 1065.4L573.2 1073.2L558.6 1081.2L521.8 1081.9L507.1 1076.7Z"/><path fill="#3a2225" d="M621.6 1080.2L603.4 1158.2L595.4 1134.7L612.7 1069.3L612.2 1063L602.2 1091L608.3 1055.8L620.9 1065.5Z"/><path fill="#46311a" d="M661.5 1056.6L642.1 1066.6L654 1097L640.9 1097.6L629 1067.8Z"/><path fill="#dc901d" d="M531.8 1063L559.4 1067.7L541.1 1068.8L519.9 1063.1Z"/><path fill="#7d5120" d="M492.8 1071.2L485.8 1067.2L485.2 1082.4L474 1100L474.5 1117.6L471.4 1104.3L483.6 1081.7L483.2 1062.7L503.4 1077.1Z"/><path fill="#a5651f" d="M435.3 1088L425.3 1096.9L408.5 1088L420.5 1089.6L434.1 1083.6L437.5 1062.9Z"/><path fill="#a5651f" d="M432.6 1068.4L434.4 1079.5L421.4 1087.2L430.8 1064L430.6 1073.1Z"/><path fill="#3e240c" d="M369.6 1072.8L405 1076L358.8 1078.9L333.2 1067.7L336.4 1065Z"/><path fill="#6f4b3c" d="M632.9 1065.6L629.1 1068.3L642.8 1098L631.4 1083.8L625.7 1065.8Z"/><path fill="#3e240c" d="M492.8 1071.2L518.3 1085.6L546.8 1089.3L501.3 1091L496.5 1093L496.5 1100.9L510.8 1103L476.3 1116.1L473.4 1102.5L484.1 1087.5L485.8 1067.2Z"/><path fill="#5b3511" d="M421.3 1084L423.4 1087.1L413 1089.1L365.4 1080.6L401 1077.4L404.9 1074.9L384.3 1074.3L399 1071.6Z"/><path fill="#50322e" d="M607.7 1080.5L596.5 1144.4L590.7 1133.8L603.2 1080.8L602.6 1091.2Z"/><path fill="#3e240c" d="M353.3 1081L345.5 1082.9L376.3 1084.6L347.8 1084.7L346.4 1088.4L382.8 1095.8L396.8 1106.5L363.1 1094.7L334.4 1100.7L344.4 1079.4Z"/><path fill="#5b3511" d="M568.8 1086L568.2 1090L550 1086.6L549.2 1090.2L518.1 1085.4L556.1 1084.8L569 1078.6Z"/><path fill="#7d5120" d="M376.3 1084.6L383.7 1088.2L385 1096.8L344.5 1085.7Z"/><path fill="#dc901d" d="M712.9 1156.2L706.5 1159.6L710.4 1147.8L690.3 1089.3L659.1 1102L696.1 1085.2L714 1131.3Z"/><path fill="#7d5120" d="M386.8 1084.6L407.2 1092.3L399.2 1086.4L406.8 1087.4L425.3 1096.9L408.1 1094.8L411 1100.1Z"/><path fill="#a5651f" d="M379.1 1085.4L402.8 1095.9L396.5 1092.7L402.3 1101.1L385 1096.8Z"/><path fill="#ca8116" d="M568.8 1086L577.5 1103.7L575.9 1107.6L572.4 1105.6L574 1110.9L563.1 1096.4L542.8 1089.4L564.2 1095.7Z"/><path fill="#7d5120" d="M533.7 1088.3L565.1 1098L573.2 1110.7L572.4 1105.6L575.9 1107.6L577.5 1103.7L579.5 1111.5L575.4 1113.5L548.5 1102.1L498.6 1102.2L511.6 1091.3L498.9 1091.9Z"/><path fill="#96550a" d="M695 1100.4L699.7 1117L682.5 1092.2L689.6 1088.6Z"/><path fill="#5b3511" d="M498.6 1102.2L496.5 1093L511.4 1090.8Z"/><path fill="#a5651f" d="M439.6 1095.6L448.6 1116.3L446.2 1129.8L445 1116.6L434.6 1100.3L430.5 1100.3L436.8 1092Z"/><path fill="#83470e" d="M682.5 1092.2L699.1 1117L695 1100.4L710.4 1147.8L705.5 1136.2L705.3 1152.5L698 1160L679.1 1145.5L659.3 1102.9L645.1 1104.9L653.9 1126.5L642.2 1105.2L666.5 1100.9Z"/><path fill="#ca8116" d="M402.8 1095.9L411 1100.1L433.7 1095.8L430.5 1100.3L434.6 1100.3L412.3 1105.6L389.5 1098.5L401.7 1101.4L396.5 1092.7Z"/><path fill="#3e240c" d="M397.9 1116.1L395.5 1129.7L386.8 1113.5L390.4 1126.2L372.3 1102.3L377 1110L365.5 1105.2L371.8 1114.1L365.8 1111.6L367.9 1116.5L345.3 1099.9L374.9 1100.3L388.9 1106Z"/><path fill="#5b3511" d="M398.4 1102.2L421.2 1120.2L445.3 1131.7L424.3 1127.4L390 1101.7Z"/><path fill="#7d5120" d="M446.2 1129.8L421.2 1120.2L398.4 1102.2L414.4 1105.7L433.3 1102.2L445 1116.6Z"/><path fill="#96550a" d="M647.8 1102.9L642.1 1104.5L644 1110L670.2 1155.3L696.6 1168.2L684.8 1167.2L666.4 1152.7L639.9 1103.2Z"/><path fill="#522605" d="M698 1160L703.8 1161.2L703.6 1167.1L691.7 1167.7L671.2 1156.4L645.4 1104.3L659.3 1102.9L679.1 1145.5Z"/><path fill="#7d5120" d="M364.9 1114.8L375.4 1126.4L365.5 1105.5L377 1110L387.6 1125.4L387.9 1121L397.3 1142.5L394.7 1120.4L397.9 1116.1L404.6 1137.4L402.3 1150.9L374.1 1155.8L394.2 1151.8L396.9 1144.2L386.3 1150.5L370.8 1146.6L347.6 1116.1L333.1 1108.3L342.7 1103.4L351.4 1107.9L346.6 1103.1Z"/><path fill="#a5651f" d="M505.7 1119.4L533.9 1113.7L516.6 1108.6L547 1106.7L567.4 1113.2L582.1 1127.1L549.6 1117.1Z"/><path fill="#7d5120" d="M523.8 1106.9L516.6 1108.6L533.6 1114L512 1115.9L526.5 1112.7L509.1 1112.3L473.3 1124.2L481.9 1115.8L503.4 1107.8Z"/><path fill="#ffa668" d="M334.4 1112.5L311.4 1113.7L329 1117.7L342.5 1128L323.3 1116.4L303.5 1117.8L315.3 1109Z"/><path fill="#a5651f" d="M334.4 1112.5L353.3 1129.3L362.4 1144.2L355.3 1135.7L357.4 1144.5L351.6 1136.4L352.8 1144.3L331.5 1119.1L311.4 1113.7Z"/><path fill="#000000" d="M395.5 1129.7L396.7 1142L383.7 1111.2Z"/><path fill="#3e240c" d="M522 1112L495.8 1118.2L505.7 1119.4L468.6 1144.9L473.3 1124.2L478.6 1120.1Z"/><path fill="#755a33" d="M421.5 1132.3L423 1139.1L409.8 1138.7L404 1116.5Z"/><path fill="#cd7e4f" d="M319.9 1119L331.3 1127L304.7 1122.9Z"/><path fill="#a5651f" d="M555.8 1121.1L583.7 1141.3L542.6 1131.7L495.6 1132.7L512 1125.9L502 1126L520 1120.9Z"/><path fill="#5b3511" d="M528 1119.5L487.6 1131.3L497.4 1124.2Z"/><path fill="#feba77" d="M331.3 1127L342.7 1138.9L333 1151.7L321.1 1150.8L294.1 1161.9L266.7 1158.6L266 1163.4L298.1 1167.3L348 1156.4L298.1 1168.6L264.7 1164.6L258.5 1145.7L275 1143L290.7 1151.2L302.7 1146.2L281.7 1131.3L313.4 1121.9ZM293.7 1136.2L312.3 1137.2L296.8 1129.7L286.6 1133.2Z"/><path fill="#cd7e4f" d="M332.1 1124L345.3 1137L349.8 1155.7L298.1 1167.3L266 1163.4L266.1 1158.7L294.1 1161.9L321.1 1150.8L325.9 1154.1L335.9 1150L342.7 1138.9Z"/><path fill="#7d5120" d="M498.6 1129.1L496.2 1133.1L504.6 1132.7L477.7 1141.5L487.6 1131.3Z"/><path fill="#5b3511" d="M423 1139.1L421.5 1132.3L440.8 1136.8Z"/><path fill="#ca8116" d="M560 1133.8L583.7 1141.3L575.3 1132.7L580.7 1135.1L598.5 1153.1Z"/><path fill="#fdecbe" d="M584.5 1148.4L546.4 1137.2L491.9 1139.2L542.4 1135.2Z"/><path fill="#7d5120" d="M362.4 1144.2L367.7 1156.6L355.6 1155.3L350.9 1136.7L356.7 1144.7L355.3 1135.7Z"/><path fill="#5b3511" d="M367.1 1143.8L386.3 1150.5L397.1 1144.4L391.9 1152.9L367.7 1156.6L361.1 1136.8Z"/><path fill="#ffa668" d="M527.7 1136.3L528.9 1145.4L517.6 1146.8L508.9 1158.8L488.1 1148.8L465.1 1159.8L470.5 1150.2L489.3 1140.1Z"/><path fill="#96550a" d="M710.4 1147.8L709.1 1161.1L704.9 1164L698 1160L705.3 1152.5L705.5 1136.2Z"/><path fill="#feba77" d="M584.5 1148.4L600.1 1159.4L588.7 1159.8L581.6 1155.9L567.5 1158.7L558.2 1150.9L541.7 1155.9L534.7 1149L517 1148.1L528.9 1145.4L527.7 1136.3L557 1138.9Z"/><path fill="#5b3511" d="M407.5 1151.6L428.1 1149.1L410.2 1148.2L410.2 1142L446.1 1137.3L443.8 1146.8Z"/><path fill="#feba77" d="M536.4 1158.9L521.9 1152.1L512.3 1157.3L520.5 1149.5L528.1 1148.9L539.2 1156Z"/><path fill="#755a33" d="M445.4 1149.3L442.7 1160.1L430.9 1163.4L313.4 1174.3L246.1 1172.8L234.1 1163.4L237.4 1160L247.1 1168.3L295.2 1171.1L353.5 1159L384.8 1159.5Z"/><path fill="#feba77" d="M259.4 1160.3L241.3 1157L246 1164.2L258.9 1165L248.4 1166.1L240.1 1155.6L256.8 1151.6Z"/><path fill="#feba77" d="M506.6 1160.5L485.8 1156.2L468.1 1158.6L490.3 1151Z"/><path fill="#cd7e4f" d="M259.4 1160.3L250.6 1165.5L241.2 1157.3Z"/><path fill="#ffa668" d="M477.9 1159L471.8 1162.6L479.2 1167L472.8 1171.9L468.8 1163.2L461.6 1168.3L461.1 1175.8L504.4 1178.4L485.4 1181.6L460 1176.4L462.4 1166.2Z"/><path fill="#feba77" d="M504.7 1175.2L487.6 1176.9L474.3 1170.5L479.5 1166.5L475.7 1165.9L477.9 1159L504.9 1162.1Z"/><path fill="#feba77" d="M593.7 1162.7L603.6 1165L605.4 1177.6L592.5 1175.3L589.2 1162.1Z"/><path fill="#feba77" d="M540.2 1175.8L540.6 1179.4L514.9 1170.1L517.6 1175L512.6 1171.1L511.9 1179.3L509.8 1176.7L512.5 1167.2L526.3 1161.8L538.2 1163.9Z"/><path fill="#cd7e4f" d="M475 1170.8L487.6 1176.9L504.5 1177.2L469.5 1177.9L461.1 1175.8L461.6 1168.3L469 1163.2Z"/><path fill="#feba77" d="M588.5 1171.2L585.7 1175.7L572.4 1176.3L587.5 1178.4L568.3 1176.9L568.2 1168.8L574.9 1164.6L583.7 1164.7Z"/><path fill="#feba77" d="M564.8 1168.7L563.1 1181L543.9 1178.8L548.3 1166.3Z"/><path fill="#cd7e4f" d="M541.3 1179L511.9 1179.3L511 1174L512.6 1171.1L517.6 1175L514.9 1170.1Z"/><path fill="#ad7d5c" d="M561 1193.8L603.2 1188.1L608.1 1181L544.4 1184.4L611 1177.7L610.3 1184.5L603 1189.3Z"/><path fill="#6f4b3c" d="M481.5 1185.1L484.7 1189.8L470.4 1189.9L458 1178.6Z"/><path fill="#8d624c" d="M561 1193.8L473 1190.6L485.1 1189.7L481.5 1185.1L501.1 1183.7L558.4 1185.9L607.5 1180.9L603.2 1188.1Z"/></g>
</svg>
