<svg xmlns="http://www.w3.org/2000/svg" viewBox="0 0 200 132"><g transform="translate(75.926 31.296) scale(0.8722)"><g transform="translate(-60.000 0.000) rotate(-14.000 27.600 77.280) scale(0.4600)"><rect x="0" y="0" width="120" height="168" rx="8" fill="#fefefe"/><path d="M0 32.676l.164-2.018c.51-6.24 1.875-8.348 9.623-14.856 3.76-3.16 4.994-4.717 5.168-6.525.49-4.26-3.352-5.592-5.855-5.613-3.24-.03-6.91 1.91-5.16 6.414L.3 11.144c-.732-4.2.02-8.142 3.427-9.893C8.275-1.02 14.11-.13 17.05 3.46c1.98 2.414 2.43 5.746 1.368 8.355-3.1 6.67-13.62 9.605-14.49 17.318h11.63V24.84h3.428v7.907L0 32.677z" transform="matrix(2.0138 0 0 2.0138 40.821 28.054)" fill="#d40000"/><path d="M16.49.2c7.12-.476 10.832 5.638 11.557 10.455.432.766.668.55.834-.042.35-6.186 5.86-11.24 10.96-10.55 8.3.108 13.35 9.393 11.93 17.25-1.73 9.6-6.875 15.38-10.77 21.333C36.586 44.81 30.656 53.716 28.74 58c0 0-6.027-9.222-13.87-20.067-5.243-7.252-9.44-15.11-9.83-21.875-.447-7.73 2.71-14.66 11.45-15.86z" transform="matrix(0.8870 0 0 0.8870 34.374 97.556)" fill="#d40000"/></g><g transform="translate(-30.000 0.000) rotate(-7.000 27.600 77.280) scale(0.4600)"><rect x="0" y="0" width="120" height="168" rx="8" fill="#fefefe"/><path d="M0 23.89l3.22-.026c.612 1.942 1.974 3.926 3.817 4.473 5.21 1.225 8.567-1.688 9.673-5.047 1.34-4.072-.03-9.794-3.617-11.827C10.116 9.777 5.697 11.2 3.67 14.8l-2.258-1.378L2.624 0h14.73v3.172H5.416l-.187 5.59c2.56-1.802 6.51-1.783 9.08-.52 4.86 2.318 7.12 7.593 6.18 13.81-1.31 6.185-4.2 9.688-10.72 10.19-7.24.06-9.8-4.92-9.77-8.352z" transform="matrix(2.1051 0 0 2.1051 37.477 26.000)" fill="#d40000"/><path d="M16.49.2c7.12-.476 10.832 5.638 11.557 10.455.432.766.668.55.834-.042.35-6.186 5.86-11.24 10.96-10.55 8.3.108 13.35 9.393 11.93 17.25-1.73 9.6-6.875 15.38-10.77 21.333C36.586 44.81 30.656 53.716 28.74 58c0 0-6.027-9.222-13.87-20.067-5.243-7.252-9.44-15.11-9.83-21.875-.447-7.73 2.71-14.66 11.45-15.86z" transform="matrix(0.8870 0 0 0.8870 34.374 97.556)" fill="#d40000"/></g><g transform="translate(0.000 0.000) rotate(0.000 27.600 77.280) scale(0.4600)"><rect x="0" y="0" width="120" height="168" rx="8" fill="#fefefe"/><path d="M.004 23.055c.16-4.375 1.77-6.02 4.944-8.31-2.53-1.796-3.6-4.438-3.384-6.688C2.084 2.61 6.376-.115 11.05.003c4.674.12 8.703 3.763 9.018 7.722.272 3.443-.77 5.103-3.257 6.914 2.96 2.44 4.85 4.05 4.77 8.36-.07 4.31-3.8 9.43-10.31 9.59-6.51.16-11.42-5.167-11.26-9.54zm18.172.013c.28-3.96-3.288-6.635-7.312-6.676-3.923-.04-7.432 3.246-7.433 6.803 0 3.822 4.57 5.896 7.52 5.908 3.584.014 6.995-2.623 7.235-6.035zM16.89 8.898c.077-3.34-3.058-5.73-6.29-5.637-2.875.09-5.92 2.25-5.922 5.04-.003 3.49 3.462 5.23 6.417 5.3 2.68.06 5.735-2.175 5.794-4.694z" transform="matrix(2.0691 0 0 2.0691 37.744 26.238)" fill="#d40000"/><path d="M16.49.2c7.12-.476 10.832 5.638 11.557 10.455.432.766.668.55.834-.042.35-6.186 5.86-11.24 10.96-10.55 8.3.108 13.35 9.393 11.93 17.25-1.73 9.6-6.875 15.38-10.77 21.333C36.586 44.81 30.656 53.716 28.74 58c0 0-6.027-9.222-13.87-20.067-5.243-7.252-9.44-15.11-9.83-21.875-.447-7.73 2.71-14.66 11.45-15.86z" transform="matrix(0.8870 0 0 0.8870 34.374 97.556)" fill="#d40000"/></g><g transform="translate(30.000 0.000) rotate(7.000 27.600 77.280) scale(0.4600)"><rect x="0" y="0" width="120" height="168" rx="8" fill="#fefefe"/><path d="M19.876 0H9.636v3.498h3.808s-.045-.664-.012 7.14c.02 5.474.016 8.968-.05 11.267.02 3.062-.485 4.936-1.69 6.06-1.908 1.605-5.64 1.444-7.02-.066-1.022-1.19-1.238-3.46-1.177-6.13H.015s.003 1.29 0 1.97C-.588 36.34 16.28 34.2 16.82 25.42c.112-1.877.056-1.194.01-11.598-.05-11.146-.01-10.32-.01-10.32h3.056V0z" transform="matrix(1.8712 0 0 1.8712 41.954 26.000)" fill="#d40000"/><path d="M16.49.2c7.12-.476 10.832 5.638 11.557 10.455.432.766.668.55.834-.042.35-6.186 5.86-11.24 10.96-10.55 8.3.108 13.35 9.393 11.93 17.25-1.73 9.6-6.875 15.38-10.77 21.333C36.586 44.81 30.656 53.716 28.74 58c0 0-6.027-9.222-13.87-20.067-5.243-7.252-9.44-15.11-9.83-21.875-.447-7.73 2.71-14.66 11.45-15.86z" transform="matrix(0.8870 0 0 0.8870 34.374 97.556)" fill="#d40000"/></g><g transform="translate(60.000 0.000) rotate(14.000 27.600 77.280) scale(0.4600)"><rect x="0" y="0" width="120" height="168" rx="8" fill="#fefefe"/><path d="M0 0v2.87h2.937v24.98H0v3.092h8.532V27.85h-2.26v-7.086l3.426-4.75 5.14 11.835h-3.28v3.09h9.305v-3.09h-2.226l-6.814-15.22 6.474-9.81 2.4.042V0h-9.24v2.87h2.663L6.27 14.917V2.87H8.6V0z" transform="matrix(2.1977 0 0 2.1977 37.075 26.000)" fill="#d40000"/><path d="M16.49.2c7.12-.476 10.832 5.638 11.557 10.455.432.766.668.55.834-.042.35-6.186 5.86-11.24 10.96-10.55 8.3.108 13.35 9.393 11.93 17.25-1.73 9.6-6.875 15.38-10.77 21.333C36.586 44.81 30.656 53.716 28.74 58c0 0-6.027-9.222-13.87-20.067-5.243-7.252-9.44-15.11-9.83-21.875-.447-7.73 2.71-14.66 11.45-15.86z" transform="matrix(0.8870 0 0 0.8870 34.374 97.556)" fill="#d40000"/></g></g></svg>