<svg xmlns="http://www.w3.org/2000/svg" viewBox="0 0 200 132"><g transform="translate(72.400 26.713) scale(1.0000)"><g transform="translate(-45.000 0.000) rotate(-10.500 27.600 77.280) scale(0.4600)"><rect x="0" y="0" width="120" height="168" rx="8" fill="#fefefe"/><path d="M.004 23.055c.16-4.375 1.77-6.02 4.944-8.31-2.53-1.796-3.6-4.438-3.384-6.688C2.084 2.61 6.376-.115 11.05.003c4.674.12 8.703 3.763 9.018 7.722.272 3.443-.77 5.103-3.257 6.914 2.96 2.44 4.85 4.05 4.77 8.36-.07 4.31-3.8 9.43-10.31 9.59-6.51.16-11.42-5.167-11.26-9.54zm18.172.013c.28-3.96-3.288-6.635-7.312-6.676-3.923-.04-7.432 3.246-7.433 6.803 0 3.822 4.57 5.896 7.52 5.908 3.584.014 6.995-2.623 7.235-6.035zM16.89 8.898c.077-3.34-3.058-5.73-6.29-5.637-2.875.09-5.92 2.25-5.922 5.04-.003 3.49 3.462 5.23 6.417 5.3 2.68.06 5.735-2.175 5.794-4.694z" transform="matrix(2.0691 0 0 2.0691 37.744 26.238)" fill="#1a1a1a"/><path d="M20.976 57.14c2.88-5.774 4.976-11.7 5.348-18.036.342-2.33-1.074-2.37-1.288-.73C20.96 53.97-.727 49.744.02 35.08.622 23.182 12.44 20.624 18.6 24.513c2.435 1.434 2.296.575.968-.91C10.416 13.39 15.958.24 28.33 0c13.38.793 16.854 14.87 8.647 23.147-1.02.994-3.283 4.19.123 1.956 8.287-5.888 19.787.443 19.553 9.52-.434 16.74-20.84 17.987-25.203 4.007-.42-1.55-1.63-2.328-1.295.305.604 4.767 1.855 11.953 5.438 18.205H20.976z" transform="matrix(0.9100 0 0 0.9100 34.446 97.000)" fill="#1a1a1a"/></g><g transform="translate(-15.000 0.000) rotate(-3.500 27.600 77.280) scale(0.4600)"><rect x="0" y="0" width="120" height="168" rx="8" fill="#fefefe"/><path d="M.004 23.055c.16-4.375 1.77-6.02 4.944-8.31-2.53-1.796-3.6-4.438-3.384-6.688C2.084 2.61 6.376-.115 11.05.003c4.674.12 8.703 3.763 9.018 7.722.272 3.443-.77 5.103-3.257 6.914 2.96 2.44 4.85 4.05 4.77 8.36-.07 4.31-3.8 9.43-10.31 9.59-6.51.16-11.42-5.167-11.26-9.54zm18.172.013c.28-3.96-3.288-6.635-7.312-6.676-3.923-.04-7.432 3.246-7.433 6.803 0 3.822 4.57 5.896 7.52 5.908 3.584.014 6.995-2.623 7.235-6.035zM16.89 8.898c.077-3.34-3.058-5.73-6.29-5.637-2.875.09-5.92 2.25-5.922 5.04-.003 3.49 3.462 5.23 6.417 5.3 2.68.06 5.735-2.175 5.794-4.694z" transform="matrix(2.0691 0 0 2.0691 37.744 26.238)" fill="#d40000"/><path d="M28.5 0l20.112 29L28.5 58 8.388 29z" transform="matrix(0.8966 0 0 0.8966 34.448 97.000)" fill="#d40000"/></g><g transform="translate(15.000 0.000) rotate(3.500 27.600 77.280) scale(0.4600)"><rect x="0" y="0" width="120" height="168" rx="8" fill="#fefefe"/><path d="M.004 23.055c.16-4.375 1.77-6.02 4.944-8.31-2.53-1.796-3.6-4.438-3.384-6.688C2.084 2.61 6.376-.115 11.05.003c4.674.12 8.703 3.763 9.018 7.722.272 3.443-.77 5.103-3.257 6.914 2.96 2.44 4.85 4.05 4.77 8.36-.07 4.31-3.8 9.43-10.31 9.59-6.51.16-11.42-5.167-11.26-9.54zm18.172.013c.28-3.96-3.288-6.635-7.312-6.676-3.923-.04-7.432 3.246-7.433 6.803 0 3.822 4.57 5.896 7.52 5.908 3.584.014 6.995-2.623 7.235-6.035zM16.89 8.898c.077-3.34-3.058-5.73-6.29-5.637-2.875.09-5.92 2.25-5.922 5.04-.003 3.49 3.462 5.23 6.417 5.3 2.68.06 5.735-2.175 5.794-4.694z" transform="matrix(2.0691 0 0 2.0691 37.744 26.238)" fill="#d40000"/><path d="M16.49.2c7.12-.476 10.832 5.638 11.557 10.455.432.766.668.55.834-.042.35-6.186 5.86-11.24 10.96-10.55 8.3.108 13.35 9.393 11.93 17.25-1.73 9.6-6.875 15.38-10.77 21.333C36.586 44.81 30.656 53.716 28.74 58c0 0-6.027-9.222-13.87-20.067-5.243-7.252-9.44-15.11-9.83-21.875-.447-7.73 2.71-14.66 11.45-15.86z" transform="matrix(0.8870 0 0 0.8870 34.374 97.556)" fill="#d40000"/></g><g transform="translate(45.000 0.000) rotate(10.500 27.600 77.280) scale(0.4600)"><rect x="0" y="0" width="120" height="168" rx="8" fill="#fefefe"/><path d="M.004 23.055c.16-4.375 1.77-6.02 4.944-8.31-2.53-1.796-3.6-4.438-3.384-6.688C2.084 2.61 6.376-.115 11.05.003c4.674.12 8.703 3.763 9.018 7.722.272 3.443-.77 5.103-3.257 6.914 2.96 2.44 4.85 4.05 4.77 8.36-.07 4.31-3.8 9.43-10.31 9.59-6.51.16-11.42-5.167-11.26-9.54zm18.172.013c.28-3.96-3.288-6.635-7.312-6.676-3.923-.04-7.432 3.246-7.433 6.803 0 3.822 4.57 5.896 7.52 5.908 3.584.014 6.995-2.623 7.235-6.035zM16.89 8.898c.077-3.34-3.058-5.73-6.29-5.637-2.875.09-5.92 2.25-5.922 5.04-.003 3.49 3.462 5.23 6.417 5.3 2.68.06 5.735-2.175 5.794-4.694z" transform="matrix(2.0691 0 0 2.0691 37.744 26.238)" fill="#1a1a1a"/><path d="M26.406 40.187c.015-1.98-1.56-2.017-1.542-.573-.133 7.257-6.31 10.83-10.8 9.982-6.92-1.307-9.128-8.13-9.06-12.148C5.204 25.046 17.774 15.9 29.114 0c8.31 14.35 22.03 25.623 22.84 36.717 1.08 14.75-17.71 20.25-20.394 3.06-.172-1.214-1.612-1.76-1.5-.063.408 4.71-.17 6.674 5.18 18.287H21.25c3.1-5.42 4.943-12.09 5.154-17.81z" transform="matrix(0.8965 0 0 0.8965 34.014 97.000)" fill="#1a1a1a"/></g></g></svg>