<svg xmlns="http://www.w3.org/2000/svg" viewBox="0 0 200 132"><g transform="translate(75.926 31.296) scale(0.8722)"><g transform="translate(-60.000 0.000) rotate(-14.000 27.600 77.280) scale(0.4600)"><rect x="0" y="0" width="120" height="168" rx="8" fill="#fefefe"/><path d="M0 23.89l3.22-.026c.612 1.942 1.974 3.926 3.817 4.473 5.21 1.225 8.567-1.688 9.673-5.047 1.34-4.072-.03-9.794-3.617-11.827C10.116 9.777 5.697 11.2 3.67 14.8l-2.258-1.378L2.624 0h14.73v3.172H5.416l-.187 5.59c2.56-1.802 6.51-1.783 9.08-.52 4.86 2.318 7.12 7.593 6.18 13.81-1.31 6.185-4.2 9.688-10.72 10.19-7.24.06-9.8-4.92-9.77-8.352z" transform="matrix(2.1051 0 0 2.1051 37.477 26.000)" fill="#1a1a1a"/><path d="M20.976 57.14c2.88-5.774 4.976-11.7 5.348-18.036.342-2.33-1.074-2.37-1.288-.73C20.96 53.97-.727 49.744.02 35.08.622 23.182 12.44 20.624 18.6 24.513c2.435 1.434 2.296.575.968-.91C10.416 13.39 15.958.24 28.33 0c13.38.793 16.854 14.87 8.647 23.147-1.02.994-3.283 4.19.123 1.956 8.287-5.888 19.787.443 19.553 9.52-.434 16.74-20.84 17.987-25.203 4.007-.42-1.55-1.63-2.328-1.295.305.604 4.767 1.855 11.953 5.438 18.205H20.976z" transform="matrix(0.9100 0 0 0.9100 34.446 97.000)" fill="#1a1a1a"/></g><g transform="translate(-30.000 0.000) rotate(-7.000 27.600 77.280) scale(0.4600)"><rect x="0" y="0" width="120" height="168" rx="8" fill="#fefefe"/><path d="M.313 22.58c-.408-2.746-.402-9.843-.066-11.94C1.277 4.21 3.78 1.27 7.97.305c4.067-.936 9.79.105 11.044 5.48l-3.407.064c-1.84-3.64-6.495-2.66-9.115-1.09-2.094 1.262-3.04 6.52-2.635 6.843-.003 0 3.957-2.877 7.076-2.665 6.668.682 9.417 6.354 9.184 11.72-.21 6.45-2.294 11.6-9.36 11.943-6.72-.25-9.8-3.85-10.444-10.03zm16.57-1.704c.036-4.476-2.034-7.822-5.95-8.192-3.915-.368-7.863 3.382-7.59 7.942.273 4.578 2.078 8.434 6.825 8.412 5.108-.024 6.69-4.977 6.714-8.162z" transform="matrix(2.0463 0 0 2.0463 39.276 27.291)" fill="#d40000"/><path d="M28.5 0l20.112 29L28.5 58 8.388 29z" transform="matrix(0.8966 0 0 0.8966 34.448 97.000)" fill="#d40000"/></g><g transform="translate(0.000 0.000) rotate(0.000 27.600 77.280) scale(0.4600)"><rect x="0" y="0" width="120" height="168" rx="8" fill="#fefefe"/><path d="M4.98 31.887C7.114 20.8 9.39 12.477 15.36 3.44H3.227v3.892H0V0h17.754l2.188 3.44c-6.34 6.797-12.146 28.77-11.12 28.446h-3.84z" transform="matrix(2.1111 0 0 2.1111 38.950 26.000)" fill="#d40000"/><path d="M16.49.2c7.12-.476 10.832 5.638 11.557 10.455.432.766.668.55.834-.042.35-6.186 5.86-11.24 10.96-10.55 8.3.108 13.35 9.393 11.93 17.25-1.73 9.6-6.875 15.38-10.77 21.333C36.586 44.81 30.656 53.716 28.74 58c0 0-6.027-9.222-13.87-20.067-5.243-7.252-9.44-15.11-9.83-21.875-.447-7.73 2.71-14.66 11.45-15.86z" transform="matrix(0.8870 0 0 0.8870 34.374 97.556)" fill="#d40000"/></g><g transform="translate(30.000 0.000) rotate(7.000 27.600 77.280) scale(0.4600)"><rect x="0" y="0" width="120" height="168" rx="8" fill="#fefefe"/><path d="M.004 23.055c.16-4.375 1.77-6.02 4.944-8.31-2.53-1.796-3.6-4.438-3.384-6.688C2.084 2.61 6.376-.115 11.05.003c4.674.12 8.703 3.763 9.018 7.722.272 3.443-.77 5.103-3.257 6.914 2.96 2.44 4.85 4.05 4.77 8.36-.07 4.31-3.8 9.43-10.31 9.59-6.51.16-11.42-5.167-11.26-9.54zm18.172.013c.28-3.96-3.288-6.635-7.312-6.676-3.923-.04-7.432 3.246-7.433 6.803 0 3.822 4.57 5.896 7.52 5.908 3.584.014 6.995-2.623 7.235-6.035zM16.89 8.898c.077-3.34-3.058-5.73-6.29-5.637-2.875.09-5.92 2.25-5.922 5.04-.003 3.49 3.462 5.23 6.417 5.3 2.68.06 5.735-2.175 5.794-4.694z" transform="matrix(2.0691 0 0 2.0691 37.744 26.238)" fill="#1a1a1a"/><path d="M26.406 40.187c.015-1.98-1.56-2.017-1.542-.573-.133 7.257-6.31 10.83-10.8 9.982-6.92-1.307-9.128-8.13-9.06-12.148C5.204 25.046 17.774 15.9 29.114 0c8.31 14.35 22.03 25.623 22.84 36.717 1.08 14.75-17.71 20.25-20.394 3.06-.172-1.214-1.612-1.76-1.5-.063.408 4.71-.17 6.674 5.18 18.287H21.25c3.1-5.42 4.943-12.09 5.154-17.81z" transform="matrix(0.8965 0 0 0.8965 34.014 97.000)" fill="#1a1a1a"/></g><g transform="translate(60.000 0.000) rotate(14.000 27.600 77.280) scale(0.4600)"><rect x="0" y="0" width="120" height="168" rx="8" fill="#fefefe"/><path d="M.224 26.224l3.025-.942c1.14 2.995 3.45 3.88 5.89 3.688 4.38-.34 5.83-5.147 6.16-9.397-1.71 1.772-4.276 2.674-6.46 2.586C1.86 21.79.07 16.3.01 10.55-.18 5.71 1.86 2.202 5.36.592c1.855-.812 6.1-.812 7.96.15 4.283 2.217 5.867 6.05 5.58 15.19.004 7.523-1.625 16.287-9.838 16.476-4.748.644-8.352-2.98-8.838-6.184zM12.11 17.98c1.428-.887 2.23-1.717 2.868-2.963.525-1.02.703-1.553.553-3.67-.38-5.457-3.29-8.547-7.52-7.933-2.35.344-3.64 1.64-4.38 4.05-1.364 4.45.367 9.656 3.61 10.854 1.464.54 3.716.386 4.88-.338z" transform="matrix(2.0438 0 0 2.0438 40.577 26.450)" fill="#d40000"/><path d="M28.5 0l20.112 29L28.5 58 8.388 29z" transform="matrix(0.8966 0 0 0.8966 34.448 97.000)" fill="#d40000"/></g></g></svg>