<svg xmlns="http://www.w3.org/2000/svg" viewBox="0 0 200 132"><g transform="translate(72.400 27.072) scale(1.0000)"><g transform="translate(-30.000 0.000) rotate(-7.000 27.600 77.280) scale(0.4600)"><rect x="0" y="0" width="120" height="168" rx="8" fill="#fefefe"/><path d="M4.98 31.887C7.114 20.8 9.39 12.477 15.36 3.44H3.227v3.892H0V0h17.754l2.188 3.44c-6.34 6.797-12.146 28.77-11.12 28.446h-3.84z" transform="matrix(2.1111 0 0 2.1111 38.950 26.000)" fill="#1a1a1a"/><path d="M20.976 57.14c2.88-5.774 4.976-11.7 5.348-18.036.342-2.33-1.074-2.37-1.288-.73C20.96 53.97-.727 49.744.02 35.08.622 23.182 12.44 20.624 18.6 24.513c2.435 1.434 2.296.575.968-.91C10.416 13.39 15.958.24 28.33 0c13.38.793 16.854 14.87 8.647 23.147-1.02.994-3.283 4.19.123 1.956 8.287-5.888 19.787.443 19.553 9.52-.434 16.74-20.84 17.987-25.203 4.007-.42-1.55-1.63-2.328-1.295.305.604 4.767 1.855 11.953 5.438 18.205H20.976z" transform="matrix(0.9100 0 0 0.9100 34.446 97.000)" fill="#1a1a1a"/></g><g transform="translate(0.000 0.000) rotate(0.000 27.600 77.280) scale(0.4600)"><rect x="0" y="0" width="120" height="168" rx="8" fill="#fefefe"/><path d="M4.98 31.887C7.114 20.8 9.39 12.477 15.36 3.44H3.227v3.892H0V0h17.754l2.188 3.44c-6.34 6.797-12.146 28.77-11.12 28.446h-3.84z" transform="matrix(2.1111 0 0 2.1111 38.950 26.000)" fill="#d40000"/><path d="M28.5 0l20.112 29L28.5 58 8.388 29z" transform="matrix(0.8966 0 0 0.8966 34.448 97.000)" fill="#d40000"/></g><g transform="translate(30.000 0.000) rotate(7.000 27.600 77.280) scale(0.4600)"><rect x="0" y="0" width="120" height="168" rx="8" fill="#fefefe"/><path d="M4.98 31.887C7.114 20.8 9.39 12.477 15.36 3.44H3.227v3.892H0V0h17.754l2.188 3.44c-6.34 6.797-12.146 28.77-11.12 28.446h-3.84z" transform="matrix(2.1111 0 0 2.1111 38.950 26.000)" fill="#d40000"/><path d="M16.49.2c7.12-.476 10.832 5.638 11.557 10.455.432.766.668.55.834-.042.35-6.186 5.86-11.24 10.96-10.55 8.3.108 13.35 9.393 11.93 17.25-1.73 9.6-6.875 15.38-10.77 21.333C36.586 44.81 30.656 53.716 28.74 58c0 0-6.027-9.222-13.87-20.067-5.243-7.252-9.44-15.11-9.83-21.875-.447-7.73 2.71-14.66 11.45-15.86z" transform="matrix(0.8870 0 0 0.8870 34.374 97.556)" fill="#d40000"/></g></g></svg>