<svg xmlns="http://www.w3.org/2000/svg" viewBox="0 0 120 168"><defs><linearGradient id="g_diamond" x1="0" y1="0" x2="0" y2="1"><stop offset="0" stop-color="#ffffff"/><stop offset="1" stop-color="#dbe3f0"/></linearGradient></defs><rect x="0.75" y="0.75" width="118.5" height="166.5" rx="9" fill="url(#g_diamond)" stroke="#aeb9cf" stroke-width="1.5"/><g><circle cx="49.1" cy="91.4" r="0.75" fill="#a9b7d0" opacity="0.52"/><circle cx="77.7" cy="140.2" r="0.52" fill="#a9b7d0" opacity="0.51"/><circle cx="30.7" cy="28.7" r="1.0" fill="#a9b7d0" opacity="0.26"/><circle cx="73.4" cy="57.7" r="0.97" fill="#a9b7d0" opacity="0.45"/><circle cx="80.4" cy="66.9" r="0.55" fill="#a9b7d0" opacity="0.4"/><circle cx="44.6" cy="42.7" r="1.04" fill="#a9b7d0" opacity="0.52"/><circle cx="84.8" cy="74.2" r="0.7" fill="#a9b7d0" opacity="0.54"/><circle cx="92.1" cy="83.5" r="0.61" fill="#a9b7d0" opacity="0.46"/><circle cx="37.6" cy="138.8" r="0.94" fill="#a9b7d0" opacity="0.46"/><circle cx="107.2" cy="36.3" r="0.48" fill="#a9b7d0" opacity="0.27"/><circle cx="13.1" cy="130.3" r="0.69" fill="#a9b7d0" opacity="0.28"/><circle cx="45.2" cy="113.3" r="0.92" fill="#a9b7d0" opacity="0.36"/><circle cx="106.5" cy="102.8" r="0.77" fill="#a9b7d0" opacity="0.29"/><circle cx="26.1" cy="146.2" r="0.59" fill="#a9b7d0" opacity="0.45"/></g><rect x="4.6" y="4.6" width="110.8" height="158.8" rx="6" fill="none" stroke="#8fb8ee" stroke-width="3" opacity="0.28"/><rect x="4.6" y="4.6" width="110.8" height="158.8" rx="6" fill="none" stroke="#8b98b2" stroke-width="1" opacity="0.5" transform="translate(0 1.5)"/><rect x="4.6" y="4.6" width="110.8" height="158.8" rx="6" fill="none" stroke="#1565d8" stroke-width="2.2"/><rect x="4.6" y="4.6" width="110.8" height="158.8" rx="6" fill="none" stroke="#ffffff" stroke-width="0.8" opacity="0.7" transform="translate(0 -1.1)"/><path d="M58.0 0V585.242919921875Q58.0 622.1957092285156 76.108154296875 652.9897003173828Q94.21630859375 683.78369140625 125.01029968261719 701.891845703125Q155.80429077148438 720.0 192.757080078125 720.0H642.7158813476562Q679.6686706542969 720.0 710.4626617431641 701.891845703125Q741.2566528320312 683.78369140625 759.6283264160156 652.9897003173828Q778.0 622.1957092285156 778.0 585.242919921875V0H656.945068359375V246.66180419921875H178.0008544921875V0.0H58.0ZM178.0008544921875 367.189697265625H656.945068359375V581.026611328125Q656.945068359375 588.593994140625 651.5060119628906 594.0330505371094Q646.0669555664062 599.4721069335938 638.4995727539062 599.4721069335938H196.44635009765625Q188.87896728515625 599.4721069335938 183.43991088867188 594.0330505371094Q178.0008544921875 588.593994140625 178.0008544921875 581.026611328125V367.189697265625Z" transform="translate(0.8 1.1) translate(9.26 49.0) scale(0.052 -0.052)" fill="#9aa7be" opacity="0.55"/><path d="M58.0 0V585.242919921875Q58.0 622.1957092285156 76.108154296875 652.9897003173828Q94.21630859375 683.78369140625 125.01029968261719 701.891845703125Q155.80429077148438 720.0 192.757080078125 720.0H642.7158813476562Q679.6686706542969 720.0 710.4626617431641 701.891845703125Q741.2566528320312 683.78369140625 759.6283264160156 652.9897003173828Q778.0 622.1957092285156 778.0 585.242919921875V0H656.945068359375V246.66180419921875H178.0008544921875V0.0H58.0ZM178.0008544921875 367.189697265625H656.945068359375V581.026611328125Q656.945068359375 588.593994140625 651.5060119628906 594.0330505371094Q646.0669555664062 599.4721069335938 638.4995727539062 599.4721069335938H196.44635009765625Q188.87896728515625 599.4721069335938 183.43991088867188 594.0330505371094Q178.0008544921875 588.593994140625 178.0008544921875 581.026611328125V367.189697265625Z" transform="translate(9.26 49.0) scale(0.052 -0.052)" fill="#1565d8"/><path d="M28.5 0l20.112 29L28.5 58 8.388 29z" transform="translate(0.8 1.1) translate(31.00 72.0) scale(0.4237) translate(-29.0 -29.5)" fill="#9aa7be" opacity="0.55"/><path d="M28.5 0l20.112 29L28.5 58 8.388 29z" transform="translate(31.00 72.0) scale(0.4237) translate(-29.0 -29.5)" fill="#1565d8"/><path d="M28.5 0l20.112 29L28.5 58 8.388 29z" transform="translate(0.8 1.1) translate(81.00 125.0) scale(0.9153) translate(-29.0 -29.5)" fill="#9aa7be" opacity="0.55"/><path d="M28.5 0l20.112 29L28.5 58 8.388 29z" transform="translate(81.00 125.0) scale(0.9153) translate(-29.0 -29.5)" fill="#1565d8"/></svg>