<svg xmlns="http://www.w3.org/2000/svg" viewBox="0 0 120 168"><defs><linearGradient id="g_heart" x1="0" y1="0" x2="0" y2="1"><stop offset="0" stop-color="#ffffff"/><stop offset="1" stop-color="#dbe3f0"/></linearGradient></defs><rect x="0.75" y="0.75" width="118.5" height="166.5" rx="9" fill="url(#g_heart)" stroke="#aeb9cf" stroke-width="1.5"/><g><circle cx="92.2" cy="142.8" r="0.52" fill="#a9b7d0" opacity="0.51"/><circle cx="72.2" cy="114.3" r="0.69" fill="#a9b7d0" opacity="0.45"/><circle cx="66.0" cy="132.1" r="0.98" fill="#a9b7d0" opacity="0.4"/><circle cx="11.3" cy="15.8" r="0.91" fill="#a9b7d0" opacity="0.54"/><circle cx="77.3" cy="65.9" r="0.5" fill="#a9b7d0" opacity="0.52"/><circle cx="26.7" cy="25.6" r="0.49" fill="#a9b7d0" opacity="0.32"/><circle cx="103.6" cy="72.0" r="0.52" fill="#a9b7d0" opacity="0.34"/><circle cx="82.9" cy="78.9" r="0.9" fill="#a9b7d0" opacity="0.5"/><circle cx="91.3" cy="30.6" r="1.04" fill="#a9b7d0" opacity="0.38"/><circle cx="86.5" cy="40.6" r="0.82" fill="#a9b7d0" opacity="0.49"/><circle cx="40.9" cy="27.6" r="1.08" fill="#a9b7d0" opacity="0.54"/><circle cx="76.6" cy="14.8" r="0.59" fill="#a9b7d0" opacity="0.52"/><circle cx="29.3" cy="105.1" r="0.63" fill="#a9b7d0" opacity="0.5"/><circle cx="61.7" cy="26.1" r="1.05" fill="#a9b7d0" opacity="0.43"/></g><rect x="4.6" y="4.6" width="110.8" height="158.8" rx="6" fill="none" stroke="#f0a0ab" stroke-width="3" opacity="0.28"/><rect x="4.6" y="4.6" width="110.8" height="158.8" rx="6" fill="none" stroke="#8b98b2" stroke-width="1" opacity="0.5" transform="translate(0 1.5)"/><rect x="4.6" y="4.6" width="110.8" height="158.8" rx="6" fill="none" stroke="#d81f33" stroke-width="2.2"/><rect x="4.6" y="4.6" width="110.8" height="158.8" rx="6" fill="none" stroke="#ffffff" stroke-width="0.8" opacity="0.7" transform="translate(0 -1.1)"/><path d="M470.58026123046875 0.0V182.31072998046875H6.0V298.0274658203125L474.28326416015625 720.4729614257812H590.0V302.25750732421875H693.5673828125V182.31072998046875H590.0V0ZM186.8935546875 302.25750732421875H470.58026123046875V542.0120239257812Z" transform="translate(0.8 1.1) translate(12.81 49.0) scale(0.052 -0.052)" fill="#9aa7be" opacity="0.55"/><path d="M470.58026123046875 0.0V182.31072998046875H6.0V298.0274658203125L474.28326416015625 720.4729614257812H590.0V302.25750732421875H693.5673828125V182.31072998046875H590.0V0ZM186.8935546875 302.25750732421875H470.58026123046875V542.0120239257812Z" transform="translate(12.81 49.0) scale(0.052 -0.052)" fill="#d81f33"/><path d="M16.49.2c7.12-.476 10.832 5.638 11.557 10.455.432.766.668.55.834-.042.35-6.186 5.86-11.24 10.96-10.55 8.3.108 13.35 9.393 11.93 17.25-1.73 9.6-6.875 15.38-10.77 21.333C36.586 44.81 30.656 53.716 28.74 58c0 0-6.027-9.222-13.87-20.067-5.243-7.252-9.44-15.11-9.83-21.875-.447-7.73 2.71-14.66 11.45-15.86z" transform="translate(0.8 1.1) translate(31.00 72.0) scale(0.4237) translate(-29.0 -29.5)" fill="#9aa7be" opacity="0.55"/><path d="M16.49.2c7.12-.476 10.832 5.638 11.557 10.455.432.766.668.55.834-.042.35-6.186 5.86-11.24 10.96-10.55 8.3.108 13.35 9.393 11.93 17.25-1.73 9.6-6.875 15.38-10.77 21.333C36.586 44.81 30.656 53.716 28.74 58c0 0-6.027-9.222-13.87-20.067-5.243-7.252-9.44-15.11-9.83-21.875-.447-7.73 2.71-14.66 11.45-15.86z" transform="translate(31.00 72.0) scale(0.4237) translate(-29.0 -29.5)" fill="#d81f33"/><path d="M16.49.2c7.12-.476 10.832 5.638 11.557 10.455.432.766.668.55.834-.042.35-6.186 5.86-11.24 10.96-10.55 8.3.108 13.35 9.393 11.93 17.25-1.73 9.6-6.875 15.38-10.77 21.333C36.586 44.81 30.656 53.716 28.74 58c0 0-6.027-9.222-13.87-20.067-5.243-7.252-9.44-15.11-9.83-21.875-.447-7.73 2.71-14.66 11.45-15.86z" transform="translate(0.8 1.1) translate(81.00 125.0) scale(0.9153) translate(-29.0 -29.5)" fill="#9aa7be" opacity="0.55"/><path d="M16.49.2c7.12-.476 10.832 5.638 11.557 10.455.432.766.668.55.834-.042.35-6.186 5.86-11.24 10.96-10.55 8.3.108 13.35 9.393 11.93 17.25-1.73 9.6-6.875 15.38-10.77 21.333C36.586 44.81 30.656 53.716 28.74 58c0 0-6.027-9.222-13.87-20.067-5.243-7.252-9.44-15.11-9.83-21.875-.447-7.73 2.71-14.66 11.45-15.86z" transform="translate(81.00 125.0) scale(0.9153) translate(-29.0 -29.5)" fill="#d81f33"/></svg>