<svg xmlns="http://www.w3.org/2000/svg" viewBox="0 0 120 168"><defs><linearGradient id="g_heart" x1="0" y1="0" x2="0" y2="1"><stop offset="0" stop-color="#ffffff"/><stop offset="1" stop-color="#dbe3f0"/></linearGradient></defs><rect x="0.75" y="0.75" width="118.5" height="166.5" rx="9" fill="url(#g_heart)" stroke="#aeb9cf" stroke-width="1.5"/><g><circle cx="86.8" cy="35.6" r="1.09" fill="#a9b7d0" opacity="0.44"/><circle cx="75.5" cy="10.2" r="0.83" fill="#a9b7d0" opacity="0.53"/><circle cx="27.8" cy="78.3" r="0.87" fill="#a9b7d0" opacity="0.36"/><circle cx="39.6" cy="45.6" r="0.61" fill="#a9b7d0" opacity="0.55"/><circle cx="15.5" cy="66.7" r="0.54" fill="#a9b7d0" opacity="0.51"/><circle cx="10.3" cy="125.8" r="0.8" fill="#a9b7d0" opacity="0.32"/><circle cx="34.3" cy="105.4" r="0.95" fill="#a9b7d0" opacity="0.45"/><circle cx="82.0" cy="69.7" r="0.84" fill="#a9b7d0" opacity="0.36"/><circle cx="103.2" cy="62.8" r="1.1" fill="#a9b7d0" opacity="0.4"/><circle cx="92.4" cy="42.3" r="0.89" fill="#a9b7d0" opacity="0.49"/><circle cx="32.1" cy="88.3" r="0.44" fill="#a9b7d0" opacity="0.55"/><circle cx="57.7" cy="152.8" r="0.51" fill="#a9b7d0" opacity="0.26"/><circle cx="72.1" cy="36.1" r="1.0" fill="#a9b7d0" opacity="0.52"/><circle cx="67.3" cy="97.9" r="0.94" fill="#a9b7d0" opacity="0.27"/></g><rect x="4.6" y="4.6" width="110.8" height="158.8" rx="6" fill="none" stroke="#f0a0ab" stroke-width="3" opacity="0.28"/><rect x="4.6" y="4.6" width="110.8" height="158.8" rx="6" fill="none" stroke="#8b98b2" stroke-width="1" opacity="0.5" transform="translate(0 1.5)"/><rect x="4.6" y="4.6" width="110.8" height="158.8" rx="6" fill="none" stroke="#d81f33" stroke-width="2.2"/><rect x="4.6" y="4.6" width="110.8" height="158.8" rx="6" fill="none" stroke="#ffffff" stroke-width="0.8" opacity="0.7" transform="translate(0 -1.1)"/><path d="M482.9991455078125 0.0V582.6618041992188Q482.9991455078125 590.2291870117188 477.5600891113281 595.6682434082031Q472.12103271484375 601.1072998046875 464.55364990234375 601.1072998046875H3.0V721H468.76995849609375Q505.3274688720703 721.0 535.7920608520508 702.9188842773438Q566.2566528320312 684.8377685546875 584.3377685546875 654.569335594606Q602.4188842773438 624.3009026345243 602.4188842773438 586.8781127929688V0.0Z" transform="translate(0.8 1.1) translate(15.26 49.0) scale(0.052 -0.052)" fill="#9aa7be" opacity="0.55"/><path d="M482.9991455078125 0.0V582.6618041992188Q482.9991455078125 590.2291870117188 477.5600891113281 595.6682434082031Q472.12103271484375 601.1072998046875 464.55364990234375 601.1072998046875H3.0V721H468.76995849609375Q505.3274688720703 721.0 535.7920608520508 702.9188842773438Q566.2566528320312 684.8377685546875 584.3377685546875 654.569335594606Q602.4188842773438 624.3009026345243 602.4188842773438 586.8781127929688V0.0Z" transform="translate(15.26 49.0) scale(0.052 -0.052)" fill="#d81f33"/><path d="M16.49.2c7.12-.476 10.832 5.638 11.557 10.455.432.766.668.55.834-.042.35-6.186 5.86-11.24 10.96-10.55 8.3.108 13.35 9.393 11.93 17.25-1.73 9.6-6.875 15.38-10.77 21.333C36.586 44.81 30.656 53.716 28.74 58c0 0-6.027-9.222-13.87-20.067-5.243-7.252-9.44-15.11-9.83-21.875-.447-7.73 2.71-14.66 11.45-15.86z" transform="translate(0.8 1.1) translate(31.00 72.0) scale(0.4237) translate(-29.0 -29.5)" fill="#9aa7be" opacity="0.55"/><path d="M16.49.2c7.12-.476 10.832 5.638 11.557 10.455.432.766.668.55.834-.042.35-6.186 5.86-11.24 10.96-10.55 8.3.108 13.35 9.393 11.93 17.25-1.73 9.6-6.875 15.38-10.77 21.333C36.586 44.81 30.656 53.716 28.74 58c0 0-6.027-9.222-13.87-20.067-5.243-7.252-9.44-15.11-9.83-21.875-.447-7.73 2.71-14.66 11.45-15.86z" transform="translate(31.00 72.0) scale(0.4237) translate(-29.0 -29.5)" fill="#d81f33"/><path d="M16.49.2c7.12-.476 10.832 5.638 11.557 10.455.432.766.668.55.834-.042.35-6.186 5.86-11.24 10.96-10.55 8.3.108 13.35 9.393 11.93 17.25-1.73 9.6-6.875 15.38-10.77 21.333C36.586 44.81 30.656 53.716 28.74 58c0 0-6.027-9.222-13.87-20.067-5.243-7.252-9.44-15.11-9.83-21.875-.447-7.73 2.71-14.66 11.45-15.86z" transform="translate(0.8 1.1) translate(81.00 125.0) scale(0.9153) translate(-29.0 -29.5)" fill="#9aa7be" opacity="0.55"/><path d="M16.49.2c7.12-.476 10.832 5.638 11.557 10.455.432.766.668.55.834-.042.35-6.186 5.86-11.24 10.96-10.55 8.3.108 13.35 9.393 11.93 17.25-1.73 9.6-6.875 15.38-10.77 21.333C36.586 44.81 30.656 53.716 28.74 58c0 0-6.027-9.222-13.87-20.067-5.243-7.252-9.44-15.11-9.83-21.875-.447-7.73 2.71-14.66 11.45-15.86z" transform="translate(81.00 125.0) scale(0.9153) translate(-29.0 -29.5)" fill="#d81f33"/></svg>