<svg xmlns="http://www.w3.org/2000/svg" viewBox="0 0 120 168"><defs><linearGradient id="g_diamond" x1="0" y1="0" x2="0" y2="1"><stop offset="0" stop-color="#ffffff"/><stop offset="1" stop-color="#dbe3f0"/></linearGradient></defs><rect x="0.75" y="0.75" width="118.5" height="166.5" rx="9" fill="url(#g_diamond)" stroke="#aeb9cf" stroke-width="1.5"/><g><circle cx="60.6" cy="109.4" r="1.0" fill="#a9b7d0" opacity="0.32"/><circle cx="25.3" cy="110.1" r="0.64" fill="#a9b7d0" opacity="0.46"/><circle cx="95.6" cy="17.9" r="0.66" fill="#a9b7d0" opacity="0.3"/><circle cx="42.1" cy="148.8" r="0.54" fill="#a9b7d0" opacity="0.37"/><circle cx="28.5" cy="31.4" r="0.47" fill="#a9b7d0" opacity="0.26"/><circle cx="89.5" cy="112.4" r="0.64" fill="#a9b7d0" opacity="0.48"/><circle cx="103.2" cy="47.2" r="0.86" fill="#a9b7d0" opacity="0.29"/><circle cx="38.8" cy="63.7" r="0.72" fill="#a9b7d0" opacity="0.44"/><circle cx="46.5" cy="63.8" r="0.95" fill="#a9b7d0" opacity="0.36"/><circle cx="79.6" cy="120.9" r="1.03" fill="#a9b7d0" opacity="0.32"/><circle cx="34.3" cy="122.4" r="0.6" fill="#a9b7d0" opacity="0.4"/><circle cx="40.9" cy="146.0" r="0.75" fill="#a9b7d0" opacity="0.31"/><circle cx="101.3" cy="11.8" r="0.6" fill="#a9b7d0" opacity="0.45"/><circle cx="45.0" cy="129.0" r="1.09" fill="#a9b7d0" opacity="0.41"/></g><rect x="4.6" y="4.6" width="110.8" height="158.8" rx="6" fill="none" stroke="#8fb8ee" stroke-width="3" opacity="0.28"/><rect x="4.6" y="4.6" width="110.8" height="158.8" rx="6" fill="none" stroke="#8b98b2" stroke-width="1" opacity="0.5" transform="translate(0 1.5)"/><rect x="4.6" y="4.6" width="110.8" height="158.8" rx="6" fill="none" stroke="#1565d8" stroke-width="2.2"/><rect x="4.6" y="4.6" width="110.8" height="158.8" rx="6" fill="none" stroke="#ffffff" stroke-width="0.8" opacity="0.7" transform="translate(0 -1.1)"/><path d="M470.58026123046875 0.0V182.31072998046875H6.0V298.0274658203125L474.28326416015625 720.4729614257812H590.0V302.25750732421875H693.5673828125V182.31072998046875H590.0V0ZM186.8935546875 302.25750732421875H470.58026123046875V542.0120239257812Z" transform="translate(0.8 1.1) translate(12.81 49.0) scale(0.052 -0.052)" fill="#9aa7be" opacity="0.55"/><path d="M470.58026123046875 0.0V182.31072998046875H6.0V298.0274658203125L474.28326416015625 720.4729614257812H590.0V302.25750732421875H693.5673828125V182.31072998046875H590.0V0ZM186.8935546875 302.25750732421875H470.58026123046875V542.0120239257812Z" transform="translate(12.81 49.0) scale(0.052 -0.052)" fill="#1565d8"/><path d="M28.5 0l20.112 29L28.5 58 8.388 29z" transform="translate(0.8 1.1) translate(31.00 72.0) scale(0.4237) translate(-29.0 -29.5)" fill="#9aa7be" opacity="0.55"/><path d="M28.5 0l20.112 29L28.5 58 8.388 29z" transform="translate(31.00 72.0) scale(0.4237) translate(-29.0 -29.5)" fill="#1565d8"/><path d="M28.5 0l20.112 29L28.5 58 8.388 29z" transform="translate(0.8 1.1) translate(81.00 125.0) scale(0.9153) translate(-29.0 -29.5)" fill="#9aa7be" opacity="0.55"/><path d="M28.5 0l20.112 29L28.5 58 8.388 29z" transform="translate(81.00 125.0) scale(0.9153) translate(-29.0 -29.5)" fill="#1565d8"/></svg>