<svg xmlns="http://www.w3.org/2000/svg" viewBox="0 0 120 168"><defs><linearGradient id="g_heart" x1="0" y1="0" x2="0" y2="1"><stop offset="0" stop-color="#ffffff"/><stop offset="1" stop-color="#dbe3f0"/></linearGradient></defs><rect x="0.75" y="0.75" width="118.5" height="166.5" rx="9" fill="url(#g_heart)" stroke="#aeb9cf" stroke-width="1.5"/><g><circle cx="69.4" cy="129.8" r="1.06" fill="#a9b7d0" opacity="0.52"/><circle cx="83.1" cy="145.3" r="0.69" fill="#a9b7d0" opacity="0.51"/><circle cx="84.2" cy="105.4" r="0.82" fill="#a9b7d0" opacity="0.44"/><circle cx="82.4" cy="116.3" r="1.01" fill="#a9b7d0" opacity="0.35"/><circle cx="47.6" cy="136.1" r="0.57" fill="#a9b7d0" opacity="0.53"/><circle cx="109.1" cy="81.8" r="0.94" fill="#a9b7d0" opacity="0.52"/><circle cx="45.8" cy="150.8" r="0.6" fill="#a9b7d0" opacity="0.54"/><circle cx="98.7" cy="73.5" r="0.58" fill="#a9b7d0" opacity="0.34"/><circle cx="102.6" cy="125.4" r="0.58" fill="#a9b7d0" opacity="0.5"/><circle cx="16.8" cy="72.1" r="0.67" fill="#a9b7d0" opacity="0.4"/><circle cx="58.1" cy="144.3" r="0.71" fill="#a9b7d0" opacity="0.4"/><circle cx="101.6" cy="64.3" r="0.94" fill="#a9b7d0" opacity="0.31"/><circle cx="69.4" cy="134.1" r="0.82" fill="#a9b7d0" opacity="0.33"/><circle cx="86.3" cy="10.8" r="0.84" fill="#a9b7d0" opacity="0.3"/></g><rect x="4.6" y="4.6" width="110.8" height="158.8" rx="6" fill="none" stroke="#f0a0ab" stroke-width="3" opacity="0.28"/><rect x="4.6" y="4.6" width="110.8" height="158.8" rx="6" fill="none" stroke="#8b98b2" stroke-width="1" opacity="0.5" transform="translate(0 1.5)"/><rect x="4.6" y="4.6" width="110.8" height="158.8" rx="6" fill="none" stroke="#d81f33" stroke-width="2.2"/><rect x="4.6" y="4.6" width="110.8" height="158.8" rx="6" fill="none" stroke="#ffffff" stroke-width="0.8" opacity="0.7" transform="translate(0 -1.1)"/><path d="M228.4866943359375 0.0V553.6875610351562L158.595703125 469.17510986328125H1.0L211.60858154296875 720.0H348.37939453125V0.0Z M582.1759643554688 0.0Q545.0137329101562 0.0 514.6150207519531 19.6622314453125Q484.21630859375 39.324462890625 466.108154296875 71.040771484375Q448.0 102.757080078125 448.0 138.9193115234375V583.7699584960938Q448.0 620.9321899414062 466.108154296875 651.8579406738281Q484.21630859375 682.78369140625 514.6150207519531 701.391845703125Q545.0137329101562 720.0 582.1759643554688 720.0H1030.2832641601562Q1066.9725341796875 720.0 1097.3712463378906 701.391845703125Q1127.7699584960938 682.78369140625 1146.1145935058594 651.8579406738281Q1164.459228515625 620.9321899414062 1164.459228515625 583.7699584960938V138.9193115234375Q1164.459228515625 102.757080078125 1146.1145935058594 71.040771484375Q1127.7699584960938 39.324462890625 1097.3712463378906 19.6622314453125Q1066.9725341796875 0.0 1030.2832641601562 0.0H582.1759643554688ZM615.3665161132812 124.69012451171875H1026.593994140625Q1034.161376953125 124.69012451171875 1039.6004333496094 130.12918090820312Q1045.0394897460938 135.5682373046875 1045.0394897460938 143.1356201171875V481.60687255859375ZM567.4197387695312 241.0823974609375 996.6197509765625 597.9991455078125H585.865234375Q578.2978515625 597.9991455078125 572.8587951660156 592.5600891113281Q567.4197387695312 587.1210327148438 567.4197387695312 579.5536499023438Z" transform="translate(0.8 1.1) translate(9.95 49.0) scale(0.052 -0.052)" fill="#9aa7be" opacity="0.55"/><path d="M228.4866943359375 0.0V553.6875610351562L158.595703125 469.17510986328125H1.0L211.60858154296875 720.0H348.37939453125V0.0Z M582.1759643554688 0.0Q545.0137329101562 0.0 514.6150207519531 19.6622314453125Q484.21630859375 39.324462890625 466.108154296875 71.040771484375Q448.0 102.757080078125 448.0 138.9193115234375V583.7699584960938Q448.0 620.9321899414062 466.108154296875 651.8579406738281Q484.21630859375 682.78369140625 514.6150207519531 701.391845703125Q545.0137329101562 720.0 582.1759643554688 720.0H1030.2832641601562Q1066.9725341796875 720.0 1097.3712463378906 701.391845703125Q1127.7699584960938 682.78369140625 1146.1145935058594 651.8579406738281Q1164.459228515625 620.9321899414062 1164.459228515625 583.7699584960938V138.9193115234375Q1164.459228515625 102.757080078125 1146.1145935058594 71.040771484375Q1127.7699584960938 39.324462890625 1097.3712463378906 19.6622314453125Q1066.9725341796875 0.0 1030.2832641601562 0.0H582.1759643554688ZM615.3665161132812 124.69012451171875H1026.593994140625Q1034.161376953125 124.69012451171875 1039.6004333496094 130.12918090820312Q1045.0394897460938 135.5682373046875 1045.0394897460938 143.1356201171875V481.60687255859375ZM567.4197387695312 241.0823974609375 996.6197509765625 597.9991455078125H585.865234375Q578.2978515625 597.9991455078125 572.8587951660156 592.5600891113281Q567.4197387695312 587.1210327148438 567.4197387695312 579.5536499023438Z" transform="translate(9.95 49.0) scale(0.052 -0.052)" fill="#d81f33"/><path d="M16.49.2c7.12-.476 10.832 5.638 11.557 10.455.432.766.668.55.834-.042.35-6.186 5.86-11.24 10.96-10.55 8.3.108 13.35 9.393 11.93 17.25-1.73 9.6-6.875 15.38-10.77 21.333C36.586 44.81 30.656 53.716 28.74 58c0 0-6.027-9.222-13.87-20.067-5.243-7.252-9.44-15.11-9.83-21.875-.447-7.73 2.71-14.66 11.45-15.86z" transform="translate(0.8 1.1) translate(31.00 72.0) scale(0.4237) translate(-29.0 -29.5)" fill="#9aa7be" opacity="0.55"/><path d="M16.49.2c7.12-.476 10.832 5.638 11.557 10.455.432.766.668.55.834-.042.35-6.186 5.86-11.24 10.96-10.55 8.3.108 13.35 9.393 11.93 17.25-1.73 9.6-6.875 15.38-10.77 21.333C36.586 44.81 30.656 53.716 28.74 58c0 0-6.027-9.222-13.87-20.067-5.243-7.252-9.44-15.11-9.83-21.875-.447-7.73 2.71-14.66 11.45-15.86z" transform="translate(31.00 72.0) scale(0.4237) translate(-29.0 -29.5)" fill="#d81f33"/><path d="M16.49.2c7.12-.476 10.832 5.638 11.557 10.455.432.766.668.55.834-.042.35-6.186 5.86-11.24 10.96-10.55 8.3.108 13.35 9.393 11.93 17.25-1.73 9.6-6.875 15.38-10.77 21.333C36.586 44.81 30.656 53.716 28.74 58c0 0-6.027-9.222-13.87-20.067-5.243-7.252-9.44-15.11-9.83-21.875-.447-7.73 2.71-14.66 11.45-15.86z" transform="translate(0.8 1.1) translate(81.00 125.0) scale(0.9153) translate(-29.0 -29.5)" fill="#9aa7be" opacity="0.55"/><path d="M16.49.2c7.12-.476 10.832 5.638 11.557 10.455.432.766.668.55.834-.042.35-6.186 5.86-11.24 10.96-10.55 8.3.108 13.35 9.393 11.93 17.25-1.73 9.6-6.875 15.38-10.77 21.333C36.586 44.81 30.656 53.716 28.74 58c0 0-6.027-9.222-13.87-20.067-5.243-7.252-9.44-15.11-9.83-21.875-.447-7.73 2.71-14.66 11.45-15.86z" transform="translate(81.00 125.0) scale(0.9153) translate(-29.0 -29.5)" fill="#d81f33"/></svg>