<svg xmlns="http://www.w3.org/2000/svg" viewBox="0 0 120 168"><defs><linearGradient id="g_heart" x1="0" y1="0" x2="0" y2="1"><stop offset="0" stop-color="#ffffff"/><stop offset="1" stop-color="#dbe3f0"/></linearGradient></defs><rect x="0.75" y="0.75" width="118.5" height="166.5" rx="9" fill="url(#g_heart)" stroke="#aeb9cf" stroke-width="1.5"/><g><circle cx="26.1" cy="70.6" r="0.75" fill="#a9b7d0" opacity="0.48"/><circle cx="52.8" cy="75.0" r="0.97" fill="#a9b7d0" opacity="0.54"/><circle cx="29.2" cy="77.3" r="0.41" fill="#a9b7d0" opacity="0.42"/><circle cx="86.8" cy="137.8" r="0.98" fill="#a9b7d0" opacity="0.49"/><circle cx="13.6" cy="114.5" r="0.46" fill="#a9b7d0" opacity="0.3"/><circle cx="71.4" cy="142.4" r="0.7" fill="#a9b7d0" opacity="0.42"/><circle cx="18.6" cy="98.5" r="0.71" fill="#a9b7d0" opacity="0.4"/><circle cx="44.3" cy="93.1" r="0.72" fill="#a9b7d0" opacity="0.37"/><circle cx="60.1" cy="135.4" r="0.7" fill="#a9b7d0" opacity="0.29"/><circle cx="80.4" cy="47.7" r="1.07" fill="#a9b7d0" opacity="0.28"/><circle cx="84.0" cy="100.6" r="0.65" fill="#a9b7d0" opacity="0.37"/><circle cx="24.1" cy="13.6" r="1.05" fill="#a9b7d0" opacity="0.48"/><circle cx="60.6" cy="131.4" r="0.47" fill="#a9b7d0" opacity="0.38"/><circle cx="9.3" cy="21.5" r="1.02" fill="#a9b7d0" opacity="0.49"/></g><rect x="4.6" y="4.6" width="110.8" height="158.8" rx="6" fill="none" stroke="#f0a0ab" stroke-width="3" opacity="0.28"/><rect x="4.6" y="4.6" width="110.8" height="158.8" rx="6" fill="none" stroke="#8b98b2" stroke-width="1" opacity="0.5" transform="translate(0 1.5)"/><rect x="4.6" y="4.6" width="110.8" height="158.8" rx="6" fill="none" stroke="#d81f33" stroke-width="2.2"/><rect x="4.6" y="4.6" width="110.8" height="158.8" rx="6" fill="none" stroke="#ffffff" stroke-width="0.8" opacity="0.7" transform="translate(0 -1.1)"/><path d="M138.757080078125 0.0Q101.80429077148438 0.0 71.01029968261719 18.108154296875Q40.21630859375 36.21630859375 22.108154296875 67.01029968261719Q4.0 97.80429077148438 4.0 134.757080078125V210.73046875H124.0008544921875V138.973388671875Q124.0008544921875 131.406005859375 129.43991088867188 125.96694946289062Q134.87896728515625 120.52789306640625 142.44635009765625 120.52789306640625H584.4995727539062Q592.0669555664062 120.52789306640625 597.5060119628906 125.96694946289062Q602.945068359375 131.406005859375 602.945068359375 138.973388671875V720.0H724.0V134.757080078125Q724.0 97.80429077148438 705.6283264160156 67.01029968261719Q687.2566528320312 36.21630859375 656.6273612976074 18.108154296875Q625.9980697631836 0.0 589.242919921875 0.0Z" transform="translate(0.8 1.1) translate(12.07 49.0) scale(0.052 -0.052)" fill="#9aa7be" opacity="0.55"/><path d="M138.757080078125 0.0Q101.80429077148438 0.0 71.01029968261719 18.108154296875Q40.21630859375 36.21630859375 22.108154296875 67.01029968261719Q4.0 97.80429077148438 4.0 134.757080078125V210.73046875H124.0008544921875V138.973388671875Q124.0008544921875 131.406005859375 129.43991088867188 125.96694946289062Q134.87896728515625 120.52789306640625 142.44635009765625 120.52789306640625H584.4995727539062Q592.0669555664062 120.52789306640625 597.5060119628906 125.96694946289062Q602.945068359375 131.406005859375 602.945068359375 138.973388671875V720.0H724.0V134.757080078125Q724.0 97.80429077148438 705.6283264160156 67.01029968261719Q687.2566528320312 36.21630859375 656.6273612976074 18.108154296875Q625.9980697631836 0.0 589.242919921875 0.0Z" transform="translate(12.07 49.0) scale(0.052 -0.052)" fill="#d81f33"/><path d="M16.49.2c7.12-.476 10.832 5.638 11.557 10.455.432.766.668.55.834-.042.35-6.186 5.86-11.24 10.96-10.55 8.3.108 13.35 9.393 11.93 17.25-1.73 9.6-6.875 15.38-10.77 21.333C36.586 44.81 30.656 53.716 28.74 58c0 0-6.027-9.222-13.87-20.067-5.243-7.252-9.44-15.11-9.83-21.875-.447-7.73 2.71-14.66 11.45-15.86z" transform="translate(0.8 1.1) translate(31.00 72.0) scale(0.4237) translate(-29.0 -29.5)" fill="#9aa7be" opacity="0.55"/><path d="M16.49.2c7.12-.476 10.832 5.638 11.557 10.455.432.766.668.55.834-.042.35-6.186 5.86-11.24 10.96-10.55 8.3.108 13.35 9.393 11.93 17.25-1.73 9.6-6.875 15.38-10.77 21.333C36.586 44.81 30.656 53.716 28.74 58c0 0-6.027-9.222-13.87-20.067-5.243-7.252-9.44-15.11-9.83-21.875-.447-7.73 2.71-14.66 11.45-15.86z" transform="translate(31.00 72.0) scale(0.4237) translate(-29.0 -29.5)" fill="#d81f33"/><path d="M16.49.2c7.12-.476 10.832 5.638 11.557 10.455.432.766.668.55.834-.042.35-6.186 5.86-11.24 10.96-10.55 8.3.108 13.35 9.393 11.93 17.25-1.73 9.6-6.875 15.38-10.77 21.333C36.586 44.81 30.656 53.716 28.74 58c0 0-6.027-9.222-13.87-20.067-5.243-7.252-9.44-15.11-9.83-21.875-.447-7.73 2.71-14.66 11.45-15.86z" transform="translate(0.8 1.1) translate(81.00 125.0) scale(0.9153) translate(-29.0 -29.5)" fill="#9aa7be" opacity="0.55"/><path d="M16.49.2c7.12-.476 10.832 5.638 11.557 10.455.432.766.668.55.834-.042.35-6.186 5.86-11.24 10.96-10.55 8.3.108 13.35 9.393 11.93 17.25-1.73 9.6-6.875 15.38-10.77 21.333C36.586 44.81 30.656 53.716 28.74 58c0 0-6.027-9.222-13.87-20.067-5.243-7.252-9.44-15.11-9.83-21.875-.447-7.73 2.71-14.66 11.45-15.86z" transform="translate(81.00 125.0) scale(0.9153) translate(-29.0 -29.5)" fill="#d81f33"/></svg>