<svg xmlns="http://www.w3.org/2000/svg" viewBox="0 0 120 168"><defs><linearGradient id="g_heart" x1="0" y1="0" x2="0" y2="1"><stop offset="0" stop-color="#ffffff"/><stop offset="1" stop-color="#dbe3f0"/></linearGradient></defs><rect x="0.75" y="0.75" width="118.5" height="166.5" rx="9" fill="url(#g_heart)" stroke="#aeb9cf" stroke-width="1.5"/><g><circle cx="94.6" cy="73.8" r="0.63" fill="#a9b7d0" opacity="0.51"/><circle cx="27.1" cy="121.7" r="0.99" fill="#a9b7d0" opacity="0.32"/><circle cx="54.1" cy="132.6" r="0.86" fill="#a9b7d0" opacity="0.28"/><circle cx="77.0" cy="56.2" r="0.97" fill="#a9b7d0" opacity="0.4"/><circle cx="48.6" cy="59.8" r="0.65" fill="#a9b7d0" opacity="0.4"/><circle cx="69.9" cy="119.5" r="0.73" fill="#a9b7d0" opacity="0.51"/><circle cx="12.4" cy="12.8" r="0.41" fill="#a9b7d0" opacity="0.3"/><circle cx="20.8" cy="53.7" r="0.91" fill="#a9b7d0" opacity="0.41"/><circle cx="64.0" cy="150.1" r="1.05" fill="#a9b7d0" opacity="0.31"/><circle cx="105.3" cy="14.2" r="0.48" fill="#a9b7d0" opacity="0.48"/><circle cx="104.2" cy="106.1" r="0.8" fill="#a9b7d0" opacity="0.52"/><circle cx="101.6" cy="13.0" r="0.94" fill="#a9b7d0" opacity="0.29"/><circle cx="84.7" cy="136.1" r="0.78" fill="#a9b7d0" opacity="0.46"/><circle cx="80.8" cy="136.2" r="0.86" fill="#a9b7d0" opacity="0.31"/></g><rect x="4.6" y="4.6" width="110.8" height="158.8" rx="6" fill="none" stroke="#f0a0ab" stroke-width="3" opacity="0.28"/><rect x="4.6" y="4.6" width="110.8" height="158.8" rx="6" fill="none" stroke="#8b98b2" stroke-width="1" opacity="0.5" transform="translate(0 1.5)"/><rect x="4.6" y="4.6" width="110.8" height="158.8" rx="6" fill="none" stroke="#d81f33" stroke-width="2.2"/><rect x="4.6" y="4.6" width="110.8" height="158.8" rx="6" fill="none" stroke="#ffffff" stroke-width="0.8" opacity="0.7" transform="translate(0 -1.1)"/><path d="M57.0 0V720H178.0008544921875V420.50042724609375H362.04034423828125L613.1751098632812 720.0H747.7433471679688V691.0669555664062L469.93304443359375 360.0L748.21630859375 28.93304443359375V0.0H613.1751098632812L362.04034423828125 299.49957275390625H178.0008544921875V0.0Z" transform="translate(0.8 1.1) translate(10.06 49.0) scale(0.052 -0.052)" fill="#9aa7be" opacity="0.55"/><path d="M57.0 0V720H178.0008544921875V420.50042724609375H362.04034423828125L613.1751098632812 720.0H747.7433471679688V691.0669555664062L469.93304443359375 360.0L748.21630859375 28.93304443359375V0.0H613.1751098632812L362.04034423828125 299.49957275390625H178.0008544921875V0.0Z" transform="translate(10.06 49.0) scale(0.052 -0.052)" fill="#d81f33"/><path d="M16.49.2c7.12-.476 10.832 5.638 11.557 10.455.432.766.668.55.834-.042.35-6.186 5.86-11.24 10.96-10.55 8.3.108 13.35 9.393 11.93 17.25-1.73 9.6-6.875 15.38-10.77 21.333C36.586 44.81 30.656 53.716 28.74 58c0 0-6.027-9.222-13.87-20.067-5.243-7.252-9.44-15.11-9.83-21.875-.447-7.73 2.71-14.66 11.45-15.86z" transform="translate(0.8 1.1) translate(31.00 72.0) scale(0.4237) translate(-29.0 -29.5)" fill="#9aa7be" opacity="0.55"/><path d="M16.49.2c7.12-.476 10.832 5.638 11.557 10.455.432.766.668.55.834-.042.35-6.186 5.86-11.24 10.96-10.55 8.3.108 13.35 9.393 11.93 17.25-1.73 9.6-6.875 15.38-10.77 21.333C36.586 44.81 30.656 53.716 28.74 58c0 0-6.027-9.222-13.87-20.067-5.243-7.252-9.44-15.11-9.83-21.875-.447-7.73 2.71-14.66 11.45-15.86z" transform="translate(31.00 72.0) scale(0.4237) translate(-29.0 -29.5)" fill="#d81f33"/><path d="M16.49.2c7.12-.476 10.832 5.638 11.557 10.455.432.766.668.55.834-.042.35-6.186 5.86-11.24 10.96-10.55 8.3.108 13.35 9.393 11.93 17.25-1.73 9.6-6.875 15.38-10.77 21.333C36.586 44.81 30.656 53.716 28.74 58c0 0-6.027-9.222-13.87-20.067-5.243-7.252-9.44-15.11-9.83-21.875-.447-7.73 2.71-14.66 11.45-15.86z" transform="translate(0.8 1.1) translate(81.00 125.0) scale(0.9153) translate(-29.0 -29.5)" fill="#9aa7be" opacity="0.55"/><path d="M16.49.2c7.12-.476 10.832 5.638 11.557 10.455.432.766.668.55.834-.042.35-6.186 5.86-11.24 10.96-10.55 8.3.108 13.35 9.393 11.93 17.25-1.73 9.6-6.875 15.38-10.77 21.333C36.586 44.81 30.656 53.716 28.74 58c0 0-6.027-9.222-13.87-20.067-5.243-7.252-9.44-15.11-9.83-21.875-.447-7.73 2.71-14.66 11.45-15.86z" transform="translate(81.00 125.0) scale(0.9153) translate(-29.0 -29.5)" fill="#d81f33"/></svg>