<svg xmlns="http://www.w3.org/2000/svg" viewBox="0 0 120 168"><defs><linearGradient id="g_heart" x1="0" y1="0" x2="0" y2="1"><stop offset="0" stop-color="#ffffff"/><stop offset="1" stop-color="#dbe3f0"/></linearGradient></defs><rect x="0.75" y="0.75" width="118.5" height="166.5" rx="9" fill="url(#g_heart)" stroke="#aeb9cf" stroke-width="1.5"/><g><circle cx="56.8" cy="149.3" r="0.73" fill="#a9b7d0" opacity="0.27"/><circle cx="107.0" cy="90.6" r="1.05" fill="#a9b7d0" opacity="0.36"/><circle cx="13.3" cy="77.7" r="0.84" fill="#a9b7d0" opacity="0.34"/><circle cx="32.3" cy="74.0" r="0.94" fill="#a9b7d0" opacity="0.28"/><circle cx="57.9" cy="12.9" r="0.53" fill="#a9b7d0" opacity="0.43"/><circle cx="96.6" cy="44.1" r="0.6" fill="#a9b7d0" opacity="0.5"/><circle cx="95.8" cy="111.8" r="0.86" fill="#a9b7d0" opacity="0.36"/><circle cx="74.3" cy="122.5" r="0.42" fill="#a9b7d0" opacity="0.48"/><circle cx="105.0" cy="19.0" r="1.0" fill="#a9b7d0" opacity="0.49"/><circle cx="59.5" cy="95.6" r="0.95" fill="#a9b7d0" opacity="0.32"/><circle cx="62.6" cy="72.6" r="0.82" fill="#a9b7d0" opacity="0.54"/><circle cx="51.5" cy="39.5" r="0.85" fill="#a9b7d0" opacity="0.48"/><circle cx="25.0" cy="122.9" r="0.54" fill="#a9b7d0" opacity="0.51"/><circle cx="99.8" cy="19.1" r="0.7" fill="#a9b7d0" opacity="0.52"/></g><rect x="4.6" y="4.6" width="110.8" height="158.8" rx="6" fill="none" stroke="#f0a0ab" stroke-width="3" opacity="0.28"/><rect x="4.6" y="4.6" width="110.8" height="158.8" rx="6" fill="none" stroke="#8b98b2" stroke-width="1" opacity="0.5" transform="translate(0 1.5)"/><rect x="4.6" y="4.6" width="110.8" height="158.8" rx="6" fill="none" stroke="#d81f33" stroke-width="2.2"/><rect x="4.6" y="4.6" width="110.8" height="158.8" rx="6" fill="none" stroke="#ffffff" stroke-width="0.8" opacity="0.7" transform="translate(0 -1.1)"/><path d="M58.0 0V585.242919921875Q58.0 622.1957092285156 76.108154296875 652.9897003173828Q94.21630859375 683.78369140625 125.01029968261719 701.891845703125Q155.80429077148438 720.0 192.757080078125 720.0H642.7158813476562Q679.6686706542969 720.0 710.4626617431641 701.891845703125Q741.2566528320312 683.78369140625 759.6283264160156 652.9897003173828Q778.0 622.1957092285156 778.0 585.242919921875V0H656.945068359375V246.66180419921875H178.0008544921875V0.0H58.0ZM178.0008544921875 367.189697265625H656.945068359375V581.026611328125Q656.945068359375 588.593994140625 651.5060119628906 594.0330505371094Q646.0669555664062 599.4721069335938 638.4995727539062 599.4721069335938H196.44635009765625Q188.87896728515625 599.4721069335938 183.43991088867188 594.0330505371094Q178.0008544921875 588.593994140625 178.0008544921875 581.026611328125V367.189697265625Z" transform="translate(0.8 1.1) translate(9.26 49.0) scale(0.052 -0.052)" fill="#9aa7be" opacity="0.55"/><path d="M58.0 0V585.242919921875Q58.0 622.1957092285156 76.108154296875 652.9897003173828Q94.21630859375 683.78369140625 125.01029968261719 701.891845703125Q155.80429077148438 720.0 192.757080078125 720.0H642.7158813476562Q679.6686706542969 720.0 710.4626617431641 701.891845703125Q741.2566528320312 683.78369140625 759.6283264160156 652.9897003173828Q778.0 622.1957092285156 778.0 585.242919921875V0H656.945068359375V246.66180419921875H178.0008544921875V0.0H58.0ZM178.0008544921875 367.189697265625H656.945068359375V581.026611328125Q656.945068359375 588.593994140625 651.5060119628906 594.0330505371094Q646.0669555664062 599.4721069335938 638.4995727539062 599.4721069335938H196.44635009765625Q188.87896728515625 599.4721069335938 183.43991088867188 594.0330505371094Q178.0008544921875 588.593994140625 178.0008544921875 581.026611328125V367.189697265625Z" transform="translate(9.26 49.0) scale(0.052 -0.052)" fill="#d81f33"/><path d="M16.49.2c7.12-.476 10.832 5.638 11.557 10.455.432.766.668.55.834-.042.35-6.186 5.86-11.24 10.96-10.55 8.3.108 13.35 9.393 11.93 17.25-1.73 9.6-6.875 15.38-10.77 21.333C36.586 44.81 30.656 53.716 28.74 58c0 0-6.027-9.222-13.87-20.067-5.243-7.252-9.44-15.11-9.83-21.875-.447-7.73 2.71-14.66 11.45-15.86z" transform="translate(0.8 1.1) translate(31.00 72.0) scale(0.4237) translate(-29.0 -29.5)" fill="#9aa7be" opacity="0.55"/><path d="M16.49.2c7.12-.476 10.832 5.638 11.557 10.455.432.766.668.55.834-.042.35-6.186 5.86-11.24 10.96-10.55 8.3.108 13.35 9.393 11.93 17.25-1.73 9.6-6.875 15.38-10.77 21.333C36.586 44.81 30.656 53.716 28.74 58c0 0-6.027-9.222-13.87-20.067-5.243-7.252-9.44-15.11-9.83-21.875-.447-7.73 2.71-14.66 11.45-15.86z" transform="translate(31.00 72.0) scale(0.4237) translate(-29.0 -29.5)" fill="#d81f33"/><path d="M16.49.2c7.12-.476 10.832 5.638 11.557 10.455.432.766.668.55.834-.042.35-6.186 5.86-11.24 10.96-10.55 8.3.108 13.35 9.393 11.93 17.25-1.73 9.6-6.875 15.38-10.77 21.333C36.586 44.81 30.656 53.716 28.74 58c0 0-6.027-9.222-13.87-20.067-5.243-7.252-9.44-15.11-9.83-21.875-.447-7.73 2.71-14.66 11.45-15.86z" transform="translate(0.8 1.1) translate(81.00 125.0) scale(0.9153) translate(-29.0 -29.5)" fill="#9aa7be" opacity="0.55"/><path d="M16.49.2c7.12-.476 10.832 5.638 11.557 10.455.432.766.668.55.834-.042.35-6.186 5.86-11.24 10.96-10.55 8.3.108 13.35 9.393 11.93 17.25-1.73 9.6-6.875 15.38-10.77 21.333C36.586 44.81 30.656 53.716 28.74 58c0 0-6.027-9.222-13.87-20.067-5.243-7.252-9.44-15.11-9.83-21.875-.447-7.73 2.71-14.66 11.45-15.86z" transform="translate(81.00 125.0) scale(0.9153) translate(-29.0 -29.5)" fill="#d81f33"/></svg>