<svg xmlns="http://www.w3.org/2000/svg" viewBox="0 0 120 168"><defs><linearGradient id="g_spade" x1="0" y1="0" x2="0" y2="1"><stop offset="0" stop-color="#ffffff"/><stop offset="1" stop-color="#dbe3f0"/></linearGradient></defs><rect x="0.75" y="0.75" width="118.5" height="166.5" rx="9" fill="url(#g_spade)" stroke="#aeb9cf" stroke-width="1.5"/><g><circle cx="23.1" cy="12.4" r="0.7" fill="#a9b7d0" opacity="0.27"/><circle cx="89.0" cy="97.0" r="0.58" fill="#a9b7d0" opacity="0.29"/><circle cx="33.7" cy="40.9" r="0.66" fill="#a9b7d0" opacity="0.53"/><circle cx="101.9" cy="65.2" r="0.48" fill="#a9b7d0" opacity="0.51"/><circle cx="23.7" cy="81.5" r="0.91" fill="#a9b7d0" opacity="0.44"/><circle cx="101.3" cy="45.6" r="0.75" fill="#a9b7d0" opacity="0.53"/><circle cx="77.1" cy="93.1" r="0.96" fill="#a9b7d0" opacity="0.54"/><circle cx="96.9" cy="108.4" r="1.0" fill="#a9b7d0" opacity="0.38"/><circle cx="57.2" cy="84.5" r="0.68" fill="#a9b7d0" opacity="0.31"/><circle cx="36.6" cy="107.7" r="0.99" fill="#a9b7d0" opacity="0.27"/><circle cx="34.6" cy="40.2" r="0.79" fill="#a9b7d0" opacity="0.29"/><circle cx="32.8" cy="44.7" r="1.02" fill="#a9b7d0" opacity="0.52"/><circle cx="68.9" cy="135.1" r="0.76" fill="#a9b7d0" opacity="0.48"/><circle cx="91.3" cy="67.7" r="0.5" fill="#a9b7d0" opacity="0.53"/></g><rect x="4.6" y="4.6" width="110.8" height="158.8" rx="6" fill="none" stroke="#9aa4b3" stroke-width="3" opacity="0.28"/><rect x="4.6" y="4.6" width="110.8" height="158.8" rx="6" fill="none" stroke="#8b98b2" stroke-width="1" opacity="0.5" transform="translate(0 1.5)"/><rect x="4.6" y="4.6" width="110.8" height="158.8" rx="6" fill="none" stroke="#14171d" stroke-width="2.2"/><rect x="4.6" y="4.6" width="110.8" height="158.8" rx="6" fill="none" stroke="#ffffff" stroke-width="0.8" opacity="0.7" transform="translate(0 -1.1)"/><path d="M470.58026123046875 0.0V182.31072998046875H6.0V298.0274658203125L474.28326416015625 720.4729614257812H590.0V302.25750732421875H693.5673828125V182.31072998046875H590.0V0ZM186.8935546875 302.25750732421875H470.58026123046875V542.0120239257812Z" transform="translate(0.8 1.1) translate(12.81 49.0) scale(0.052 -0.052)" fill="#9aa7be" opacity="0.55"/><path d="M470.58026123046875 0.0V182.31072998046875H6.0V298.0274658203125L474.28326416015625 720.4729614257812H590.0V302.25750732421875H693.5673828125V182.31072998046875H590.0V0ZM186.8935546875 302.25750732421875H470.58026123046875V542.0120239257812Z" transform="translate(12.81 49.0) scale(0.052 -0.052)" fill="#14171d"/><path d="M26.406 40.187c.015-1.98-1.56-2.017-1.542-.573-.133 7.257-6.31 10.83-10.8 9.982-6.92-1.307-9.128-8.13-9.06-12.148C5.204 25.046 17.774 15.9 29.114 0c8.31 14.35 22.03 25.623 22.84 36.717 1.08 14.75-17.71 20.25-20.394 3.06-.172-1.214-1.612-1.76-1.5-.063.408 4.71-.17 6.674 5.18 18.287H21.25c3.1-5.42 4.943-12.09 5.154-17.81z" transform="translate(0.8 1.1) translate(31.00 72.0) scale(0.4237) translate(-29.0 -29.5)" fill="#9aa7be" opacity="0.55"/><path d="M26.406 40.187c.015-1.98-1.56-2.017-1.542-.573-.133 7.257-6.31 10.83-10.8 9.982-6.92-1.307-9.128-8.13-9.06-12.148C5.204 25.046 17.774 15.9 29.114 0c8.31 14.35 22.03 25.623 22.84 36.717 1.08 14.75-17.71 20.25-20.394 3.06-.172-1.214-1.612-1.76-1.5-.063.408 4.71-.17 6.674 5.18 18.287H21.25c3.1-5.42 4.943-12.09 5.154-17.81z" transform="translate(31.00 72.0) scale(0.4237) translate(-29.0 -29.5)" fill="#14171d"/><path d="M26.406 40.187c.015-1.98-1.56-2.017-1.542-.573-.133 7.257-6.31 10.83-10.8 9.982-6.92-1.307-9.128-8.13-9.06-12.148C5.204 25.046 17.774 15.9 29.114 0c8.31 14.35 22.03 25.623 22.84 36.717 1.08 14.75-17.71 20.25-20.394 3.06-.172-1.214-1.612-1.76-1.5-.063.408 4.71-.17 6.674 5.18 18.287H21.25c3.1-5.42 4.943-12.09 5.154-17.81z" transform="translate(0.8 1.1) translate(81.00 125.0) scale(0.9153) translate(-29.0 -29.5)" fill="#9aa7be" opacity="0.55"/><path d="M26.406 40.187c.015-1.98-1.56-2.017-1.542-.573-.133 7.257-6.31 10.83-10.8 9.982-6.92-1.307-9.128-8.13-9.06-12.148C5.204 25.046 17.774 15.9 29.114 0c8.31 14.35 22.03 25.623 22.84 36.717 1.08 14.75-17.71 20.25-20.394 3.06-.172-1.214-1.612-1.76-1.5-.063.408 4.71-.17 6.674 5.18 18.287H21.25c3.1-5.42 4.943-12.09 5.154-17.81z" transform="translate(81.00 125.0) scale(0.9153) translate(-29.0 -29.5)" fill="#14171d"/></svg>