<svg xmlns="http://www.w3.org/2000/svg" viewBox="0 0 120 168"><defs><linearGradient id="g_spade" x1="0" y1="0" x2="0" y2="1"><stop offset="0" stop-color="#ffffff"/><stop offset="1" stop-color="#dbe3f0"/></linearGradient></defs><rect x="0.75" y="0.75" width="118.5" height="166.5" rx="9" fill="url(#g_spade)" stroke="#aeb9cf" stroke-width="1.5"/><g><circle cx="28.0" cy="82.0" r="0.69" fill="#a9b7d0" opacity="0.38"/><circle cx="100.2" cy="78.3" r="0.61" fill="#a9b7d0" opacity="0.36"/><circle cx="97.1" cy="46.2" r="0.79" fill="#a9b7d0" opacity="0.26"/><circle cx="48.4" cy="128.1" r="0.64" fill="#a9b7d0" opacity="0.5"/><circle cx="62.0" cy="76.1" r="0.68" fill="#a9b7d0" opacity="0.41"/><circle cx="65.0" cy="143.7" r="0.46" fill="#a9b7d0" opacity="0.36"/><circle cx="87.9" cy="97.7" r="0.6" fill="#a9b7d0" opacity="0.31"/><circle cx="110.8" cy="92.6" r="0.67" fill="#a9b7d0" opacity="0.26"/><circle cx="15.2" cy="76.6" r="0.91" fill="#a9b7d0" opacity="0.35"/><circle cx="98.8" cy="130.6" r="0.64" fill="#a9b7d0" opacity="0.55"/><circle cx="74.6" cy="59.7" r="0.99" fill="#a9b7d0" opacity="0.45"/><circle cx="109.7" cy="127.4" r="1.07" fill="#a9b7d0" opacity="0.38"/><circle cx="37.4" cy="63.9" r="0.64" fill="#a9b7d0" opacity="0.47"/><circle cx="16.2" cy="150.6" r="0.94" fill="#a9b7d0" opacity="0.43"/></g><rect x="4.6" y="4.6" width="110.8" height="158.8" rx="6" fill="none" stroke="#9aa4b3" stroke-width="3" opacity="0.28"/><rect x="4.6" y="4.6" width="110.8" height="158.8" rx="6" fill="none" stroke="#8b98b2" stroke-width="1" opacity="0.5" transform="translate(0 1.5)"/><rect x="4.6" y="4.6" width="110.8" height="158.8" rx="6" fill="none" stroke="#14171d" stroke-width="2.2"/><rect x="4.6" y="4.6" width="110.8" height="158.8" rx="6" fill="none" stroke="#ffffff" stroke-width="0.8" opacity="0.7" transform="translate(0 -1.1)"/><path d="M191.17596435546875 0.0Q153.75317451391328 0.0 123.48474155383164 18.344635009765625Q93.21630859375 36.68927001953125 75.108154296875 66.98916244506836Q57.0 97.28905487060547 57.0 133.64892578125V176.87896728515625H176.41973876953125V137.865234375Q176.41973876953125 130.2978515625 181.85879516601562 124.85879516601562Q187.2978515625 119.41973876953125 194.865234375 119.41973876953125H635.593994140625Q643.161376953125 119.41973876953125 648.6004333496094 124.85879516601562Q654.0394897460938 130.2978515625 654.0394897460938 137.865234375V289.41888427734375Q654.0394897460938 296.98626708984375 648.6004333496094 302.4253234863281Q643.161376953125 307.8643798828125 635.593994140625 307.8643798828125H57.0V720.4729614257812H773.459228515625V600.5802612304688H194.865234375Q187.2978515625 600.5802612304688 181.85879516601562 595.1412048339844Q176.41973876953125 589.7021484375 176.41973876953125 582.134765625V446.7296142578125Q176.41973876953125 439.1622314453125 181.85879516601562 433.4866943359375Q187.2978515625 427.8111572265625 194.865234375 427.8111572265625H639.2832641601562Q675.876708984375 427.8111572265625 706.3712463378906 410.066477808459Q736.8657836914062 392.3217983903556 755.1625061035156 361.82313064049026Q773.459228515625 331.324462890625 773.459228515625 294.1622314453125V133.64892578125Q773.459228515625 97.28905487060547 755.1145935058594 66.98916244506836Q736.7699584960938 36.68927001953125 706.3053665161133 18.344635009765625Q675.8407745361328 0.0 639.2832641601562 0.0H191.17596435546875Z" transform="translate(0.8 1.1) translate(9.41 49.0) scale(0.052 -0.052)" fill="#9aa7be" opacity="0.55"/><path d="M191.17596435546875 0.0Q153.75317451391328 0.0 123.48474155383164 18.344635009765625Q93.21630859375 36.68927001953125 75.108154296875 66.98916244506836Q57.0 97.28905487060547 57.0 133.64892578125V176.87896728515625H176.41973876953125V137.865234375Q176.41973876953125 130.2978515625 181.85879516601562 124.85879516601562Q187.2978515625 119.41973876953125 194.865234375 119.41973876953125H635.593994140625Q643.161376953125 119.41973876953125 648.6004333496094 124.85879516601562Q654.0394897460938 130.2978515625 654.0394897460938 137.865234375V289.41888427734375Q654.0394897460938 296.98626708984375 648.6004333496094 302.4253234863281Q643.161376953125 307.8643798828125 635.593994140625 307.8643798828125H57.0V720.4729614257812H773.459228515625V600.5802612304688H194.865234375Q187.2978515625 600.5802612304688 181.85879516601562 595.1412048339844Q176.41973876953125 589.7021484375 176.41973876953125 582.134765625V446.7296142578125Q176.41973876953125 439.1622314453125 181.85879516601562 433.4866943359375Q187.2978515625 427.8111572265625 194.865234375 427.8111572265625H639.2832641601562Q675.876708984375 427.8111572265625 706.3712463378906 410.066477808459Q736.8657836914062 392.3217983903556 755.1625061035156 361.82313064049026Q773.459228515625 331.324462890625 773.459228515625 294.1622314453125V133.64892578125Q773.459228515625 97.28905487060547 755.1145935058594 66.98916244506836Q736.7699584960938 36.68927001953125 706.3053665161133 18.344635009765625Q675.8407745361328 0.0 639.2832641601562 0.0H191.17596435546875Z" transform="translate(9.41 49.0) scale(0.052 -0.052)" fill="#14171d"/><path d="M26.406 40.187c.015-1.98-1.56-2.017-1.542-.573-.133 7.257-6.31 10.83-10.8 9.982-6.92-1.307-9.128-8.13-9.06-12.148C5.204 25.046 17.774 15.9 29.114 0c8.31 14.35 22.03 25.623 22.84 36.717 1.08 14.75-17.71 20.25-20.394 3.06-.172-1.214-1.612-1.76-1.5-.063.408 4.71-.17 6.674 5.18 18.287H21.25c3.1-5.42 4.943-12.09 5.154-17.81z" transform="translate(0.8 1.1) translate(31.00 72.0) scale(0.4237) translate(-29.0 -29.5)" fill="#9aa7be" opacity="0.55"/><path d="M26.406 40.187c.015-1.98-1.56-2.017-1.542-.573-.133 7.257-6.31 10.83-10.8 9.982-6.92-1.307-9.128-8.13-9.06-12.148C5.204 25.046 17.774 15.9 29.114 0c8.31 14.35 22.03 25.623 22.84 36.717 1.08 14.75-17.71 20.25-20.394 3.06-.172-1.214-1.612-1.76-1.5-.063.408 4.71-.17 6.674 5.18 18.287H21.25c3.1-5.42 4.943-12.09 5.154-17.81z" transform="translate(31.00 72.0) scale(0.4237) translate(-29.0 -29.5)" fill="#14171d"/><path d="M26.406 40.187c.015-1.98-1.56-2.017-1.542-.573-.133 7.257-6.31 10.83-10.8 9.982-6.92-1.307-9.128-8.13-9.06-12.148C5.204 25.046 17.774 15.9 29.114 0c8.31 14.35 22.03 25.623 22.84 36.717 1.08 14.75-17.71 20.25-20.394 3.06-.172-1.214-1.612-1.76-1.5-.063.408 4.71-.17 6.674 5.18 18.287H21.25c3.1-5.42 4.943-12.09 5.154-17.81z" transform="translate(0.8 1.1) translate(81.00 125.0) scale(0.9153) translate(-29.0 -29.5)" fill="#9aa7be" opacity="0.55"/><path d="M26.406 40.187c.015-1.98-1.56-2.017-1.542-.573-.133 7.257-6.31 10.83-10.8 9.982-6.92-1.307-9.128-8.13-9.06-12.148C5.204 25.046 17.774 15.9 29.114 0c8.31 14.35 22.03 25.623 22.84 36.717 1.08 14.75-17.71 20.25-20.394 3.06-.172-1.214-1.612-1.76-1.5-.063.408 4.71-.17 6.674 5.18 18.287H21.25c3.1-5.42 4.943-12.09 5.154-17.81z" transform="translate(81.00 125.0) scale(0.9153) translate(-29.0 -29.5)" fill="#14171d"/></svg>