<svg xmlns="http://www.w3.org/2000/svg" viewBox="0 0 120 168"><defs><linearGradient id="g_spade" x1="0" y1="0" x2="0" y2="1"><stop offset="0" stop-color="#ffffff"/><stop offset="1" stop-color="#dbe3f0"/></linearGradient></defs><rect x="0.75" y="0.75" width="118.5" height="166.5" rx="9" fill="url(#g_spade)" stroke="#aeb9cf" stroke-width="1.5"/><g><circle cx="53.4" cy="77.8" r="0.54" fill="#a9b7d0" opacity="0.52"/><circle cx="33.6" cy="81.3" r="0.43" fill="#a9b7d0" opacity="0.3"/><circle cx="41.3" cy="121.9" r="0.55" fill="#a9b7d0" opacity="0.43"/><circle cx="62.2" cy="41.2" r="0.57" fill="#a9b7d0" opacity="0.3"/><circle cx="106.1" cy="52.1" r="1.04" fill="#a9b7d0" opacity="0.37"/><circle cx="79.4" cy="11.5" r="0.99" fill="#a9b7d0" opacity="0.51"/><circle cx="50.3" cy="76.2" r="1.01" fill="#a9b7d0" opacity="0.34"/><circle cx="24.4" cy="10.4" r="0.95" fill="#a9b7d0" opacity="0.45"/><circle cx="51.0" cy="25.5" r="0.75" fill="#a9b7d0" opacity="0.26"/><circle cx="60.5" cy="117.4" r="0.97" fill="#a9b7d0" opacity="0.41"/><circle cx="101.8" cy="104.0" r="0.55" fill="#a9b7d0" opacity="0.54"/><circle cx="92.6" cy="61.7" r="0.9" fill="#a9b7d0" opacity="0.3"/><circle cx="49.4" cy="116.5" r="0.88" fill="#a9b7d0" opacity="0.26"/><circle cx="19.6" cy="113.6" r="0.5" fill="#a9b7d0" opacity="0.3"/></g><rect x="4.6" y="4.6" width="110.8" height="158.8" rx="6" fill="none" stroke="#9aa4b3" stroke-width="3" opacity="0.28"/><rect x="4.6" y="4.6" width="110.8" height="158.8" rx="6" fill="none" stroke="#8b98b2" stroke-width="1" opacity="0.5" transform="translate(0 1.5)"/><rect x="4.6" y="4.6" width="110.8" height="158.8" rx="6" fill="none" stroke="#14171d" stroke-width="2.2"/><rect x="4.6" y="4.6" width="110.8" height="158.8" rx="6" fill="none" stroke="#ffffff" stroke-width="0.8" opacity="0.7" transform="translate(0 -1.1)"/><path d="M482.9991455078125 0.0V582.6618041992188Q482.9991455078125 590.2291870117188 477.5600891113281 595.6682434082031Q472.12103271484375 601.1072998046875 464.55364990234375 601.1072998046875H3.0V721H468.76995849609375Q505.3274688720703 721.0 535.7920608520508 702.9188842773438Q566.2566528320312 684.8377685546875 584.3377685546875 654.569335594606Q602.4188842773438 624.3009026345243 602.4188842773438 586.8781127929688V0.0Z" transform="translate(0.8 1.1) translate(15.26 49.0) scale(0.052 -0.052)" fill="#9aa7be" opacity="0.55"/><path d="M482.9991455078125 0.0V582.6618041992188Q482.9991455078125 590.2291870117188 477.5600891113281 595.6682434082031Q472.12103271484375 601.1072998046875 464.55364990234375 601.1072998046875H3.0V721H468.76995849609375Q505.3274688720703 721.0 535.7920608520508 702.9188842773438Q566.2566528320312 684.8377685546875 584.3377685546875 654.569335594606Q602.4188842773438 624.3009026345243 602.4188842773438 586.8781127929688V0.0Z" transform="translate(15.26 49.0) scale(0.052 -0.052)" fill="#14171d"/><path d="M26.406 40.187c.015-1.98-1.56-2.017-1.542-.573-.133 7.257-6.31 10.83-10.8 9.982-6.92-1.307-9.128-8.13-9.06-12.148C5.204 25.046 17.774 15.9 29.114 0c8.31 14.35 22.03 25.623 22.84 36.717 1.08 14.75-17.71 20.25-20.394 3.06-.172-1.214-1.612-1.76-1.5-.063.408 4.71-.17 6.674 5.18 18.287H21.25c3.1-5.42 4.943-12.09 5.154-17.81z" transform="translate(0.8 1.1) translate(31.00 72.0) scale(0.4237) translate(-29.0 -29.5)" fill="#9aa7be" opacity="0.55"/><path d="M26.406 40.187c.015-1.98-1.56-2.017-1.542-.573-.133 7.257-6.31 10.83-10.8 9.982-6.92-1.307-9.128-8.13-9.06-12.148C5.204 25.046 17.774 15.9 29.114 0c8.31 14.35 22.03 25.623 22.84 36.717 1.08 14.75-17.71 20.25-20.394 3.06-.172-1.214-1.612-1.76-1.5-.063.408 4.71-.17 6.674 5.18 18.287H21.25c3.1-5.42 4.943-12.09 5.154-17.81z" transform="translate(31.00 72.0) scale(0.4237) translate(-29.0 -29.5)" fill="#14171d"/><path d="M26.406 40.187c.015-1.98-1.56-2.017-1.542-.573-.133 7.257-6.31 10.83-10.8 9.982-6.92-1.307-9.128-8.13-9.06-12.148C5.204 25.046 17.774 15.9 29.114 0c8.31 14.35 22.03 25.623 22.84 36.717 1.08 14.75-17.71 20.25-20.394 3.06-.172-1.214-1.612-1.76-1.5-.063.408 4.71-.17 6.674 5.18 18.287H21.25c3.1-5.42 4.943-12.09 5.154-17.81z" transform="translate(0.8 1.1) translate(81.00 125.0) scale(0.9153) translate(-29.0 -29.5)" fill="#9aa7be" opacity="0.55"/><path d="M26.406 40.187c.015-1.98-1.56-2.017-1.542-.573-.133 7.257-6.31 10.83-10.8 9.982-6.92-1.307-9.128-8.13-9.06-12.148C5.204 25.046 17.774 15.9 29.114 0c8.31 14.35 22.03 25.623 22.84 36.717 1.08 14.75-17.71 20.25-20.394 3.06-.172-1.214-1.612-1.76-1.5-.063.408 4.71-.17 6.674 5.18 18.287H21.25c3.1-5.42 4.943-12.09 5.154-17.81z" transform="translate(81.00 125.0) scale(0.9153) translate(-29.0 -29.5)" fill="#14171d"/></svg>