<svg xmlns="http://www.w3.org/2000/svg" viewBox="0 0 120 168"><defs><linearGradient id="g_spade" x1="0" y1="0" x2="0" y2="1"><stop offset="0" stop-color="#ffffff"/><stop offset="1" stop-color="#dbe3f0"/></linearGradient></defs><rect x="0.75" y="0.75" width="118.5" height="166.5" rx="9" fill="url(#g_spade)" stroke="#aeb9cf" stroke-width="1.5"/><g><circle cx="30.2" cy="34.3" r="0.44" fill="#a9b7d0" opacity="0.4"/><circle cx="100.1" cy="142.9" r="0.79" fill="#a9b7d0" opacity="0.39"/><circle cx="24.9" cy="98.9" r="0.72" fill="#a9b7d0" opacity="0.3"/><circle cx="44.4" cy="20.4" r="1.06" fill="#a9b7d0" opacity="0.39"/><circle cx="76.2" cy="111.5" r="0.54" fill="#a9b7d0" opacity="0.5"/><circle cx="51.4" cy="36.6" r="0.71" fill="#a9b7d0" opacity="0.47"/><circle cx="104.1" cy="49.0" r="1.1" fill="#a9b7d0" opacity="0.36"/><circle cx="72.5" cy="69.7" r="0.56" fill="#a9b7d0" opacity="0.5"/><circle cx="32.9" cy="11.1" r="0.79" fill="#a9b7d0" opacity="0.5"/><circle cx="48.4" cy="57.7" r="0.51" fill="#a9b7d0" opacity="0.45"/><circle cx="64.8" cy="16.6" r="1.01" fill="#a9b7d0" opacity="0.5"/><circle cx="50.7" cy="40.8" r="0.89" fill="#a9b7d0" opacity="0.54"/><circle cx="13.0" cy="35.4" r="0.55" fill="#a9b7d0" opacity="0.35"/><circle cx="91.0" cy="19.8" r="0.44" fill="#a9b7d0" opacity="0.47"/></g><rect x="4.6" y="4.6" width="110.8" height="158.8" rx="6" fill="none" stroke="#9aa4b3" stroke-width="3" opacity="0.28"/><rect x="4.6" y="4.6" width="110.8" height="158.8" rx="6" fill="none" stroke="#8b98b2" stroke-width="1" opacity="0.5" transform="translate(0 1.5)"/><rect x="4.6" y="4.6" width="110.8" height="158.8" rx="6" fill="none" stroke="#14171d" stroke-width="2.2"/><rect x="4.6" y="4.6" width="110.8" height="158.8" rx="6" fill="none" stroke="#ffffff" stroke-width="0.8" opacity="0.7" transform="translate(0 -1.1)"/><path d="M57.0 0V720H178.0008544921875V420.50042724609375H362.04034423828125L613.1751098632812 720.0H747.7433471679688V691.0669555664062L469.93304443359375 360.0L748.21630859375 28.93304443359375V0.0H613.1751098632812L362.04034423828125 299.49957275390625H178.0008544921875V0.0Z" transform="translate(0.8 1.1) translate(10.06 49.0) scale(0.052 -0.052)" fill="#9aa7be" opacity="0.55"/><path d="M57.0 0V720H178.0008544921875V420.50042724609375H362.04034423828125L613.1751098632812 720.0H747.7433471679688V691.0669555664062L469.93304443359375 360.0L748.21630859375 28.93304443359375V0.0H613.1751098632812L362.04034423828125 299.49957275390625H178.0008544921875V0.0Z" transform="translate(10.06 49.0) scale(0.052 -0.052)" fill="#14171d"/><path d="M26.406 40.187c.015-1.98-1.56-2.017-1.542-.573-.133 7.257-6.31 10.83-10.8 9.982-6.92-1.307-9.128-8.13-9.06-12.148C5.204 25.046 17.774 15.9 29.114 0c8.31 14.35 22.03 25.623 22.84 36.717 1.08 14.75-17.71 20.25-20.394 3.06-.172-1.214-1.612-1.76-1.5-.063.408 4.71-.17 6.674 5.18 18.287H21.25c3.1-5.42 4.943-12.09 5.154-17.81z" transform="translate(0.8 1.1) translate(31.00 72.0) scale(0.4237) translate(-29.0 -29.5)" fill="#9aa7be" opacity="0.55"/><path d="M26.406 40.187c.015-1.98-1.56-2.017-1.542-.573-.133 7.257-6.31 10.83-10.8 9.982-6.92-1.307-9.128-8.13-9.06-12.148C5.204 25.046 17.774 15.9 29.114 0c8.31 14.35 22.03 25.623 22.84 36.717 1.08 14.75-17.71 20.25-20.394 3.06-.172-1.214-1.612-1.76-1.5-.063.408 4.71-.17 6.674 5.18 18.287H21.25c3.1-5.42 4.943-12.09 5.154-17.81z" transform="translate(31.00 72.0) scale(0.4237) translate(-29.0 -29.5)" fill="#14171d"/><path d="M26.406 40.187c.015-1.98-1.56-2.017-1.542-.573-.133 7.257-6.31 10.83-10.8 9.982-6.92-1.307-9.128-8.13-9.06-12.148C5.204 25.046 17.774 15.9 29.114 0c8.31 14.35 22.03 25.623 22.84 36.717 1.08 14.75-17.71 20.25-20.394 3.06-.172-1.214-1.612-1.76-1.5-.063.408 4.71-.17 6.674 5.18 18.287H21.25c3.1-5.42 4.943-12.09 5.154-17.81z" transform="translate(0.8 1.1) translate(81.00 125.0) scale(0.9153) translate(-29.0 -29.5)" fill="#9aa7be" opacity="0.55"/><path d="M26.406 40.187c.015-1.98-1.56-2.017-1.542-.573-.133 7.257-6.31 10.83-10.8 9.982-6.92-1.307-9.128-8.13-9.06-12.148C5.204 25.046 17.774 15.9 29.114 0c8.31 14.35 22.03 25.623 22.84 36.717 1.08 14.75-17.71 20.25-20.394 3.06-.172-1.214-1.612-1.76-1.5-.063.408 4.71-.17 6.674 5.18 18.287H21.25c3.1-5.42 4.943-12.09 5.154-17.81z" transform="translate(81.00 125.0) scale(0.9153) translate(-29.0 -29.5)" fill="#14171d"/></svg>