<svg xmlns="http://www.w3.org/2000/svg" viewBox="0 0 120 168"><defs><linearGradient id="g_club" x1="0" y1="0" x2="0" y2="1"><stop offset="0" stop-color="#ffffff"/><stop offset="1" stop-color="#dbe3f0"/></linearGradient></defs><rect x="0.75" y="0.75" width="118.5" height="166.5" rx="9" fill="url(#g_club)" stroke="#aeb9cf" stroke-width="1.5"/><g><circle cx="82.1" cy="14.0" r="0.48" fill="#a9b7d0" opacity="0.36"/><circle cx="56.5" cy="66.9" r="0.81" fill="#a9b7d0" opacity="0.45"/><circle cx="12.1" cy="74.8" r="1.01" fill="#a9b7d0" opacity="0.54"/><circle cx="89.8" cy="150.1" r="0.71" fill="#a9b7d0" opacity="0.26"/><circle cx="47.1" cy="14.1" r="0.98" fill="#a9b7d0" opacity="0.4"/><circle cx="75.0" cy="111.6" r="0.48" fill="#a9b7d0" opacity="0.33"/><circle cx="110.0" cy="34.1" r="0.57" fill="#a9b7d0" opacity="0.35"/><circle cx="76.8" cy="41.5" r="0.96" fill="#a9b7d0" opacity="0.39"/><circle cx="29.6" cy="72.7" r="0.96" fill="#a9b7d0" opacity="0.32"/><circle cx="57.1" cy="34.6" r="0.7" fill="#a9b7d0" opacity="0.45"/><circle cx="54.2" cy="25.0" r="0.96" fill="#a9b7d0" opacity="0.5"/><circle cx="17.8" cy="98.6" r="0.61" fill="#a9b7d0" opacity="0.45"/><circle cx="76.3" cy="139.0" r="0.81" fill="#a9b7d0" opacity="0.28"/><circle cx="32.1" cy="93.1" r="1.06" fill="#a9b7d0" opacity="0.52"/></g><rect x="4.6" y="4.6" width="110.8" height="158.8" rx="6" fill="none" stroke="#8fd6a8" stroke-width="3" opacity="0.28"/><rect x="4.6" y="4.6" width="110.8" height="158.8" rx="6" fill="none" stroke="#8b98b2" stroke-width="1" opacity="0.5" transform="translate(0 1.5)"/><rect x="4.6" y="4.6" width="110.8" height="158.8" rx="6" fill="none" stroke="#0f8a3e" stroke-width="2.2"/><rect x="4.6" y="4.6" width="110.8" height="158.8" rx="6" fill="none" stroke="#ffffff" stroke-width="0.8" opacity="0.7" transform="translate(0 -1.1)"/><path d="M482.9991455078125 0.0V582.6618041992188Q482.9991455078125 590.2291870117188 477.5600891113281 595.6682434082031Q472.12103271484375 601.1072998046875 464.55364990234375 601.1072998046875H3.0V721H468.76995849609375Q505.3274688720703 721.0 535.7920608520508 702.9188842773438Q566.2566528320312 684.8377685546875 584.3377685546875 654.569335594606Q602.4188842773438 624.3009026345243 602.4188842773438 586.8781127929688V0.0Z" transform="translate(0.8 1.1) translate(15.26 49.0) scale(0.052 -0.052)" fill="#9aa7be" opacity="0.55"/><path d="M482.9991455078125 0.0V582.6618041992188Q482.9991455078125 590.2291870117188 477.5600891113281 595.6682434082031Q472.12103271484375 601.1072998046875 464.55364990234375 601.1072998046875H3.0V721H468.76995849609375Q505.3274688720703 721.0 535.7920608520508 702.9188842773438Q566.2566528320312 684.8377685546875 584.3377685546875 654.569335594606Q602.4188842773438 624.3009026345243 602.4188842773438 586.8781127929688V0.0Z" transform="translate(15.26 49.0) scale(0.052 -0.052)" fill="#0f8a3e"/><path d="M20.976 57.14c2.88-5.774 4.976-11.7 5.348-18.036.342-2.33-1.074-2.37-1.288-.73C20.96 53.97-.727 49.744.02 35.08.622 23.182 12.44 20.624 18.6 24.513c2.435 1.434 2.296.575.968-.91C10.416 13.39 15.958.24 28.33 0c13.38.793 16.854 14.87 8.647 23.147-1.02.994-3.283 4.19.123 1.956 8.287-5.888 19.787.443 19.553 9.52-.434 16.74-20.84 17.987-25.203 4.007-.42-1.55-1.63-2.328-1.295.305.604 4.767 1.855 11.953 5.438 18.205H20.976z" transform="translate(0.8 1.1) translate(31.00 72.0) scale(0.4237) translate(-29.0 -29.5)" fill="#9aa7be" opacity="0.55"/><path d="M20.976 57.14c2.88-5.774 4.976-11.7 5.348-18.036.342-2.33-1.074-2.37-1.288-.73C20.96 53.97-.727 49.744.02 35.08.622 23.182 12.44 20.624 18.6 24.513c2.435 1.434 2.296.575.968-.91C10.416 13.39 15.958.24 28.33 0c13.38.793 16.854 14.87 8.647 23.147-1.02.994-3.283 4.19.123 1.956 8.287-5.888 19.787.443 19.553 9.52-.434 16.74-20.84 17.987-25.203 4.007-.42-1.55-1.63-2.328-1.295.305.604 4.767 1.855 11.953 5.438 18.205H20.976z" transform="translate(31.00 72.0) scale(0.4237) translate(-29.0 -29.5)" fill="#0f8a3e"/><path d="M20.976 57.14c2.88-5.774 4.976-11.7 5.348-18.036.342-2.33-1.074-2.37-1.288-.73C20.96 53.97-.727 49.744.02 35.08.622 23.182 12.44 20.624 18.6 24.513c2.435 1.434 2.296.575.968-.91C10.416 13.39 15.958.24 28.33 0c13.38.793 16.854 14.87 8.647 23.147-1.02.994-3.283 4.19.123 1.956 8.287-5.888 19.787.443 19.553 9.52-.434 16.74-20.84 17.987-25.203 4.007-.42-1.55-1.63-2.328-1.295.305.604 4.767 1.855 11.953 5.438 18.205H20.976z" transform="translate(0.8 1.1) translate(81.00 125.0) scale(0.9153) translate(-29.0 -29.5)" fill="#9aa7be" opacity="0.55"/><path d="M20.976 57.14c2.88-5.774 4.976-11.7 5.348-18.036.342-2.33-1.074-2.37-1.288-.73C20.96 53.97-.727 49.744.02 35.08.622 23.182 12.44 20.624 18.6 24.513c2.435 1.434 2.296.575.968-.91C10.416 13.39 15.958.24 28.33 0c13.38.793 16.854 14.87 8.647 23.147-1.02.994-3.283 4.19.123 1.956 8.287-5.888 19.787.443 19.553 9.52-.434 16.74-20.84 17.987-25.203 4.007-.42-1.55-1.63-2.328-1.295.305.604 4.767 1.855 11.953 5.438 18.205H20.976z" transform="translate(81.00 125.0) scale(0.9153) translate(-29.0 -29.5)" fill="#0f8a3e"/></svg>