<svg xmlns="http://www.w3.org/2000/svg" viewBox="0 0 120 168"><defs><linearGradient id="g_club" x1="0" y1="0" x2="0" y2="1"><stop offset="0" stop-color="#ffffff"/><stop offset="1" stop-color="#dbe3f0"/></linearGradient></defs><rect x="0.75" y="0.75" width="118.5" height="166.5" rx="9" fill="url(#g_club)" stroke="#aeb9cf" stroke-width="1.5"/><g><circle cx="36.7" cy="42.0" r="0.72" fill="#a9b7d0" opacity="0.54"/><circle cx="63.9" cy="117.7" r="1.06" fill="#a9b7d0" opacity="0.25"/><circle cx="77.2" cy="76.7" r="0.59" fill="#a9b7d0" opacity="0.34"/><circle cx="54.0" cy="96.9" r="0.79" fill="#a9b7d0" opacity="0.48"/><circle cx="79.4" cy="101.3" r="0.93" fill="#a9b7d0" opacity="0.52"/><circle cx="32.1" cy="28.0" r="0.54" fill="#a9b7d0" opacity="0.41"/><circle cx="72.1" cy="81.6" r="0.97" fill="#a9b7d0" opacity="0.41"/><circle cx="100.7" cy="129.2" r="0.78" fill="#a9b7d0" opacity="0.37"/><circle cx="41.4" cy="79.7" r="0.44" fill="#a9b7d0" opacity="0.53"/><circle cx="15.6" cy="95.6" r="0.73" fill="#a9b7d0" opacity="0.29"/><circle cx="87.1" cy="138.6" r="0.45" fill="#a9b7d0" opacity="0.35"/><circle cx="110.0" cy="107.6" r="0.94" fill="#a9b7d0" opacity="0.44"/><circle cx="41.3" cy="16.8" r="0.65" fill="#a9b7d0" opacity="0.41"/><circle cx="81.4" cy="135.3" r="1.03" fill="#a9b7d0" opacity="0.4"/></g><rect x="4.6" y="4.6" width="110.8" height="158.8" rx="6" fill="none" stroke="#8fd6a8" stroke-width="3" opacity="0.28"/><rect x="4.6" y="4.6" width="110.8" height="158.8" rx="6" fill="none" stroke="#8b98b2" stroke-width="1" opacity="0.5" transform="translate(0 1.5)"/><rect x="4.6" y="4.6" width="110.8" height="158.8" rx="6" fill="none" stroke="#0f8a3e" stroke-width="2.2"/><rect x="4.6" y="4.6" width="110.8" height="158.8" rx="6" fill="none" stroke="#ffffff" stroke-width="0.8" opacity="0.7" transform="translate(0 -1.1)"/><path d="M187.23004150390625 0.0Q155.95965576171875 0.0 128.50686645507812 15.7703857421875Q101.0540771484375 31.540771484375 81.41888427734375 58.473388671875Q61.78369140625 85.406005859375 54.31072998046875 119.41973876953125H631.6480712890625Q639.2154541015625 119.41973876953125 644.6545104980469 124.85879516601562Q650.0935668945312 130.2978515625 650.0935668945312 137.865234375V273.90557861328125Q650.0935668945312 281.47296142578125 644.6545104980469 286.9120178222656Q639.2154541015625 292.35107421875 631.6480712890625 292.35107421875H187.23004150390625Q149.80725166235078 292.35107421875 119.53881870226914 310.6957092285156Q89.2703857421875 329.04034423828125 70.92575073242188 359.5049362182617Q52.58111572265625 389.9695281982422 52.58111572265625 426.52703857421875V586.35107421875Q52.58111572265625 623.7293050797259 70.85987091064453 653.9616976878682Q89.13862609863281 684.1940902960105 119.60321807861328 702.3335258608959Q150.06781005859375 720.4729614257812 187.23004150390625 720.4729614257812H635.8643798828125Q672.4218902587891 720.4729614257812 702.8864822387695 702.391845703125Q733.35107421875 684.3107299804688 751.4321899414062 654.0422970203872Q769.5133056640625 623.7738640603055 769.5133056640625 586.35107421875V133.64892578125Q769.5133056640625 97.28905487060547 751.4321899414062 66.98916244506836Q733.35107421875 36.68927001953125 702.8864822387695 18.344635009765625Q672.4218902587891 0.0 635.8643798828125 0.0H187.23004150390625ZM191.44635009765625 412.2978515625H650.0935668945312V582.134765625Q650.0935668945312 589.7021484375 644.6545104980469 595.1412048339844Q639.2154541015625 600.5802612304688 631.6480712890625 600.5802612304688H191.44635009765625Q183.87896728515625 600.5802612304688 178.43991088867188 595.1412048339844Q173.0008544921875 589.7021484375 173.0008544921875 582.134765625V430.74334716796875Q173.0008544921875 423.17596435546875 178.43991088867188 417.7369079589844Q183.87896728515625 412.2978515625 191.44635009765625 412.2978515625Z" transform="translate(0.8 1.1) translate(9.63 49.0) scale(0.052 -0.052)" fill="#9aa7be" opacity="0.55"/><path d="M187.23004150390625 0.0Q155.95965576171875 0.0 128.50686645507812 15.7703857421875Q101.0540771484375 31.540771484375 81.41888427734375 58.473388671875Q61.78369140625 85.406005859375 54.31072998046875 119.41973876953125H631.6480712890625Q639.2154541015625 119.41973876953125 644.6545104980469 124.85879516601562Q650.0935668945312 130.2978515625 650.0935668945312 137.865234375V273.90557861328125Q650.0935668945312 281.47296142578125 644.6545104980469 286.9120178222656Q639.2154541015625 292.35107421875 631.6480712890625 292.35107421875H187.23004150390625Q149.80725166235078 292.35107421875 119.53881870226914 310.6957092285156Q89.2703857421875 329.04034423828125 70.92575073242188 359.5049362182617Q52.58111572265625 389.9695281982422 52.58111572265625 426.52703857421875V586.35107421875Q52.58111572265625 623.7293050797259 70.85987091064453 653.9616976878682Q89.13862609863281 684.1940902960105 119.60321807861328 702.3335258608959Q150.06781005859375 720.4729614257812 187.23004150390625 720.4729614257812H635.8643798828125Q672.4218902587891 720.4729614257812 702.8864822387695 702.391845703125Q733.35107421875 684.3107299804688 751.4321899414062 654.0422970203872Q769.5133056640625 623.7738640603055 769.5133056640625 586.35107421875V133.64892578125Q769.5133056640625 97.28905487060547 751.4321899414062 66.98916244506836Q733.35107421875 36.68927001953125 702.8864822387695 18.344635009765625Q672.4218902587891 0.0 635.8643798828125 0.0H187.23004150390625ZM191.44635009765625 412.2978515625H650.0935668945312V582.134765625Q650.0935668945312 589.7021484375 644.6545104980469 595.1412048339844Q639.2154541015625 600.5802612304688 631.6480712890625 600.5802612304688H191.44635009765625Q183.87896728515625 600.5802612304688 178.43991088867188 595.1412048339844Q173.0008544921875 589.7021484375 173.0008544921875 582.134765625V430.74334716796875Q173.0008544921875 423.17596435546875 178.43991088867188 417.7369079589844Q183.87896728515625 412.2978515625 191.44635009765625 412.2978515625Z" transform="translate(9.63 49.0) scale(0.052 -0.052)" fill="#0f8a3e"/><path d="M20.976 57.14c2.88-5.774 4.976-11.7 5.348-18.036.342-2.33-1.074-2.37-1.288-.73C20.96 53.97-.727 49.744.02 35.08.622 23.182 12.44 20.624 18.6 24.513c2.435 1.434 2.296.575.968-.91C10.416 13.39 15.958.24 28.33 0c13.38.793 16.854 14.87 8.647 23.147-1.02.994-3.283 4.19.123 1.956 8.287-5.888 19.787.443 19.553 9.52-.434 16.74-20.84 17.987-25.203 4.007-.42-1.55-1.63-2.328-1.295.305.604 4.767 1.855 11.953 5.438 18.205H20.976z" transform="translate(0.8 1.1) translate(31.00 72.0) scale(0.4237) translate(-29.0 -29.5)" fill="#9aa7be" opacity="0.55"/><path d="M20.976 57.14c2.88-5.774 4.976-11.7 5.348-18.036.342-2.33-1.074-2.37-1.288-.73C20.96 53.97-.727 49.744.02 35.08.622 23.182 12.44 20.624 18.6 24.513c2.435 1.434 2.296.575.968-.91C10.416 13.39 15.958.24 28.33 0c13.38.793 16.854 14.87 8.647 23.147-1.02.994-3.283 4.19.123 1.956 8.287-5.888 19.787.443 19.553 9.52-.434 16.74-20.84 17.987-25.203 4.007-.42-1.55-1.63-2.328-1.295.305.604 4.767 1.855 11.953 5.438 18.205H20.976z" transform="translate(31.00 72.0) scale(0.4237) translate(-29.0 -29.5)" fill="#0f8a3e"/><path d="M20.976 57.14c2.88-5.774 4.976-11.7 5.348-18.036.342-2.33-1.074-2.37-1.288-.73C20.96 53.97-.727 49.744.02 35.08.622 23.182 12.44 20.624 18.6 24.513c2.435 1.434 2.296.575.968-.91C10.416 13.39 15.958.24 28.33 0c13.38.793 16.854 14.87 8.647 23.147-1.02.994-3.283 4.19.123 1.956 8.287-5.888 19.787.443 19.553 9.52-.434 16.74-20.84 17.987-25.203 4.007-.42-1.55-1.63-2.328-1.295.305.604 4.767 1.855 11.953 5.438 18.205H20.976z" transform="translate(0.8 1.1) translate(81.00 125.0) scale(0.9153) translate(-29.0 -29.5)" fill="#9aa7be" opacity="0.55"/><path d="M20.976 57.14c2.88-5.774 4.976-11.7 5.348-18.036.342-2.33-1.074-2.37-1.288-.73C20.96 53.97-.727 49.744.02 35.08.622 23.182 12.44 20.624 18.6 24.513c2.435 1.434 2.296.575.968-.91C10.416 13.39 15.958.24 28.33 0c13.38.793 16.854 14.87 8.647 23.147-1.02.994-3.283 4.19.123 1.956 8.287-5.888 19.787.443 19.553 9.52-.434 16.74-20.84 17.987-25.203 4.007-.42-1.55-1.63-2.328-1.295.305.604 4.767 1.855 11.953 5.438 18.205H20.976z" transform="translate(81.00 125.0) scale(0.9153) translate(-29.0 -29.5)" fill="#0f8a3e"/></svg>