<svg xmlns="http://www.w3.org/2000/svg" viewBox="0 0 120 168"><defs><linearGradient id="g_club" x1="0" y1="0" x2="0" y2="1"><stop offset="0" stop-color="#ffffff"/><stop offset="1" stop-color="#dbe3f0"/></linearGradient></defs><rect x="0.75" y="0.75" width="118.5" height="166.5" rx="9" fill="url(#g_club)" stroke="#aeb9cf" stroke-width="1.5"/><g><circle cx="15.1" cy="28.4" r="0.52" fill="#a9b7d0" opacity="0.3"/><circle cx="67.3" cy="108.9" r="0.93" fill="#a9b7d0" opacity="0.29"/><circle cx="87.2" cy="50.2" r="0.45" fill="#a9b7d0" opacity="0.27"/><circle cx="36.6" cy="139.0" r="0.65" fill="#a9b7d0" opacity="0.52"/><circle cx="10.6" cy="126.1" r="0.52" fill="#a9b7d0" opacity="0.4"/><circle cx="70.2" cy="86.1" r="0.43" fill="#a9b7d0" opacity="0.3"/><circle cx="106.4" cy="110.8" r="1.01" fill="#a9b7d0" opacity="0.27"/><circle cx="21.6" cy="115.6" r="0.73" fill="#a9b7d0" opacity="0.36"/><circle cx="42.8" cy="50.4" r="1.01" fill="#a9b7d0" opacity="0.46"/><circle cx="15.5" cy="154.4" r="1.05" fill="#a9b7d0" opacity="0.55"/><circle cx="65.0" cy="88.4" r="0.56" fill="#a9b7d0" opacity="0.49"/><circle cx="17.2" cy="117.6" r="0.51" fill="#a9b7d0" opacity="0.29"/><circle cx="69.3" cy="90.1" r="0.68" fill="#a9b7d0" opacity="0.5"/><circle cx="110.1" cy="40.3" r="0.65" fill="#a9b7d0" opacity="0.4"/></g><rect x="4.6" y="4.6" width="110.8" height="158.8" rx="6" fill="none" stroke="#8fd6a8" stroke-width="3" opacity="0.28"/><rect x="4.6" y="4.6" width="110.8" height="158.8" rx="6" fill="none" stroke="#8b98b2" stroke-width="1" opacity="0.5" transform="translate(0 1.5)"/><rect x="4.6" y="4.6" width="110.8" height="158.8" rx="6" fill="none" stroke="#0f8a3e" stroke-width="2.2"/><rect x="4.6" y="4.6" width="110.8" height="158.8" rx="6" fill="none" stroke="#ffffff" stroke-width="0.8" opacity="0.7" transform="translate(0 -1.1)"/><path d="M138.757080078125 0.0Q101.80429077148438 0.0 71.01029968261719 18.108154296875Q40.21630859375 36.21630859375 22.108154296875 67.01029968261719Q4.0 97.80429077148438 4.0 134.757080078125V210.73046875H124.0008544921875V138.973388671875Q124.0008544921875 131.406005859375 129.43991088867188 125.96694946289062Q134.87896728515625 120.52789306640625 142.44635009765625 120.52789306640625H584.4995727539062Q592.0669555664062 120.52789306640625 597.5060119628906 125.96694946289062Q602.945068359375 131.406005859375 602.945068359375 138.973388671875V720.0H724.0V134.757080078125Q724.0 97.80429077148438 705.6283264160156 67.01029968261719Q687.2566528320312 36.21630859375 656.6273612976074 18.108154296875Q625.9980697631836 0.0 589.242919921875 0.0Z" transform="translate(0.8 1.1) translate(12.07 49.0) scale(0.052 -0.052)" fill="#9aa7be" opacity="0.55"/><path d="M138.757080078125 0.0Q101.80429077148438 0.0 71.01029968261719 18.108154296875Q40.21630859375 36.21630859375 22.108154296875 67.01029968261719Q4.0 97.80429077148438 4.0 134.757080078125V210.73046875H124.0008544921875V138.973388671875Q124.0008544921875 131.406005859375 129.43991088867188 125.96694946289062Q134.87896728515625 120.52789306640625 142.44635009765625 120.52789306640625H584.4995727539062Q592.0669555664062 120.52789306640625 597.5060119628906 125.96694946289062Q602.945068359375 131.406005859375 602.945068359375 138.973388671875V720.0H724.0V134.757080078125Q724.0 97.80429077148438 705.6283264160156 67.01029968261719Q687.2566528320312 36.21630859375 656.6273612976074 18.108154296875Q625.9980697631836 0.0 589.242919921875 0.0Z" transform="translate(12.07 49.0) scale(0.052 -0.052)" fill="#0f8a3e"/><path d="M20.976 57.14c2.88-5.774 4.976-11.7 5.348-18.036.342-2.33-1.074-2.37-1.288-.73C20.96 53.97-.727 49.744.02 35.08.622 23.182 12.44 20.624 18.6 24.513c2.435 1.434 2.296.575.968-.91C10.416 13.39 15.958.24 28.33 0c13.38.793 16.854 14.87 8.647 23.147-1.02.994-3.283 4.19.123 1.956 8.287-5.888 19.787.443 19.553 9.52-.434 16.74-20.84 17.987-25.203 4.007-.42-1.55-1.63-2.328-1.295.305.604 4.767 1.855 11.953 5.438 18.205H20.976z" transform="translate(0.8 1.1) translate(31.00 72.0) scale(0.4237) translate(-29.0 -29.5)" fill="#9aa7be" opacity="0.55"/><path d="M20.976 57.14c2.88-5.774 4.976-11.7 5.348-18.036.342-2.33-1.074-2.37-1.288-.73C20.96 53.97-.727 49.744.02 35.08.622 23.182 12.44 20.624 18.6 24.513c2.435 1.434 2.296.575.968-.91C10.416 13.39 15.958.24 28.33 0c13.38.793 16.854 14.87 8.647 23.147-1.02.994-3.283 4.19.123 1.956 8.287-5.888 19.787.443 19.553 9.52-.434 16.74-20.84 17.987-25.203 4.007-.42-1.55-1.63-2.328-1.295.305.604 4.767 1.855 11.953 5.438 18.205H20.976z" transform="translate(31.00 72.0) scale(0.4237) translate(-29.0 -29.5)" fill="#0f8a3e"/><path d="M20.976 57.14c2.88-5.774 4.976-11.7 5.348-18.036.342-2.33-1.074-2.37-1.288-.73C20.96 53.97-.727 49.744.02 35.08.622 23.182 12.44 20.624 18.6 24.513c2.435 1.434 2.296.575.968-.91C10.416 13.39 15.958.24 28.33 0c13.38.793 16.854 14.87 8.647 23.147-1.02.994-3.283 4.19.123 1.956 8.287-5.888 19.787.443 19.553 9.52-.434 16.74-20.84 17.987-25.203 4.007-.42-1.55-1.63-2.328-1.295.305.604 4.767 1.855 11.953 5.438 18.205H20.976z" transform="translate(0.8 1.1) translate(81.00 125.0) scale(0.9153) translate(-29.0 -29.5)" fill="#9aa7be" opacity="0.55"/><path d="M20.976 57.14c2.88-5.774 4.976-11.7 5.348-18.036.342-2.33-1.074-2.37-1.288-.73C20.96 53.97-.727 49.744.02 35.08.622 23.182 12.44 20.624 18.6 24.513c2.435 1.434 2.296.575.968-.91C10.416 13.39 15.958.24 28.33 0c13.38.793 16.854 14.87 8.647 23.147-1.02.994-3.283 4.19.123 1.956 8.287-5.888 19.787.443 19.553 9.52-.434 16.74-20.84 17.987-25.203 4.007-.42-1.55-1.63-2.328-1.295.305.604 4.767 1.855 11.953 5.438 18.205H20.976z" transform="translate(81.00 125.0) scale(0.9153) translate(-29.0 -29.5)" fill="#0f8a3e"/></svg>