<svg xmlns="http://www.w3.org/2000/svg" viewBox="0 0 120 168"><defs><linearGradient id="g_club" x1="0" y1="0" x2="0" y2="1"><stop offset="0" stop-color="#ffffff"/><stop offset="1" stop-color="#dbe3f0"/></linearGradient></defs><rect x="0.75" y="0.75" width="118.5" height="166.5" rx="9" fill="url(#g_club)" stroke="#aeb9cf" stroke-width="1.5"/><g><circle cx="87.3" cy="150.6" r="0.5" fill="#a9b7d0" opacity="0.53"/><circle cx="16.2" cy="154.2" r="0.52" fill="#a9b7d0" opacity="0.44"/><circle cx="34.9" cy="36.3" r="1.03" fill="#a9b7d0" opacity="0.48"/><circle cx="77.7" cy="24.9" r="0.76" fill="#a9b7d0" opacity="0.26"/><circle cx="37.6" cy="63.8" r="1.06" fill="#a9b7d0" opacity="0.36"/><circle cx="22.2" cy="122.1" r="0.97" fill="#a9b7d0" opacity="0.44"/><circle cx="58.4" cy="79.2" r="0.75" fill="#a9b7d0" opacity="0.32"/><circle cx="96.9" cy="33.6" r="0.83" fill="#a9b7d0" opacity="0.5"/><circle cx="52.5" cy="80.1" r="0.56" fill="#a9b7d0" opacity="0.39"/><circle cx="25.6" cy="71.5" r="0.93" fill="#a9b7d0" opacity="0.27"/><circle cx="88.6" cy="139.1" r="1.06" fill="#a9b7d0" opacity="0.25"/><circle cx="13.1" cy="158.0" r="0.82" fill="#a9b7d0" opacity="0.38"/><circle cx="105.1" cy="51.1" r="0.68" fill="#a9b7d0" opacity="0.44"/><circle cx="107.4" cy="129.1" r="1.1" fill="#a9b7d0" opacity="0.31"/></g><rect x="4.6" y="4.6" width="110.8" height="158.8" rx="6" fill="none" stroke="#8fd6a8" stroke-width="3" opacity="0.28"/><rect x="4.6" y="4.6" width="110.8" height="158.8" rx="6" fill="none" stroke="#8b98b2" stroke-width="1" opacity="0.5" transform="translate(0 1.5)"/><rect x="4.6" y="4.6" width="110.8" height="158.8" rx="6" fill="none" stroke="#0f8a3e" stroke-width="2.2"/><rect x="4.6" y="4.6" width="110.8" height="158.8" rx="6" fill="none" stroke="#ffffff" stroke-width="0.8" opacity="0.7" transform="translate(0 -1.1)"/><path d="M632.2969970703125 0.0V92.920166015625L774.0 140.39227294921875V120.52789306640625H861.675537109375V0.0ZM188.757080078125 0.0Q151.80429077148438 0.0 121.01029968261719 18.108154296875Q90.21630859375 36.21630859375 72.108154296875 67.01029968261719Q54.0 97.80429077148438 54.0 134.757080078125V585.242919921875Q54.0 622.1957092285156 72.108154296875 652.9897003173828Q90.21630859375 683.78369140625 121.01029968261719 701.891845703125Q151.80429077148438 720.0 188.757080078125 720.0H639.242919921875Q675.9980697631836 720.0 706.6273612976074 701.891845703125Q737.2566528320312 683.78369140625 755.6283264160156 652.9897003173828Q774.0 622.1957092285156 774.0 585.242919921875V134.757080078125Q774.0 97.80429077148438 755.6283264160156 67.01029968261719Q737.2566528320312 36.21630859375 706.6273612976074 18.108154296875Q675.9980697631836 0.0 639.242919921875 0.0ZM192.44635009765625 120.52789306640625H634.4995727539062Q642.0669555664062 120.52789306640625 647.5060119628906 125.96694946289062Q652.945068359375 131.406005859375 652.945068359375 138.973388671875V581.026611328125Q652.945068359375 588.593994140625 647.5060119628906 594.0330505371094Q642.0669555664062 599.4721069335938 634.4995727539062 599.4721069335938H192.44635009765625Q184.87896728515625 599.4721069335938 179.43991088867188 594.0330505371094Q174.0008544921875 588.593994140625 174.0008544921875 581.026611328125V138.973388671875Q174.0008544921875 131.406005859375 179.43991088867188 125.96694946289062Q184.87896728515625 120.52789306640625 192.44635009765625 120.52789306640625Z" transform="translate(0.8 1.1) translate(7.19 49.0) scale(0.052 -0.052)" fill="#9aa7be" opacity="0.55"/><path d="M632.2969970703125 0.0V92.920166015625L774.0 140.39227294921875V120.52789306640625H861.675537109375V0.0ZM188.757080078125 0.0Q151.80429077148438 0.0 121.01029968261719 18.108154296875Q90.21630859375 36.21630859375 72.108154296875 67.01029968261719Q54.0 97.80429077148438 54.0 134.757080078125V585.242919921875Q54.0 622.1957092285156 72.108154296875 652.9897003173828Q90.21630859375 683.78369140625 121.01029968261719 701.891845703125Q151.80429077148438 720.0 188.757080078125 720.0H639.242919921875Q675.9980697631836 720.0 706.6273612976074 701.891845703125Q737.2566528320312 683.78369140625 755.6283264160156 652.9897003173828Q774.0 622.1957092285156 774.0 585.242919921875V134.757080078125Q774.0 97.80429077148438 755.6283264160156 67.01029968261719Q737.2566528320312 36.21630859375 706.6273612976074 18.108154296875Q675.9980697631836 0.0 639.242919921875 0.0ZM192.44635009765625 120.52789306640625H634.4995727539062Q642.0669555664062 120.52789306640625 647.5060119628906 125.96694946289062Q652.945068359375 131.406005859375 652.945068359375 138.973388671875V581.026611328125Q652.945068359375 588.593994140625 647.5060119628906 594.0330505371094Q642.0669555664062 599.4721069335938 634.4995727539062 599.4721069335938H192.44635009765625Q184.87896728515625 599.4721069335938 179.43991088867188 594.0330505371094Q174.0008544921875 588.593994140625 174.0008544921875 581.026611328125V138.973388671875Q174.0008544921875 131.406005859375 179.43991088867188 125.96694946289062Q184.87896728515625 120.52789306640625 192.44635009765625 120.52789306640625Z" transform="translate(7.19 49.0) scale(0.052 -0.052)" fill="#0f8a3e"/><path d="M20.976 57.14c2.88-5.774 4.976-11.7 5.348-18.036.342-2.33-1.074-2.37-1.288-.73C20.96 53.97-.727 49.744.02 35.08.622 23.182 12.44 20.624 18.6 24.513c2.435 1.434 2.296.575.968-.91C10.416 13.39 15.958.24 28.33 0c13.38.793 16.854 14.87 8.647 23.147-1.02.994-3.283 4.19.123 1.956 8.287-5.888 19.787.443 19.553 9.52-.434 16.74-20.84 17.987-25.203 4.007-.42-1.55-1.63-2.328-1.295.305.604 4.767 1.855 11.953 5.438 18.205H20.976z" transform="translate(0.8 1.1) translate(31.00 72.0) scale(0.4237) translate(-29.0 -29.5)" fill="#9aa7be" opacity="0.55"/><path d="M20.976 57.14c2.88-5.774 4.976-11.7 5.348-18.036.342-2.33-1.074-2.37-1.288-.73C20.96 53.97-.727 49.744.02 35.08.622 23.182 12.44 20.624 18.6 24.513c2.435 1.434 2.296.575.968-.91C10.416 13.39 15.958.24 28.33 0c13.38.793 16.854 14.87 8.647 23.147-1.02.994-3.283 4.19.123 1.956 8.287-5.888 19.787.443 19.553 9.52-.434 16.74-20.84 17.987-25.203 4.007-.42-1.55-1.63-2.328-1.295.305.604 4.767 1.855 11.953 5.438 18.205H20.976z" transform="translate(31.00 72.0) scale(0.4237) translate(-29.0 -29.5)" fill="#0f8a3e"/><path d="M20.976 57.14c2.88-5.774 4.976-11.7 5.348-18.036.342-2.33-1.074-2.37-1.288-.73C20.96 53.97-.727 49.744.02 35.08.622 23.182 12.44 20.624 18.6 24.513c2.435 1.434 2.296.575.968-.91C10.416 13.39 15.958.24 28.33 0c13.38.793 16.854 14.87 8.647 23.147-1.02.994-3.283 4.19.123 1.956 8.287-5.888 19.787.443 19.553 9.52-.434 16.74-20.84 17.987-25.203 4.007-.42-1.55-1.63-2.328-1.295.305.604 4.767 1.855 11.953 5.438 18.205H20.976z" transform="translate(0.8 1.1) translate(81.00 125.0) scale(0.9153) translate(-29.0 -29.5)" fill="#9aa7be" opacity="0.55"/><path d="M20.976 57.14c2.88-5.774 4.976-11.7 5.348-18.036.342-2.33-1.074-2.37-1.288-.73C20.96 53.97-.727 49.744.02 35.08.622 23.182 12.44 20.624 18.6 24.513c2.435 1.434 2.296.575.968-.91C10.416 13.39 15.958.24 28.33 0c13.38.793 16.854 14.87 8.647 23.147-1.02.994-3.283 4.19.123 1.956 8.287-5.888 19.787.443 19.553 9.52-.434 16.74-20.84 17.987-25.203 4.007-.42-1.55-1.63-2.328-1.295.305.604 4.767 1.855 11.953 5.438 18.205H20.976z" transform="translate(81.00 125.0) scale(0.9153) translate(-29.0 -29.5)" fill="#0f8a3e"/></svg>