<svg xmlns="http://www.w3.org/2000/svg" viewBox="0 0 120 168"><defs><linearGradient id="g_diamond" x1="0" y1="0" x2="0" y2="1"><stop offset="0" stop-color="#ffffff"/><stop offset="1" stop-color="#dbe3f0"/></linearGradient></defs><rect x="0.75" y="0.75" width="118.5" height="166.5" rx="9" fill="url(#g_diamond)" stroke="#aeb9cf" stroke-width="1.5"/><g><circle cx="58.2" cy="100.6" r="0.57" fill="#a9b7d0" opacity="0.36"/><circle cx="47.9" cy="98.9" r="1.06" fill="#a9b7d0" opacity="0.33"/><circle cx="93.8" cy="28.3" r="0.83" fill="#a9b7d0" opacity="0.41"/><circle cx="54.9" cy="80.3" r="0.65" fill="#a9b7d0" opacity="0.48"/><circle cx="25.0" cy="147.3" r="0.68" fill="#a9b7d0" opacity="0.41"/><circle cx="65.2" cy="42.5" r="0.57" fill="#a9b7d0" opacity="0.42"/><circle cx="15.9" cy="39.7" r="0.78" fill="#a9b7d0" opacity="0.36"/><circle cx="86.4" cy="60.1" r="0.61" fill="#a9b7d0" opacity="0.38"/><circle cx="87.4" cy="109.6" r="0.68" fill="#a9b7d0" opacity="0.5"/><circle cx="18.9" cy="44.8" r="0.45" fill="#a9b7d0" opacity="0.29"/><circle cx="79.3" cy="125.2" r="0.44" fill="#a9b7d0" opacity="0.37"/><circle cx="70.1" cy="106.5" r="0.67" fill="#a9b7d0" opacity="0.46"/><circle cx="74.6" cy="63.4" r="0.6" fill="#a9b7d0" opacity="0.31"/><circle cx="58.2" cy="35.2" r="1.01" fill="#a9b7d0" opacity="0.33"/></g><rect x="4.6" y="4.6" width="110.8" height="158.8" rx="6" fill="none" stroke="#8fb8ee" stroke-width="3" opacity="0.28"/><rect x="4.6" y="4.6" width="110.8" height="158.8" rx="6" fill="none" stroke="#8b98b2" stroke-width="1" opacity="0.5" transform="translate(0 1.5)"/><rect x="4.6" y="4.6" width="110.8" height="158.8" rx="6" fill="none" stroke="#1565d8" stroke-width="2.2"/><rect x="4.6" y="4.6" width="110.8" height="158.8" rx="6" fill="none" stroke="#ffffff" stroke-width="0.8" opacity="0.7" transform="translate(0 -1.1)"/><path d="M482.9991455078125 0.0V582.6618041992188Q482.9991455078125 590.2291870117188 477.5600891113281 595.6682434082031Q472.12103271484375 601.1072998046875 464.55364990234375 601.1072998046875H3.0V721H468.76995849609375Q505.3274688720703 721.0 535.7920608520508 702.9188842773438Q566.2566528320312 684.8377685546875 584.3377685546875 654.569335594606Q602.4188842773438 624.3009026345243 602.4188842773438 586.8781127929688V0.0Z" transform="translate(0.8 1.1) translate(15.26 49.0) scale(0.052 -0.052)" fill="#9aa7be" opacity="0.55"/><path d="M482.9991455078125 0.0V582.6618041992188Q482.9991455078125 590.2291870117188 477.5600891113281 595.6682434082031Q472.12103271484375 601.1072998046875 464.55364990234375 601.1072998046875H3.0V721H468.76995849609375Q505.3274688720703 721.0 535.7920608520508 702.9188842773438Q566.2566528320312 684.8377685546875 584.3377685546875 654.569335594606Q602.4188842773438 624.3009026345243 602.4188842773438 586.8781127929688V0.0Z" transform="translate(15.26 49.0) scale(0.052 -0.052)" fill="#1565d8"/><path d="M28.5 0l20.112 29L28.5 58 8.388 29z" transform="translate(0.8 1.1) translate(31.00 72.0) scale(0.4237) translate(-29.0 -29.5)" fill="#9aa7be" opacity="0.55"/><path d="M28.5 0l20.112 29L28.5 58 8.388 29z" transform="translate(31.00 72.0) scale(0.4237) translate(-29.0 -29.5)" fill="#1565d8"/><path d="M28.5 0l20.112 29L28.5 58 8.388 29z" transform="translate(0.8 1.1) translate(81.00 125.0) scale(0.9153) translate(-29.0 -29.5)" fill="#9aa7be" opacity="0.55"/><path d="M28.5 0l20.112 29L28.5 58 8.388 29z" transform="translate(81.00 125.0) scale(0.9153) translate(-29.0 -29.5)" fill="#1565d8"/></svg>