<svg xmlns="http://www.w3.org/2000/svg" viewBox="0 0 120 168"><defs><linearGradient id="g_club" x1="0" y1="0" x2="0" y2="1"><stop offset="0" stop-color="#ffffff"/><stop offset="1" stop-color="#dbe3f0"/></linearGradient></defs><rect x="0.75" y="0.75" width="118.5" height="166.5" rx="9" fill="url(#g_club)" stroke="#aeb9cf" stroke-width="1.5"/><g><circle cx="61.5" cy="31.0" r="0.56" fill="#a9b7d0" opacity="0.46"/><circle cx="102.3" cy="38.5" r="1.0" fill="#a9b7d0" opacity="0.39"/><circle cx="17.3" cy="9.9" r="0.92" fill="#a9b7d0" opacity="0.46"/><circle cx="82.6" cy="73.0" r="0.41" fill="#a9b7d0" opacity="0.26"/><circle cx="100.8" cy="9.4" r="0.65" fill="#a9b7d0" opacity="0.32"/><circle cx="47.6" cy="30.1" r="0.63" fill="#a9b7d0" opacity="0.52"/><circle cx="94.3" cy="22.4" r="0.83" fill="#a9b7d0" opacity="0.28"/><circle cx="84.5" cy="153.0" r="0.66" fill="#a9b7d0" opacity="0.44"/><circle cx="70.8" cy="64.9" r="0.6" fill="#a9b7d0" opacity="0.53"/><circle cx="22.1" cy="94.8" r="1.0" fill="#a9b7d0" opacity="0.45"/><circle cx="59.7" cy="113.7" r="0.93" fill="#a9b7d0" opacity="0.43"/><circle cx="55.9" cy="80.0" r="1.0" fill="#a9b7d0" opacity="0.53"/><circle cx="23.9" cy="59.0" r="0.43" fill="#a9b7d0" opacity="0.55"/><circle cx="91.7" cy="73.1" r="0.97" fill="#a9b7d0" opacity="0.45"/></g><rect x="4.6" y="4.6" width="110.8" height="158.8" rx="6" fill="none" stroke="#8fd6a8" stroke-width="3" opacity="0.28"/><rect x="4.6" y="4.6" width="110.8" height="158.8" rx="6" fill="none" stroke="#8b98b2" stroke-width="1" opacity="0.5" transform="translate(0 1.5)"/><rect x="4.6" y="4.6" width="110.8" height="158.8" rx="6" fill="none" stroke="#0f8a3e" stroke-width="2.2"/><rect x="4.6" y="4.6" width="110.8" height="158.8" rx="6" fill="none" stroke="#ffffff" stroke-width="0.8" opacity="0.7" transform="translate(0 -1.1)"/><path d="M58.0 0V585.242919921875Q58.0 622.1957092285156 76.108154296875 652.9897003173828Q94.21630859375 683.78369140625 125.01029968261719 701.891845703125Q155.80429077148438 720.0 192.757080078125 720.0H642.7158813476562Q679.6686706542969 720.0 710.4626617431641 701.891845703125Q741.2566528320312 683.78369140625 759.6283264160156 652.9897003173828Q778.0 622.1957092285156 778.0 585.242919921875V0H656.945068359375V246.66180419921875H178.0008544921875V0.0H58.0ZM178.0008544921875 367.189697265625H656.945068359375V581.026611328125Q656.945068359375 588.593994140625 651.5060119628906 594.0330505371094Q646.0669555664062 599.4721069335938 638.4995727539062 599.4721069335938H196.44635009765625Q188.87896728515625 599.4721069335938 183.43991088867188 594.0330505371094Q178.0008544921875 588.593994140625 178.0008544921875 581.026611328125V367.189697265625Z" transform="translate(0.8 1.1) translate(9.26 49.0) scale(0.052 -0.052)" fill="#9aa7be" opacity="0.55"/><path d="M58.0 0V585.242919921875Q58.0 622.1957092285156 76.108154296875 652.9897003173828Q94.21630859375 683.78369140625 125.01029968261719 701.891845703125Q155.80429077148438 720.0 192.757080078125 720.0H642.7158813476562Q679.6686706542969 720.0 710.4626617431641 701.891845703125Q741.2566528320312 683.78369140625 759.6283264160156 652.9897003173828Q778.0 622.1957092285156 778.0 585.242919921875V0H656.945068359375V246.66180419921875H178.0008544921875V0.0H58.0ZM178.0008544921875 367.189697265625H656.945068359375V581.026611328125Q656.945068359375 588.593994140625 651.5060119628906 594.0330505371094Q646.0669555664062 599.4721069335938 638.4995727539062 599.4721069335938H196.44635009765625Q188.87896728515625 599.4721069335938 183.43991088867188 594.0330505371094Q178.0008544921875 588.593994140625 178.0008544921875 581.026611328125V367.189697265625Z" transform="translate(9.26 49.0) scale(0.052 -0.052)" fill="#0f8a3e"/><path d="M20.976 57.14c2.88-5.774 4.976-11.7 5.348-18.036.342-2.33-1.074-2.37-1.288-.73C20.96 53.97-.727 49.744.02 35.08.622 23.182 12.44 20.624 18.6 24.513c2.435 1.434 2.296.575.968-.91C10.416 13.39 15.958.24 28.33 0c13.38.793 16.854 14.87 8.647 23.147-1.02.994-3.283 4.19.123 1.956 8.287-5.888 19.787.443 19.553 9.52-.434 16.74-20.84 17.987-25.203 4.007-.42-1.55-1.63-2.328-1.295.305.604 4.767 1.855 11.953 5.438 18.205H20.976z" transform="translate(0.8 1.1) translate(31.00 72.0) scale(0.4237) translate(-29.0 -29.5)" fill="#9aa7be" opacity="0.55"/><path d="M20.976 57.14c2.88-5.774 4.976-11.7 5.348-18.036.342-2.33-1.074-2.37-1.288-.73C20.96 53.97-.727 49.744.02 35.08.622 23.182 12.44 20.624 18.6 24.513c2.435 1.434 2.296.575.968-.91C10.416 13.39 15.958.24 28.33 0c13.38.793 16.854 14.87 8.647 23.147-1.02.994-3.283 4.19.123 1.956 8.287-5.888 19.787.443 19.553 9.52-.434 16.74-20.84 17.987-25.203 4.007-.42-1.55-1.63-2.328-1.295.305.604 4.767 1.855 11.953 5.438 18.205H20.976z" transform="translate(31.00 72.0) scale(0.4237) translate(-29.0 -29.5)" fill="#0f8a3e"/><path d="M20.976 57.14c2.88-5.774 4.976-11.7 5.348-18.036.342-2.33-1.074-2.37-1.288-.73C20.96 53.97-.727 49.744.02 35.08.622 23.182 12.44 20.624 18.6 24.513c2.435 1.434 2.296.575.968-.91C10.416 13.39 15.958.24 28.33 0c13.38.793 16.854 14.87 8.647 23.147-1.02.994-3.283 4.19.123 1.956 8.287-5.888 19.787.443 19.553 9.52-.434 16.74-20.84 17.987-25.203 4.007-.42-1.55-1.63-2.328-1.295.305.604 4.767 1.855 11.953 5.438 18.205H20.976z" transform="translate(0.8 1.1) translate(81.00 125.0) scale(0.9153) translate(-29.0 -29.5)" fill="#9aa7be" opacity="0.55"/><path d="M20.976 57.14c2.88-5.774 4.976-11.7 5.348-18.036.342-2.33-1.074-2.37-1.288-.73C20.96 53.97-.727 49.744.02 35.08.622 23.182 12.44 20.624 18.6 24.513c2.435 1.434 2.296.575.968-.91C10.416 13.39 15.958.24 28.33 0c13.38.793 16.854 14.87 8.647 23.147-1.02.994-3.283 4.19.123 1.956 8.287-5.888 19.787.443 19.553 9.52-.434 16.74-20.84 17.987-25.203 4.007-.42-1.55-1.63-2.328-1.295.305.604 4.767 1.855 11.953 5.438 18.205H20.976z" transform="translate(81.00 125.0) scale(0.9153) translate(-29.0 -29.5)" fill="#0f8a3e"/></svg>