<svg xmlns="http://www.w3.org/2000/svg" viewBox="0 0 120 168"><defs><linearGradient id="g_diamond" x1="0" y1="0" x2="0" y2="1"><stop offset="0" stop-color="#fcfdff"/><stop offset="1" stop-color="#c9dcff"/></linearGradient></defs><rect x="0.75" y="0.75" width="118.5" height="166.5" rx="9" fill="url(#g_diamond)" stroke="#9a9a9a" stroke-width="1.5"/><g transform="translate(-1.37 -4.20) scale(1.6502)"><path d="M0 32.008V29.27h2.66L8.326 0h3.224l6.24 29.27h2.148v2.738H12.62V29.27h1.98l-.787-4.484H6.427l-.57 4.484h1.978v2.738H0zm13.178-10.416L9.97 5.922l-3.007 15.67h6.215z" transform="translate(8.118,8.000) scale(0.9412)" fill="#0000ff" stroke="#0000ff" stroke-width="1.6" stroke-linejoin="round"/></g><path d="M28.5 0l20.112 29L28.5 58 8.388 29z" transform="translate(27.594059405940595 80.0) scale(0.4237) translate(-29.0 -29.5)" fill="#0000ff"/><path d="M28.5 0l20.112 29L28.5 58 8.388 29z" transform="translate(81.0 125.0) scale(0.9153) translate(-29.0 -29.5)" fill="#0000ff"/></svg>