<svg xmlns="http://www.w3.org/2000/svg" viewBox="0 0 120 168"><defs><linearGradient id="g_heart" x1="0" y1="0" x2="0" y2="1"><stop offset="0" stop-color="#fffdfc"/><stop offset="1" stop-color="#ffcfcf"/></linearGradient></defs><rect x="0.75" y="0.75" width="118.5" height="166.5" rx="9" fill="url(#g_heart)" stroke="#9a9a9a" stroke-width="1.5"/><g transform="translate(-1.71 -3.90) scale(1.6129)"><path d="M0 32.676l.164-2.018c.51-6.24 1.875-8.348 9.623-14.856 3.76-3.16 4.994-4.717 5.168-6.525.49-4.26-3.352-5.592-5.855-5.613-3.24-.03-6.91 1.91-5.16 6.414L.3 11.144c-.732-4.2.02-8.142 3.427-9.893C8.275-1.02 14.11-.13 17.05 3.46c1.98 2.414 2.43 5.746 1.368 8.355-3.1 6.67-13.62 9.605-14.49 17.318h11.63V24.84h3.428v7.907L0 32.677z" transform="translate(8.588,8.000) scale(0.9412)" fill="#ff0000" stroke="#ff0000" stroke-width="1.6" stroke-linejoin="round"/></g><path d="M16.49.2c7.12-.476 10.832 5.638 11.557 10.455.432.766.668.55.834-.042.35-6.186 5.86-11.24 10.96-10.55 8.3.108 13.35 9.393 11.93 17.25-1.73 9.6-6.875 15.38-10.77 21.333C36.586 44.81 30.656 53.716 28.74 58c0 0-6.027-9.222-13.87-20.067-5.243-7.252-9.44-15.11-9.83-21.875-.447-7.73 2.71-14.66 11.45-15.86z" transform="translate(26.596774193548388 80.0) scale(0.4237) translate(-29.0 -29.5)" fill="#ff0000"/><path d="M16.49.2c7.12-.476 10.832 5.638 11.557 10.455.432.766.668.55.834-.042.35-6.186 5.86-11.24 10.96-10.55 8.3.108 13.35 9.393 11.93 17.25-1.73 9.6-6.875 15.38-10.77 21.333C36.586 44.81 30.656 53.716 28.74 58c0 0-6.027-9.222-13.87-20.067-5.243-7.252-9.44-15.11-9.83-21.875-.447-7.73 2.71-14.66 11.45-15.86z" transform="translate(81.0 125.0) scale(0.9153) translate(-29.0 -29.5)" fill="#ff0000"/></svg>