<svg xmlns="http://www.w3.org/2000/svg" viewBox="0 0 120 168"><defs><linearGradient id="g_heart" x1="0" y1="0" x2="0" y2="1"><stop offset="0" stop-color="#fffdfc"/><stop offset="1" stop-color="#ffcfcf"/></linearGradient></defs><rect x="0.75" y="0.75" width="118.5" height="166.5" rx="9" fill="url(#g_heart)" stroke="#9a9a9a" stroke-width="1.5"/><g transform="translate(0.59 -3.86) scale(1.6077)"><path d="M0 25.663L2.578 23.8c2.24 3.577 4.74 5.935 8.566 5.53 5.742-.39 8.12-6.296 6.918-10.753-1.16-3.99-5.916-5.938-9.694-3.808-.892.5-1.922 1.12-1.922 1.12L5.1 13.7l8.87-10.317H4.346v4.27H.654V0h18.812v2.6s-5.04 5.13-6.707 7.94c4.1.148 7.41 2.7 8.59 6.737.69 2.124.38 6.984-.527 9.076-1.51 3.492-5.65 6.325-9.434 6.488-6.34.42-9.71-3.94-11.39-7.17z" transform="translate(7.176,8.000) scale(0.9412)" fill="#ff0000" stroke="#ff0000" stroke-width="1.6" stroke-linejoin="round"/></g><path d="M16.49.2c7.12-.476 10.832 5.638 11.557 10.455.432.766.668.55.834-.042.35-6.186 5.86-11.24 10.96-10.55 8.3.108 13.35 9.393 11.93 17.25-1.73 9.6-6.875 15.38-10.77 21.333C36.586 44.81 30.656 53.716 28.74 58c0 0-6.027-9.222-13.87-20.067-5.243-7.252-9.44-15.11-9.83-21.875-.447-7.73 2.71-14.66 11.45-15.86z" transform="translate(28.639871382636656 80.0) scale(0.4237) translate(-29.0 -29.5)" fill="#ff0000"/><path d="M16.49.2c7.12-.476 10.832 5.638 11.557 10.455.432.766.668.55.834-.042.35-6.186 5.86-11.24 10.96-10.55 8.3.108 13.35 9.393 11.93 17.25-1.73 9.6-6.875 15.38-10.77 21.333C36.586 44.81 30.656 53.716 28.74 58c0 0-6.027-9.222-13.87-20.067-5.243-7.252-9.44-15.11-9.83-21.875-.447-7.73 2.71-14.66 11.45-15.86z" transform="translate(81.0 125.0) scale(0.9153) translate(-29.0 -29.5)" fill="#ff0000"/></svg>