<svg xmlns="http://www.w3.org/2000/svg" viewBox="0 0 120 168"><defs><linearGradient id="g_heart" x1="0" y1="0" x2="0" y2="1"><stop offset="0" stop-color="#fffdfc"/><stop offset="1" stop-color="#ffcfcf"/></linearGradient></defs><rect x="0.75" y="0.75" width="118.5" height="166.5" rx="9" fill="url(#g_heart)" stroke="#9a9a9a" stroke-width="1.5"/><g transform="translate(-0.46 -4.11) scale(1.6393)"><path d="M0 23.89l3.22-.026c.612 1.942 1.974 3.926 3.817 4.473 5.21 1.225 8.567-1.688 9.673-5.047 1.34-4.072-.03-9.794-3.617-11.827C10.116 9.777 5.697 11.2 3.67 14.8l-2.258-1.378L2.624 0h14.73v3.172H5.416l-.187 5.59c2.56-1.802 6.51-1.783 9.08-.52 4.86 2.318 7.12 7.593 6.18 13.81-1.31 6.185-4.2 9.688-10.72 10.19-7.24.06-9.8-4.92-9.77-8.352z" transform="translate(7.647,8.000) scale(0.9412)" fill="#ff0000" stroke="#ff0000" stroke-width="1.6" stroke-linejoin="round"/></g><path d="M16.49.2c7.12-.476 10.832 5.638 11.557 10.455.432.766.668.55.834-.042.35-6.186 5.86-11.24 10.96-10.55 8.3.108 13.35 9.393 11.93 17.25-1.73 9.6-6.875 15.38-10.77 21.333C36.586 44.81 30.656 53.716 28.74 58c0 0-6.027-9.222-13.87-20.067-5.243-7.252-9.44-15.11-9.83-21.875-.447-7.73 2.71-14.66 11.45-15.86z" transform="translate(28.14754098360656 80.0) scale(0.4237) translate(-29.0 -29.5)" fill="#ff0000"/><path d="M16.49.2c7.12-.476 10.832 5.638 11.557 10.455.432.766.668.55.834-.042.35-6.186 5.86-11.24 10.96-10.55 8.3.108 13.35 9.393 11.93 17.25-1.73 9.6-6.875 15.38-10.77 21.333C36.586 44.81 30.656 53.716 28.74 58c0 0-6.027-9.222-13.87-20.067-5.243-7.252-9.44-15.11-9.83-21.875-.447-7.73 2.71-14.66 11.45-15.86z" transform="translate(81.0 125.0) scale(0.9153) translate(-29.0 -29.5)" fill="#ff0000"/></svg>