<svg xmlns="http://www.w3.org/2000/svg" viewBox="0 0 120 168"><defs><linearGradient id="g_diamond" x1="0" y1="0" x2="0" y2="1"><stop offset="0" stop-color="#fcfdff"/><stop offset="1" stop-color="#c9dcff"/></linearGradient></defs><rect x="0.75" y="0.75" width="118.5" height="166.5" rx="9" fill="url(#g_diamond)" stroke="#9a9a9a" stroke-width="1.5"/><g transform="translate(0.23 -3.90) scale(1.6129)"><path d="M10.34 31.817v-2.812h2.585V24.37H0V21.1L13.986 0l2.285.008v21.09h3.96v3.27h-3.96l-.07 4.638h2.166v2.812H10.34zM12.925 7.72l-8.88 13.377h8.88V7.72z" transform="translate(7.333,8.000) scale(0.9697)" fill="#0000ff" stroke="#0000ff" stroke-width="1.6" stroke-linejoin="round"/></g><path d="M28.5 0l20.112 29L28.5 58 8.388 29z" transform="translate(27.967741935483872 80.0) scale(0.4237) translate(-29.0 -29.5)" fill="#0000ff"/><path d="M28.5 0l20.112 29L28.5 58 8.388 29z" transform="translate(81.0 125.0) scale(0.9153) translate(-29.0 -29.5)" fill="#0000ff"/></svg>