<svg xmlns="http://www.w3.org/2000/svg" viewBox="0 0 120 168"><defs><linearGradient id="g_spade" x1="0" y1="0" x2="0" y2="1"><stop offset="0" stop-color="#fbfcfc"/><stop offset="1" stop-color="#c8c8c8"/></linearGradient></defs><rect x="0.75" y="0.75" width="118.5" height="166.5" rx="9" fill="url(#g_spade)" stroke="#9a9a9a" stroke-width="1.5"/><g transform="translate(0.23 -3.90) scale(1.6129)"><path d="M10.34 31.817v-2.812h2.585V24.37H0V21.1L13.986 0l2.285.008v21.09h3.96v3.27h-3.96l-.07 4.638h2.166v2.812H10.34zM12.925 7.72l-8.88 13.377h8.88V7.72z" transform="translate(7.333,8.000) scale(0.9697)" fill="#000000" stroke="#000000" stroke-width="1.6" stroke-linejoin="round"/></g><path d="M26.406 40.187c.015-1.98-1.56-2.017-1.542-.573-.133 7.257-6.31 10.83-10.8 9.982-6.92-1.307-9.128-8.13-9.06-12.148C5.204 25.046 17.774 15.9 29.114 0c8.31 14.35 22.03 25.623 22.84 36.717 1.08 14.75-17.71 20.25-20.394 3.06-.172-1.214-1.612-1.76-1.5-.063.408 4.71-.17 6.674 5.18 18.287H21.25c3.1-5.42 4.943-12.09 5.154-17.81z" transform="translate(27.967741935483872 80.0) scale(0.4237) translate(-29.0 -29.5)" fill="#000000"/><path d="M26.406 40.187c.015-1.98-1.56-2.017-1.542-.573-.133 7.257-6.31 10.83-10.8 9.982-6.92-1.307-9.128-8.13-9.06-12.148C5.204 25.046 17.774 15.9 29.114 0c8.31 14.35 22.03 25.623 22.84 36.717 1.08 14.75-17.71 20.25-20.394 3.06-.172-1.214-1.612-1.76-1.5-.063.408 4.71-.17 6.674 5.18 18.287H21.25c3.1-5.42 4.943-12.09 5.154-17.81z" transform="translate(81.0 125.0) scale(0.9153) translate(-29.0 -29.5)" fill="#000000"/></svg>