<svg xmlns="http://www.w3.org/2000/svg" viewBox="0 0 120 168"><defs><linearGradient id="g_diamond" x1="0" y1="0" x2="0" y2="1"><stop offset="0" stop-color="#fcfdff"/><stop offset="1" stop-color="#c9dcff"/></linearGradient></defs><rect x="0.75" y="0.75" width="118.5" height="166.5" rx="9" fill="url(#g_diamond)" stroke="#9a9a9a" stroke-width="1.5"/><g transform="translate(-0.46 -4.11) scale(1.6393)"><path d="M0 23.89l3.22-.026c.612 1.942 1.974 3.926 3.817 4.473 5.21 1.225 8.567-1.688 9.673-5.047 1.34-4.072-.03-9.794-3.617-11.827C10.116 9.777 5.697 11.2 3.67 14.8l-2.258-1.378L2.624 0h14.73v3.172H5.416l-.187 5.59c2.56-1.802 6.51-1.783 9.08-.52 4.86 2.318 7.12 7.593 6.18 13.81-1.31 6.185-4.2 9.688-10.72 10.19-7.24.06-9.8-4.92-9.77-8.352z" transform="translate(7.647,8.000) scale(0.9412)" fill="#0000ff" stroke="#0000ff" stroke-width="1.6" stroke-linejoin="round"/></g><path d="M28.5 0l20.112 29L28.5 58 8.388 29z" transform="translate(28.14754098360656 80.0) scale(0.4237) translate(-29.0 -29.5)" fill="#0000ff"/><path d="M28.5 0l20.112 29L28.5 58 8.388 29z" transform="translate(81.0 125.0) scale(0.9153) translate(-29.0 -29.5)" fill="#0000ff"/></svg>