<svg xmlns="http://www.w3.org/2000/svg" viewBox="0 0 120 168"><defs><linearGradient id="g_spade" x1="0" y1="0" x2="0" y2="1"><stop offset="0" stop-color="#fbfcfc"/><stop offset="1" stop-color="#c8c8c8"/></linearGradient></defs><rect x="0.75" y="0.75" width="118.5" height="166.5" rx="9" fill="url(#g_spade)" stroke="#9a9a9a" stroke-width="1.5"/><g transform="translate(-1.84 -4.03) scale(1.6287)"><path d="M.224 26.224l3.025-.942c1.14 2.995 3.45 3.88 5.89 3.688 4.38-.34 5.83-5.147 6.16-9.397-1.71 1.772-4.276 2.674-6.46 2.586C1.86 21.79.07 16.3.01 10.55-.18 5.71 1.86 2.202 5.36.592c1.855-.812 6.1-.812 7.96.15 4.283 2.217 5.867 6.05 5.58 15.19.004 7.523-1.625 16.287-9.838 16.476-4.748.644-8.352-2.98-8.838-6.184zM12.11 17.98c1.428-.887 2.23-1.717 2.868-2.963.525-1.02.703-1.553.553-3.67-.38-5.457-3.29-8.547-7.52-7.933-2.35.344-3.64 1.64-4.38 4.05-1.364 4.45.367 9.656 3.61 10.854 1.464.54 3.716.386 4.88-.338z" transform="translate(8.588,8.000) scale(0.9412)" fill="#000000" stroke="#000000" stroke-width="1.6" stroke-linejoin="round"/></g><path d="M26.406 40.187c.015-1.98-1.56-2.017-1.542-.573-.133 7.257-6.31 10.83-10.8 9.982-6.92-1.307-9.128-8.13-9.06-12.148C5.204 25.046 17.774 15.9 29.114 0c8.31 14.35 22.03 25.623 22.84 36.717 1.08 14.75-17.71 20.25-20.394 3.06-.172-1.214-1.612-1.76-1.5-.063.408 4.71-.17 6.674 5.18 18.287H21.25c3.1-5.42 4.943-12.09 5.154-17.81z" transform="translate(26.73941368078176 80.0) scale(0.4237) translate(-29.0 -29.5)" fill="#000000"/><path d="M26.406 40.187c.015-1.98-1.56-2.017-1.542-.573-.133 7.257-6.31 10.83-10.8 9.982-6.92-1.307-9.128-8.13-9.06-12.148C5.204 25.046 17.774 15.9 29.114 0c8.31 14.35 22.03 25.623 22.84 36.717 1.08 14.75-17.71 20.25-20.394 3.06-.172-1.214-1.612-1.76-1.5-.063.408 4.71-.17 6.674 5.18 18.287H21.25c3.1-5.42 4.943-12.09 5.154-17.81z" transform="translate(81.0 125.0) scale(0.9153) translate(-29.0 -29.5)" fill="#000000"/></svg>