<svg xmlns="http://www.w3.org/2000/svg" viewBox="0 0 120 168"><defs><linearGradient id="g_spade" x1="0" y1="0" x2="0" y2="1"><stop offset="0" stop-color="#fbfcfc"/><stop offset="1" stop-color="#c8c8c8"/></linearGradient></defs><rect x="0.75" y="0.75" width="118.5" height="166.5" rx="9" fill="url(#g_spade)" stroke="#9a9a9a" stroke-width="1.5"/><g transform="translate(-0.70 -4.03) scale(1.6287)"><path d="M0 31.505V0h3.11v31.505H0zM12.328 0c-2.994 0-5.4 2.687-5.4 6.02v19.462c0 3.336 2.406 6.02 5.4 6.02h1.746c2.994 0 5.406-2.685 5.406-6.02V6.022C19.48 2.686 17.07 0 14.074 0h-1.746zm.904 2.978c1.768 0 3.19 1.337 3.19 3.002v19.723c0 1.664-1.424 3.006-3.19 3.006-1.77 0-3.19-1.35-3.19-3.01V5.98c-.003-1.665 1.42-3.002 3.19-3.002z" transform="translate(7.818,8.000) scale(0.9697)" fill="#000000" stroke="#000000" stroke-width="1.6" stroke-linejoin="round"/></g><path d="M26.406 40.187c.015-1.98-1.56-2.017-1.542-.573-.133 7.257-6.31 10.83-10.8 9.982-6.92-1.307-9.128-8.13-9.06-12.148C5.204 25.046 17.774 15.9 29.114 0c8.31 14.35 22.03 25.623 22.84 36.717 1.08 14.75-17.71 20.25-20.394 3.06-.172-1.214-1.612-1.76-1.5-.063.408 4.71-.17 6.674 5.18 18.287H21.25c3.1-5.42 4.943-12.09 5.154-17.81z" transform="translate(27.553745928338756 80.0) scale(0.4237) translate(-29.0 -29.5)" fill="#000000"/><path d="M26.406 40.187c.015-1.98-1.56-2.017-1.542-.573-.133 7.257-6.31 10.83-10.8 9.982-6.92-1.307-9.128-8.13-9.06-12.148C5.204 25.046 17.774 15.9 29.114 0c8.31 14.35 22.03 25.623 22.84 36.717 1.08 14.75-17.71 20.25-20.394 3.06-.172-1.214-1.612-1.76-1.5-.063.408 4.71-.17 6.674 5.18 18.287H21.25c3.1-5.42 4.943-12.09 5.154-17.81z" transform="translate(81.0 125.0) scale(0.9153) translate(-29.0 -29.5)" fill="#000000"/></svg>