<svg xmlns="http://www.w3.org/2000/svg" viewBox="0 0 120 168"><defs><linearGradient id="g_club" x1="0" y1="0" x2="0" y2="1"><stop offset="0" stop-color="#fbfefb"/><stop offset="1" stop-color="#baf8ba"/></linearGradient></defs><rect x="0.75" y="0.75" width="118.5" height="166.5" rx="9" fill="url(#g_club)" stroke="#9a9a9a" stroke-width="1.5"/><g transform="translate(-0.54 -3.86) scale(1.6077)"><path d="M4.98 31.887C7.114 20.8 9.39 12.477 15.36 3.44H3.227v3.892H0V0h17.754l2.188 3.44c-6.34 6.797-12.146 28.77-11.12 28.446h-3.84z" transform="translate(7.818,8.000) scale(0.9697)" fill="#008000" stroke="#008000" stroke-width="1.6" stroke-linejoin="round"/></g><path d="M20.976 57.14c2.88-5.774 4.976-11.7 5.348-18.036.342-2.33-1.074-2.37-1.288-.73C20.96 53.97-.727 49.744.02 35.08.622 23.182 12.44 20.624 18.6 24.513c2.435 1.434 2.296.575.968-.91C10.416 13.39 15.958.24 28.33 0c13.38.793 16.854 14.87 8.647 23.147-1.02.994-3.283 4.19.123 1.956 8.287-5.888 19.787.443 19.553 9.52-.434 16.74-20.84 17.987-25.203 4.007-.42-1.55-1.63-2.328-1.295.305.604 4.767 1.855 11.953 5.438 18.205H20.976z" transform="translate(27.675241157556272 80.0) scale(0.4237) translate(-29.0 -29.5)" fill="#008000"/><path d="M20.976 57.14c2.88-5.774 4.976-11.7 5.348-18.036.342-2.33-1.074-2.37-1.288-.73C20.96 53.97-.727 49.744.02 35.08.622 23.182 12.44 20.624 18.6 24.513c2.435 1.434 2.296.575.968-.91C10.416 13.39 15.958.24 28.33 0c13.38.793 16.854 14.87 8.647 23.147-1.02.994-3.283 4.19.123 1.956 8.287-5.888 19.787.443 19.553 9.52-.434 16.74-20.84 17.987-25.203 4.007-.42-1.55-1.63-2.328-1.295.305.604 4.767 1.855 11.953 5.438 18.205H20.976z" transform="translate(81.0 125.0) scale(0.9153) translate(-29.0 -29.5)" fill="#008000"/></svg>