<svg xmlns="http://www.w3.org/2000/svg" viewBox="0 0 120 168"><defs><linearGradient id="g_diamond" x1="0" y1="0" x2="0" y2="1"><stop offset="0" stop-color="#fcfdff"/><stop offset="1" stop-color="#c9dcff"/></linearGradient></defs><rect x="0.75" y="0.75" width="118.5" height="166.5" rx="9" fill="url(#g_diamond)" stroke="#9a9a9a" stroke-width="1.5"/><g transform="translate(-0.54 -3.86) scale(1.6077)"><path d="M4.98 31.887C7.114 20.8 9.39 12.477 15.36 3.44H3.227v3.892H0V0h17.754l2.188 3.44c-6.34 6.797-12.146 28.77-11.12 28.446h-3.84z" transform="translate(7.818,8.000) scale(0.9697)" fill="#0000ff" stroke="#0000ff" stroke-width="1.6" stroke-linejoin="round"/></g><path d="M28.5 0l20.112 29L28.5 58 8.388 29z" transform="translate(27.675241157556272 80.0) scale(0.4237) translate(-29.0 -29.5)" fill="#0000ff"/><path d="M28.5 0l20.112 29L28.5 58 8.388 29z" transform="translate(81.0 125.0) scale(0.9153) translate(-29.0 -29.5)" fill="#0000ff"/></svg>