<svg xmlns="http://www.w3.org/2000/svg" viewBox="0 0 120 168"><defs><linearGradient id="g_club" x1="0" y1="0" x2="0" y2="1"><stop offset="0" stop-color="#fbfefb"/><stop offset="1" stop-color="#baf8ba"/></linearGradient></defs><rect x="0.75" y="0.75" width="118.5" height="166.5" rx="9" fill="url(#g_club)" stroke="#9a9a9a" stroke-width="1.5"/><g transform="translate(-1.37 -4.20) scale(1.6502)"><path d="M0 32.008V29.27h2.66L8.326 0h3.224l6.24 29.27h2.148v2.738H12.62V29.27h1.98l-.787-4.484H6.427l-.57 4.484h1.978v2.738H0zm13.178-10.416L9.97 5.922l-3.007 15.67h6.215z" transform="translate(8.118,8.000) scale(0.9412)" fill="#008000" stroke="#008000" stroke-width="1.6" stroke-linejoin="round"/></g><path d="M20.976 57.14c2.88-5.774 4.976-11.7 5.348-18.036.342-2.33-1.074-2.37-1.288-.73C20.96 53.97-.727 49.744.02 35.08.622 23.182 12.44 20.624 18.6 24.513c2.435 1.434 2.296.575.968-.91C10.416 13.39 15.958.24 28.33 0c13.38.793 16.854 14.87 8.647 23.147-1.02.994-3.283 4.19.123 1.956 8.287-5.888 19.787.443 19.553 9.52-.434 16.74-20.84 17.987-25.203 4.007-.42-1.55-1.63-2.328-1.295.305.604 4.767 1.855 11.953 5.438 18.205H20.976z" transform="translate(27.594059405940595 80.0) scale(0.4237) translate(-29.0 -29.5)" fill="#008000"/><path d="M20.976 57.14c2.88-5.774 4.976-11.7 5.348-18.036.342-2.33-1.074-2.37-1.288-.73C20.96 53.97-.727 49.744.02 35.08.622 23.182 12.44 20.624 18.6 24.513c2.435 1.434 2.296.575.968-.91C10.416 13.39 15.958.24 28.33 0c13.38.793 16.854 14.87 8.647 23.147-1.02.994-3.283 4.19.123 1.956 8.287-5.888 19.787.443 19.553 9.52-.434 16.74-20.84 17.987-25.203 4.007-.42-1.55-1.63-2.328-1.295.305.604 4.767 1.855 11.953 5.438 18.205H20.976z" transform="translate(81.0 125.0) scale(0.9153) translate(-29.0 -29.5)" fill="#008000"/></svg>