<svg xmlns="http://www.w3.org/2000/svg" viewBox="0 0 120 168"><defs><linearGradient id="g_diamond" x1="0" y1="0" x2="0" y2="1"><stop offset="0" stop-color="#fcfdff"/><stop offset="1" stop-color="#c9dcff"/></linearGradient></defs><rect x="0.75" y="0.75" width="118.5" height="166.5" rx="9" fill="url(#g_diamond)" stroke="#9a9a9a" stroke-width="1.5"/><g transform="translate(-1.15 -3.99) scale(1.6234)"><path d="M19.876 0H9.636v3.498h3.808s-.045-.664-.012 7.14c.02 5.474.016 8.968-.05 11.267.02 3.062-.485 4.936-1.69 6.06-1.908 1.605-5.64 1.444-7.02-.066-1.022-1.19-1.238-3.46-1.177-6.13H.015s.003 1.29 0 1.97C-.588 36.34 16.28 34.2 16.82 25.42c.112-1.877.056-1.194.01-11.598-.05-11.146-.01-10.32-.01-10.32h3.056V0z" transform="translate(8.118,8.000) scale(0.9412)" fill="#0000ff" stroke="#0000ff" stroke-width="1.6" stroke-linejoin="round"/></g><path d="M28.5 0l20.112 29L28.5 58 8.388 29z" transform="translate(27.340909090909093 80.0) scale(0.4237) translate(-29.0 -29.5)" fill="#0000ff"/><path d="M28.5 0l20.112 29L28.5 58 8.388 29z" transform="translate(81.0 125.0) scale(0.9153) translate(-29.0 -29.5)" fill="#0000ff"/></svg>