<svg xmlns="http://www.w3.org/2000/svg" viewBox="0 0 120 168"><rect x="0.5" y="0.5" width="119" height="167" rx="9" fill="#ffffff" stroke="#cccccc" stroke-width="1"/><g transform="translate(-0.20 -3.80) scale(1.6)"><path d="M0 32.008V29.27h2.66L8.326 0h3.224l6.24 29.27h2.148v2.738H12.62V29.27h1.98l-.787-4.484H6.427l-.57 4.484h1.978v2.738H0zm13.178-10.416L9.97 5.922l-3.007 15.67h6.215z" transform="translate(8.118,8.000) scale(0.9412)" fill="#B92220" stroke="#B92220" stroke-width="1.6" stroke-linejoin="round"/></g><path d="M16.49.2c7.12-.476 10.832 5.638 11.557 10.455.432.766.668.55.834-.042.35-6.186 5.86-11.24 10.96-10.55 8.3.108 13.35 9.393 11.93 17.25-1.73 9.6-6.875 15.38-10.77 21.333C36.586 44.81 30.656 53.716 28.74 58c0 0-6.027-9.222-13.87-20.067-5.243-7.252-9.44-15.11-9.83-21.875-.447-7.73 2.71-14.66 11.45-15.86z" transform="translate(13.5 62.0) scale(0.46)" fill="#B92220"/><g transform="translate(76.0 102.0) scale(0.8) translate(-76.0 -102.0)"><rect x="46.0" y="58.0" width="56.0" height="84.0" rx="5" fill="#B92220"/><path d="M16.49.2c7.12-.476 10.832 5.638 11.557 10.455.432.766.668.55.834-.042.35-6.186 5.86-11.24 10.96-10.55 8.3.108 13.35 9.393 11.93 17.25-1.73 9.6-6.875 15.38-10.77 21.333C36.586 44.81 30.656 53.716 28.74 58c0 0-6.027-9.222-13.87-20.067-5.243-7.252-9.44-15.11-9.83-21.875-.447-7.73 2.71-14.66 11.45-15.86z" transform="translate(51.390,77.000) scale(0.7797)" fill="#ffffff"/></g></svg>