<svg xmlns="http://www.w3.org/2000/svg" viewBox="0 0 120 168"><rect x="0.5" y="0.5" width="119" height="167" rx="9" fill="#ffffff" stroke="#cccccc" stroke-width="1"/><g transform="translate(-0.20 -3.80) scale(1.6)"><path d="M9.842 0C5.15.09 2.822 4.02 2.797 7.953L2.8 18.27H0v3.426h2.8s.05 1.564.042 2.503c-.04 4.63 1.6 7.44 4.797 8.22 3.06.56 4.66-.1 7-1.31.84.35 1.44 1.08 2.34 1.17 1.003.1 3.095.05 3.095.05l-.058-3.515-1.046-.15c-2-.036-2.865-.735-2.65-1.984.426-.81.487-1.403.526-2.387V6.85C16.794 2.57 13.3.037 9.84 0zm-.145 3.403c2.24-.035 4.104 2.573 4.053 5.246l.035 13.48c.073.84-.062 1.67-.437 2.26-.295-.86-4.93-5.6-7.248-5.38 0 0-.094.24-.16-5.69-.028-2.91-.793-7.257 1.822-9.218.653-.48 1.308-.7 1.935-.708zm2.34 24.628c.206.42-.555.83-1.366 1.06-2.29.64-4.54-.79-4.61-4.08-.02-1-.09-2.072.268-2.23 1.053-.474 5.098 4.01 5.72 5.26z" transform="translate(7.647,8.000) scale(0.9412)" fill="#1A1A1A" stroke="#1A1A1A" stroke-width="1.6" stroke-linejoin="round"/></g><path d="M26.406 40.187c.015-1.98-1.56-2.017-1.542-.573-.133 7.257-6.31 10.83-10.8 9.982-6.92-1.307-9.128-8.13-9.06-12.148C5.204 25.046 17.774 15.9 29.114 0c8.31 14.35 22.03 25.623 22.84 36.717 1.08 14.75-17.71 20.25-20.394 3.06-.172-1.214-1.612-1.76-1.5-.063.408 4.71-.17 6.674 5.18 18.287H21.25c3.1-5.42 4.943-12.09 5.154-17.81z" transform="translate(13.5 62.0) scale(0.46)" fill="#1A1A1A"/><g transform="translate(76.0 102.0) scale(0.8) translate(-76.0 -102.0)"><rect x="46.0" y="58.0" width="56.0" height="84.0" rx="5" fill="#1A1A1A"/><g transform="translate(74.00,100.00) scale(0.03438,0.03438) translate(-640.00,-516.50)"><g transform="translate(0,1033) scale(0.1,-0.1)" fill="#ffffff" stroke="none"><path d="M6270 10314 c-99 -21 -202 -77 -274 -148 -136 -133 -169 -304 -92 -473 54 -116 214 -235 357 -265 70 -14 66 25 39 -328 -168 -2211 -409 -4110 -741 -5825 -54 -278 -138 -677 -143 -683 -13 -13 -295 531 -419 808 -414 926 -826 2123 -1285 3735 -125 438 -372 1340 -372 1359 0 2 26 10 58 16 253 51 435 289 393 513 -24 130 -119 252 -248 320 -97 51 -170 68 -288 68 -157 0 -259 -37 -384 -141 -74 -61 -113 -117 -141 -201 -65 -191 45 -405 264 -513 73 -36 181 -65 244 -66 19 0 32 -5 32 -12 0 -7 11 -96 25 -198 202 -1476 320 -2652 375 -3740 18 -355 24 -1052 11 -1355 -18 -428 -55 -797 -76 -773 -7 7 -115 164 -240 348 -283 415 -661 964 -1695 2465 -444 644 -814 1182 -824 1197 l-17 26 59 40 c208 142 262 390 127 590 -62 91 -187 175 -311 207 -74 19 -233 19 -307 0 -162 -42 -325 -178 -370 -310 -87 -249 93 -508 395 -569 98 -20 167 -20 268 0 45 9 82 15 84 13 2 -2 80 -141 173 -309 1198 -2150 1941 -3845 2283 -5210 23 -91 57 -215 75 -275 70 -233 108 -504 82 -597 l-7 -28 2991 0 c2843 0 2991 1 2984 17 -23 61 -30 135 -29 313 1 300 25 470 110 785 320 1186 1135 2880 2447 5088 113 191 132 218 151 214 148 -35 176 -39 261 -34 305 18 539 261 495 515 -24 138 -110 254 -237 320 -100 51 -187 72 -299 72 -410 0 -675 -368 -478 -665 18 -27 62 -75 98 -105 36 -30 66 -57 66 -60 0 -3 -98 -131 -217 -285 -1217 -1572 -2064 -2752 -2594 -3618 l-127 -207 -11 48 c-112 522 -134 1274 -65 2157 61 785 197 1698 412 2775 l57 285 115 6 c163 9 243 42 337 141 167 177 158 419 -21 585 -75 70 -146 103 -248 116 -170 23 -309 -23 -416 -137 -73 -78 -103 -148 -110 -258 -9 -147 59 -288 177 -365 l59 -38 -143 -425 c-716 -2141 -1339 -3641 -1843 -4444 -48 -77 -91 -140 -96 -140 -11 -1 -28 67 -95 379 -207 955 -405 2545 -571 4575 -58 713 -130 1695 -130 1771 l0 39 48 0 c156 1 357 118 437 255 71 120 71 270 1 389 -36 62 -157 169 -232 206 -116 57 -260 73 -394 44z"/></g></g></g></svg>