<svg xmlns="http://www.w3.org/2000/svg" viewBox="0 0 120 168"><rect x="0.5" y="0.5" width="119" height="167" rx="9" fill="#ffffff" stroke="#cccccc" stroke-width="1"/><g transform="translate(-0.20 -3.80) scale(1.6)"><path d="M.313 22.58c-.408-2.746-.402-9.843-.066-11.94C1.277 4.21 3.78 1.27 7.97.305c4.067-.936 9.79.105 11.044 5.48l-3.407.064c-1.84-3.64-6.495-2.66-9.115-1.09-2.094 1.262-3.04 6.52-2.635 6.843-.003 0 3.957-2.877 7.076-2.665 6.668.682 9.417 6.354 9.184 11.72-.21 6.45-2.294 11.6-9.36 11.943-6.72-.25-9.8-3.85-10.444-10.03zm16.57-1.704c.036-4.476-2.034-7.822-5.95-8.192-3.915-.368-7.863 3.382-7.59 7.942.273 4.578 2.078 8.434 6.825 8.412 5.108-.024 6.69-4.977 6.714-8.162z" transform="translate(7.647,8.000) scale(0.9412)" fill="#1E3483" stroke="#1E3483" stroke-width="1.6" stroke-linejoin="round"/></g><path d="M28.5 0l20.112 29L28.5 58 8.388 29z" transform="translate(13.5 62.0) scale(0.46)" fill="#1E3483"/><g transform="translate(76.0 102.0) scale(0.8) translate(-76.0 -102.0)"><rect x="46.0" y="58.0" width="56.0" height="84.0" rx="5" fill="#1E3483"/><path d="M28.5 0l20.112 29L28.5 58 8.388 29z" transform="translate(51.136,62.000) scale(0.2712)" fill="#ffffff"/><path d="M28.5 0l20.112 29L28.5 58 8.388 29z" transform="translate(81.136,62.000) scale(0.2712)" fill="#ffffff"/><path d="M28.5 0l20.112 29L28.5 58 8.388 29z" transform="translate(51.136,92.000) scale(0.2712)" fill="#ffffff"/><path d="M28.5 0l20.112 29L28.5 58 8.388 29z" transform="translate(81.136,92.000) scale(0.2712)" fill="#ffffff"/><g transform="rotate(180 59.00 130.00)"><path d="M28.5 0l20.112 29L28.5 58 8.388 29z" transform="translate(51.136,122.000) scale(0.2712)" fill="#ffffff"/></g><g transform="rotate(180 89.00 130.00)"><path d="M28.5 0l20.112 29L28.5 58 8.388 29z" transform="translate(81.136,122.000) scale(0.2712)" fill="#ffffff"/></g></g></svg>