<svg xmlns="http://www.w3.org/2000/svg" viewBox="0 0 120 168"><rect x="0.5" y="0.5" width="119" height="167" rx="9" fill="#ffffff" stroke="#cccccc" stroke-width="1"/><g transform="translate(-0.20 -3.80) scale(1.6)"><path d="M4.98 31.887C7.114 20.8 9.39 12.477 15.36 3.44H3.227v3.892H0V0h17.754l2.188 3.44c-6.34 6.797-12.146 28.77-11.12 28.446h-3.84z" transform="translate(7.818,8.000) scale(0.9697)" fill="#1E3483" stroke="#1E3483" stroke-width="1.6" stroke-linejoin="round"/></g><path d="M28.5 0l20.112 29L28.5 58 8.388 29z" transform="translate(13.5 62.0) scale(0.46)" fill="#1E3483"/><g transform="translate(76.0 102.0) scale(0.8) translate(-76.0 -102.0)"><rect x="46.0" y="58.0" width="56.0" height="84.0" rx="5" fill="#1E3483"/><path d="M28.5 0l20.112 29L28.5 58 8.388 29z" transform="translate(51.136,62.000) scale(0.2712)" fill="#ffffff"/><path d="M28.5 0l20.112 29L28.5 58 8.388 29z" transform="translate(81.136,62.000) scale(0.2712)" fill="#ffffff"/><path d="M28.5 0l20.112 29L28.5 58 8.388 29z" transform="translate(66.136,77.000) scale(0.2712)" fill="#ffffff"/><path d="M28.5 0l20.112 29L28.5 58 8.388 29z" transform="translate(51.136,92.000) scale(0.2712)" fill="#ffffff"/><path d="M28.5 0l20.112 29L28.5 58 8.388 29z" transform="translate(81.136,92.000) scale(0.2712)" fill="#ffffff"/><g transform="rotate(180 59.00 130.00)"><path d="M28.5 0l20.112 29L28.5 58 8.388 29z" transform="translate(51.136,122.000) scale(0.2712)" fill="#ffffff"/></g><g transform="rotate(180 89.00 130.00)"><path d="M28.5 0l20.112 29L28.5 58 8.388 29z" transform="translate(81.136,122.000) scale(0.2712)" fill="#ffffff"/></g></g></svg>