<?xml version="1.0" encoding="UTF-8" standalone="no"?>
<!--
   Kartenrückseite "Bella Union 4 colours" (QML, Vektor).
   Nachgebaut aus der Original-flipside.png (48x76, Raster): weißer Rand mit
   runden Ecken + rotes Feld mit Karo-/Schachbrettmuster (Grundrot, abwechselnd
   dunkel- und hellrote Quadrate). Beliebig skalierbar. Das Muster ist als
   explizite Rechtecke gezeichnet (KEIN <pattern> - das unterstuetzt QtSvg nicht)
   und ins runde Feld geclippt.
-->
<svg xmlns="http://www.w3.org/2000/svg" width="580" height="800" viewBox="0 0 580 800">
  <defs>
    <clipPath id="field"><rect x="22" y="22" width="536" height="756" rx="16"/></clipPath>
  </defs>
  <rect x="0" y="0" width="580" height="800" rx="32" fill="#f9f9f9"/>
  <rect x="22" y="22" width="536" height="756" rx="16" fill="#b92220"/>
  <g clip-path="url(#field)"><rect x="26" y="26" width="24" height="24" fill="#6e1a18"/><rect x="58" y="26" width="24" height="24" fill="#cf5b58"/><rect x="90" y="26" width="24" height="24" fill="#6e1a18"/><rect x="122" y="26" width="24" height="24" fill="#cf5b58"/><rect x="154" y="26" width="24" height="24" fill="#6e1a18"/><rect x="186" y="26" width="24" height="24" fill="#cf5b58"/><rect x="218" y="26" width="24" height="24" fill="#6e1a18"/><rect x="250" y="26" width="24" height="24" fill="#cf5b58"/><rect x="282" y="26" width="24" height="24" fill="#6e1a18"/><rect x="314" y="26" width="24" height="24" fill="#cf5b58"/><rect x="346" y="26" width="24" height="24" fill="#6e1a18"/><rect x="378" y="26" width="24" height="24" fill="#cf5b58"/><rect x="410" y="26" width="24" height="24" fill="#6e1a18"/><rect x="442" y="26" width="24" height="24" fill="#cf5b58"/><rect x="474" y="26" width="24" height="24" fill="#6e1a18"/><rect x="506" y="26" width="24" height="24" fill="#cf5b58"/><rect x="538" y="26" width="24" height="24" fill="#6e1a18"/><rect x="26" y="58" width="24" height="24" fill="#cf5b58"/><rect x="58" y="58" width="24" height="24" fill="#6e1a18"/><rect x="90" y="58" width="24" height="24" fill="#cf5b58"/><rect x="122" y="58" width="24" height="24" fill="#6e1a18"/><rect x="154" y="58" width="24" height="24" fill="#cf5b58"/><rect x="186" y="58" width="24" height="24" fill="#6e1a18"/><rect x="218" y="58" width="24" height="24" fill="#cf5b58"/><rect x="250" y="58" width="24" height="24" fill="#6e1a18"/><rect x="282" y="58" width="24" height="24" fill="#cf5b58"/><rect x="314" y="58" width="24" height="24" fill="#6e1a18"/><rect x="346" y="58" width="24" height="24" fill="#cf5b58"/><rect x="378" y="58" width="24" height="24" fill="#6e1a18"/><rect x="410" y="58" width="24" height="24" fill="#cf5b58"/><rect x="442" y="58" width="24" height="24" fill="#6e1a18"/><rect x="474" y="58" width="24" height="24" fill="#cf5b58"/><rect x="506" y="58" width="24" height="24" fill="#6e1a18"/><rect x="538" y="58" width="24" height="24" fill="#cf5b58"/><rect x="26" y="90" width="24" height="24" fill="#6e1a18"/><rect x="58" y="90" width="24" height="24" fill="#cf5b58"/><rect x="90" y="90" width="24" height="24" fill="#6e1a18"/><rect x="122" y="90" width="24" height="24" fill="#cf5b58"/><rect x="154" y="90" width="24" height="24" fill="#6e1a18"/><rect x="186" y="90" width="24" height="24" fill="#cf5b58"/><rect x="218" y="90" width="24" height="24" fill="#6e1a18"/><rect x="250" y="90" width="24" height="24" fill="#cf5b58"/><rect x="282" y="90" width="24" height="24" fill="#6e1a18"/><rect x="314" y="90" width="24" height="24" fill="#cf5b58"/><rect x="346" y="90" width="24" height="24" fill="#6e1a18"/><rect x="378" y="90" width="24" height="24" fill="#cf5b58"/><rect x="410" y="90" width="24" height="24" fill="#6e1a18"/><rect x="442" y="90" width="24" height="24" fill="#cf5b58"/><rect x="474" y="90" width="24" height="24" fill="#6e1a18"/><rect x="506" y="90" width="24" height="24" fill="#cf5b58"/><rect x="538" y="90" width="24" height="24" fill="#6e1a18"/><rect x="26" y="122" width="24" height="24" fill="#cf5b58"/><rect x="58" y="122" width="24" height="24" fill="#6e1a18"/><rect x="90" y="122" width="24" height="24" fill="#cf5b58"/><rect x="122" y="122" width="24" height="24" fill="#6e1a18"/><rect x="154" y="122" width="24" height="24" fill="#cf5b58"/><rect x="186" y="122" width="24" height="24" fill="#6e1a18"/><rect x="218" y="122" width="24" height="24" fill="#cf5b58"/><rect x="250" y="122" width="24" height="24" fill="#6e1a18"/><rect x="282" y="122" width="24" height="24" fill="#cf5b58"/><rect x="314" y="122" width="24" height="24" fill="#6e1a18"/><rect x="346" y="122" width="24" height="24" fill="#cf5b58"/><rect x="378" y="122" width="24" height="24" fill="#6e1a18"/><rect x="410" y="122" width="24" height="24" fill="#cf5b58"/><rect x="442" y="122" width="24" height="24" fill="#6e1a18"/><rect x="474" y="122" width="24" height="24" fill="#cf5b58"/><rect x="506" y="122" width="24" height="24" fill="#6e1a18"/><rect x="538" y="122" width="24" height="24" fill="#cf5b58"/><rect x="26" y="154" width="24" height="24" fill="#6e1a18"/><rect x="58" y="154" width="24" height="24" fill="#cf5b58"/><rect x="90" y="154" width="24" height="24" fill="#6e1a18"/><rect x="122" y="154" width="24" height="24" fill="#cf5b58"/><rect x="154" y="154" width="24" height="24" fill="#6e1a18"/><rect x="186" y="154" width="24" height="24" fill="#cf5b58"/><rect x="218" y="154" width="24" height="24" fill="#6e1a18"/><rect x="250" y="154" width="24" height="24" fill="#cf5b58"/><rect x="282" y="154" width="24" height="24" fill="#6e1a18"/><rect x="314" y="154" width="24" height="24" fill="#cf5b58"/><rect x="346" y="154" width="24" height="24" fill="#6e1a18"/><rect x="378" y="154" width="24" height="24" fill="#cf5b58"/><rect x="410" y="154" width="24" height="24" fill="#6e1a18"/><rect x="442" y="154" width="24" height="24" fill="#cf5b58"/><rect x="474" y="154" width="24" height="24" fill="#6e1a18"/><rect x="506" y="154" width="24" height="24" fill="#cf5b58"/><rect x="538" y="154" width="24" height="24" fill="#6e1a18"/><rect x="26" y="186" width="24" height="24" fill="#cf5b58"/><rect x="58" y="186" width="24" height="24" fill="#6e1a18"/><rect x="90" y="186" width="24" height="24" fill="#cf5b58"/><rect x="122" y="186" width="24" height="24" fill="#6e1a18"/><rect x="154" y="186" width="24" height="24" fill="#cf5b58"/><rect x="186" y="186" width="24" height="24" fill="#6e1a18"/><rect x="218" y="186" width="24" height="24" fill="#cf5b58"/><rect x="250" y="186" width="24" height="24" fill="#6e1a18"/><rect x="282" y="186" width="24" height="24" fill="#cf5b58"/><rect x="314" y="186" width="24" height="24" fill="#6e1a18"/><rect x="346" y="186" width="24" height="24" fill="#cf5b58"/><rect x="378" y="186" width="24" height="24" fill="#6e1a18"/><rect x="410" y="186" width="24" height="24" fill="#cf5b58"/><rect x="442" y="186" width="24" height="24" fill="#6e1a18"/><rect x="474" y="186" width="24" height="24" fill="#cf5b58"/><rect x="506" y="186" width="24" height="24" fill="#6e1a18"/><rect x="538" y="186" width="24" height="24" fill="#cf5b58"/><rect x="26" y="218" width="24" height="24" fill="#6e1a18"/><rect x="58" y="218" width="24" height="24" fill="#cf5b58"/><rect x="90" y="218" width="24" height="24" fill="#6e1a18"/><rect x="122" y="218" width="24" height="24" fill="#cf5b58"/><rect x="154" y="218" width="24" height="24" fill="#6e1a18"/><rect x="186" y="218" width="24" height="24" fill="#cf5b58"/><rect x="218" y="218" width="24" height="24" fill="#6e1a18"/><rect x="250" y="218" width="24" height="24" fill="#cf5b58"/><rect x="282" y="218" width="24" height="24" fill="#6e1a18"/><rect x="314" y="218" width="24" height="24" fill="#cf5b58"/><rect x="346" y="218" width="24" height="24" fill="#6e1a18"/><rect x="378" y="218" width="24" height="24" fill="#cf5b58"/><rect x="410" y="218" width="24" height="24" fill="#6e1a18"/><rect x="442" y="218" width="24" height="24" fill="#cf5b58"/><rect x="474" y="218" width="24" height="24" fill="#6e1a18"/><rect x="506" y="218" width="24" height="24" fill="#cf5b58"/><rect x="538" y="218" width="24" height="24" fill="#6e1a18"/><rect x="26" y="250" width="24" height="24" fill="#cf5b58"/><rect x="58" y="250" width="24" height="24" fill="#6e1a18"/><rect x="90" y="250" width="24" height="24" fill="#cf5b58"/><rect x="122" y="250" width="24" height="24" fill="#6e1a18"/><rect x="154" y="250" width="24" height="24" fill="#cf5b58"/><rect x="186" y="250" width="24" height="24" fill="#6e1a18"/><rect x="218" y="250" width="24" height="24" fill="#cf5b58"/><rect x="250" y="250" width="24" height="24" fill="#6e1a18"/><rect x="282" y="250" width="24" height="24" fill="#cf5b58"/><rect x="314" y="250" width="24" height="24" fill="#6e1a18"/><rect x="346" y="250" width="24" height="24" fill="#cf5b58"/><rect x="378" y="250" width="24" height="24" fill="#6e1a18"/><rect x="410" y="250" width="24" height="24" fill="#cf5b58"/><rect x="442" y="250" width="24" height="24" fill="#6e1a18"/><rect x="474" y="250" width="24" height="24" fill="#cf5b58"/><rect x="506" y="250" width="24" height="24" fill="#6e1a18"/><rect x="538" y="250" width="24" height="24" fill="#cf5b58"/><rect x="26" y="282" width="24" height="24" fill="#6e1a18"/><rect x="58" y="282" width="24" height="24" fill="#cf5b58"/><rect x="90" y="282" width="24" height="24" fill="#6e1a18"/><rect x="122" y="282" width="24" height="24" fill="#cf5b58"/><rect x="154" y="282" width="24" height="24" fill="#6e1a18"/><rect x="186" y="282" width="24" height="24" fill="#cf5b58"/><rect x="218" y="282" width="24" height="24" fill="#6e1a18"/><rect x="250" y="282" width="24" height="24" fill="#cf5b58"/><rect x="282" y="282" width="24" height="24" fill="#6e1a18"/><rect x="314" y="282" width="24" height="24" fill="#cf5b58"/><rect x="346" y="282" width="24" height="24" fill="#6e1a18"/><rect x="378" y="282" width="24" height="24" fill="#cf5b58"/><rect x="410" y="282" width="24" height="24" fill="#6e1a18"/><rect x="442" y="282" width="24" height="24" fill="#cf5b58"/><rect x="474" y="282" width="24" height="24" fill="#6e1a18"/><rect x="506" y="282" width="24" height="24" fill="#cf5b58"/><rect x="538" y="282" width="24" height="24" fill="#6e1a18"/><rect x="26" y="314" width="24" height="24" fill="#cf5b58"/><rect x="58" y="314" width="24" height="24" fill="#6e1a18"/><rect x="90" y="314" width="24" height="24" fill="#cf5b58"/><rect x="122" y="314" width="24" height="24" fill="#6e1a18"/><rect x="154" y="314" width="24" height="24" fill="#cf5b58"/><rect x="186" y="314" width="24" height="24" fill="#6e1a18"/><rect x="218" y="314" width="24" height="24" fill="#cf5b58"/><rect x="250" y="314" width="24" height="24" fill="#6e1a18"/><rect x="282" y="314" width="24" height="24" fill="#cf5b58"/><rect x="314" y="314" width="24" height="24" fill="#6e1a18"/><rect x="346" y="314" width="24" height="24" fill="#cf5b58"/><rect x="378" y="314" width="24" height="24" fill="#6e1a18"/><rect x="410" y="314" width="24" height="24" fill="#cf5b58"/><rect x="442" y="314" width="24" height="24" fill="#6e1a18"/><rect x="474" y="314" width="24" height="24" fill="#cf5b58"/><rect x="506" y="314" width="24" height="24" fill="#6e1a18"/><rect x="538" y="314" width="24" height="24" fill="#cf5b58"/><rect x="26" y="346" width="24" height="24" fill="#6e1a18"/><rect x="58" y="346" width="24" height="24" fill="#cf5b58"/><rect x="90" y="346" width="24" height="24" fill="#6e1a18"/><rect x="122" y="346" width="24" height="24" fill="#cf5b58"/><rect x="154" y="346" width="24" height="24" fill="#6e1a18"/><rect x="186" y="346" width="24" height="24" fill="#cf5b58"/><rect x="218" y="346" width="24" height="24" fill="#6e1a18"/><rect x="250" y="346" width="24" height="24" fill="#cf5b58"/><rect x="282" y="346" width="24" height="24" fill="#6e1a18"/><rect x="314" y="346" width="24" height="24" fill="#cf5b58"/><rect x="346" y="346" width="24" height="24" fill="#6e1a18"/><rect x="378" y="346" width="24" height="24" fill="#cf5b58"/><rect x="410" y="346" width="24" height="24" fill="#6e1a18"/><rect x="442" y="346" width="24" height="24" fill="#cf5b58"/><rect x="474" y="346" width="24" height="24" fill="#6e1a18"/><rect x="506" y="346" width="24" height="24" fill="#cf5b58"/><rect x="538" y="346" width="24" height="24" fill="#6e1a18"/><rect x="26" y="378" width="24" height="24" fill="#cf5b58"/><rect x="58" y="378" width="24" height="24" fill="#6e1a18"/><rect x="90" y="378" width="24" height="24" fill="#cf5b58"/><rect x="122" y="378" width="24" height="24" fill="#6e1a18"/><rect x="154" y="378" width="24" height="24" fill="#cf5b58"/><rect x="186" y="378" width="24" height="24" fill="#6e1a18"/><rect x="218" y="378" width="24" height="24" fill="#cf5b58"/><rect x="250" y="378" width="24" height="24" fill="#6e1a18"/><rect x="282" y="378" width="24" height="24" fill="#cf5b58"/><rect x="314" y="378" width="24" height="24" fill="#6e1a18"/><rect x="346" y="378" width="24" height="24" fill="#cf5b58"/><rect x="378" y="378" width="24" height="24" fill="#6e1a18"/><rect x="410" y="378" width="24" height="24" fill="#cf5b58"/><rect x="442" y="378" width="24" height="24" fill="#6e1a18"/><rect x="474" y="378" width="24" height="24" fill="#cf5b58"/><rect x="506" y="378" width="24" height="24" fill="#6e1a18"/><rect x="538" y="378" width="24" height="24" fill="#cf5b58"/><rect x="26" y="410" width="24" height="24" fill="#6e1a18"/><rect x="58" y="410" width="24" height="24" fill="#cf5b58"/><rect x="90" y="410" width="24" height="24" fill="#6e1a18"/><rect x="122" y="410" width="24" height="24" fill="#cf5b58"/><rect x="154" y="410" width="24" height="24" fill="#6e1a18"/><rect x="186" y="410" width="24" height="24" fill="#cf5b58"/><rect x="218" y="410" width="24" height="24" fill="#6e1a18"/><rect x="250" y="410" width="24" height="24" fill="#cf5b58"/><rect x="282" y="410" width="24" height="24" fill="#6e1a18"/><rect x="314" y="410" width="24" height="24" fill="#cf5b58"/><rect x="346" y="410" width="24" height="24" fill="#6e1a18"/><rect x="378" y="410" width="24" height="24" fill="#cf5b58"/><rect x="410" y="410" width="24" height="24" fill="#6e1a18"/><rect x="442" y="410" width="24" height="24" fill="#cf5b58"/><rect x="474" y="410" width="24" height="24" fill="#6e1a18"/><rect x="506" y="410" width="24" height="24" fill="#cf5b58"/><rect x="538" y="410" width="24" height="24" fill="#6e1a18"/><rect x="26" y="442" width="24" height="24" fill="#cf5b58"/><rect x="58" y="442" width="24" height="24" fill="#6e1a18"/><rect x="90" y="442" width="24" height="24" fill="#cf5b58"/><rect x="122" y="442" width="24" height="24" fill="#6e1a18"/><rect x="154" y="442" width="24" height="24" fill="#cf5b58"/><rect x="186" y="442" width="24" height="24" fill="#6e1a18"/><rect x="218" y="442" width="24" height="24" fill="#cf5b58"/><rect x="250" y="442" width="24" height="24" fill="#6e1a18"/><rect x="282" y="442" width="24" height="24" fill="#cf5b58"/><rect x="314" y="442" width="24" height="24" fill="#6e1a18"/><rect x="346" y="442" width="24" height="24" fill="#cf5b58"/><rect x="378" y="442" width="24" height="24" fill="#6e1a18"/><rect x="410" y="442" width="24" height="24" fill="#cf5b58"/><rect x="442" y="442" width="24" height="24" fill="#6e1a18"/><rect x="474" y="442" width="24" height="24" fill="#cf5b58"/><rect x="506" y="442" width="24" height="24" fill="#6e1a18"/><rect x="538" y="442" width="24" height="24" fill="#cf5b58"/><rect x="26" y="474" width="24" height="24" fill="#6e1a18"/><rect x="58" y="474" width="24" height="24" fill="#cf5b58"/><rect x="90" y="474" width="24" height="24" fill="#6e1a18"/><rect x="122" y="474" width="24" height="24" fill="#cf5b58"/><rect x="154" y="474" width="24" height="24" fill="#6e1a18"/><rect x="186" y="474" width="24" height="24" fill="#cf5b58"/><rect x="218" y="474" width="24" height="24" fill="#6e1a18"/><rect x="250" y="474" width="24" height="24" fill="#cf5b58"/><rect x="282" y="474" width="24" height="24" fill="#6e1a18"/><rect x="314" y="474" width="24" height="24" fill="#cf5b58"/><rect x="346" y="474" width="24" height="24" fill="#6e1a18"/><rect x="378" y="474" width="24" height="24" fill="#cf5b58"/><rect x="410" y="474" width="24" height="24" fill="#6e1a18"/><rect x="442" y="474" width="24" height="24" fill="#cf5b58"/><rect x="474" y="474" width="24" height="24" fill="#6e1a18"/><rect x="506" y="474" width="24" height="24" fill="#cf5b58"/><rect x="538" y="474" width="24" height="24" fill="#6e1a18"/><rect x="26" y="506" width="24" height="24" fill="#cf5b58"/><rect x="58" y="506" width="24" height="24" fill="#6e1a18"/><rect x="90" y="506" width="24" height="24" fill="#cf5b58"/><rect x="122" y="506" width="24" height="24" fill="#6e1a18"/><rect x="154" y="506" width="24" height="24" fill="#cf5b58"/><rect x="186" y="506" width="24" height="24" fill="#6e1a18"/><rect x="218" y="506" width="24" height="24" fill="#cf5b58"/><rect x="250" y="506" width="24" height="24" fill="#6e1a18"/><rect x="282" y="506" width="24" height="24" fill="#cf5b58"/><rect x="314" y="506" width="24" height="24" fill="#6e1a18"/><rect x="346" y="506" width="24" height="24" fill="#cf5b58"/><rect x="378" y="506" width="24" height="24" fill="#6e1a18"/><rect x="410" y="506" width="24" height="24" fill="#cf5b58"/><rect x="442" y="506" width="24" height="24" fill="#6e1a18"/><rect x="474" y="506" width="24" height="24" fill="#cf5b58"/><rect x="506" y="506" width="24" height="24" fill="#6e1a18"/><rect x="538" y="506" width="24" height="24" fill="#cf5b58"/><rect x="26" y="538" width="24" height="24" fill="#6e1a18"/><rect x="58" y="538" width="24" height="24" fill="#cf5b58"/><rect x="90" y="538" width="24" height="24" fill="#6e1a18"/><rect x="122" y="538" width="24" height="24" fill="#cf5b58"/><rect x="154" y="538" width="24" height="24" fill="#6e1a18"/><rect x="186" y="538" width="24" height="24" fill="#cf5b58"/><rect x="218" y="538" width="24" height="24" fill="#6e1a18"/><rect x="250" y="538" width="24" height="24" fill="#cf5b58"/><rect x="282" y="538" width="24" height="24" fill="#6e1a18"/><rect x="314" y="538" width="24" height="24" fill="#cf5b58"/><rect x="346" y="538" width="24" height="24" fill="#6e1a18"/><rect x="378" y="538" width="24" height="24" fill="#cf5b58"/><rect x="410" y="538" width="24" height="24" fill="#6e1a18"/><rect x="442" y="538" width="24" height="24" fill="#cf5b58"/><rect x="474" y="538" width="24" height="24" fill="#6e1a18"/><rect x="506" y="538" width="24" height="24" fill="#cf5b58"/><rect x="538" y="538" width="24" height="24" fill="#6e1a18"/><rect x="26" y="570" width="24" height="24" fill="#cf5b58"/><rect x="58" y="570" width="24" height="24" fill="#6e1a18"/><rect x="90" y="570" width="24" height="24" fill="#cf5b58"/><rect x="122" y="570" width="24" height="24" fill="#6e1a18"/><rect x="154" y="570" width="24" height="24" fill="#cf5b58"/><rect x="186" y="570" width="24" height="24" fill="#6e1a18"/><rect x="218" y="570" width="24" height="24" fill="#cf5b58"/><rect x="250" y="570" width="24" height="24" fill="#6e1a18"/><rect x="282" y="570" width="24" height="24" fill="#cf5b58"/><rect x="314" y="570" width="24" height="24" fill="#6e1a18"/><rect x="346" y="570" width="24" height="24" fill="#cf5b58"/><rect x="378" y="570" width="24" height="24" fill="#6e1a18"/><rect x="410" y="570" width="24" height="24" fill="#cf5b58"/><rect x="442" y="570" width="24" height="24" fill="#6e1a18"/><rect x="474" y="570" width="24" height="24" fill="#cf5b58"/><rect x="506" y="570" width="24" height="24" fill="#6e1a18"/><rect x="538" y="570" width="24" height="24" fill="#cf5b58"/><rect x="26" y="602" width="24" height="24" fill="#6e1a18"/><rect x="58" y="602" width="24" height="24" fill="#cf5b58"/><rect x="90" y="602" width="24" height="24" fill="#6e1a18"/><rect x="122" y="602" width="24" height="24" fill="#cf5b58"/><rect x="154" y="602" width="24" height="24" fill="#6e1a18"/><rect x="186" y="602" width="24" height="24" fill="#cf5b58"/><rect x="218" y="602" width="24" height="24" fill="#6e1a18"/><rect x="250" y="602" width="24" height="24" fill="#cf5b58"/><rect x="282" y="602" width="24" height="24" fill="#6e1a18"/><rect x="314" y="602" width="24" height="24" fill="#cf5b58"/><rect x="346" y="602" width="24" height="24" fill="#6e1a18"/><rect x="378" y="602" width="24" height="24" fill="#cf5b58"/><rect x="410" y="602" width="24" height="24" fill="#6e1a18"/><rect x="442" y="602" width="24" height="24" fill="#cf5b58"/><rect x="474" y="602" width="24" height="24" fill="#6e1a18"/><rect x="506" y="602" width="24" height="24" fill="#cf5b58"/><rect x="538" y="602" width="24" height="24" fill="#6e1a18"/><rect x="26" y="634" width="24" height="24" fill="#cf5b58"/><rect x="58" y="634" width="24" height="24" fill="#6e1a18"/><rect x="90" y="634" width="24" height="24" fill="#cf5b58"/><rect x="122" y="634" width="24" height="24" fill="#6e1a18"/><rect x="154" y="634" width="24" height="24" fill="#cf5b58"/><rect x="186" y="634" width="24" height="24" fill="#6e1a18"/><rect x="218" y="634" width="24" height="24" fill="#cf5b58"/><rect x="250" y="634" width="24" height="24" fill="#6e1a18"/><rect x="282" y="634" width="24" height="24" fill="#cf5b58"/><rect x="314" y="634" width="24" height="24" fill="#6e1a18"/><rect x="346" y="634" width="24" height="24" fill="#cf5b58"/><rect x="378" y="634" width="24" height="24" fill="#6e1a18"/><rect x="410" y="634" width="24" height="24" fill="#cf5b58"/><rect x="442" y="634" width="24" height="24" fill="#6e1a18"/><rect x="474" y="634" width="24" height="24" fill="#cf5b58"/><rect x="506" y="634" width="24" height="24" fill="#6e1a18"/><rect x="538" y="634" width="24" height="24" fill="#cf5b58"/><rect x="26" y="666" width="24" height="24" fill="#6e1a18"/><rect x="58" y="666" width="24" height="24" fill="#cf5b58"/><rect x="90" y="666" width="24" height="24" fill="#6e1a18"/><rect x="122" y="666" width="24" height="24" fill="#cf5b58"/><rect x="154" y="666" width="24" height="24" fill="#6e1a18"/><rect x="186" y="666" width="24" height="24" fill="#cf5b58"/><rect x="218" y="666" width="24" height="24" fill="#6e1a18"/><rect x="250" y="666" width="24" height="24" fill="#cf5b58"/><rect x="282" y="666" width="24" height="24" fill="#6e1a18"/><rect x="314" y="666" width="24" height="24" fill="#cf5b58"/><rect x="346" y="666" width="24" height="24" fill="#6e1a18"/><rect x="378" y="666" width="24" height="24" fill="#cf5b58"/><rect x="410" y="666" width="24" height="24" fill="#6e1a18"/><rect x="442" y="666" width="24" height="24" fill="#cf5b58"/><rect x="474" y="666" width="24" height="24" fill="#6e1a18"/><rect x="506" y="666" width="24" height="24" fill="#cf5b58"/><rect x="538" y="666" width="24" height="24" fill="#6e1a18"/><rect x="26" y="698" width="24" height="24" fill="#cf5b58"/><rect x="58" y="698" width="24" height="24" fill="#6e1a18"/><rect x="90" y="698" width="24" height="24" fill="#cf5b58"/><rect x="122" y="698" width="24" height="24" fill="#6e1a18"/><rect x="154" y="698" width="24" height="24" fill="#cf5b58"/><rect x="186" y="698" width="24" height="24" fill="#6e1a18"/><rect x="218" y="698" width="24" height="24" fill="#cf5b58"/><rect x="250" y="698" width="24" height="24" fill="#6e1a18"/><rect x="282" y="698" width="24" height="24" fill="#cf5b58"/><rect x="314" y="698" width="24" height="24" fill="#6e1a18"/><rect x="346" y="698" width="24" height="24" fill="#cf5b58"/><rect x="378" y="698" width="24" height="24" fill="#6e1a18"/><rect x="410" y="698" width="24" height="24" fill="#cf5b58"/><rect x="442" y="698" width="24" height="24" fill="#6e1a18"/><rect x="474" y="698" width="24" height="24" fill="#cf5b58"/><rect x="506" y="698" width="24" height="24" fill="#6e1a18"/><rect x="538" y="698" width="24" height="24" fill="#cf5b58"/><rect x="26" y="730" width="24" height="24" fill="#6e1a18"/><rect x="58" y="730" width="24" height="24" fill="#cf5b58"/><rect x="90" y="730" width="24" height="24" fill="#6e1a18"/><rect x="122" y="730" width="24" height="24" fill="#cf5b58"/><rect x="154" y="730" width="24" height="24" fill="#6e1a18"/><rect x="186" y="730" width="24" height="24" fill="#cf5b58"/><rect x="218" y="730" width="24" height="24" fill="#6e1a18"/><rect x="250" y="730" width="24" height="24" fill="#cf5b58"/><rect x="282" y="730" width="24" height="24" fill="#6e1a18"/><rect x="314" y="730" width="24" height="24" fill="#cf5b58"/><rect x="346" y="730" width="24" height="24" fill="#6e1a18"/><rect x="378" y="730" width="24" height="24" fill="#cf5b58"/><rect x="410" y="730" width="24" height="24" fill="#6e1a18"/><rect x="442" y="730" width="24" height="24" fill="#cf5b58"/><rect x="474" y="730" width="24" height="24" fill="#6e1a18"/><rect x="506" y="730" width="24" height="24" fill="#cf5b58"/><rect x="538" y="730" width="24" height="24" fill="#6e1a18"/><rect x="26" y="762" width="24" height="24" fill="#cf5b58"/><rect x="58" y="762" width="24" height="24" fill="#6e1a18"/><rect x="90" y="762" width="24" height="24" fill="#cf5b58"/><rect x="122" y="762" width="24" height="24" fill="#6e1a18"/><rect x="154" y="762" width="24" height="24" fill="#cf5b58"/><rect x="186" y="762" width="24" height="24" fill="#6e1a18"/><rect x="218" y="762" width="24" height="24" fill="#cf5b58"/><rect x="250" y="762" width="24" height="24" fill="#6e1a18"/><rect x="282" y="762" width="24" height="24" fill="#cf5b58"/><rect x="314" y="762" width="24" height="24" fill="#6e1a18"/><rect x="346" y="762" width="24" height="24" fill="#cf5b58"/><rect x="378" y="762" width="24" height="24" fill="#6e1a18"/><rect x="410" y="762" width="24" height="24" fill="#cf5b58"/><rect x="442" y="762" width="24" height="24" fill="#6e1a18"/><rect x="474" y="762" width="24" height="24" fill="#cf5b58"/><rect x="506" y="762" width="24" height="24" fill="#6e1a18"/><rect x="538" y="762" width="24" height="24" fill="#cf5b58"/></g>
  <rect x="22" y="22" width="536" height="756" rx="16" fill="none" stroke="#6e1a18" stroke-width="5"/>
</svg>
