<svg xmlns="http://www.w3.org/2000/svg" viewBox="0 0 120 168"><defs><radialGradient id="bg" cx="0.5" cy="0.5" r="0.75"><stop offset="0" stop-color="#e6d8ad"/><stop offset="0.7" stop-color="#ddcc9c"/><stop offset="1" stop-color="#cdba88"/></radialGradient></defs><rect x="0.75" y="0.75" width="118.5" height="166.5" rx="8" fill="url(#bg)" stroke="#b6a271" stroke-width="1.5"/><path d="M14.0 4.0 L106.0 4.0 L116.0 14.0 L116.0 154.0 L106.0 164.0 L14.0 164.0 L4.0 154.0 L4.0 14.0 Z" fill="none" stroke="#b39f6f" stroke-width="2.8"/><path d="M14.0 4.0 L106.0 4.0 L116.0 14.0 L116.0 154.0 L106.0 164.0 L14.0 164.0 L4.0 154.0 L4.0 14.0 Z" fill="none" stroke="#f2e7c0" stroke-width="1.1" transform="translate(0 1.6)" opacity="0.75"/><g transform="translate(31.83 23.01) scale(1.6234)"><path d="M.004 23.055c.16-4.375 1.77-6.02 4.944-8.31-2.53-1.796-3.6-4.438-3.384-6.688C2.084 2.61 6.376-.115 11.05.003c4.674.12 8.703 3.763 9.018 7.722.272 3.443-.77 5.103-3.257 6.914 2.96 2.44 4.85 4.05 4.77 8.36-.07 4.31-3.8 9.43-10.31 9.59-6.51.16-11.42-5.167-11.26-9.54zm18.172.013c.28-3.96-3.288-6.635-7.312-6.676-3.923-.04-7.432 3.246-7.433 6.803 0 3.822 4.57 5.896 7.52 5.908 3.584.014 6.995-2.623 7.235-6.035zM16.89 8.898c.077-3.34-3.058-5.73-6.29-5.637-2.875.09-5.92 2.25-5.922 5.04-.003 3.49 3.462 5.23 6.417 5.3 2.68.06 5.735-2.175 5.794-4.694z" transform="translate(7.176,8.000) scale(0.9412)" fill="#a80c08" stroke="#a80c08" stroke-width="1.6" stroke-linejoin="round"/></g><path d="M16.49.2c7.12-.476 10.832 5.638 11.557 10.455.432.766.668.55.834-.042.35-6.186 5.86-11.24 10.96-10.55 8.3.108 13.35 9.393 11.93 17.25-1.73 9.6-6.875 15.38-10.77 21.333C36.586 44.81 30.656 53.716 28.74 58c0 0-6.027-9.222-13.87-20.067-5.243-7.252-9.44-15.11-9.83-21.875-.447-7.73 2.71-14.66 11.45-15.86z" transform="translate(60.0 122.0) scale(0.8136) translate(-29.0 -29.5)" fill="#a80c08"/></svg>