<svg xmlns="http://www.w3.org/2000/svg" viewBox="0 0 120 168"><defs><radialGradient id="bg" cx="0.5" cy="0.5" r="0.75"><stop offset="0" stop-color="#e6d8ad"/><stop offset="0.7" stop-color="#ddcc9c"/><stop offset="1" stop-color="#cdba88"/></radialGradient></defs><rect x="0.75" y="0.75" width="118.5" height="166.5" rx="8" fill="url(#bg)" stroke="#b6a271" stroke-width="1.5"/><path d="M14.0 4.0 L106.0 4.0 L116.0 14.0 L116.0 154.0 L106.0 164.0 L14.0 164.0 L4.0 154.0 L4.0 14.0 Z" fill="none" stroke="#b39f6f" stroke-width="2.8"/><path d="M14.0 4.0 L106.0 4.0 L116.0 14.0 L116.0 154.0 L106.0 164.0 L14.0 164.0 L4.0 154.0 L4.0 14.0 Z" fill="none" stroke="#f2e7c0" stroke-width="1.1" transform="translate(0 1.6)" opacity="0.75"/><g transform="translate(31.69 23.10) scale(1.6129)"><path d="M0 32.676l.164-2.018c.51-6.24 1.875-8.348 9.623-14.856 3.76-3.16 4.994-4.717 5.168-6.525.49-4.26-3.352-5.592-5.855-5.613-3.24-.03-6.91 1.91-5.16 6.414L.3 11.144c-.732-4.2.02-8.142 3.427-9.893C8.275-1.02 14.11-.13 17.05 3.46c1.98 2.414 2.43 5.746 1.368 8.355-3.1 6.67-13.62 9.605-14.49 17.318h11.63V24.84h3.428v7.907L0 32.677z" transform="translate(8.588,8.000) scale(0.9412)" fill="#141414" stroke="#141414" stroke-width="1.6" stroke-linejoin="round"/></g><path d="M26.406 40.187c.015-1.98-1.56-2.017-1.542-.573-.133 7.257-6.31 10.83-10.8 9.982-6.92-1.307-9.128-8.13-9.06-12.148C5.204 25.046 17.774 15.9 29.114 0c8.31 14.35 22.03 25.623 22.84 36.717 1.08 14.75-17.71 20.25-20.394 3.06-.172-1.214-1.612-1.76-1.5-.063.408 4.71-.17 6.674 5.18 18.287H21.25c3.1-5.42 4.943-12.09 5.154-17.81z" transform="translate(60.0 122.0) scale(0.8136) translate(-29.0 -29.5)" fill="#141414"/></svg>