<svg xmlns="http://www.w3.org/2000/svg" viewBox="0 0 120 168"><defs><radialGradient id="bg" cx="0.5" cy="0.5" r="0.75"><stop offset="0" stop-color="#e6d8ad"/><stop offset="0.7" stop-color="#ddcc9c"/><stop offset="1" stop-color="#cdba88"/></radialGradient></defs><rect x="0.75" y="0.75" width="118.5" height="166.5" rx="8" fill="url(#bg)" stroke="#b6a271" stroke-width="1.5"/><path d="M14.0 4.0 L106.0 4.0 L116.0 14.0 L116.0 154.0 L106.0 164.0 L14.0 164.0 L4.0 154.0 L4.0 14.0 Z" fill="none" stroke="#b39f6f" stroke-width="2.8"/><path d="M14.0 4.0 L106.0 4.0 L116.0 14.0 L116.0 154.0 L106.0 164.0 L14.0 164.0 L4.0 154.0 L4.0 14.0 Z" fill="none" stroke="#f2e7c0" stroke-width="1.1" transform="translate(0 1.6)" opacity="0.75"/><g transform="translate(32.16 23.01) scale(1.6234)"><path d="M9.842 0C5.15.09 2.822 4.02 2.797 7.953L2.8 18.27H0v3.426h2.8s.05 1.564.042 2.503c-.04 4.63 1.6 7.44 4.797 8.22 3.06.56 4.66-.1 7-1.31.84.35 1.44 1.08 2.34 1.17 1.003.1 3.095.05 3.095.05l-.058-3.515-1.046-.15c-2-.036-2.865-.735-2.65-1.984.426-.81.487-1.403.526-2.387V6.85C16.794 2.57 13.3.037 9.84 0zm-.145 3.403c2.24-.035 4.104 2.573 4.053 5.246l.035 13.48c.073.84-.062 1.67-.437 2.26-.295-.86-4.93-5.6-7.248-5.38 0 0-.094.24-.16-5.69-.028-2.91-.793-7.257 1.822-9.218.653-.48 1.308-.7 1.935-.708zm2.34 24.628c.206.42-.555.83-1.366 1.06-2.29.64-4.54-.79-4.61-4.08-.02-1-.09-2.072.268-2.23 1.053-.474 5.098 4.01 5.72 5.26z" transform="translate(7.647,8.000) scale(0.9412)" fill="#141414" stroke="#141414" stroke-width="1.6" stroke-linejoin="round"/></g><path d="M26.406 40.187c.015-1.98-1.56-2.017-1.542-.573-.133 7.257-6.31 10.83-10.8 9.982-6.92-1.307-9.128-8.13-9.06-12.148C5.204 25.046 17.774 15.9 29.114 0c8.31 14.35 22.03 25.623 22.84 36.717 1.08 14.75-17.71 20.25-20.394 3.06-.172-1.214-1.612-1.76-1.5-.063.408 4.71-.17 6.674 5.18 18.287H21.25c3.1-5.42 4.943-12.09 5.154-17.81z" transform="translate(60.0 122.0) scale(0.8136) translate(-29.0 -29.5)" fill="#141414"/></svg>