<svg xmlns="http://www.w3.org/2000/svg" viewBox="0 0 120 168"><defs><radialGradient id="bg" cx="0.5" cy="0.5" r="0.75"><stop offset="0" stop-color="#e6d8ad"/><stop offset="0.7" stop-color="#ddcc9c"/><stop offset="1" stop-color="#cdba88"/></radialGradient></defs><rect x="0.75" y="0.75" width="118.5" height="166.5" rx="8" fill="url(#bg)" stroke="#b6a271" stroke-width="1.5"/><path d="M14.0 4.0 L106.0 4.0 L116.0 14.0 L116.0 154.0 L106.0 164.0 L14.0 164.0 L4.0 154.0 L4.0 14.0 Z" fill="none" stroke="#b39f6f" stroke-width="2.8"/><path d="M14.0 4.0 L106.0 4.0 L116.0 14.0 L116.0 154.0 L106.0 164.0 L14.0 164.0 L4.0 154.0 L4.0 14.0 Z" fill="none" stroke="#f2e7c0" stroke-width="1.1" transform="translate(0 1.6)" opacity="0.75"/><g transform="translate(32.16 23.01) scale(1.6234)"><path d="M.313 22.58c-.408-2.746-.402-9.843-.066-11.94C1.277 4.21 3.78 1.27 7.97.305c4.067-.936 9.79.105 11.044 5.48l-3.407.064c-1.84-3.64-6.495-2.66-9.115-1.09-2.094 1.262-3.04 6.52-2.635 6.843-.003 0 3.957-2.877 7.076-2.665 6.668.682 9.417 6.354 9.184 11.72-.21 6.45-2.294 11.6-9.36 11.943-6.72-.25-9.8-3.85-10.444-10.03zm16.57-1.704c.036-4.476-2.034-7.822-5.95-8.192-3.915-.368-7.863 3.382-7.59 7.942.273 4.578 2.078 8.434 6.825 8.412 5.108-.024 6.69-4.977 6.714-8.162z" transform="translate(7.647,8.000) scale(0.9412)" fill="#a80c08" stroke="#a80c08" stroke-width="1.6" stroke-linejoin="round"/></g><path d="M28.5 0l20.112 29L28.5 58 8.388 29z" transform="translate(60.0 122.0) scale(0.8136) translate(-29.0 -29.5)" fill="#a80c08"/></svg>