<svg xmlns="http://www.w3.org/2000/svg" viewBox="0 0 120 168"><defs><radialGradient id="bg" cx="0.5" cy="0.5" r="0.75"><stop offset="0" stop-color="#e6d8ad"/><stop offset="0.7" stop-color="#ddcc9c"/><stop offset="1" stop-color="#cdba88"/></radialGradient></defs><rect x="0.75" y="0.75" width="118.5" height="166.5" rx="8" fill="url(#bg)" stroke="#b6a271" stroke-width="1.5"/><path d="M14.0 4.0 L106.0 4.0 L116.0 14.0 L116.0 154.0 L106.0 164.0 L14.0 164.0 L4.0 154.0 L4.0 14.0 Z" fill="none" stroke="#b39f6f" stroke-width="2.8"/><path d="M14.0 4.0 L106.0 4.0 L116.0 14.0 L116.0 154.0 L106.0 164.0 L14.0 164.0 L4.0 154.0 L4.0 14.0 Z" fill="none" stroke="#f2e7c0" stroke-width="1.1" transform="translate(0 1.6)" opacity="0.75"/><g transform="translate(31.78 23.14) scale(1.6077)"><path d="M4.98 31.887C7.114 20.8 9.39 12.477 15.36 3.44H3.227v3.892H0V0h17.754l2.188 3.44c-6.34 6.797-12.146 28.77-11.12 28.446h-3.84z" transform="translate(7.818,8.000) scale(0.9697)" fill="#a80c08" stroke="#a80c08" stroke-width="1.6" stroke-linejoin="round"/></g><path d="M28.5 0l20.112 29L28.5 58 8.388 29z" transform="translate(60.0 122.0) scale(0.8136) translate(-29.0 -29.5)" fill="#a80c08"/></svg>