<svg xmlns="http://www.w3.org/2000/svg" viewBox="0 0 120 168"><defs><radialGradient id="bg" cx="0.5" cy="0.5" r="0.75"><stop offset="0" stop-color="#e6d8ad"/><stop offset="0.7" stop-color="#ddcc9c"/><stop offset="1" stop-color="#cdba88"/></radialGradient></defs><rect x="0.75" y="0.75" width="118.5" height="166.5" rx="8" fill="url(#bg)" stroke="#b6a271" stroke-width="1.5"/><path d="M14.0 4.0 L106.0 4.0 L116.0 14.0 L116.0 154.0 L106.0 164.0 L14.0 164.0 L4.0 154.0 L4.0 14.0 Z" fill="none" stroke="#b39f6f" stroke-width="2.8"/><path d="M14.0 4.0 L106.0 4.0 L116.0 14.0 L116.0 154.0 L106.0 164.0 L14.0 164.0 L4.0 154.0 L4.0 14.0 Z" fill="none" stroke="#f2e7c0" stroke-width="1.1" transform="translate(0 1.6)" opacity="0.75"/><g transform="translate(31.74 22.97) scale(1.6287)"><path d="M0 31.505V0h3.11v31.505H0zM12.328 0c-2.994 0-5.4 2.687-5.4 6.02v19.462c0 3.336 2.406 6.02 5.4 6.02h1.746c2.994 0 5.406-2.685 5.406-6.02V6.022C19.48 2.686 17.07 0 14.074 0h-1.746zm.904 2.978c1.768 0 3.19 1.337 3.19 3.002v19.723c0 1.664-1.424 3.006-3.19 3.006-1.77 0-3.19-1.35-3.19-3.01V5.98c-.003-1.665 1.42-3.002 3.19-3.002z" transform="translate(7.818,8.000) scale(0.9697)" fill="#a80c08" stroke="#a80c08" stroke-width="1.6" stroke-linejoin="round"/></g><path d="M28.5 0l20.112 29L28.5 58 8.388 29z" transform="translate(60.0 122.0) scale(0.8136) translate(-29.0 -29.5)" fill="#a80c08"/></svg>