<svg xmlns="http://www.w3.org/2000/svg" viewBox="0 0 120 168"><defs><linearGradient id="g_diamond" x1="0" y1="0" x2="0" y2="1"><stop offset="0" stop-color="#12234f"/><stop offset="1" stop-color="#050a1e"/></linearGradient></defs><rect x="0.75" y="0.75" width="118.5" height="166.5" rx="9" fill="url(#g_diamond)" stroke="#0a1330" stroke-width="1.5"/><g><circle cx="90.2" cy="130.2" r="1.02" fill="#dff6ff" opacity="0.5"/><circle cx="23.2" cy="38.3" r="0.62" fill="#dff6ff" opacity="0.55"/><circle cx="18.7" cy="155.4" r="0.57" fill="#dff6ff" opacity="0.52"/><circle cx="63.8" cy="50.5" r="0.7" fill="#dff6ff" opacity="0.66"/><circle cx="75.9" cy="15.6" r="0.8" fill="#dff6ff" opacity="0.89"/><circle cx="84.1" cy="99.9" r="0.79" fill="#dff6ff" opacity="0.65"/><circle cx="16.9" cy="140.5" r="0.76" fill="#dff6ff" opacity="0.76"/><circle cx="60.8" cy="32.0" r="0.64" fill="#dff6ff" opacity="0.62"/><circle cx="48.7" cy="110.8" r="0.74" fill="#dff6ff" opacity="0.59"/><circle cx="110.5" cy="134.0" r="1.04" fill="#dff6ff" opacity="0.77"/><circle cx="98.4" cy="123.9" r="0.74" fill="#dff6ff" opacity="0.47"/><circle cx="77.5" cy="38.5" r="0.9" fill="#dff6ff" opacity="0.62"/><circle cx="19.0" cy="21.8" r="0.99" fill="#dff6ff" opacity="0.69"/><circle cx="42.4" cy="43.1" r="1.09" fill="#dff6ff" opacity="0.82"/></g><rect x="4.6" y="4.6" width="110.8" height="158.8" rx="6" fill="none" stroke="#bfe6ff" stroke-width="3" opacity="0.22"/><rect x="4.6" y="4.6" width="110.8" height="158.8" rx="6" fill="none" stroke="#04070f" stroke-width="1" opacity="0.55" transform="translate(0 1.5)"/><rect x="4.6" y="4.6" width="110.8" height="158.8" rx="6" fill="none" stroke="#45b4ff" stroke-width="2.2"/><rect x="4.6" y="4.6" width="110.8" height="158.8" rx="6" fill="none" stroke="#ffffff" stroke-width="0.8" opacity="0.45" transform="translate(0 -1.1)"/><path d="M57.0 0V720H178.0008544921875V420.50042724609375H362.04034423828125L613.1751098632812 720.0H747.7433471679688V691.0669555664062L469.93304443359375 360.0L748.21630859375 28.93304443359375V0.0H613.1751098632812L362.04034423828125 299.49957275390625H178.0008544921875V0.0Z" transform="translate(0.8 1.1) translate(10.06 49.0) scale(0.052 -0.052)" fill="#01030c" opacity="0.55"/><path d="M57.0 0V720H178.0008544921875V420.50042724609375H362.04034423828125L613.1751098632812 720.0H747.7433471679688V691.0669555664062L469.93304443359375 360.0L748.21630859375 28.93304443359375V0.0H613.1751098632812L362.04034423828125 299.49957275390625H178.0008544921875V0.0Z" transform="translate(10.06 49.0) scale(0.052 -0.052)" fill="#45b4ff" stroke="#bfe6ff" stroke-width="8.65" stroke-linejoin="round"/><path d="M28.5 0l20.112 29L28.5 58 8.388 29z" transform="translate(0.8 1.1) translate(31.00 72.0) scale(0.4237) translate(-29.0 -29.5)" fill="#01030c" opacity="0.55"/><path d="M28.5 0l20.112 29L28.5 58 8.388 29z" transform="translate(31.00 72.0) scale(0.4237) translate(-29.0 -29.5)" fill="#45b4ff" stroke="#bfe6ff" stroke-width="1.06" stroke-linejoin="round"/><path d="M28.5 0l20.112 29L28.5 58 8.388 29z" transform="translate(0.8 1.1) translate(81.00 125.0) scale(0.9153) translate(-29.0 -29.5)" fill="#01030c" opacity="0.55"/><path d="M28.5 0l20.112 29L28.5 58 8.388 29z" transform="translate(81.00 125.0) scale(0.9153) translate(-29.0 -29.5)" fill="#45b4ff" stroke="#bfe6ff" stroke-width="0.49" stroke-linejoin="round"/></svg>