<svg xmlns="http://www.w3.org/2000/svg" viewBox="0 0 120 168"><defs><linearGradient id="g_heart" x1="0" y1="0" x2="0" y2="1"><stop offset="0" stop-color="#12234f"/><stop offset="1" stop-color="#050a1e"/></linearGradient></defs><rect x="0.75" y="0.75" width="118.5" height="166.5" rx="9" fill="url(#g_heart)" stroke="#0a1330" stroke-width="1.5"/><g><circle cx="21.0" cy="57.6" r="0.85" fill="#dff6ff" opacity="0.67"/><circle cx="9.8" cy="107.8" r="0.96" fill="#dff6ff" opacity="0.36"/><circle cx="92.4" cy="96.3" r="0.98" fill="#dff6ff" opacity="0.83"/><circle cx="42.1" cy="117.7" r="0.61" fill="#dff6ff" opacity="0.87"/><circle cx="94.1" cy="55.4" r="1.09" fill="#dff6ff" opacity="0.76"/><circle cx="64.6" cy="91.0" r="1.07" fill="#dff6ff" opacity="0.87"/><circle cx="45.8" cy="119.6" r="1.04" fill="#dff6ff" opacity="0.73"/><circle cx="89.1" cy="124.7" r="1.09" fill="#dff6ff" opacity="0.77"/><circle cx="97.0" cy="88.6" r="0.61" fill="#dff6ff" opacity="0.58"/><circle cx="30.2" cy="130.6" r="0.89" fill="#dff6ff" opacity="0.62"/><circle cx="82.7" cy="110.5" r="0.59" fill="#dff6ff" opacity="0.6"/><circle cx="31.7" cy="68.6" r="0.88" fill="#dff6ff" opacity="0.59"/><circle cx="27.8" cy="63.5" r="0.94" fill="#dff6ff" opacity="0.83"/><circle cx="73.2" cy="93.2" r="0.61" fill="#dff6ff" opacity="0.87"/></g><rect x="4.6" y="4.6" width="110.8" height="158.8" rx="6" fill="none" stroke="#ffd0d8" stroke-width="3" opacity="0.22"/><rect x="4.6" y="4.6" width="110.8" height="158.8" rx="6" fill="none" stroke="#04070f" stroke-width="1" opacity="0.55" transform="translate(0 1.5)"/><rect x="4.6" y="4.6" width="110.8" height="158.8" rx="6" fill="none" stroke="#ff3b57" stroke-width="2.2"/><rect x="4.6" y="4.6" width="110.8" height="158.8" rx="6" fill="none" stroke="#ffffff" stroke-width="0.8" opacity="0.45" transform="translate(0 -1.1)"/><path d="M57.0 0V274.74334716796875Q57.0 312.1661370095242 75.108154296875 342.43456996960583Q93.21630859375 372.7030029296875 123.48474155383164 390.5476379394531Q153.75317451391328 408.39227294921875 191.17596435546875 408.39227294921875H635.593994140625Q643.161376953125 408.39227294921875 648.6004333496094 413.8313293457031Q654.0394897460938 419.2703857421875 654.0394897460938 426.8377685546875V582.134765625Q654.0394897460938 589.7021484375 648.6004333496094 595.1412048339844Q643.161376953125 600.5802612304688 635.593994140625 600.5802612304688H194.865234375Q187.2978515625 600.5802612304688 181.85879516601562 595.1412048339844Q176.41973876953125 589.7021484375 176.41973876953125 582.134765625V538.3236083984375H57.0V586.35107421875Q57.0 623.7738640603055 75.108154296875 654.0422970203872Q93.21630859375 684.3107299804688 123.48474155383164 702.391845703125Q153.75317451391328 720.4729614257812 191.17596435546875 720.4729614257812H639.2832641601562Q675.876708984375 720.4729614257812 706.3712463378906 702.3335258608959Q736.8657836914062 684.1940902960105 755.1625061035156 653.9616976878682Q773.459228515625 623.7293050797259 773.459228515625 586.35107421875V422.6214599609375Q773.459228515625 386.02801513671875 755.1625061035156 355.5334777832031Q736.8657836914062 325.0389404296875 706.3712463378906 306.7422180175781Q675.876708984375 288.44549560546875 639.2832641601562 288.44549560546875H194.865234375Q187.2978515625 288.44549560546875 181.85879516601562 283.0064392089844Q176.41973876953125 277.5673828125 176.41973876953125 270.0V137.865234375Q176.41973876953125 130.2978515625 181.85879516601562 124.85879516601562Q187.2978515625 119.41973876953125 194.865234375 119.41973876953125H773.459228515625V0.0Z" transform="translate(0.8 1.1) translate(9.41 49.0) scale(0.052 -0.052)" fill="#01030c" opacity="0.55"/><path d="M57.0 0V274.74334716796875Q57.0 312.1661370095242 75.108154296875 342.43456996960583Q93.21630859375 372.7030029296875 123.48474155383164 390.5476379394531Q153.75317451391328 408.39227294921875 191.17596435546875 408.39227294921875H635.593994140625Q643.161376953125 408.39227294921875 648.6004333496094 413.8313293457031Q654.0394897460938 419.2703857421875 654.0394897460938 426.8377685546875V582.134765625Q654.0394897460938 589.7021484375 648.6004333496094 595.1412048339844Q643.161376953125 600.5802612304688 635.593994140625 600.5802612304688H194.865234375Q187.2978515625 600.5802612304688 181.85879516601562 595.1412048339844Q176.41973876953125 589.7021484375 176.41973876953125 582.134765625V538.3236083984375H57.0V586.35107421875Q57.0 623.7738640603055 75.108154296875 654.0422970203872Q93.21630859375 684.3107299804688 123.48474155383164 702.391845703125Q153.75317451391328 720.4729614257812 191.17596435546875 720.4729614257812H639.2832641601562Q675.876708984375 720.4729614257812 706.3712463378906 702.3335258608959Q736.8657836914062 684.1940902960105 755.1625061035156 653.9616976878682Q773.459228515625 623.7293050797259 773.459228515625 586.35107421875V422.6214599609375Q773.459228515625 386.02801513671875 755.1625061035156 355.5334777832031Q736.8657836914062 325.0389404296875 706.3712463378906 306.7422180175781Q675.876708984375 288.44549560546875 639.2832641601562 288.44549560546875H194.865234375Q187.2978515625 288.44549560546875 181.85879516601562 283.0064392089844Q176.41973876953125 277.5673828125 176.41973876953125 270.0V137.865234375Q176.41973876953125 130.2978515625 181.85879516601562 124.85879516601562Q187.2978515625 119.41973876953125 194.865234375 119.41973876953125H773.459228515625V0.0Z" transform="translate(9.41 49.0) scale(0.052 -0.052)" fill="#ff3b57" stroke="#ffd0d8" stroke-width="8.65" stroke-linejoin="round"/><path d="M16.49.2c7.12-.476 10.832 5.638 11.557 10.455.432.766.668.55.834-.042.35-6.186 5.86-11.24 10.96-10.55 8.3.108 13.35 9.393 11.93 17.25-1.73 9.6-6.875 15.38-10.77 21.333C36.586 44.81 30.656 53.716 28.74 58c0 0-6.027-9.222-13.87-20.067-5.243-7.252-9.44-15.11-9.83-21.875-.447-7.73 2.71-14.66 11.45-15.86z" transform="translate(0.8 1.1) translate(31.00 72.0) scale(0.4237) translate(-29.0 -29.5)" fill="#01030c" opacity="0.55"/><path d="M16.49.2c7.12-.476 10.832 5.638 11.557 10.455.432.766.668.55.834-.042.35-6.186 5.86-11.24 10.96-10.55 8.3.108 13.35 9.393 11.93 17.25-1.73 9.6-6.875 15.38-10.77 21.333C36.586 44.81 30.656 53.716 28.74 58c0 0-6.027-9.222-13.87-20.067-5.243-7.252-9.44-15.11-9.83-21.875-.447-7.73 2.71-14.66 11.45-15.86z" transform="translate(31.00 72.0) scale(0.4237) translate(-29.0 -29.5)" fill="#ff3b57" stroke="#ffd0d8" stroke-width="1.06" stroke-linejoin="round"/><path d="M16.49.2c7.12-.476 10.832 5.638 11.557 10.455.432.766.668.55.834-.042.35-6.186 5.86-11.24 10.96-10.55 8.3.108 13.35 9.393 11.93 17.25-1.73 9.6-6.875 15.38-10.77 21.333C36.586 44.81 30.656 53.716 28.74 58c0 0-6.027-9.222-13.87-20.067-5.243-7.252-9.44-15.11-9.83-21.875-.447-7.73 2.71-14.66 11.45-15.86z" transform="translate(0.8 1.1) translate(81.00 125.0) scale(0.9153) translate(-29.0 -29.5)" fill="#01030c" opacity="0.55"/><path d="M16.49.2c7.12-.476 10.832 5.638 11.557 10.455.432.766.668.55.834-.042.35-6.186 5.86-11.24 10.96-10.55 8.3.108 13.35 9.393 11.93 17.25-1.73 9.6-6.875 15.38-10.77 21.333C36.586 44.81 30.656 53.716 28.74 58c0 0-6.027-9.222-13.87-20.067-5.243-7.252-9.44-15.11-9.83-21.875-.447-7.73 2.71-14.66 11.45-15.86z" transform="translate(81.00 125.0) scale(0.9153) translate(-29.0 -29.5)" fill="#ff3b57" stroke="#ffd0d8" stroke-width="0.49" stroke-linejoin="round"/></svg>