<svg xmlns="http://www.w3.org/2000/svg" viewBox="0 0 120 168"><defs><linearGradient id="g_heart" x1="0" y1="0" x2="0" y2="1"><stop offset="0" stop-color="#12234f"/><stop offset="1" stop-color="#050a1e"/></linearGradient></defs><rect x="0.75" y="0.75" width="118.5" height="166.5" rx="9" fill="url(#g_heart)" stroke="#0a1330" stroke-width="1.5"/><g><circle cx="77.2" cy="58.8" r="0.87" fill="#dff6ff" opacity="0.41"/><circle cx="52.2" cy="120.4" r="1.09" fill="#dff6ff" opacity="0.73"/><circle cx="35.0" cy="148.9" r="0.78" fill="#dff6ff" opacity="0.48"/><circle cx="55.0" cy="23.2" r="0.48" fill="#dff6ff" opacity="0.83"/><circle cx="98.3" cy="15.7" r="0.77" fill="#dff6ff" opacity="0.36"/><circle cx="95.2" cy="92.1" r="0.52" fill="#dff6ff" opacity="0.43"/><circle cx="85.5" cy="99.2" r="0.87" fill="#dff6ff" opacity="0.37"/><circle cx="39.9" cy="33.9" r="0.89" fill="#dff6ff" opacity="0.62"/><circle cx="15.2" cy="29.8" r="0.98" fill="#dff6ff" opacity="0.55"/><circle cx="39.4" cy="119.5" r="0.66" fill="#dff6ff" opacity="0.55"/><circle cx="71.6" cy="36.5" r="0.84" fill="#dff6ff" opacity="0.48"/><circle cx="103.9" cy="58.9" r="0.47" fill="#dff6ff" opacity="0.52"/><circle cx="25.0" cy="135.9" r="0.6" fill="#dff6ff" opacity="0.4"/><circle cx="78.8" cy="129.1" r="0.84" fill="#dff6ff" opacity="0.44"/></g><rect x="4.6" y="4.6" width="110.8" height="158.8" rx="6" fill="none" stroke="#ffd0d8" stroke-width="3" opacity="0.22"/><rect x="4.6" y="4.6" width="110.8" height="158.8" rx="6" fill="none" stroke="#04070f" stroke-width="1" opacity="0.55" transform="translate(0 1.5)"/><rect x="4.6" y="4.6" width="110.8" height="158.8" rx="6" fill="none" stroke="#ff3b57" stroke-width="2.2"/><rect x="4.6" y="4.6" width="110.8" height="158.8" rx="6" fill="none" stroke="#ffffff" stroke-width="0.8" opacity="0.45" transform="translate(0 -1.1)"/><path d="M187.64892578125 0.0Q150.22613593969453 0.0 119.95770297961289 18.344635009765625Q89.68927001953125 36.68927001953125 71.34463500976562 66.98916244506836Q53.0 97.28905487060547 53.0 133.64892578125V170.73046875H172.8927001953125V137.865234375Q172.8927001953125 130.2978515625 178.33175659179688 124.85879516601562Q183.77081298828125 119.41973876953125 191.33819580078125 119.41973876953125H632.0669555664062Q639.6343383789062 119.41973876953125 645.0733947753906 124.85879516601562Q650.512451171875 130.2978515625 650.512451171875 137.865234375V286.9459228515625Q650.512451171875 294.5133056640625 645.0733947753906 299.9523620605469Q639.6343383789062 305.39141845703125 632.0669555664062 305.39141845703125H180.459228515625V424.8111572265625H602.7021484375Q610.26953125 424.8111572265625 615.7085876464844 430.2502136230469Q621.1476440429688 435.68927001953125 621.1476440429688 443.25665283203125V582.134765625Q621.1476440429688 589.7021484375 615.7085876464844 595.1412048339844Q610.26953125 600.5802612304688 602.7021484375 600.5802612304688H191.33819580078125Q183.77081298828125 600.5802612304688 178.33175659179688 595.1412048339844Q172.8927001953125 589.7021484375 172.8927001953125 582.134765625V540.3236083984375H53.0V586.35107421875Q53.0 623.7293050797259 71.27875518798828 653.9616976878682Q89.55751037597656 684.1940902960105 120.02210235595703 702.3335258608959Q150.4866943359375 720.4729614257812 187.64892578125 720.4729614257812H606.91845703125Q644.3412468728055 720.4729614257812 674.6096798328872 702.391845703125Q704.8781127929688 684.3107299804688 722.7227478027344 654.0422970203872Q740.5673828125 623.7738640603055 740.5673828125 586.35107421875V439.04034423828125Q740.5673828125 426.6214599609375 738.1214599609375 413.64849853515625Q735.675537109375 400.675537109375 731.7296142578125 390.20257568359375Q751.459228515625 369.36480712890625 760.6957092285156 343.2635192871094Q769.9321899414062 317.1622314453125 769.9321899414062 291.1622314453125V133.64892578125Q769.9321899414062 97.28905487060547 751.85107421875 66.98916244506836Q733.7699584960938 36.68927001953125 703.3053665161133 18.344635009765625Q672.8407745361328 0.0 636.2832641601562 0.0H187.64892578125Z" transform="translate(0.8 1.1) translate(9.6 49.0) scale(0.052 -0.052)" fill="#01030c" opacity="0.55"/><path d="M187.64892578125 0.0Q150.22613593969453 0.0 119.95770297961289 18.344635009765625Q89.68927001953125 36.68927001953125 71.34463500976562 66.98916244506836Q53.0 97.28905487060547 53.0 133.64892578125V170.73046875H172.8927001953125V137.865234375Q172.8927001953125 130.2978515625 178.33175659179688 124.85879516601562Q183.77081298828125 119.41973876953125 191.33819580078125 119.41973876953125H632.0669555664062Q639.6343383789062 119.41973876953125 645.0733947753906 124.85879516601562Q650.512451171875 130.2978515625 650.512451171875 137.865234375V286.9459228515625Q650.512451171875 294.5133056640625 645.0733947753906 299.9523620605469Q639.6343383789062 305.39141845703125 632.0669555664062 305.39141845703125H180.459228515625V424.8111572265625H602.7021484375Q610.26953125 424.8111572265625 615.7085876464844 430.2502136230469Q621.1476440429688 435.68927001953125 621.1476440429688 443.25665283203125V582.134765625Q621.1476440429688 589.7021484375 615.7085876464844 595.1412048339844Q610.26953125 600.5802612304688 602.7021484375 600.5802612304688H191.33819580078125Q183.77081298828125 600.5802612304688 178.33175659179688 595.1412048339844Q172.8927001953125 589.7021484375 172.8927001953125 582.134765625V540.3236083984375H53.0V586.35107421875Q53.0 623.7293050797259 71.27875518798828 653.9616976878682Q89.55751037597656 684.1940902960105 120.02210235595703 702.3335258608959Q150.4866943359375 720.4729614257812 187.64892578125 720.4729614257812H606.91845703125Q644.3412468728055 720.4729614257812 674.6096798328872 702.391845703125Q704.8781127929688 684.3107299804688 722.7227478027344 654.0422970203872Q740.5673828125 623.7738640603055 740.5673828125 586.35107421875V439.04034423828125Q740.5673828125 426.6214599609375 738.1214599609375 413.64849853515625Q735.675537109375 400.675537109375 731.7296142578125 390.20257568359375Q751.459228515625 369.36480712890625 760.6957092285156 343.2635192871094Q769.9321899414062 317.1622314453125 769.9321899414062 291.1622314453125V133.64892578125Q769.9321899414062 97.28905487060547 751.85107421875 66.98916244506836Q733.7699584960938 36.68927001953125 703.3053665161133 18.344635009765625Q672.8407745361328 0.0 636.2832641601562 0.0H187.64892578125Z" transform="translate(9.6 49.0) scale(0.052 -0.052)" fill="#ff3b57" stroke="#ffd0d8" stroke-width="8.65" stroke-linejoin="round"/><path d="M16.49.2c7.12-.476 10.832 5.638 11.557 10.455.432.766.668.55.834-.042.35-6.186 5.86-11.24 10.96-10.55 8.3.108 13.35 9.393 11.93 17.25-1.73 9.6-6.875 15.38-10.77 21.333C36.586 44.81 30.656 53.716 28.74 58c0 0-6.027-9.222-13.87-20.067-5.243-7.252-9.44-15.11-9.83-21.875-.447-7.73 2.71-14.66 11.45-15.86z" transform="translate(0.8 1.1) translate(31.00 72.0) scale(0.4237) translate(-29.0 -29.5)" fill="#01030c" opacity="0.55"/><path d="M16.49.2c7.12-.476 10.832 5.638 11.557 10.455.432.766.668.55.834-.042.35-6.186 5.86-11.24 10.96-10.55 8.3.108 13.35 9.393 11.93 17.25-1.73 9.6-6.875 15.38-10.77 21.333C36.586 44.81 30.656 53.716 28.74 58c0 0-6.027-9.222-13.87-20.067-5.243-7.252-9.44-15.11-9.83-21.875-.447-7.73 2.71-14.66 11.45-15.86z" transform="translate(31.00 72.0) scale(0.4237) translate(-29.0 -29.5)" fill="#ff3b57" stroke="#ffd0d8" stroke-width="1.06" stroke-linejoin="round"/><path d="M16.49.2c7.12-.476 10.832 5.638 11.557 10.455.432.766.668.55.834-.042.35-6.186 5.86-11.24 10.96-10.55 8.3.108 13.35 9.393 11.93 17.25-1.73 9.6-6.875 15.38-10.77 21.333C36.586 44.81 30.656 53.716 28.74 58c0 0-6.027-9.222-13.87-20.067-5.243-7.252-9.44-15.11-9.83-21.875-.447-7.73 2.71-14.66 11.45-15.86z" transform="translate(0.8 1.1) translate(81.00 125.0) scale(0.9153) translate(-29.0 -29.5)" fill="#01030c" opacity="0.55"/><path d="M16.49.2c7.12-.476 10.832 5.638 11.557 10.455.432.766.668.55.834-.042.35-6.186 5.86-11.24 10.96-10.55 8.3.108 13.35 9.393 11.93 17.25-1.73 9.6-6.875 15.38-10.77 21.333C36.586 44.81 30.656 53.716 28.74 58c0 0-6.027-9.222-13.87-20.067-5.243-7.252-9.44-15.11-9.83-21.875-.447-7.73 2.71-14.66 11.45-15.86z" transform="translate(81.00 125.0) scale(0.9153) translate(-29.0 -29.5)" fill="#ff3b57" stroke="#ffd0d8" stroke-width="0.49" stroke-linejoin="round"/></svg>