<svg xmlns="http://www.w3.org/2000/svg" viewBox="0 0 120 168"><defs><linearGradient id="g_heart" x1="0" y1="0" x2="0" y2="1"><stop offset="0" stop-color="#12234f"/><stop offset="1" stop-color="#050a1e"/></linearGradient></defs><rect x="0.75" y="0.75" width="118.5" height="166.5" rx="9" fill="url(#g_heart)" stroke="#0a1330" stroke-width="1.5"/><g><circle cx="110.8" cy="99.6" r="0.92" fill="#dff6ff" opacity="0.66"/><circle cx="49.0" cy="117.4" r="0.6" fill="#dff6ff" opacity="0.59"/><circle cx="80.1" cy="121.6" r="1.03" fill="#dff6ff" opacity="0.6"/><circle cx="68.3" cy="17.7" r="0.9" fill="#dff6ff" opacity="0.88"/><circle cx="90.6" cy="37.8" r="0.47" fill="#dff6ff" opacity="0.41"/><circle cx="49.7" cy="103.8" r="0.55" fill="#dff6ff" opacity="0.38"/><circle cx="28.4" cy="71.8" r="0.76" fill="#dff6ff" opacity="0.66"/><circle cx="68.1" cy="60.7" r="0.74" fill="#dff6ff" opacity="0.86"/><circle cx="55.0" cy="147.0" r="0.77" fill="#dff6ff" opacity="0.4"/><circle cx="45.7" cy="141.3" r="0.89" fill="#dff6ff" opacity="0.4"/><circle cx="71.6" cy="91.5" r="0.46" fill="#dff6ff" opacity="0.6"/><circle cx="66.0" cy="107.0" r="0.86" fill="#dff6ff" opacity="0.78"/><circle cx="100.0" cy="11.8" r="0.53" fill="#dff6ff" opacity="0.5"/><circle cx="110.3" cy="103.7" r="1.02" fill="#dff6ff" opacity="0.47"/></g><rect x="4.6" y="4.6" width="110.8" height="158.8" rx="6" fill="none" stroke="#ffd0d8" stroke-width="3" opacity="0.22"/><rect x="4.6" y="4.6" width="110.8" height="158.8" rx="6" fill="none" stroke="#04070f" stroke-width="1" opacity="0.55" transform="translate(0 1.5)"/><rect x="4.6" y="4.6" width="110.8" height="158.8" rx="6" fill="none" stroke="#ff3b57" stroke-width="2.2"/><rect x="4.6" y="4.6" width="110.8" height="158.8" rx="6" fill="none" stroke="#ffffff" stroke-width="0.8" opacity="0.45" transform="translate(0 -1.1)"/><path d="M191.17596435546875 0.0Q153.75317451391328 0.0 123.48474155383164 18.344635009765625Q93.21630859375 36.68927001953125 75.108154296875 66.98916244506836Q57.0 97.28905487060547 57.0 133.64892578125V176.87896728515625H176.41973876953125V137.865234375Q176.41973876953125 130.2978515625 181.85879516601562 124.85879516601562Q187.2978515625 119.41973876953125 194.865234375 119.41973876953125H635.593994140625Q643.161376953125 119.41973876953125 648.6004333496094 124.85879516601562Q654.0394897460938 130.2978515625 654.0394897460938 137.865234375V289.41888427734375Q654.0394897460938 296.98626708984375 648.6004333496094 302.4253234863281Q643.161376953125 307.8643798828125 635.593994140625 307.8643798828125H57.0V720.4729614257812H773.459228515625V600.5802612304688H194.865234375Q187.2978515625 600.5802612304688 181.85879516601562 595.1412048339844Q176.41973876953125 589.7021484375 176.41973876953125 582.134765625V446.7296142578125Q176.41973876953125 439.1622314453125 181.85879516601562 433.4866943359375Q187.2978515625 427.8111572265625 194.865234375 427.8111572265625H639.2832641601562Q675.876708984375 427.8111572265625 706.3712463378906 410.066477808459Q736.8657836914062 392.3217983903556 755.1625061035156 361.82313064049026Q773.459228515625 331.324462890625 773.459228515625 294.1622314453125V133.64892578125Q773.459228515625 97.28905487060547 755.1145935058594 66.98916244506836Q736.7699584960938 36.68927001953125 706.3053665161133 18.344635009765625Q675.8407745361328 0.0 639.2832641601562 0.0H191.17596435546875Z" transform="translate(0.8 1.1) translate(9.41 49.0) scale(0.052 -0.052)" fill="#01030c" opacity="0.55"/><path d="M191.17596435546875 0.0Q153.75317451391328 0.0 123.48474155383164 18.344635009765625Q93.21630859375 36.68927001953125 75.108154296875 66.98916244506836Q57.0 97.28905487060547 57.0 133.64892578125V176.87896728515625H176.41973876953125V137.865234375Q176.41973876953125 130.2978515625 181.85879516601562 124.85879516601562Q187.2978515625 119.41973876953125 194.865234375 119.41973876953125H635.593994140625Q643.161376953125 119.41973876953125 648.6004333496094 124.85879516601562Q654.0394897460938 130.2978515625 654.0394897460938 137.865234375V289.41888427734375Q654.0394897460938 296.98626708984375 648.6004333496094 302.4253234863281Q643.161376953125 307.8643798828125 635.593994140625 307.8643798828125H57.0V720.4729614257812H773.459228515625V600.5802612304688H194.865234375Q187.2978515625 600.5802612304688 181.85879516601562 595.1412048339844Q176.41973876953125 589.7021484375 176.41973876953125 582.134765625V446.7296142578125Q176.41973876953125 439.1622314453125 181.85879516601562 433.4866943359375Q187.2978515625 427.8111572265625 194.865234375 427.8111572265625H639.2832641601562Q675.876708984375 427.8111572265625 706.3712463378906 410.066477808459Q736.8657836914062 392.3217983903556 755.1625061035156 361.82313064049026Q773.459228515625 331.324462890625 773.459228515625 294.1622314453125V133.64892578125Q773.459228515625 97.28905487060547 755.1145935058594 66.98916244506836Q736.7699584960938 36.68927001953125 706.3053665161133 18.344635009765625Q675.8407745361328 0.0 639.2832641601562 0.0H191.17596435546875Z" transform="translate(9.41 49.0) scale(0.052 -0.052)" fill="#ff3b57" stroke="#ffd0d8" stroke-width="8.65" stroke-linejoin="round"/><path d="M16.49.2c7.12-.476 10.832 5.638 11.557 10.455.432.766.668.55.834-.042.35-6.186 5.86-11.24 10.96-10.55 8.3.108 13.35 9.393 11.93 17.25-1.73 9.6-6.875 15.38-10.77 21.333C36.586 44.81 30.656 53.716 28.74 58c0 0-6.027-9.222-13.87-20.067-5.243-7.252-9.44-15.11-9.83-21.875-.447-7.73 2.71-14.66 11.45-15.86z" transform="translate(0.8 1.1) translate(31.00 72.0) scale(0.4237) translate(-29.0 -29.5)" fill="#01030c" opacity="0.55"/><path d="M16.49.2c7.12-.476 10.832 5.638 11.557 10.455.432.766.668.55.834-.042.35-6.186 5.86-11.24 10.96-10.55 8.3.108 13.35 9.393 11.93 17.25-1.73 9.6-6.875 15.38-10.77 21.333C36.586 44.81 30.656 53.716 28.74 58c0 0-6.027-9.222-13.87-20.067-5.243-7.252-9.44-15.11-9.83-21.875-.447-7.73 2.71-14.66 11.45-15.86z" transform="translate(31.00 72.0) scale(0.4237) translate(-29.0 -29.5)" fill="#ff3b57" stroke="#ffd0d8" stroke-width="1.06" stroke-linejoin="round"/><path d="M16.49.2c7.12-.476 10.832 5.638 11.557 10.455.432.766.668.55.834-.042.35-6.186 5.86-11.24 10.96-10.55 8.3.108 13.35 9.393 11.93 17.25-1.73 9.6-6.875 15.38-10.77 21.333C36.586 44.81 30.656 53.716 28.74 58c0 0-6.027-9.222-13.87-20.067-5.243-7.252-9.44-15.11-9.83-21.875-.447-7.73 2.71-14.66 11.45-15.86z" transform="translate(0.8 1.1) translate(81.00 125.0) scale(0.9153) translate(-29.0 -29.5)" fill="#01030c" opacity="0.55"/><path d="M16.49.2c7.12-.476 10.832 5.638 11.557 10.455.432.766.668.55.834-.042.35-6.186 5.86-11.24 10.96-10.55 8.3.108 13.35 9.393 11.93 17.25-1.73 9.6-6.875 15.38-10.77 21.333C36.586 44.81 30.656 53.716 28.74 58c0 0-6.027-9.222-13.87-20.067-5.243-7.252-9.44-15.11-9.83-21.875-.447-7.73 2.71-14.66 11.45-15.86z" transform="translate(81.00 125.0) scale(0.9153) translate(-29.0 -29.5)" fill="#ff3b57" stroke="#ffd0d8" stroke-width="0.49" stroke-linejoin="round"/></svg>