<svg xmlns="http://www.w3.org/2000/svg" viewBox="0 0 120 168"><defs><linearGradient id="g_heart" x1="0" y1="0" x2="0" y2="1"><stop offset="0" stop-color="#12234f"/><stop offset="1" stop-color="#050a1e"/></linearGradient></defs><rect x="0.75" y="0.75" width="118.5" height="166.5" rx="9" fill="url(#g_heart)" stroke="#0a1330" stroke-width="1.5"/><g><circle cx="102.7" cy="83.0" r="1.08" fill="#dff6ff" opacity="0.46"/><circle cx="101.1" cy="43.9" r="0.89" fill="#dff6ff" opacity="0.59"/><circle cx="45.4" cy="110.0" r="0.46" fill="#dff6ff" opacity="0.5"/><circle cx="78.0" cy="155.7" r="0.81" fill="#dff6ff" opacity="0.79"/><circle cx="22.6" cy="83.8" r="0.92" fill="#dff6ff" opacity="0.4"/><circle cx="42.7" cy="109.5" r="1.04" fill="#dff6ff" opacity="0.73"/><circle cx="17.1" cy="44.7" r="1.07" fill="#dff6ff" opacity="0.5"/><circle cx="99.6" cy="83.1" r="1.05" fill="#dff6ff" opacity="0.43"/><circle cx="64.0" cy="129.3" r="1.01" fill="#dff6ff" opacity="0.45"/><circle cx="97.6" cy="56.9" r="0.56" fill="#dff6ff" opacity="0.85"/><circle cx="34.7" cy="41.6" r="1.03" fill="#dff6ff" opacity="0.74"/><circle cx="47.9" cy="91.8" r="0.61" fill="#dff6ff" opacity="0.5"/><circle cx="32.7" cy="156.2" r="0.56" fill="#dff6ff" opacity="0.41"/><circle cx="88.6" cy="52.2" r="0.41" fill="#dff6ff" opacity="0.82"/></g><rect x="4.6" y="4.6" width="110.8" height="158.8" rx="6" fill="none" stroke="#ffd0d8" stroke-width="3" opacity="0.22"/><rect x="4.6" y="4.6" width="110.8" height="158.8" rx="6" fill="none" stroke="#04070f" stroke-width="1" opacity="0.55" transform="translate(0 1.5)"/><rect x="4.6" y="4.6" width="110.8" height="158.8" rx="6" fill="none" stroke="#ff3b57" stroke-width="2.2"/><rect x="4.6" y="4.6" width="110.8" height="158.8" rx="6" fill="none" stroke="#ffffff" stroke-width="0.8" opacity="0.45" transform="translate(0 -1.1)"/><path d="M191.17596435546875 0.0Q153.75317451391328 0.0 123.48474155383164 18.344635009765625Q93.21630859375 36.68927001953125 75.108154296875 66.98916244506836Q57.0 97.28905487060547 57.0 133.64892578125V294.1622314453125Q57.0 312.60703565253584 63.41888427734375 331.5129599649398Q69.8377685546875 350.41888427734375 80.14849853515625 367.8377685546875Q69.8377685546875 385.25665283203125 63.41888427734375 404.4120178222656Q57.0 423.5673828125 57.0 442.5133056640625V586.35107421875Q57.0 623.7738640603055 75.108154296875 654.0422970203872Q93.21630859375 684.3107299804688 123.48474155383164 702.391845703125Q153.75317451391328 720.4729614257812 191.17596435546875 720.4729614257812H639.2832641601562Q671.3079223632812 720.4729614257812 699.3294982910156 705.4459228515625Q727.35107421875 690.4188842773438 747.1686706542969 665.0742492675781Q766.9862670898438 639.7296142578125 773.459228515625 609.5133056640625V442.5133056640625Q773.459228515625 405.14849853515625 750.3107299804688 367.8377685546875Q773.459228515625 333.58111572265625 773.459228515625 294.1622314453125V133.64892578125Q773.459228515625 97.28905487060547 755.1145935058594 66.98916244506836Q736.7699584960938 36.68927001953125 706.3053665161133 18.344635009765625Q675.8407745361328 0.0 639.2832641601562 0.0H191.17596435546875ZM194.865234375 119.41973876953125H635.593994140625Q643.161376953125 119.41973876953125 648.6004333496094 124.85879516601562Q654.0394897460938 130.2978515625 654.0394897460938 137.865234375V289.41888427734375Q654.0394897460938 296.98626708984375 648.6004333496094 302.4253234863281Q643.161376953125 307.8643798828125 635.593994140625 307.8643798828125H194.865234375Q187.2978515625 307.8643798828125 181.85879516601562 302.4253234863281Q176.41973876953125 296.98626708984375 176.41973876953125 289.41888427734375V137.865234375Q176.41973876953125 130.2978515625 181.85879516601562 124.85879516601562Q187.2978515625 119.41973876953125 194.865234375 119.41973876953125ZM194.865234375 417.33819580078125H635.593994140625Q643.161376953125 417.33819580078125 648.6004333496094 422.7772521972656Q654.0394897460938 428.21630859375 654.0394897460938 435.78369140625V581.134765625Q654.0394897460938 588.7021484375 648.6004333496094 594.1412048339844Q643.161376953125 599.5802612304688 635.593994140625 599.5802612304688H194.865234375Q187.2978515625 599.5802612304688 181.85879516601562 594.1412048339844Q176.41973876953125 588.7021484375 176.41973876953125 581.134765625V435.78369140625Q176.41973876953125 428.21630859375 181.85879516601562 422.7772521972656Q187.2978515625 417.33819580078125 194.865234375 417.33819580078125Z" transform="translate(0.8 1.1) translate(9.41 49.0) scale(0.052 -0.052)" fill="#01030c" opacity="0.55"/><path d="M191.17596435546875 0.0Q153.75317451391328 0.0 123.48474155383164 18.344635009765625Q93.21630859375 36.68927001953125 75.108154296875 66.98916244506836Q57.0 97.28905487060547 57.0 133.64892578125V294.1622314453125Q57.0 312.60703565253584 63.41888427734375 331.5129599649398Q69.8377685546875 350.41888427734375 80.14849853515625 367.8377685546875Q69.8377685546875 385.25665283203125 63.41888427734375 404.4120178222656Q57.0 423.5673828125 57.0 442.5133056640625V586.35107421875Q57.0 623.7738640603055 75.108154296875 654.0422970203872Q93.21630859375 684.3107299804688 123.48474155383164 702.391845703125Q153.75317451391328 720.4729614257812 191.17596435546875 720.4729614257812H639.2832641601562Q671.3079223632812 720.4729614257812 699.3294982910156 705.4459228515625Q727.35107421875 690.4188842773438 747.1686706542969 665.0742492675781Q766.9862670898438 639.7296142578125 773.459228515625 609.5133056640625V442.5133056640625Q773.459228515625 405.14849853515625 750.3107299804688 367.8377685546875Q773.459228515625 333.58111572265625 773.459228515625 294.1622314453125V133.64892578125Q773.459228515625 97.28905487060547 755.1145935058594 66.98916244506836Q736.7699584960938 36.68927001953125 706.3053665161133 18.344635009765625Q675.8407745361328 0.0 639.2832641601562 0.0H191.17596435546875ZM194.865234375 119.41973876953125H635.593994140625Q643.161376953125 119.41973876953125 648.6004333496094 124.85879516601562Q654.0394897460938 130.2978515625 654.0394897460938 137.865234375V289.41888427734375Q654.0394897460938 296.98626708984375 648.6004333496094 302.4253234863281Q643.161376953125 307.8643798828125 635.593994140625 307.8643798828125H194.865234375Q187.2978515625 307.8643798828125 181.85879516601562 302.4253234863281Q176.41973876953125 296.98626708984375 176.41973876953125 289.41888427734375V137.865234375Q176.41973876953125 130.2978515625 181.85879516601562 124.85879516601562Q187.2978515625 119.41973876953125 194.865234375 119.41973876953125ZM194.865234375 417.33819580078125H635.593994140625Q643.161376953125 417.33819580078125 648.6004333496094 422.7772521972656Q654.0394897460938 428.21630859375 654.0394897460938 435.78369140625V581.134765625Q654.0394897460938 588.7021484375 648.6004333496094 594.1412048339844Q643.161376953125 599.5802612304688 635.593994140625 599.5802612304688H194.865234375Q187.2978515625 599.5802612304688 181.85879516601562 594.1412048339844Q176.41973876953125 588.7021484375 176.41973876953125 581.134765625V435.78369140625Q176.41973876953125 428.21630859375 181.85879516601562 422.7772521972656Q187.2978515625 417.33819580078125 194.865234375 417.33819580078125Z" transform="translate(9.41 49.0) scale(0.052 -0.052)" fill="#ff3b57" stroke="#ffd0d8" stroke-width="8.65" stroke-linejoin="round"/><path d="M16.49.2c7.12-.476 10.832 5.638 11.557 10.455.432.766.668.55.834-.042.35-6.186 5.86-11.24 10.96-10.55 8.3.108 13.35 9.393 11.93 17.25-1.73 9.6-6.875 15.38-10.77 21.333C36.586 44.81 30.656 53.716 28.74 58c0 0-6.027-9.222-13.87-20.067-5.243-7.252-9.44-15.11-9.83-21.875-.447-7.73 2.71-14.66 11.45-15.86z" transform="translate(0.8 1.1) translate(31.00 72.0) scale(0.4237) translate(-29.0 -29.5)" fill="#01030c" opacity="0.55"/><path d="M16.49.2c7.12-.476 10.832 5.638 11.557 10.455.432.766.668.55.834-.042.35-6.186 5.86-11.24 10.96-10.55 8.3.108 13.35 9.393 11.93 17.25-1.73 9.6-6.875 15.38-10.77 21.333C36.586 44.81 30.656 53.716 28.74 58c0 0-6.027-9.222-13.87-20.067-5.243-7.252-9.44-15.11-9.83-21.875-.447-7.73 2.71-14.66 11.45-15.86z" transform="translate(31.00 72.0) scale(0.4237) translate(-29.0 -29.5)" fill="#ff3b57" stroke="#ffd0d8" stroke-width="1.06" stroke-linejoin="round"/><path d="M16.49.2c7.12-.476 10.832 5.638 11.557 10.455.432.766.668.55.834-.042.35-6.186 5.86-11.24 10.96-10.55 8.3.108 13.35 9.393 11.93 17.25-1.73 9.6-6.875 15.38-10.77 21.333C36.586 44.81 30.656 53.716 28.74 58c0 0-6.027-9.222-13.87-20.067-5.243-7.252-9.44-15.11-9.83-21.875-.447-7.73 2.71-14.66 11.45-15.86z" transform="translate(0.8 1.1) translate(81.00 125.0) scale(0.9153) translate(-29.0 -29.5)" fill="#01030c" opacity="0.55"/><path d="M16.49.2c7.12-.476 10.832 5.638 11.557 10.455.432.766.668.55.834-.042.35-6.186 5.86-11.24 10.96-10.55 8.3.108 13.35 9.393 11.93 17.25-1.73 9.6-6.875 15.38-10.77 21.333C36.586 44.81 30.656 53.716 28.74 58c0 0-6.027-9.222-13.87-20.067-5.243-7.252-9.44-15.11-9.83-21.875-.447-7.73 2.71-14.66 11.45-15.86z" transform="translate(81.00 125.0) scale(0.9153) translate(-29.0 -29.5)" fill="#ff3b57" stroke="#ffd0d8" stroke-width="0.49" stroke-linejoin="round"/></svg>