<svg xmlns="http://www.w3.org/2000/svg" viewBox="0 0 120 168"><defs><linearGradient id="g_spade" x1="0" y1="0" x2="0" y2="1"><stop offset="0" stop-color="#12234f"/><stop offset="1" stop-color="#050a1e"/></linearGradient></defs><rect x="0.75" y="0.75" width="118.5" height="166.5" rx="9" fill="url(#g_spade)" stroke="#0a1330" stroke-width="1.5"/><g><circle cx="33.9" cy="124.9" r="1.03" fill="#dff6ff" opacity="0.74"/><circle cx="60.6" cy="141.8" r="0.47" fill="#dff6ff" opacity="0.46"/><circle cx="66.0" cy="62.8" r="0.94" fill="#dff6ff" opacity="0.77"/><circle cx="74.9" cy="145.5" r="0.51" fill="#dff6ff" opacity="0.45"/><circle cx="69.1" cy="110.2" r="0.72" fill="#dff6ff" opacity="0.58"/><circle cx="90.4" cy="22.3" r="0.56" fill="#dff6ff" opacity="0.36"/><circle cx="59.9" cy="92.1" r="0.44" fill="#dff6ff" opacity="0.36"/><circle cx="10.0" cy="156.3" r="0.99" fill="#dff6ff" opacity="0.54"/><circle cx="9.2" cy="146.7" r="1.07" fill="#dff6ff" opacity="0.7"/><circle cx="92.0" cy="153.8" r="0.74" fill="#dff6ff" opacity="0.52"/><circle cx="81.7" cy="109.2" r="0.99" fill="#dff6ff" opacity="0.68"/><circle cx="40.0" cy="123.6" r="0.8" fill="#dff6ff" opacity="0.4"/><circle cx="37.5" cy="67.7" r="0.71" fill="#dff6ff" opacity="0.58"/><circle cx="25.8" cy="106.9" r="1.0" fill="#dff6ff" opacity="0.67"/></g><rect x="4.6" y="4.6" width="110.8" height="158.8" rx="6" fill="none" stroke="#a9d8ff" stroke-width="3" opacity="0.22"/><rect x="4.6" y="4.6" width="110.8" height="158.8" rx="6" fill="none" stroke="#04070f" stroke-width="1" opacity="0.55" transform="translate(0 1.5)"/><rect x="4.6" y="4.6" width="110.8" height="158.8" rx="6" fill="none" stroke="#eef5ff" stroke-width="2.2"/><rect x="4.6" y="4.6" width="110.8" height="158.8" rx="6" fill="none" stroke="#ffffff" stroke-width="0.8" opacity="0.45" transform="translate(0 -1.1)"/><path d="M187.64892578125 0.0Q150.22613593969453 0.0 119.95770297961289 18.344635009765625Q89.68927001953125 36.68927001953125 71.34463500976562 66.98916244506836Q53.0 97.28905487060547 53.0 133.64892578125V170.73046875H172.8927001953125V137.865234375Q172.8927001953125 130.2978515625 178.33175659179688 124.85879516601562Q183.77081298828125 119.41973876953125 191.33819580078125 119.41973876953125H632.0669555664062Q639.6343383789062 119.41973876953125 645.0733947753906 124.85879516601562Q650.512451171875 130.2978515625 650.512451171875 137.865234375V286.9459228515625Q650.512451171875 294.5133056640625 645.0733947753906 299.9523620605469Q639.6343383789062 305.39141845703125 632.0669555664062 305.39141845703125H180.459228515625V424.8111572265625H602.7021484375Q610.26953125 424.8111572265625 615.7085876464844 430.2502136230469Q621.1476440429688 435.68927001953125 621.1476440429688 443.25665283203125V582.134765625Q621.1476440429688 589.7021484375 615.7085876464844 595.1412048339844Q610.26953125 600.5802612304688 602.7021484375 600.5802612304688H191.33819580078125Q183.77081298828125 600.5802612304688 178.33175659179688 595.1412048339844Q172.8927001953125 589.7021484375 172.8927001953125 582.134765625V540.3236083984375H53.0V586.35107421875Q53.0 623.7293050797259 71.27875518798828 653.9616976878682Q89.55751037597656 684.1940902960105 120.02210235595703 702.3335258608959Q150.4866943359375 720.4729614257812 187.64892578125 720.4729614257812H606.91845703125Q644.3412468728055 720.4729614257812 674.6096798328872 702.391845703125Q704.8781127929688 684.3107299804688 722.7227478027344 654.0422970203872Q740.5673828125 623.7738640603055 740.5673828125 586.35107421875V439.04034423828125Q740.5673828125 426.6214599609375 738.1214599609375 413.64849853515625Q735.675537109375 400.675537109375 731.7296142578125 390.20257568359375Q751.459228515625 369.36480712890625 760.6957092285156 343.2635192871094Q769.9321899414062 317.1622314453125 769.9321899414062 291.1622314453125V133.64892578125Q769.9321899414062 97.28905487060547 751.85107421875 66.98916244506836Q733.7699584960938 36.68927001953125 703.3053665161133 18.344635009765625Q672.8407745361328 0.0 636.2832641601562 0.0H187.64892578125Z" transform="translate(0.8 1.1) translate(9.6 49.0) scale(0.052 -0.052)" fill="#01030c" opacity="0.55"/><path d="M187.64892578125 0.0Q150.22613593969453 0.0 119.95770297961289 18.344635009765625Q89.68927001953125 36.68927001953125 71.34463500976562 66.98916244506836Q53.0 97.28905487060547 53.0 133.64892578125V170.73046875H172.8927001953125V137.865234375Q172.8927001953125 130.2978515625 178.33175659179688 124.85879516601562Q183.77081298828125 119.41973876953125 191.33819580078125 119.41973876953125H632.0669555664062Q639.6343383789062 119.41973876953125 645.0733947753906 124.85879516601562Q650.512451171875 130.2978515625 650.512451171875 137.865234375V286.9459228515625Q650.512451171875 294.5133056640625 645.0733947753906 299.9523620605469Q639.6343383789062 305.39141845703125 632.0669555664062 305.39141845703125H180.459228515625V424.8111572265625H602.7021484375Q610.26953125 424.8111572265625 615.7085876464844 430.2502136230469Q621.1476440429688 435.68927001953125 621.1476440429688 443.25665283203125V582.134765625Q621.1476440429688 589.7021484375 615.7085876464844 595.1412048339844Q610.26953125 600.5802612304688 602.7021484375 600.5802612304688H191.33819580078125Q183.77081298828125 600.5802612304688 178.33175659179688 595.1412048339844Q172.8927001953125 589.7021484375 172.8927001953125 582.134765625V540.3236083984375H53.0V586.35107421875Q53.0 623.7293050797259 71.27875518798828 653.9616976878682Q89.55751037597656 684.1940902960105 120.02210235595703 702.3335258608959Q150.4866943359375 720.4729614257812 187.64892578125 720.4729614257812H606.91845703125Q644.3412468728055 720.4729614257812 674.6096798328872 702.391845703125Q704.8781127929688 684.3107299804688 722.7227478027344 654.0422970203872Q740.5673828125 623.7738640603055 740.5673828125 586.35107421875V439.04034423828125Q740.5673828125 426.6214599609375 738.1214599609375 413.64849853515625Q735.675537109375 400.675537109375 731.7296142578125 390.20257568359375Q751.459228515625 369.36480712890625 760.6957092285156 343.2635192871094Q769.9321899414062 317.1622314453125 769.9321899414062 291.1622314453125V133.64892578125Q769.9321899414062 97.28905487060547 751.85107421875 66.98916244506836Q733.7699584960938 36.68927001953125 703.3053665161133 18.344635009765625Q672.8407745361328 0.0 636.2832641601562 0.0H187.64892578125Z" transform="translate(9.6 49.0) scale(0.052 -0.052)" fill="#eef5ff" stroke="#a9d8ff" stroke-width="8.65" stroke-linejoin="round"/><path d="M26.406 40.187c.015-1.98-1.56-2.017-1.542-.573-.133 7.257-6.31 10.83-10.8 9.982-6.92-1.307-9.128-8.13-9.06-12.148C5.204 25.046 17.774 15.9 29.114 0c8.31 14.35 22.03 25.623 22.84 36.717 1.08 14.75-17.71 20.25-20.394 3.06-.172-1.214-1.612-1.76-1.5-.063.408 4.71-.17 6.674 5.18 18.287H21.25c3.1-5.42 4.943-12.09 5.154-17.81z" transform="translate(0.8 1.1) translate(31.00 72.0) scale(0.4237) translate(-29.0 -29.5)" fill="#01030c" opacity="0.55"/><path d="M26.406 40.187c.015-1.98-1.56-2.017-1.542-.573-.133 7.257-6.31 10.83-10.8 9.982-6.92-1.307-9.128-8.13-9.06-12.148C5.204 25.046 17.774 15.9 29.114 0c8.31 14.35 22.03 25.623 22.84 36.717 1.08 14.75-17.71 20.25-20.394 3.06-.172-1.214-1.612-1.76-1.5-.063.408 4.71-.17 6.674 5.18 18.287H21.25c3.1-5.42 4.943-12.09 5.154-17.81z" transform="translate(31.00 72.0) scale(0.4237) translate(-29.0 -29.5)" fill="#eef5ff" stroke="#a9d8ff" stroke-width="1.06" stroke-linejoin="round"/><path d="M26.406 40.187c.015-1.98-1.56-2.017-1.542-.573-.133 7.257-6.31 10.83-10.8 9.982-6.92-1.307-9.128-8.13-9.06-12.148C5.204 25.046 17.774 15.9 29.114 0c8.31 14.35 22.03 25.623 22.84 36.717 1.08 14.75-17.71 20.25-20.394 3.06-.172-1.214-1.612-1.76-1.5-.063.408 4.71-.17 6.674 5.18 18.287H21.25c3.1-5.42 4.943-12.09 5.154-17.81z" transform="translate(0.8 1.1) translate(81.00 125.0) scale(0.9153) translate(-29.0 -29.5)" fill="#01030c" opacity="0.55"/><path d="M26.406 40.187c.015-1.98-1.56-2.017-1.542-.573-.133 7.257-6.31 10.83-10.8 9.982-6.92-1.307-9.128-8.13-9.06-12.148C5.204 25.046 17.774 15.9 29.114 0c8.31 14.35 22.03 25.623 22.84 36.717 1.08 14.75-17.71 20.25-20.394 3.06-.172-1.214-1.612-1.76-1.5-.063.408 4.71-.17 6.674 5.18 18.287H21.25c3.1-5.42 4.943-12.09 5.154-17.81z" transform="translate(81.00 125.0) scale(0.9153) translate(-29.0 -29.5)" fill="#eef5ff" stroke="#a9d8ff" stroke-width="0.49" stroke-linejoin="round"/></svg>