<svg xmlns="http://www.w3.org/2000/svg" viewBox="0 0 120 168"><defs><linearGradient id="g_diamond" x1="0" y1="0" x2="0" y2="1"><stop offset="0" stop-color="#12234f"/><stop offset="1" stop-color="#050a1e"/></linearGradient></defs><rect x="0.75" y="0.75" width="118.5" height="166.5" rx="9" fill="url(#g_diamond)" stroke="#0a1330" stroke-width="1.5"/><g><circle cx="22.7" cy="73.0" r="1.0" fill="#dff6ff" opacity="0.6"/><circle cx="32.7" cy="109.3" r="0.61" fill="#dff6ff" opacity="0.67"/><circle cx="32.5" cy="122.4" r="0.44" fill="#dff6ff" opacity="0.51"/><circle cx="103.8" cy="22.0" r="0.67" fill="#dff6ff" opacity="0.45"/><circle cx="47.9" cy="93.8" r="1.07" fill="#dff6ff" opacity="0.87"/><circle cx="40.5" cy="123.7" r="0.72" fill="#dff6ff" opacity="0.41"/><circle cx="36.4" cy="56.6" r="0.68" fill="#dff6ff" opacity="0.9"/><circle cx="90.7" cy="23.3" r="0.81" fill="#dff6ff" opacity="0.51"/><circle cx="35.5" cy="140.0" r="0.45" fill="#dff6ff" opacity="0.75"/><circle cx="99.6" cy="9.3" r="0.61" fill="#dff6ff" opacity="0.78"/><circle cx="13.8" cy="63.7" r="0.56" fill="#dff6ff" opacity="0.84"/><circle cx="91.7" cy="123.7" r="0.59" fill="#dff6ff" opacity="0.41"/><circle cx="101.2" cy="42.8" r="0.55" fill="#dff6ff" opacity="0.39"/><circle cx="93.0" cy="76.0" r="0.52" fill="#dff6ff" opacity="0.36"/></g><rect x="4.6" y="4.6" width="110.8" height="158.8" rx="6" fill="none" stroke="#bfe6ff" stroke-width="3" opacity="0.22"/><rect x="4.6" y="4.6" width="110.8" height="158.8" rx="6" fill="none" stroke="#04070f" stroke-width="1" opacity="0.55" transform="translate(0 1.5)"/><rect x="4.6" y="4.6" width="110.8" height="158.8" rx="6" fill="none" stroke="#45b4ff" stroke-width="2.2"/><rect x="4.6" y="4.6" width="110.8" height="158.8" rx="6" fill="none" stroke="#ffffff" stroke-width="0.8" opacity="0.45" transform="translate(0 -1.1)"/><path d="M191.17596435546875 0.0Q153.75317451391328 0.0 123.48474155383164 18.344635009765625Q93.21630859375 36.68927001953125 75.108154296875 66.98916244506836Q57.0 97.28905487060547 57.0 133.64892578125V176.87896728515625H176.41973876953125V137.865234375Q176.41973876953125 130.2978515625 181.85879516601562 124.85879516601562Q187.2978515625 119.41973876953125 194.865234375 119.41973876953125H635.593994140625Q643.161376953125 119.41973876953125 648.6004333496094 124.85879516601562Q654.0394897460938 130.2978515625 654.0394897460938 137.865234375V289.41888427734375Q654.0394897460938 296.98626708984375 648.6004333496094 302.4253234863281Q643.161376953125 307.8643798828125 635.593994140625 307.8643798828125H57.0V720.4729614257812H773.459228515625V600.5802612304688H194.865234375Q187.2978515625 600.5802612304688 181.85879516601562 595.1412048339844Q176.41973876953125 589.7021484375 176.41973876953125 582.134765625V446.7296142578125Q176.41973876953125 439.1622314453125 181.85879516601562 433.4866943359375Q187.2978515625 427.8111572265625 194.865234375 427.8111572265625H639.2832641601562Q675.876708984375 427.8111572265625 706.3712463378906 410.066477808459Q736.8657836914062 392.3217983903556 755.1625061035156 361.82313064049026Q773.459228515625 331.324462890625 773.459228515625 294.1622314453125V133.64892578125Q773.459228515625 97.28905487060547 755.1145935058594 66.98916244506836Q736.7699584960938 36.68927001953125 706.3053665161133 18.344635009765625Q675.8407745361328 0.0 639.2832641601562 0.0H191.17596435546875Z" transform="translate(0.8 1.1) translate(9.41 49.0) scale(0.052 -0.052)" fill="#01030c" opacity="0.55"/><path d="M191.17596435546875 0.0Q153.75317451391328 0.0 123.48474155383164 18.344635009765625Q93.21630859375 36.68927001953125 75.108154296875 66.98916244506836Q57.0 97.28905487060547 57.0 133.64892578125V176.87896728515625H176.41973876953125V137.865234375Q176.41973876953125 130.2978515625 181.85879516601562 124.85879516601562Q187.2978515625 119.41973876953125 194.865234375 119.41973876953125H635.593994140625Q643.161376953125 119.41973876953125 648.6004333496094 124.85879516601562Q654.0394897460938 130.2978515625 654.0394897460938 137.865234375V289.41888427734375Q654.0394897460938 296.98626708984375 648.6004333496094 302.4253234863281Q643.161376953125 307.8643798828125 635.593994140625 307.8643798828125H57.0V720.4729614257812H773.459228515625V600.5802612304688H194.865234375Q187.2978515625 600.5802612304688 181.85879516601562 595.1412048339844Q176.41973876953125 589.7021484375 176.41973876953125 582.134765625V446.7296142578125Q176.41973876953125 439.1622314453125 181.85879516601562 433.4866943359375Q187.2978515625 427.8111572265625 194.865234375 427.8111572265625H639.2832641601562Q675.876708984375 427.8111572265625 706.3712463378906 410.066477808459Q736.8657836914062 392.3217983903556 755.1625061035156 361.82313064049026Q773.459228515625 331.324462890625 773.459228515625 294.1622314453125V133.64892578125Q773.459228515625 97.28905487060547 755.1145935058594 66.98916244506836Q736.7699584960938 36.68927001953125 706.3053665161133 18.344635009765625Q675.8407745361328 0.0 639.2832641601562 0.0H191.17596435546875Z" transform="translate(9.41 49.0) scale(0.052 -0.052)" fill="#45b4ff" stroke="#bfe6ff" stroke-width="8.65" stroke-linejoin="round"/><path d="M28.5 0l20.112 29L28.5 58 8.388 29z" transform="translate(0.8 1.1) translate(31.00 72.0) scale(0.4237) translate(-29.0 -29.5)" fill="#01030c" opacity="0.55"/><path d="M28.5 0l20.112 29L28.5 58 8.388 29z" transform="translate(31.00 72.0) scale(0.4237) translate(-29.0 -29.5)" fill="#45b4ff" stroke="#bfe6ff" stroke-width="1.06" stroke-linejoin="round"/><path d="M28.5 0l20.112 29L28.5 58 8.388 29z" transform="translate(0.8 1.1) translate(81.00 125.0) scale(0.9153) translate(-29.0 -29.5)" fill="#01030c" opacity="0.55"/><path d="M28.5 0l20.112 29L28.5 58 8.388 29z" transform="translate(81.00 125.0) scale(0.9153) translate(-29.0 -29.5)" fill="#45b4ff" stroke="#bfe6ff" stroke-width="0.49" stroke-linejoin="round"/></svg>