<svg xmlns="http://www.w3.org/2000/svg" viewBox="0 0 120 168"><defs><linearGradient id="g_spade" x1="0" y1="0" x2="0" y2="1"><stop offset="0" stop-color="#12234f"/><stop offset="1" stop-color="#050a1e"/></linearGradient></defs><rect x="0.75" y="0.75" width="118.5" height="166.5" rx="9" fill="url(#g_spade)" stroke="#0a1330" stroke-width="1.5"/><g><circle cx="95.9" cy="37.7" r="0.72" fill="#dff6ff" opacity="0.46"/><circle cx="75.6" cy="81.2" r="1.04" fill="#dff6ff" opacity="0.84"/><circle cx="43.9" cy="144.8" r="0.69" fill="#dff6ff" opacity="0.4"/><circle cx="67.5" cy="137.1" r="0.8" fill="#dff6ff" opacity="0.37"/><circle cx="14.9" cy="79.0" r="0.87" fill="#dff6ff" opacity="0.71"/><circle cx="89.3" cy="19.3" r="0.47" fill="#dff6ff" opacity="0.53"/><circle cx="83.9" cy="51.8" r="0.46" fill="#dff6ff" opacity="0.72"/><circle cx="91.0" cy="98.2" r="0.6" fill="#dff6ff" opacity="0.71"/><circle cx="19.4" cy="110.5" r="0.66" fill="#dff6ff" opacity="0.69"/><circle cx="36.1" cy="115.4" r="0.53" fill="#dff6ff" opacity="0.58"/><circle cx="27.0" cy="98.1" r="0.88" fill="#dff6ff" opacity="0.36"/><circle cx="69.5" cy="50.1" r="0.46" fill="#dff6ff" opacity="0.82"/><circle cx="49.9" cy="137.8" r="0.78" fill="#dff6ff" opacity="0.86"/><circle cx="92.3" cy="116.6" r="0.96" fill="#dff6ff" opacity="0.38"/></g><rect x="4.6" y="4.6" width="110.8" height="158.8" rx="6" fill="none" stroke="#a9d8ff" stroke-width="3" opacity="0.22"/><rect x="4.6" y="4.6" width="110.8" height="158.8" rx="6" fill="none" stroke="#04070f" stroke-width="1" opacity="0.55" transform="translate(0 1.5)"/><rect x="4.6" y="4.6" width="110.8" height="158.8" rx="6" fill="none" stroke="#eef5ff" stroke-width="2.2"/><rect x="4.6" y="4.6" width="110.8" height="158.8" rx="6" fill="none" stroke="#ffffff" stroke-width="0.8" opacity="0.45" transform="translate(0 -1.1)"/><path d="M138.757080078125 0.0Q101.80429077148438 0.0 71.01029968261719 18.108154296875Q40.21630859375 36.21630859375 22.108154296875 67.01029968261719Q4.0 97.80429077148438 4.0 134.757080078125V210.73046875H124.0008544921875V138.973388671875Q124.0008544921875 131.406005859375 129.43991088867188 125.96694946289062Q134.87896728515625 120.52789306640625 142.44635009765625 120.52789306640625H584.4995727539062Q592.0669555664062 120.52789306640625 597.5060119628906 125.96694946289062Q602.945068359375 131.406005859375 602.945068359375 138.973388671875V720.0H724.0V134.757080078125Q724.0 97.80429077148438 705.6283264160156 67.01029968261719Q687.2566528320312 36.21630859375 656.6273612976074 18.108154296875Q625.9980697631836 0.0 589.242919921875 0.0Z" transform="translate(0.8 1.1) translate(12.07 49.0) scale(0.052 -0.052)" fill="#01030c" opacity="0.55"/><path d="M138.757080078125 0.0Q101.80429077148438 0.0 71.01029968261719 18.108154296875Q40.21630859375 36.21630859375 22.108154296875 67.01029968261719Q4.0 97.80429077148438 4.0 134.757080078125V210.73046875H124.0008544921875V138.973388671875Q124.0008544921875 131.406005859375 129.43991088867188 125.96694946289062Q134.87896728515625 120.52789306640625 142.44635009765625 120.52789306640625H584.4995727539062Q592.0669555664062 120.52789306640625 597.5060119628906 125.96694946289062Q602.945068359375 131.406005859375 602.945068359375 138.973388671875V720.0H724.0V134.757080078125Q724.0 97.80429077148438 705.6283264160156 67.01029968261719Q687.2566528320312 36.21630859375 656.6273612976074 18.108154296875Q625.9980697631836 0.0 589.242919921875 0.0Z" transform="translate(12.07 49.0) scale(0.052 -0.052)" fill="#eef5ff" stroke="#a9d8ff" stroke-width="8.65" stroke-linejoin="round"/><path d="M26.406 40.187c.015-1.98-1.56-2.017-1.542-.573-.133 7.257-6.31 10.83-10.8 9.982-6.92-1.307-9.128-8.13-9.06-12.148C5.204 25.046 17.774 15.9 29.114 0c8.31 14.35 22.03 25.623 22.84 36.717 1.08 14.75-17.71 20.25-20.394 3.06-.172-1.214-1.612-1.76-1.5-.063.408 4.71-.17 6.674 5.18 18.287H21.25c3.1-5.42 4.943-12.09 5.154-17.81z" transform="translate(0.8 1.1) translate(31.00 72.0) scale(0.4237) translate(-29.0 -29.5)" fill="#01030c" opacity="0.55"/><path d="M26.406 40.187c.015-1.98-1.56-2.017-1.542-.573-.133 7.257-6.31 10.83-10.8 9.982-6.92-1.307-9.128-8.13-9.06-12.148C5.204 25.046 17.774 15.9 29.114 0c8.31 14.35 22.03 25.623 22.84 36.717 1.08 14.75-17.71 20.25-20.394 3.06-.172-1.214-1.612-1.76-1.5-.063.408 4.71-.17 6.674 5.18 18.287H21.25c3.1-5.42 4.943-12.09 5.154-17.81z" transform="translate(31.00 72.0) scale(0.4237) translate(-29.0 -29.5)" fill="#eef5ff" stroke="#a9d8ff" stroke-width="1.06" stroke-linejoin="round"/><path d="M26.406 40.187c.015-1.98-1.56-2.017-1.542-.573-.133 7.257-6.31 10.83-10.8 9.982-6.92-1.307-9.128-8.13-9.06-12.148C5.204 25.046 17.774 15.9 29.114 0c8.31 14.35 22.03 25.623 22.84 36.717 1.08 14.75-17.71 20.25-20.394 3.06-.172-1.214-1.612-1.76-1.5-.063.408 4.71-.17 6.674 5.18 18.287H21.25c3.1-5.42 4.943-12.09 5.154-17.81z" transform="translate(0.8 1.1) translate(81.00 125.0) scale(0.9153) translate(-29.0 -29.5)" fill="#01030c" opacity="0.55"/><path d="M26.406 40.187c.015-1.98-1.56-2.017-1.542-.573-.133 7.257-6.31 10.83-10.8 9.982-6.92-1.307-9.128-8.13-9.06-12.148C5.204 25.046 17.774 15.9 29.114 0c8.31 14.35 22.03 25.623 22.84 36.717 1.08 14.75-17.71 20.25-20.394 3.06-.172-1.214-1.612-1.76-1.5-.063.408 4.71-.17 6.674 5.18 18.287H21.25c3.1-5.42 4.943-12.09 5.154-17.81z" transform="translate(81.00 125.0) scale(0.9153) translate(-29.0 -29.5)" fill="#eef5ff" stroke="#a9d8ff" stroke-width="0.49" stroke-linejoin="round"/></svg>