<svg xmlns="http://www.w3.org/2000/svg" viewBox="0 0 120 168"><defs><linearGradient id="g_spade" x1="0" y1="0" x2="0" y2="1"><stop offset="0" stop-color="#12234f"/><stop offset="1" stop-color="#050a1e"/></linearGradient></defs><rect x="0.75" y="0.75" width="118.5" height="166.5" rx="9" fill="url(#g_spade)" stroke="#0a1330" stroke-width="1.5"/><g><circle cx="9.6" cy="43.0" r="1.02" fill="#dff6ff" opacity="0.49"/><circle cx="72.5" cy="111.1" r="0.55" fill="#dff6ff" opacity="0.51"/><circle cx="30.9" cy="66.7" r="1.03" fill="#dff6ff" opacity="0.38"/><circle cx="108.6" cy="107.4" r="0.61" fill="#dff6ff" opacity="0.82"/><circle cx="44.5" cy="111.5" r="0.59" fill="#dff6ff" opacity="0.64"/><circle cx="64.5" cy="139.4" r="0.82" fill="#dff6ff" opacity="0.88"/><circle cx="97.3" cy="129.7" r="0.7" fill="#dff6ff" opacity="0.51"/><circle cx="22.4" cy="89.6" r="0.85" fill="#dff6ff" opacity="0.75"/><circle cx="25.6" cy="72.4" r="0.62" fill="#dff6ff" opacity="0.48"/><circle cx="65.8" cy="134.8" r="0.64" fill="#dff6ff" opacity="0.77"/><circle cx="41.5" cy="63.0" r="0.53" fill="#dff6ff" opacity="0.4"/><circle cx="94.0" cy="17.5" r="0.43" fill="#dff6ff" opacity="0.7"/><circle cx="46.4" cy="94.2" r="0.45" fill="#dff6ff" opacity="0.41"/><circle cx="104.4" cy="107.3" r="0.87" fill="#dff6ff" opacity="0.56"/></g><rect x="4.6" y="4.6" width="110.8" height="158.8" rx="6" fill="none" stroke="#a9d8ff" stroke-width="3" opacity="0.22"/><rect x="4.6" y="4.6" width="110.8" height="158.8" rx="6" fill="none" stroke="#04070f" stroke-width="1" opacity="0.55" transform="translate(0 1.5)"/><rect x="4.6" y="4.6" width="110.8" height="158.8" rx="6" fill="none" stroke="#eef5ff" stroke-width="2.2"/><rect x="4.6" y="4.6" width="110.8" height="158.8" rx="6" fill="none" stroke="#ffffff" stroke-width="0.8" opacity="0.45" transform="translate(0 -1.1)"/><path d="M58.0 0V585.242919921875Q58.0 622.1957092285156 76.108154296875 652.9897003173828Q94.21630859375 683.78369140625 125.01029968261719 701.891845703125Q155.80429077148438 720.0 192.757080078125 720.0H642.7158813476562Q679.6686706542969 720.0 710.4626617431641 701.891845703125Q741.2566528320312 683.78369140625 759.6283264160156 652.9897003173828Q778.0 622.1957092285156 778.0 585.242919921875V0H656.945068359375V246.66180419921875H178.0008544921875V0.0H58.0ZM178.0008544921875 367.189697265625H656.945068359375V581.026611328125Q656.945068359375 588.593994140625 651.5060119628906 594.0330505371094Q646.0669555664062 599.4721069335938 638.4995727539062 599.4721069335938H196.44635009765625Q188.87896728515625 599.4721069335938 183.43991088867188 594.0330505371094Q178.0008544921875 588.593994140625 178.0008544921875 581.026611328125V367.189697265625Z" transform="translate(0.8 1.1) translate(9.26 49.0) scale(0.052 -0.052)" fill="#01030c" opacity="0.55"/><path d="M58.0 0V585.242919921875Q58.0 622.1957092285156 76.108154296875 652.9897003173828Q94.21630859375 683.78369140625 125.01029968261719 701.891845703125Q155.80429077148438 720.0 192.757080078125 720.0H642.7158813476562Q679.6686706542969 720.0 710.4626617431641 701.891845703125Q741.2566528320312 683.78369140625 759.6283264160156 652.9897003173828Q778.0 622.1957092285156 778.0 585.242919921875V0H656.945068359375V246.66180419921875H178.0008544921875V0.0H58.0ZM178.0008544921875 367.189697265625H656.945068359375V581.026611328125Q656.945068359375 588.593994140625 651.5060119628906 594.0330505371094Q646.0669555664062 599.4721069335938 638.4995727539062 599.4721069335938H196.44635009765625Q188.87896728515625 599.4721069335938 183.43991088867188 594.0330505371094Q178.0008544921875 588.593994140625 178.0008544921875 581.026611328125V367.189697265625Z" transform="translate(9.26 49.0) scale(0.052 -0.052)" fill="#eef5ff" stroke="#a9d8ff" stroke-width="8.65" stroke-linejoin="round"/><path d="M26.406 40.187c.015-1.98-1.56-2.017-1.542-.573-.133 7.257-6.31 10.83-10.8 9.982-6.92-1.307-9.128-8.13-9.06-12.148C5.204 25.046 17.774 15.9 29.114 0c8.31 14.35 22.03 25.623 22.84 36.717 1.08 14.75-17.71 20.25-20.394 3.06-.172-1.214-1.612-1.76-1.5-.063.408 4.71-.17 6.674 5.18 18.287H21.25c3.1-5.42 4.943-12.09 5.154-17.81z" transform="translate(0.8 1.1) translate(31.00 72.0) scale(0.4237) translate(-29.0 -29.5)" fill="#01030c" opacity="0.55"/><path d="M26.406 40.187c.015-1.98-1.56-2.017-1.542-.573-.133 7.257-6.31 10.83-10.8 9.982-6.92-1.307-9.128-8.13-9.06-12.148C5.204 25.046 17.774 15.9 29.114 0c8.31 14.35 22.03 25.623 22.84 36.717 1.08 14.75-17.71 20.25-20.394 3.06-.172-1.214-1.612-1.76-1.5-.063.408 4.71-.17 6.674 5.18 18.287H21.25c3.1-5.42 4.943-12.09 5.154-17.81z" transform="translate(31.00 72.0) scale(0.4237) translate(-29.0 -29.5)" fill="#eef5ff" stroke="#a9d8ff" stroke-width="1.06" stroke-linejoin="round"/><path d="M26.406 40.187c.015-1.98-1.56-2.017-1.542-.573-.133 7.257-6.31 10.83-10.8 9.982-6.92-1.307-9.128-8.13-9.06-12.148C5.204 25.046 17.774 15.9 29.114 0c8.31 14.35 22.03 25.623 22.84 36.717 1.08 14.75-17.71 20.25-20.394 3.06-.172-1.214-1.612-1.76-1.5-.063.408 4.71-.17 6.674 5.18 18.287H21.25c3.1-5.42 4.943-12.09 5.154-17.81z" transform="translate(0.8 1.1) translate(81.00 125.0) scale(0.9153) translate(-29.0 -29.5)" fill="#01030c" opacity="0.55"/><path d="M26.406 40.187c.015-1.98-1.56-2.017-1.542-.573-.133 7.257-6.31 10.83-10.8 9.982-6.92-1.307-9.128-8.13-9.06-12.148C5.204 25.046 17.774 15.9 29.114 0c8.31 14.35 22.03 25.623 22.84 36.717 1.08 14.75-17.71 20.25-20.394 3.06-.172-1.214-1.612-1.76-1.5-.063.408 4.71-.17 6.674 5.18 18.287H21.25c3.1-5.42 4.943-12.09 5.154-17.81z" transform="translate(81.00 125.0) scale(0.9153) translate(-29.0 -29.5)" fill="#eef5ff" stroke="#a9d8ff" stroke-width="0.49" stroke-linejoin="round"/></svg>