<svg xmlns="http://www.w3.org/2000/svg" viewBox="0 0 120 168"><defs><linearGradient id="g_diamond" x1="0" y1="0" x2="0" y2="1"><stop offset="0" stop-color="#12234f"/><stop offset="1" stop-color="#050a1e"/></linearGradient></defs><rect x="0.75" y="0.75" width="118.5" height="166.5" rx="9" fill="url(#g_diamond)" stroke="#0a1330" stroke-width="1.5"/><g><circle cx="59.8" cy="73.2" r="0.98" fill="#dff6ff" opacity="0.79"/><circle cx="90.0" cy="67.9" r="1.07" fill="#dff6ff" opacity="0.45"/><circle cx="89.7" cy="109.4" r="0.53" fill="#dff6ff" opacity="0.87"/><circle cx="77.9" cy="20.1" r="0.93" fill="#dff6ff" opacity="0.72"/><circle cx="62.7" cy="10.8" r="0.86" fill="#dff6ff" opacity="0.88"/><circle cx="102.4" cy="53.6" r="0.87" fill="#dff6ff" opacity="0.44"/><circle cx="62.4" cy="43.6" r="0.77" fill="#dff6ff" opacity="0.44"/><circle cx="56.7" cy="67.3" r="0.59" fill="#dff6ff" opacity="0.83"/><circle cx="103.8" cy="98.3" r="0.95" fill="#dff6ff" opacity="0.69"/><circle cx="86.2" cy="46.1" r="0.59" fill="#dff6ff" opacity="0.52"/><circle cx="60.7" cy="86.4" r="1.04" fill="#dff6ff" opacity="0.79"/><circle cx="43.3" cy="65.1" r="0.89" fill="#dff6ff" opacity="0.76"/><circle cx="14.3" cy="72.5" r="0.41" fill="#dff6ff" opacity="0.73"/><circle cx="108.8" cy="35.8" r="0.8" fill="#dff6ff" opacity="0.87"/></g><rect x="4.6" y="4.6" width="110.8" height="158.8" rx="6" fill="none" stroke="#bfe6ff" stroke-width="3" opacity="0.22"/><rect x="4.6" y="4.6" width="110.8" height="158.8" rx="6" fill="none" stroke="#04070f" stroke-width="1" opacity="0.55" transform="translate(0 1.5)"/><rect x="4.6" y="4.6" width="110.8" height="158.8" rx="6" fill="none" stroke="#45b4ff" stroke-width="2.2"/><rect x="4.6" y="4.6" width="110.8" height="158.8" rx="6" fill="none" stroke="#ffffff" stroke-width="0.8" opacity="0.45" transform="translate(0 -1.1)"/><path d="M191.17596435546875 0.0Q153.75317451391328 0.0 123.48474155383164 18.344635009765625Q93.21630859375 36.68927001953125 75.108154296875 66.98916244506836Q57.0 97.28905487060547 57.0 133.64892578125V586.35107421875Q57.0 623.7738640603055 75.108154296875 654.0422970203872Q93.21630859375 684.3107299804688 123.48474155383164 702.391845703125Q153.75317451391328 720.4729614257812 191.17596435546875 720.4729614257812H656.4188842773438V600.5802612304688H194.865234375Q187.2978515625 600.5802612304688 181.85879516601562 595.1412048339844Q176.41973876953125 589.7021484375 176.41973876953125 582.134765625V448.14849853515625Q176.41973876953125 440.58111572265625 181.85879516601562 434.90557861328125Q187.2978515625 429.23004150390625 194.865234375 429.23004150390625H639.2832641601562Q675.876708984375 429.23004150390625 706.3712463378906 411.48536208580276Q736.8657836914062 393.74068266769933 755.1625061035156 363.242014917834Q773.459228515625 332.74334716796875 773.459228515625 295.58111572265625V133.64892578125Q773.459228515625 97.28905487060547 755.1145935058594 66.98916244506836Q736.7699584960938 36.68927001953125 706.3053665161133 18.344635009765625Q675.8407745361328 0.0 639.2832641601562 0.0H191.17596435546875ZM194.865234375 119.41973876953125H635.593994140625Q643.161376953125 119.41973876953125 648.6004333496094 124.85879516601562Q654.0394897460938 130.2978515625 654.0394897460938 137.865234375V290.8377685546875Q654.0394897460938 298.4051513671875 648.6004333496094 303.8442077636719Q643.161376953125 309.28326416015625 635.593994140625 309.28326416015625H176.41973876953125V137.865234375Q176.41973876953125 130.2978515625 181.85879516601562 124.85879516601562Q187.2978515625 119.41973876953125 194.865234375 119.41973876953125Z" transform="translate(0.8 1.1) translate(9.41 49.0) scale(0.052 -0.052)" fill="#01030c" opacity="0.55"/><path d="M191.17596435546875 0.0Q153.75317451391328 0.0 123.48474155383164 18.344635009765625Q93.21630859375 36.68927001953125 75.108154296875 66.98916244506836Q57.0 97.28905487060547 57.0 133.64892578125V586.35107421875Q57.0 623.7738640603055 75.108154296875 654.0422970203872Q93.21630859375 684.3107299804688 123.48474155383164 702.391845703125Q153.75317451391328 720.4729614257812 191.17596435546875 720.4729614257812H656.4188842773438V600.5802612304688H194.865234375Q187.2978515625 600.5802612304688 181.85879516601562 595.1412048339844Q176.41973876953125 589.7021484375 176.41973876953125 582.134765625V448.14849853515625Q176.41973876953125 440.58111572265625 181.85879516601562 434.90557861328125Q187.2978515625 429.23004150390625 194.865234375 429.23004150390625H639.2832641601562Q675.876708984375 429.23004150390625 706.3712463378906 411.48536208580276Q736.8657836914062 393.74068266769933 755.1625061035156 363.242014917834Q773.459228515625 332.74334716796875 773.459228515625 295.58111572265625V133.64892578125Q773.459228515625 97.28905487060547 755.1145935058594 66.98916244506836Q736.7699584960938 36.68927001953125 706.3053665161133 18.344635009765625Q675.8407745361328 0.0 639.2832641601562 0.0H191.17596435546875ZM194.865234375 119.41973876953125H635.593994140625Q643.161376953125 119.41973876953125 648.6004333496094 124.85879516601562Q654.0394897460938 130.2978515625 654.0394897460938 137.865234375V290.8377685546875Q654.0394897460938 298.4051513671875 648.6004333496094 303.8442077636719Q643.161376953125 309.28326416015625 635.593994140625 309.28326416015625H176.41973876953125V137.865234375Q176.41973876953125 130.2978515625 181.85879516601562 124.85879516601562Q187.2978515625 119.41973876953125 194.865234375 119.41973876953125Z" transform="translate(9.41 49.0) scale(0.052 -0.052)" fill="#45b4ff" stroke="#bfe6ff" stroke-width="8.65" stroke-linejoin="round"/><path d="M28.5 0l20.112 29L28.5 58 8.388 29z" transform="translate(0.8 1.1) translate(31.00 72.0) scale(0.4237) translate(-29.0 -29.5)" fill="#01030c" opacity="0.55"/><path d="M28.5 0l20.112 29L28.5 58 8.388 29z" transform="translate(31.00 72.0) scale(0.4237) translate(-29.0 -29.5)" fill="#45b4ff" stroke="#bfe6ff" stroke-width="1.06" stroke-linejoin="round"/><path d="M28.5 0l20.112 29L28.5 58 8.388 29z" transform="translate(0.8 1.1) translate(81.00 125.0) scale(0.9153) translate(-29.0 -29.5)" fill="#01030c" opacity="0.55"/><path d="M28.5 0l20.112 29L28.5 58 8.388 29z" transform="translate(81.00 125.0) scale(0.9153) translate(-29.0 -29.5)" fill="#45b4ff" stroke="#bfe6ff" stroke-width="0.49" stroke-linejoin="round"/></svg>