<svg xmlns="http://www.w3.org/2000/svg" viewBox="0 0 120 168"><defs><linearGradient id="g_club" x1="0" y1="0" x2="0" y2="1"><stop offset="0" stop-color="#12234f"/><stop offset="1" stop-color="#050a1e"/></linearGradient></defs><rect x="0.75" y="0.75" width="118.5" height="166.5" rx="9" fill="url(#g_club)" stroke="#0a1330" stroke-width="1.5"/><g><circle cx="27.4" cy="24.1" r="0.74" fill="#dff6ff" opacity="0.85"/><circle cx="82.7" cy="145.1" r="0.73" fill="#dff6ff" opacity="0.62"/><circle cx="105.9" cy="13.9" r="0.67" fill="#dff6ff" opacity="0.76"/><circle cx="17.7" cy="97.9" r="0.83" fill="#dff6ff" opacity="0.53"/><circle cx="45.4" cy="130.2" r="1.01" fill="#dff6ff" opacity="0.65"/><circle cx="23.5" cy="118.1" r="0.59" fill="#dff6ff" opacity="0.4"/><circle cx="97.7" cy="67.5" r="0.69" fill="#dff6ff" opacity="0.61"/><circle cx="39.5" cy="9.8" r="1.03" fill="#dff6ff" opacity="0.77"/><circle cx="16.8" cy="70.4" r="0.64" fill="#dff6ff" opacity="0.49"/><circle cx="38.7" cy="18.3" r="0.74" fill="#dff6ff" opacity="0.36"/><circle cx="82.5" cy="93.1" r="0.55" fill="#dff6ff" opacity="0.55"/><circle cx="29.5" cy="33.8" r="1.09" fill="#dff6ff" opacity="0.74"/><circle cx="28.1" cy="18.1" r="0.73" fill="#dff6ff" opacity="0.88"/><circle cx="88.7" cy="129.3" r="0.66" fill="#dff6ff" opacity="0.35"/></g><rect x="4.6" y="4.6" width="110.8" height="158.8" rx="6" fill="none" stroke="#bdf1d2" stroke-width="3" opacity="0.22"/><rect x="4.6" y="4.6" width="110.8" height="158.8" rx="6" fill="none" stroke="#04070f" stroke-width="1" opacity="0.55" transform="translate(0 1.5)"/><rect x="4.6" y="4.6" width="110.8" height="158.8" rx="6" fill="none" stroke="#2ec46e" stroke-width="2.2"/><rect x="4.6" y="4.6" width="110.8" height="158.8" rx="6" fill="none" stroke="#ffffff" stroke-width="0.8" opacity="0.45" transform="translate(0 -1.1)"/><path d="M470.58026123046875 0.0V182.31072998046875H6.0V298.0274658203125L474.28326416015625 720.4729614257812H590.0V302.25750732421875H693.5673828125V182.31072998046875H590.0V0ZM186.8935546875 302.25750732421875H470.58026123046875V542.0120239257812Z" transform="translate(0.8 1.1) translate(12.81 49.0) scale(0.052 -0.052)" fill="#01030c" opacity="0.55"/><path d="M470.58026123046875 0.0V182.31072998046875H6.0V298.0274658203125L474.28326416015625 720.4729614257812H590.0V302.25750732421875H693.5673828125V182.31072998046875H590.0V0ZM186.8935546875 302.25750732421875H470.58026123046875V542.0120239257812Z" transform="translate(12.81 49.0) scale(0.052 -0.052)" fill="#2ec46e" stroke="#bdf1d2" stroke-width="8.65" stroke-linejoin="round"/><path d="M20.976 57.14c2.88-5.774 4.976-11.7 5.348-18.036.342-2.33-1.074-2.37-1.288-.73C20.96 53.97-.727 49.744.02 35.08.622 23.182 12.44 20.624 18.6 24.513c2.435 1.434 2.296.575.968-.91C10.416 13.39 15.958.24 28.33 0c13.38.793 16.854 14.87 8.647 23.147-1.02.994-3.283 4.19.123 1.956 8.287-5.888 19.787.443 19.553 9.52-.434 16.74-20.84 17.987-25.203 4.007-.42-1.55-1.63-2.328-1.295.305.604 4.767 1.855 11.953 5.438 18.205H20.976z" transform="translate(0.8 1.1) translate(31.00 72.0) scale(0.4237) translate(-29.0 -29.5)" fill="#01030c" opacity="0.55"/><path d="M20.976 57.14c2.88-5.774 4.976-11.7 5.348-18.036.342-2.33-1.074-2.37-1.288-.73C20.96 53.97-.727 49.744.02 35.08.622 23.182 12.44 20.624 18.6 24.513c2.435 1.434 2.296.575.968-.91C10.416 13.39 15.958.24 28.33 0c13.38.793 16.854 14.87 8.647 23.147-1.02.994-3.283 4.19.123 1.956 8.287-5.888 19.787.443 19.553 9.52-.434 16.74-20.84 17.987-25.203 4.007-.42-1.55-1.63-2.328-1.295.305.604 4.767 1.855 11.953 5.438 18.205H20.976z" transform="translate(31.00 72.0) scale(0.4237) translate(-29.0 -29.5)" fill="#2ec46e" stroke="#bdf1d2" stroke-width="1.06" stroke-linejoin="round"/><path d="M20.976 57.14c2.88-5.774 4.976-11.7 5.348-18.036.342-2.33-1.074-2.37-1.288-.73C20.96 53.97-.727 49.744.02 35.08.622 23.182 12.44 20.624 18.6 24.513c2.435 1.434 2.296.575.968-.91C10.416 13.39 15.958.24 28.33 0c13.38.793 16.854 14.87 8.647 23.147-1.02.994-3.283 4.19.123 1.956 8.287-5.888 19.787.443 19.553 9.52-.434 16.74-20.84 17.987-25.203 4.007-.42-1.55-1.63-2.328-1.295.305.604 4.767 1.855 11.953 5.438 18.205H20.976z" transform="translate(0.8 1.1) translate(81.00 125.0) scale(0.9153) translate(-29.0 -29.5)" fill="#01030c" opacity="0.55"/><path d="M20.976 57.14c2.88-5.774 4.976-11.7 5.348-18.036.342-2.33-1.074-2.37-1.288-.73C20.96 53.97-.727 49.744.02 35.08.622 23.182 12.44 20.624 18.6 24.513c2.435 1.434 2.296.575.968-.91C10.416 13.39 15.958.24 28.33 0c13.38.793 16.854 14.87 8.647 23.147-1.02.994-3.283 4.19.123 1.956 8.287-5.888 19.787.443 19.553 9.52-.434 16.74-20.84 17.987-25.203 4.007-.42-1.55-1.63-2.328-1.295.305.604 4.767 1.855 11.953 5.438 18.205H20.976z" transform="translate(81.00 125.0) scale(0.9153) translate(-29.0 -29.5)" fill="#2ec46e" stroke="#bdf1d2" stroke-width="0.49" stroke-linejoin="round"/></svg>