<svg xmlns="http://www.w3.org/2000/svg" viewBox="0 0 120 168"><defs><linearGradient id="g_club" x1="0" y1="0" x2="0" y2="1"><stop offset="0" stop-color="#12234f"/><stop offset="1" stop-color="#050a1e"/></linearGradient></defs><rect x="0.75" y="0.75" width="118.5" height="166.5" rx="9" fill="url(#g_club)" stroke="#0a1330" stroke-width="1.5"/><g><circle cx="73.7" cy="19.7" r="0.7" fill="#dff6ff" opacity="0.62"/><circle cx="42.4" cy="135.5" r="1.0" fill="#dff6ff" opacity="0.4"/><circle cx="68.3" cy="67.6" r="0.92" fill="#dff6ff" opacity="0.45"/><circle cx="21.8" cy="140.6" r="1.09" fill="#dff6ff" opacity="0.76"/><circle cx="66.6" cy="64.2" r="0.62" fill="#dff6ff" opacity="0.59"/><circle cx="52.9" cy="135.6" r="0.8" fill="#dff6ff" opacity="0.69"/><circle cx="57.4" cy="107.0" r="0.91" fill="#dff6ff" opacity="0.74"/><circle cx="12.9" cy="113.8" r="0.57" fill="#dff6ff" opacity="0.51"/><circle cx="51.9" cy="69.0" r="0.75" fill="#dff6ff" opacity="0.39"/><circle cx="30.8" cy="50.8" r="1.02" fill="#dff6ff" opacity="0.48"/><circle cx="25.8" cy="41.1" r="1.06" fill="#dff6ff" opacity="0.68"/><circle cx="44.2" cy="65.3" r="0.75" fill="#dff6ff" opacity="0.53"/><circle cx="108.5" cy="131.5" r="0.54" fill="#dff6ff" opacity="0.45"/><circle cx="15.0" cy="130.1" r="0.46" fill="#dff6ff" opacity="0.78"/></g><rect x="4.6" y="4.6" width="110.8" height="158.8" rx="6" fill="none" stroke="#bdf1d2" stroke-width="3" opacity="0.22"/><rect x="4.6" y="4.6" width="110.8" height="158.8" rx="6" fill="none" stroke="#04070f" stroke-width="1" opacity="0.55" transform="translate(0 1.5)"/><rect x="4.6" y="4.6" width="110.8" height="158.8" rx="6" fill="none" stroke="#2ec46e" stroke-width="2.2"/><rect x="4.6" y="4.6" width="110.8" height="158.8" rx="6" fill="none" stroke="#ffffff" stroke-width="0.8" opacity="0.45" transform="translate(0 -1.1)"/><path d="M191.17596435546875 0.0Q153.75317451391328 0.0 123.48474155383164 18.344635009765625Q93.21630859375 36.68927001953125 75.108154296875 66.98916244506836Q57.0 97.28905487060547 57.0 133.64892578125V586.35107421875Q57.0 623.7738640603055 75.108154296875 654.0422970203872Q93.21630859375 684.3107299804688 123.48474155383164 702.391845703125Q153.75317451391328 720.4729614257812 191.17596435546875 720.4729614257812H656.4188842773438V600.5802612304688H194.865234375Q187.2978515625 600.5802612304688 181.85879516601562 595.1412048339844Q176.41973876953125 589.7021484375 176.41973876953125 582.134765625V448.14849853515625Q176.41973876953125 440.58111572265625 181.85879516601562 434.90557861328125Q187.2978515625 429.23004150390625 194.865234375 429.23004150390625H639.2832641601562Q675.876708984375 429.23004150390625 706.3712463378906 411.48536208580276Q736.8657836914062 393.74068266769933 755.1625061035156 363.242014917834Q773.459228515625 332.74334716796875 773.459228515625 295.58111572265625V133.64892578125Q773.459228515625 97.28905487060547 755.1145935058594 66.98916244506836Q736.7699584960938 36.68927001953125 706.3053665161133 18.344635009765625Q675.8407745361328 0.0 639.2832641601562 0.0H191.17596435546875ZM194.865234375 119.41973876953125H635.593994140625Q643.161376953125 119.41973876953125 648.6004333496094 124.85879516601562Q654.0394897460938 130.2978515625 654.0394897460938 137.865234375V290.8377685546875Q654.0394897460938 298.4051513671875 648.6004333496094 303.8442077636719Q643.161376953125 309.28326416015625 635.593994140625 309.28326416015625H176.41973876953125V137.865234375Q176.41973876953125 130.2978515625 181.85879516601562 124.85879516601562Q187.2978515625 119.41973876953125 194.865234375 119.41973876953125Z" transform="translate(0.8 1.1) translate(9.41 49.0) scale(0.052 -0.052)" fill="#01030c" opacity="0.55"/><path d="M191.17596435546875 0.0Q153.75317451391328 0.0 123.48474155383164 18.344635009765625Q93.21630859375 36.68927001953125 75.108154296875 66.98916244506836Q57.0 97.28905487060547 57.0 133.64892578125V586.35107421875Q57.0 623.7738640603055 75.108154296875 654.0422970203872Q93.21630859375 684.3107299804688 123.48474155383164 702.391845703125Q153.75317451391328 720.4729614257812 191.17596435546875 720.4729614257812H656.4188842773438V600.5802612304688H194.865234375Q187.2978515625 600.5802612304688 181.85879516601562 595.1412048339844Q176.41973876953125 589.7021484375 176.41973876953125 582.134765625V448.14849853515625Q176.41973876953125 440.58111572265625 181.85879516601562 434.90557861328125Q187.2978515625 429.23004150390625 194.865234375 429.23004150390625H639.2832641601562Q675.876708984375 429.23004150390625 706.3712463378906 411.48536208580276Q736.8657836914062 393.74068266769933 755.1625061035156 363.242014917834Q773.459228515625 332.74334716796875 773.459228515625 295.58111572265625V133.64892578125Q773.459228515625 97.28905487060547 755.1145935058594 66.98916244506836Q736.7699584960938 36.68927001953125 706.3053665161133 18.344635009765625Q675.8407745361328 0.0 639.2832641601562 0.0H191.17596435546875ZM194.865234375 119.41973876953125H635.593994140625Q643.161376953125 119.41973876953125 648.6004333496094 124.85879516601562Q654.0394897460938 130.2978515625 654.0394897460938 137.865234375V290.8377685546875Q654.0394897460938 298.4051513671875 648.6004333496094 303.8442077636719Q643.161376953125 309.28326416015625 635.593994140625 309.28326416015625H176.41973876953125V137.865234375Q176.41973876953125 130.2978515625 181.85879516601562 124.85879516601562Q187.2978515625 119.41973876953125 194.865234375 119.41973876953125Z" transform="translate(9.41 49.0) scale(0.052 -0.052)" fill="#2ec46e" stroke="#bdf1d2" stroke-width="8.65" stroke-linejoin="round"/><path d="M20.976 57.14c2.88-5.774 4.976-11.7 5.348-18.036.342-2.33-1.074-2.37-1.288-.73C20.96 53.97-.727 49.744.02 35.08.622 23.182 12.44 20.624 18.6 24.513c2.435 1.434 2.296.575.968-.91C10.416 13.39 15.958.24 28.33 0c13.38.793 16.854 14.87 8.647 23.147-1.02.994-3.283 4.19.123 1.956 8.287-5.888 19.787.443 19.553 9.52-.434 16.74-20.84 17.987-25.203 4.007-.42-1.55-1.63-2.328-1.295.305.604 4.767 1.855 11.953 5.438 18.205H20.976z" transform="translate(0.8 1.1) translate(31.00 72.0) scale(0.4237) translate(-29.0 -29.5)" fill="#01030c" opacity="0.55"/><path d="M20.976 57.14c2.88-5.774 4.976-11.7 5.348-18.036.342-2.33-1.074-2.37-1.288-.73C20.96 53.97-.727 49.744.02 35.08.622 23.182 12.44 20.624 18.6 24.513c2.435 1.434 2.296.575.968-.91C10.416 13.39 15.958.24 28.33 0c13.38.793 16.854 14.87 8.647 23.147-1.02.994-3.283 4.19.123 1.956 8.287-5.888 19.787.443 19.553 9.52-.434 16.74-20.84 17.987-25.203 4.007-.42-1.55-1.63-2.328-1.295.305.604 4.767 1.855 11.953 5.438 18.205H20.976z" transform="translate(31.00 72.0) scale(0.4237) translate(-29.0 -29.5)" fill="#2ec46e" stroke="#bdf1d2" stroke-width="1.06" stroke-linejoin="round"/><path d="M20.976 57.14c2.88-5.774 4.976-11.7 5.348-18.036.342-2.33-1.074-2.37-1.288-.73C20.96 53.97-.727 49.744.02 35.08.622 23.182 12.44 20.624 18.6 24.513c2.435 1.434 2.296.575.968-.91C10.416 13.39 15.958.24 28.33 0c13.38.793 16.854 14.87 8.647 23.147-1.02.994-3.283 4.19.123 1.956 8.287-5.888 19.787.443 19.553 9.52-.434 16.74-20.84 17.987-25.203 4.007-.42-1.55-1.63-2.328-1.295.305.604 4.767 1.855 11.953 5.438 18.205H20.976z" transform="translate(0.8 1.1) translate(81.00 125.0) scale(0.9153) translate(-29.0 -29.5)" fill="#01030c" opacity="0.55"/><path d="M20.976 57.14c2.88-5.774 4.976-11.7 5.348-18.036.342-2.33-1.074-2.37-1.288-.73C20.96 53.97-.727 49.744.02 35.08.622 23.182 12.44 20.624 18.6 24.513c2.435 1.434 2.296.575.968-.91C10.416 13.39 15.958.24 28.33 0c13.38.793 16.854 14.87 8.647 23.147-1.02.994-3.283 4.19.123 1.956 8.287-5.888 19.787.443 19.553 9.52-.434 16.74-20.84 17.987-25.203 4.007-.42-1.55-1.63-2.328-1.295.305.604 4.767 1.855 11.953 5.438 18.205H20.976z" transform="translate(81.00 125.0) scale(0.9153) translate(-29.0 -29.5)" fill="#2ec46e" stroke="#bdf1d2" stroke-width="0.49" stroke-linejoin="round"/></svg>