<svg xmlns="http://www.w3.org/2000/svg" viewBox="0 0 120 168"><defs><linearGradient id="g_club" x1="0" y1="0" x2="0" y2="1"><stop offset="0" stop-color="#12234f"/><stop offset="1" stop-color="#050a1e"/></linearGradient></defs><rect x="0.75" y="0.75" width="118.5" height="166.5" rx="9" fill="url(#g_club)" stroke="#0a1330" stroke-width="1.5"/><g><circle cx="63.7" cy="82.3" r="0.75" fill="#dff6ff" opacity="0.74"/><circle cx="108.0" cy="155.1" r="0.76" fill="#dff6ff" opacity="0.69"/><circle cx="9.3" cy="35.7" r="0.61" fill="#dff6ff" opacity="0.42"/><circle cx="94.5" cy="141.5" r="1.03" fill="#dff6ff" opacity="0.41"/><circle cx="59.7" cy="88.7" r="0.71" fill="#dff6ff" opacity="0.37"/><circle cx="10.0" cy="113.0" r="0.58" fill="#dff6ff" opacity="0.43"/><circle cx="69.6" cy="133.8" r="0.59" fill="#dff6ff" opacity="0.6"/><circle cx="18.5" cy="90.7" r="0.63" fill="#dff6ff" opacity="0.85"/><circle cx="88.2" cy="11.2" r="0.61" fill="#dff6ff" opacity="0.65"/><circle cx="77.6" cy="127.7" r="0.76" fill="#dff6ff" opacity="0.52"/><circle cx="79.2" cy="51.0" r="0.69" fill="#dff6ff" opacity="0.54"/><circle cx="61.1" cy="110.6" r="0.69" fill="#dff6ff" opacity="0.76"/><circle cx="101.7" cy="145.6" r="0.63" fill="#dff6ff" opacity="0.46"/><circle cx="29.9" cy="29.1" r="0.44" fill="#dff6ff" opacity="0.86"/></g><rect x="4.6" y="4.6" width="110.8" height="158.8" rx="6" fill="none" stroke="#bdf1d2" stroke-width="3" opacity="0.22"/><rect x="4.6" y="4.6" width="110.8" height="158.8" rx="6" fill="none" stroke="#04070f" stroke-width="1" opacity="0.55" transform="translate(0 1.5)"/><rect x="4.6" y="4.6" width="110.8" height="158.8" rx="6" fill="none" stroke="#2ec46e" stroke-width="2.2"/><rect x="4.6" y="4.6" width="110.8" height="158.8" rx="6" fill="none" stroke="#ffffff" stroke-width="0.8" opacity="0.45" transform="translate(0 -1.1)"/><path d="M57.0 0V720H178.0008544921875V420.50042724609375H362.04034423828125L613.1751098632812 720.0H747.7433471679688V691.0669555664062L469.93304443359375 360.0L748.21630859375 28.93304443359375V0.0H613.1751098632812L362.04034423828125 299.49957275390625H178.0008544921875V0.0Z" transform="translate(0.8 1.1) translate(10.06 49.0) scale(0.052 -0.052)" fill="#01030c" opacity="0.55"/><path d="M57.0 0V720H178.0008544921875V420.50042724609375H362.04034423828125L613.1751098632812 720.0H747.7433471679688V691.0669555664062L469.93304443359375 360.0L748.21630859375 28.93304443359375V0.0H613.1751098632812L362.04034423828125 299.49957275390625H178.0008544921875V0.0Z" transform="translate(10.06 49.0) scale(0.052 -0.052)" fill="#2ec46e" stroke="#bdf1d2" stroke-width="8.65" stroke-linejoin="round"/><path d="M20.976 57.14c2.88-5.774 4.976-11.7 5.348-18.036.342-2.33-1.074-2.37-1.288-.73C20.96 53.97-.727 49.744.02 35.08.622 23.182 12.44 20.624 18.6 24.513c2.435 1.434 2.296.575.968-.91C10.416 13.39 15.958.24 28.33 0c13.38.793 16.854 14.87 8.647 23.147-1.02.994-3.283 4.19.123 1.956 8.287-5.888 19.787.443 19.553 9.52-.434 16.74-20.84 17.987-25.203 4.007-.42-1.55-1.63-2.328-1.295.305.604 4.767 1.855 11.953 5.438 18.205H20.976z" transform="translate(0.8 1.1) translate(31.00 72.0) scale(0.4237) translate(-29.0 -29.5)" fill="#01030c" opacity="0.55"/><path d="M20.976 57.14c2.88-5.774 4.976-11.7 5.348-18.036.342-2.33-1.074-2.37-1.288-.73C20.96 53.97-.727 49.744.02 35.08.622 23.182 12.44 20.624 18.6 24.513c2.435 1.434 2.296.575.968-.91C10.416 13.39 15.958.24 28.33 0c13.38.793 16.854 14.87 8.647 23.147-1.02.994-3.283 4.19.123 1.956 8.287-5.888 19.787.443 19.553 9.52-.434 16.74-20.84 17.987-25.203 4.007-.42-1.55-1.63-2.328-1.295.305.604 4.767 1.855 11.953 5.438 18.205H20.976z" transform="translate(31.00 72.0) scale(0.4237) translate(-29.0 -29.5)" fill="#2ec46e" stroke="#bdf1d2" stroke-width="1.06" stroke-linejoin="round"/><path d="M20.976 57.14c2.88-5.774 4.976-11.7 5.348-18.036.342-2.33-1.074-2.37-1.288-.73C20.96 53.97-.727 49.744.02 35.08.622 23.182 12.44 20.624 18.6 24.513c2.435 1.434 2.296.575.968-.91C10.416 13.39 15.958.24 28.33 0c13.38.793 16.854 14.87 8.647 23.147-1.02.994-3.283 4.19.123 1.956 8.287-5.888 19.787.443 19.553 9.52-.434 16.74-20.84 17.987-25.203 4.007-.42-1.55-1.63-2.328-1.295.305.604 4.767 1.855 11.953 5.438 18.205H20.976z" transform="translate(0.8 1.1) translate(81.00 125.0) scale(0.9153) translate(-29.0 -29.5)" fill="#01030c" opacity="0.55"/><path d="M20.976 57.14c2.88-5.774 4.976-11.7 5.348-18.036.342-2.33-1.074-2.37-1.288-.73C20.96 53.97-.727 49.744.02 35.08.622 23.182 12.44 20.624 18.6 24.513c2.435 1.434 2.296.575.968-.91C10.416 13.39 15.958.24 28.33 0c13.38.793 16.854 14.87 8.647 23.147-1.02.994-3.283 4.19.123 1.956 8.287-5.888 19.787.443 19.553 9.52-.434 16.74-20.84 17.987-25.203 4.007-.42-1.55-1.63-2.328-1.295.305.604 4.767 1.855 11.953 5.438 18.205H20.976z" transform="translate(81.00 125.0) scale(0.9153) translate(-29.0 -29.5)" fill="#2ec46e" stroke="#bdf1d2" stroke-width="0.49" stroke-linejoin="round"/></svg>