<svg xmlns="http://www.w3.org/2000/svg" viewBox="0 0 120 168"><defs><linearGradient id="g_diamond" x1="0" y1="0" x2="0" y2="1"><stop offset="0" stop-color="#12234f"/><stop offset="1" stop-color="#050a1e"/></linearGradient></defs><rect x="0.75" y="0.75" width="118.5" height="166.5" rx="9" fill="url(#g_diamond)" stroke="#0a1330" stroke-width="1.5"/><g><circle cx="28.5" cy="92.9" r="0.48" fill="#dff6ff" opacity="0.51"/><circle cx="77.5" cy="79.9" r="0.83" fill="#dff6ff" opacity="0.42"/><circle cx="21.5" cy="89.2" r="0.87" fill="#dff6ff" opacity="0.73"/><circle cx="27.1" cy="103.1" r="0.7" fill="#dff6ff" opacity="0.74"/><circle cx="83.2" cy="17.0" r="1.07" fill="#dff6ff" opacity="0.54"/><circle cx="88.4" cy="106.0" r="0.84" fill="#dff6ff" opacity="0.68"/><circle cx="109.5" cy="44.7" r="0.47" fill="#dff6ff" opacity="0.64"/><circle cx="108.3" cy="36.6" r="0.46" fill="#dff6ff" opacity="0.81"/><circle cx="54.0" cy="122.6" r="0.44" fill="#dff6ff" opacity="0.44"/><circle cx="15.9" cy="56.3" r="0.99" fill="#dff6ff" opacity="0.84"/><circle cx="40.7" cy="25.2" r="0.64" fill="#dff6ff" opacity="0.61"/><circle cx="17.7" cy="93.9" r="0.43" fill="#dff6ff" opacity="0.48"/><circle cx="49.8" cy="118.1" r="0.63" fill="#dff6ff" opacity="0.59"/><circle cx="99.8" cy="78.0" r="0.88" fill="#dff6ff" opacity="0.61"/></g><rect x="4.6" y="4.6" width="110.8" height="158.8" rx="6" fill="none" stroke="#bfe6ff" stroke-width="3" opacity="0.22"/><rect x="4.6" y="4.6" width="110.8" height="158.8" rx="6" fill="none" stroke="#04070f" stroke-width="1" opacity="0.55" transform="translate(0 1.5)"/><rect x="4.6" y="4.6" width="110.8" height="158.8" rx="6" fill="none" stroke="#45b4ff" stroke-width="2.2"/><rect x="4.6" y="4.6" width="110.8" height="158.8" rx="6" fill="none" stroke="#ffffff" stroke-width="0.8" opacity="0.45" transform="translate(0 -1.1)"/><path d="M138.757080078125 0.0Q101.80429077148438 0.0 71.01029968261719 18.108154296875Q40.21630859375 36.21630859375 22.108154296875 67.01029968261719Q4.0 97.80429077148438 4.0 134.757080078125V210.73046875H124.0008544921875V138.973388671875Q124.0008544921875 131.406005859375 129.43991088867188 125.96694946289062Q134.87896728515625 120.52789306640625 142.44635009765625 120.52789306640625H584.4995727539062Q592.0669555664062 120.52789306640625 597.5060119628906 125.96694946289062Q602.945068359375 131.406005859375 602.945068359375 138.973388671875V720.0H724.0V134.757080078125Q724.0 97.80429077148438 705.6283264160156 67.01029968261719Q687.2566528320312 36.21630859375 656.6273612976074 18.108154296875Q625.9980697631836 0.0 589.242919921875 0.0Z" transform="translate(0.8 1.1) translate(12.07 49.0) scale(0.052 -0.052)" fill="#01030c" opacity="0.55"/><path d="M138.757080078125 0.0Q101.80429077148438 0.0 71.01029968261719 18.108154296875Q40.21630859375 36.21630859375 22.108154296875 67.01029968261719Q4.0 97.80429077148438 4.0 134.757080078125V210.73046875H124.0008544921875V138.973388671875Q124.0008544921875 131.406005859375 129.43991088867188 125.96694946289062Q134.87896728515625 120.52789306640625 142.44635009765625 120.52789306640625H584.4995727539062Q592.0669555664062 120.52789306640625 597.5060119628906 125.96694946289062Q602.945068359375 131.406005859375 602.945068359375 138.973388671875V720.0H724.0V134.757080078125Q724.0 97.80429077148438 705.6283264160156 67.01029968261719Q687.2566528320312 36.21630859375 656.6273612976074 18.108154296875Q625.9980697631836 0.0 589.242919921875 0.0Z" transform="translate(12.07 49.0) scale(0.052 -0.052)" fill="#45b4ff" stroke="#bfe6ff" stroke-width="8.65" stroke-linejoin="round"/><path d="M28.5 0l20.112 29L28.5 58 8.388 29z" transform="translate(0.8 1.1) translate(31.00 72.0) scale(0.4237) translate(-29.0 -29.5)" fill="#01030c" opacity="0.55"/><path d="M28.5 0l20.112 29L28.5 58 8.388 29z" transform="translate(31.00 72.0) scale(0.4237) translate(-29.0 -29.5)" fill="#45b4ff" stroke="#bfe6ff" stroke-width="1.06" stroke-linejoin="round"/><path d="M28.5 0l20.112 29L28.5 58 8.388 29z" transform="translate(0.8 1.1) translate(81.00 125.0) scale(0.9153) translate(-29.0 -29.5)" fill="#01030c" opacity="0.55"/><path d="M28.5 0l20.112 29L28.5 58 8.388 29z" transform="translate(81.00 125.0) scale(0.9153) translate(-29.0 -29.5)" fill="#45b4ff" stroke="#bfe6ff" stroke-width="0.49" stroke-linejoin="round"/></svg>