<svg xmlns="http://www.w3.org/2000/svg" width="64" height="64" viewBox="0 0 32 32"><defs><radialGradient id="g" cx="37%" cy="30%" r="80%"><stop offset="0" stop-color="#fff" stop-opacity="0.22"/><stop offset="0.5" stop-color="#fff" stop-opacity="0.04"/><stop offset="1" stop-color="#000" stop-opacity="0.12"/></radialGradient></defs><circle cx="16" cy="16" r="15.5" fill="#6d0c0c"/><circle cx="16" cy="16" r="13" fill="#b71c1c"/><rect x="13" y="0.5" width="6" height="7" rx="2" fill="#ffffff" transform="rotate(0 16 16)" opacity="0.9"/><rect x="13" y="0.5" width="6" height="7" rx="2" fill="#ffffff" transform="rotate(45 16 16)" opacity="0.9"/><rect x="13" y="0.5" width="6" height="7" rx="2" fill="#ffffff" transform="rotate(90 16 16)" opacity="0.9"/><rect x="13" y="0.5" width="6" height="7" rx="2" fill="#ffffff" transform="rotate(135 16 16)" opacity="0.9"/><rect x="13" y="0.5" width="6" height="7" rx="2" fill="#ffffff" transform="rotate(180 16 16)" opacity="0.9"/><rect x="13" y="0.5" width="6" height="7" rx="2" fill="#ffffff" transform="rotate(225 16 16)" opacity="0.9"/><rect x="13" y="0.5" width="6" height="7" rx="2" fill="#ffffff" transform="rotate(270 16 16)" opacity="0.9"/><rect x="13" y="0.5" width="6" height="7" rx="2" fill="#ffffff" transform="rotate(315 16 16)" opacity="0.9"/><circle cx="16" cy="16" r="9" fill="#b71c1c" stroke="rgba(255,255,255,0.7)" stroke-width="1.5"/><text x="16" y="16.6" text-anchor="middle" dominant-baseline="central" fill="#ffffff" font-size="7" font-weight="900" font-family="Arial Black,Arial,sans-serif">BB</text><circle cx="16" cy="16" r="15.5" fill="url(#g)"/></svg>